<?xml version="1.0" encoding="UTF-8"?>
<svg xmlns="http://www.w3.org/2000/svg" xmlns:xlink="http://www.w3.org/1999/xlink" width="410pt" height="410pt" viewBox="0 0 410 410" version="1.1">
<g id="surface1">
<path style=" stroke:none;fill-rule:nonzero;fill:rgb(0%,0%,0%);fill-opacity:1;" d="M 319.433594 0 L 91.269531 0 C 40.957031 0 0 40.933594 0 91.269531 L 0 319.433594 C 0 369.777344 40.957031 410.707031 91.269531 410.707031 L 319.433594 410.707031 C 369.75 410.707031 410.707031 369.777344 410.707031 319.433594 L 410.707031 91.269531 C 410.707031 40.933594 369.75 0 319.433594 0 M 365.070312 342.257812 C 365.070312 354.804688 354.804688 365.070312 342.257812 365.070312 L 68.453125 365.070312 C 55.90625 365.070312 45.636719 354.804688 45.636719 342.257812 L 45.636719 68.453125 C 45.636719 55.90625 55.90625 45.636719 68.453125 45.636719 L 342.265625 45.636719 C 354.8125 45.636719 365.078125 55.90625 365.078125 68.453125 L 365.078125 342.257812 Z M 365.070312 342.257812 "/>
<path style=" stroke:none;fill-rule:nonzero;fill:rgb(0%,0%,0%);fill-opacity:1;" d="M 171.996094 315.324219 C 167.484375 315.324219 163.574219 313.675781 160.265625 310.378906 L 66.984375 217.085938 C 63.679688 213.78125 62.03125 209.878906 62.03125 205.359375 C 62.03125 200.839844 63.679688 196.9375 66.984375 193.632812 L 93.566406 167.058594 C 96.863281 163.753906 100.773438 162.105469 105.292969 162.105469 C 109.8125 162.105469 113.722656 163.753906 117.019531 167.058594 L 172.003906 222.050781 L 293.707031 100.347656 C 297.011719 97.042969 300.921875 95.394531 305.433594 95.394531 C 309.941406 95.394531 313.855469 97.042969 317.160156 100.347656 L 343.734375 126.929688 C 347.039062 130.226562 348.679688 134.136719 348.679688 138.65625 C 348.679688 143.175781 347.039062 147.085938 343.734375 150.394531 L 183.730469 310.378906 C 180.425781 313.675781 176.523438 315.324219 171.996094 315.324219 Z M 171.996094 315.324219 "/>
</g>
</svg>
