<?xml version="1.0" encoding="utf-8"?>
<!-- Generator: Adobe Illustrator 16.0.0, SVG Export Plug-In . SVG Version: 6.00 Build 0)  -->
<!DOCTYPE svg PUBLIC "-//W3C//DTD SVG 1.1//EN" "http://www.w3.org/Graphics/SVG/1.1/DTD/svg11.dtd">
<svg version="1.1" id="Layer_1" xmlns="http://www.w3.org/2000/svg" xmlns:xlink="http://www.w3.org/1999/xlink" x="0px" y="0px"
	 width="48px" height="48px" viewBox="0 0 48 48" enable-background="new 0 0 48 48" xml:space="preserve">
<path id="g4443" transform="translate(221,26.166502)" d="M-179.061,21.853h-35.771c-4.1,0-6.179-0.976-6.179-2.9V-23.38
	c0-1.923,2.079-2.898,6.179-2.898h35.771c4.1,0,6.178,0.975,6.178,2.898v42.333C-172.883,20.877-174.961,21.853-179.061,21.853z
	 M-217.16,17.816c0.524,0.098,1.317,0.188,2.328,0.188h35.771c1.011,0,1.804-0.09,2.328-0.188v-31.382c-0.674,0-39.424,0-40.427,0
	V17.816z M-188.269,18.003h-1.926v-6.668h-13.432v6.668h-1.925v-6.668h-11.608V9.41h11.608V3.635h-11.608V1.709h11.608v-5.777
	h-11.608v-1.925h11.608l-0.011-7.574h1.936v7.574h13.432v-7.574h1.926v7.574h11.536v1.925h-11.536v5.777h11.536v1.926h-11.536V9.41
	h11.536v1.926h-11.536V18.003z M-203.626,9.41h13.432V3.635h-13.432V9.41z M-203.626,1.709h13.432v-5.777h-13.432V1.709z"/>
</svg>
