<?xml version="1.0" encoding="utf-8"?>
<!-- Generator: Adobe Illustrator 15.0.0, SVG Export Plug-In . SVG Version: 6.00 Build 0)  -->
<!DOCTYPE svg PUBLIC "-//W3C//DTD SVG 1.1//EN" "http://www.w3.org/Graphics/SVG/1.1/DTD/svg11.dtd">
<svg version="1.1" id="Layer_1" xmlns="http://www.w3.org/2000/svg" xmlns:xlink="http://www.w3.org/1999/xlink" x="0px" y="0px"
	 width="48px" height="48px" viewBox="0 0 48 48" enable-background="new 0 0 48 48" xml:space="preserve">
<path d="M0,10.131v27.862c0,5.586,4.544,10.132,10.131,10.132h27.862c5.588,0,10.132-4.546,10.132-10.132V10.131
	C48.125,4.546,43.581,0,37.993,0H10.131C4.544,0,0,4.546,0,10.131 M40.526,5.066c1.393,0,2.533,1.14,2.533,2.533v32.928
	c0,1.393-1.141,2.533-2.533,2.533H7.599c-1.393,0-2.533-1.141-2.533-2.533V7.599c0-1.393,1.14-2.533,2.533-2.533H40.526z
	 M17.73,13.931c0-1.393,1.459-1.856,2.581-1.034l13.423,9.667c1.117,0.822,1.256,2.172,0.133,2.998l-13.624,9.666
	c-1.12,0.821-2.513,0.359-2.513-1.033V13.931z"/>
</svg>
