<?xml version="1.0" encoding="utf-8"?>
<!-- Generator: Adobe Illustrator 16.0.0, SVG Export Plug-In . SVG Version: 6.00 Build 0)  -->
<!DOCTYPE svg PUBLIC "-//W3C//DTD SVG 1.1//EN" "http://www.w3.org/Graphics/SVG/1.1/DTD/svg11.dtd">
<svg version="1.1" id="Layer_1" xmlns="http://www.w3.org/2000/svg" xmlns:xlink="http://www.w3.org/1999/xlink" x="0px" y="0px"
	 width="48px" height="48px" viewBox="0 0 48 48" enable-background="new 0 0 48 48" xml:space="preserve">
<path id="path4478" d="
	M23.906,0C10.703,0,0,10.719,0,23.938c0,13.224,10.703,23.936,23.906,23.936c13.204,0,23.906-10.712,23.906-23.936
	C47.812,10.719,37.11,0,23.906,0z M20.154,9.618c1.023,0.075,0.96-1.836,3.948-2.286c-0.483-0.992,6.842,2.101,6.917,1.765
	c0.181-0.815-0.816-2.184,0.357-2.274c1.026-0.079,3.652-1.404,5.199-1.436l0,0c0.225-0.003,0.371,0.003,0.541,0.062
	c1.354,0.441,3.168,2.226,5.436,5.207c2.269,2.979,4.569,7.185,3.229,12.386c-1.341,5.203-7.821,3.512-8.726,2.333
	c-0.904-1.174-0.464-4.607-2.271-4.607s-1.337,4.34-2.511,4.25s-3.64-2.814-4.543-2.633c-0.904,0.181-1.504,1.549-0.417,2.454
	c1.084,0.906,1.425,0.418,2.688,0.599c1.268,0.184,2.102,2.928,0.838,3.47c-1.315,2.311-1.504,5.351-2.988,7.36
	c-0.494,0.928-1.702,2.741-2.092,3.052c-0.903,0.729-2.748,1.616-2.748,1.616s-1.578,0.734-2.572-0.895
	c-0.993-1.631,1.058-7.497-0.3-9.218c-1.357-1.72-3.031-3.322-6.966-3.968c0.106-1.309-0.987-2.052-0.864-3.213
	c0.204-0.907,1.194-3.316,1.674-3.411c1.808-0.363,6.357-2.167,7.17-0.719c0.814,1.448,4.123,3.482,4.482,2.215
	c0.364-1.268,1.835-4.126,0.48-4.488c-1.357-0.363-5.042-2.73-5.856-1.916c-0.813,0.814-1.251,2.69-3.705,2.693
	c-1.941,0.003-2.574-0.586-2.211-2.035c0.36-1.447-0.593-2.487,1.304-2.487c1.898,0,3.295-0.044,3.295-1.223 M19.147,9.108
	c0.08,0.278-0.187,0.304-0.804,0.247c-0.674-1.386-0.066-1.937,0.537-2.194c0.407-0.173,0.443,0.461,0.244,0.92 M9.932,22.378
	c0.39-0.189,1.208-0.202,1.55,0.167c-0.086,0.457-0.413,0.244-0.803,0.606c-1.154-0.651-0.934-0.458-0.747-0.775V22.378z
	 M29.763,36.147c-0.391-0.544,0.454-1.172,0.517-1.015C30.477,35.167,30.087,36.345,29.763,36.147z"/>
</svg>
