<?xml version="1.0" encoding="utf-8"?>
<!-- Generator: Adobe Illustrator 15.0.0, SVG Export Plug-In . SVG Version: 6.00 Build 0)  -->
<!DOCTYPE svg PUBLIC "-//W3C//DTD SVG 1.1//EN" "http://www.w3.org/Graphics/SVG/1.1/DTD/svg11.dtd">
<svg version="1.1" id="Layer_1" xmlns="http://www.w3.org/2000/svg" xmlns:xlink="http://www.w3.org/1999/xlink" x="0px" y="0px"
	 width="48px" height="48px" viewBox="0 0 48 48" enable-background="new 0 0 48 48" xml:space="preserve">
<path d="M44.444,44.444V18.667c0-0.489-0.399-0.889-0.889-0.889h-7.111c-0.489,0-0.889,0.4-0.889,0.889v25.778h-1.778V6.222
	c0-0.488-0.398-0.889-0.889-0.889h-7.111c-0.488,0-0.889,0.4-0.889,0.889v38.223h-1.777V25.777c0-0.488-0.4-0.889-0.889-0.889
	h-7.111c-0.489,0-0.889,0.4-0.889,0.889v18.667h-1.778v-8c0-0.49-0.4-0.889-0.889-0.889H4.444c-0.489,0-0.889,0.398-0.889,0.889
	v0.889v7.111H0V48h48v-1.778v-1.777H44.444z"/>
</svg>
