<?xml version="1.0" encoding="UTF-8" standalone="no"?>
<!-- Generator: Adobe Illustrator 15.0.0, SVG Export Plug-In . SVG Version: 6.00 Build 0)  -->

<svg
   xmlns:dc="http://purl.org/dc/elements/1.1/"
   xmlns:cc="http://creativecommons.org/ns#"
   xmlns:rdf="http://www.w3.org/1999/02/22-rdf-syntax-ns#"
   xmlns:svg="http://www.w3.org/2000/svg"
   xmlns="http://www.w3.org/2000/svg"
   xmlns:sodipodi="http://sodipodi.sourceforge.net/DTD/sodipodi-0.dtd"
   xmlns:inkscape="http://www.inkscape.org/namespaces/inkscape"
   version="1.1"
   id="Layer_1"
   x="0px"
   y="0px"
   width="48px"
   height="48px"
   viewBox="0 0 48 48"
   enable-background="new 0 0 48 48"
   xml:space="preserve"
   inkscape:version="0.48.2 r9819"
   sodipodi:docname="modif_comma.svg"><metadata
   id="metadata23"><rdf:RDF><cc:Work
       rdf:about=""><dc:format>image/svg+xml</dc:format><dc:type
         rdf:resource="http://purl.org/dc/dcmitype/StillImage" /><dc:title /></cc:Work></rdf:RDF></metadata><defs
   id="defs21" /><sodipodi:namedview
   pagecolor="#ffffff"
   bordercolor="#666666"
   borderopacity="1"
   objecttolerance="10"
   gridtolerance="10"
   guidetolerance="10"
   inkscape:pageopacity="0"
   inkscape:pageshadow="2"
   inkscape:window-width="1920"
   inkscape:window-height="1020"
   id="namedview19"
   showgrid="false"
   inkscape:zoom="1.2291667"
   inkscape:cx="67.780655"
   inkscape:cy="76.901215"
   inkscape:window-x="-4"
   inkscape:window-y="-4"
   inkscape:window-maximized="1"
   inkscape:current-layer="Layer_1" />

<path
   style="color:#000000;fill:#003366;fill-opacity:1;stroke:none;stroke-width:2.72154117000000010;marker:none;visibility:visible;display:inline;overflow:visible;enable-background:accumulate"
   d="M 3.28125 11.71875 C 1.4705832 11.71875 5.3487307e-018 12.054883 0 12.46875 L 0 16.40625 L 0 44.4375 L 0 45 C 0 45.413867 1.4705832 45.75 3.28125 45.75 L 30.75 45.75 C 31.696554 45.75 32.525831 45.646804 33.125 45.5 C 33.537775 45.442654 33.852605 45.328049 33.96875 45.15625 C 34.012498 45.10745 34.03125 45.051733 34.03125 45 L 34.03125 32.65625 C 33.117305 32.828081 32.22832 32.933634 31.375 32.96875 L 31.375 36.46875 L 23.4375 36.46875 L 23.4375 32 L 24.1875 32 C 24.446445 32 24.65625 31.692788 24.65625 31.3125 C 24.65625 30.932212 24.446445 30.625 24.1875 30.625 L 23.4375 30.625 L 23.4375 26.09375 C 23.598778 25.989819 23.71875 25.722716 23.71875 25.4375 C 23.71875 25.152284 23.598778 24.916431 23.4375 24.8125 L 23.4375 19.84375 L 29.65625 19.84375 C 30.31397 19.84375 30.88239 19.875215 31.375 19.9375 L 31.375 23.65625 C 32.347859 23.662251 33.223846 23.516266 34.03125 23.21875 L 34.03125 18.78125 C 31.400822 17.743844 29.720444 16.126253 29.03125 13.9375 C 28.802912 13.212369 28.685415 12.466652 28.625 11.71875 L 3.28125 11.71875 z M 4.375 19.84375 L 11.125 19.84375 L 11.125 24.75 L 2.65625 24.75 L 2.65625 19.9375 C 3.1488603 19.875215 3.7172799 19.84375 4.375 19.84375 z M 12.5 19.84375 L 22.0625 19.84375 L 22.0625 24.75 L 12.5 24.75 L 12.5 19.84375 z M 2.65625 26.125 L 11.125 26.125 L 11.125 30.625 L 2.65625 30.625 L 2.65625 26.125 z M 12.5 26.125 L 22.0625 26.125 L 22.0625 30.625 L 12.5 30.625 L 12.5 26.125 z M 2.65625 32 L 11.125 32 L 11.125 36.46875 L 2.65625 36.46875 L 2.65625 32 z M 12.5 32 L 22.0625 32 L 22.0625 36.46875 L 12.5 36.46875 L 12.5 32 z M 2.65625 37.84375 L 11.125 37.84375 L 11.125 42.90625 L 2.65625 42.90625 L 2.65625 37.84375 z M 12.5 37.84375 L 22.0625 37.84375 L 22.0625 42.90625 L 12.5 42.90625 L 12.5 37.84375 z M 23.4375 37.84375 L 31.375 37.84375 L 31.375 42.90625 L 23.4375 42.90625 L 23.4375 37.84375 z "
   id="rect12796" /><path
   d="m 29.981024,7.5190694 c -2.048514,4.4132216 1.542933,11.2602046 7.517846,11.2505256 -3.338844,8.476622 -5.538212,5.575078 -11.073857,5.856287 -2.831226,1.325524 -3.320401,5.600964 1.281925,6.791131 C 42.611794,33.715561 50.881148,15.534403 46.078915,6.3573629 42.900279,0.28300837 33.073403,0.85699378 29.981024,7.5190694 z"
   style="font-size:40px;font-style:normal;font-variant:normal;font-weight:900;font-stretch:normal;line-height:125%;letter-spacing:0px;word-spacing:0px;fill:#003366;fill-opacity:1;stroke:none;display:inline;font-family:HelveticaRounded LT Std Blk;-inkscape-font-specification:HelveticaRounded LT Std Blk Heavy"
   id="path3829"
   inkscape:connector-curvature="0"
   sodipodi:nodetypes="scccss" /></svg>