<?xml version="1.0" encoding="utf-8"?>
<!-- Generator: Adobe Illustrator 15.0.0, SVG Export Plug-In . SVG Version: 6.00 Build 0)  -->
<!DOCTYPE svg PUBLIC "-//W3C//DTD SVG 1.1//EN" "http://www.w3.org/Graphics/SVG/1.1/DTD/svg11.dtd">
<svg version="1.1" id="Layer_1" xmlns="http://www.w3.org/2000/svg" xmlns:xlink="http://www.w3.org/1999/xlink" x="0px" y="0px"
	 width="48px" height="48px" viewBox="0 0 48 48" enable-background="new 0 0 48 48" xml:space="preserve">
<g>
	<path d="M34.002,9.997h9.002L33.002-0.005v9.002C33.002,9.547,33.451,9.997,34.002,9.997"/>
	<path d="M31.002,10.997V-0.005H5.996c-0.551,0-1,0.45-1,1v46.01c0,0.551,0.45,0.999,1,0.999h36.008c0.551,0,1-0.448,1-0.999v-7.002
		H14.998c-1.1,0-2-0.901-2-2V28.002c0-1.1,0.901-2.001,2-2.001h28.006V11.998H32.002C31.451,11.998,31.002,11.547,31.002,10.997
		 M16.998,15.999h-6.001v-2h6.001V15.999z M16.998,11.998h-6.001V9.997h6.001V11.998z M16.998,7.997h-6.001v-2h6.001V7.997z
		 M25,15.999h-6.002v-2H25V15.999z M25,11.998h-6.002V9.997H25V11.998z M25,7.997h-6.002v-2H25V7.997z"/>
	<polygon points="16.998,30.001 16.998,36.003 18.998,38.004 23,38.004 23,36.003 18.998,36.003 18.998,30.001 23,30.001 23,28.002 
		18.998,28.002 	"/>
	<rect x="37.002" y="28.002" width="2.002" height="8.001"/>
	<polygon points="35.002,28.002 33.002,28.002 33.002,38.004 37.002,38.004 37.002,36.003 35.002,36.003 	"/>
	<polygon points="25,36.003 25,38.004 29.002,38.004 31.002,36.003 31.002,34.003 29.002,34.003 29.002,36.003 	"/>
	<rect x="27" y="32.002" width="2.002" height="2.001"/>
	<polygon points="25,30.001 25,32.002 27,32.002 27,30.001 31.002,30.001 31.002,28.002 27,28.002 	"/>
</g>
</svg>
