<?xml version="1.0" encoding="UTF-8" standalone="no"?>
<!-- Generator: Adobe Illustrator 15.0.0, SVG Export Plug-In . SVG Version: 6.00 Build 0)  -->

<svg
   xmlns:dc="http://purl.org/dc/elements/1.1/"
   xmlns:cc="http://creativecommons.org/ns#"
   xmlns:rdf="http://www.w3.org/1999/02/22-rdf-syntax-ns#"
   xmlns:svg="http://www.w3.org/2000/svg"
   xmlns="http://www.w3.org/2000/svg"
   xmlns:sodipodi="http://sodipodi.sourceforge.net/DTD/sodipodi-0.dtd"
   xmlns:inkscape="http://www.inkscape.org/namespaces/inkscape"
   version="1.1"
   id="Layer_1"
   x="0px"
   y="0px"
   width="48px"
   height="48px"
   viewBox="0 0 48 48"
   enable-background="new 0 0 48 48"
   xml:space="preserve"
   inkscape:version="0.48.2 r9819"
   sodipodi:docname="modif_csv.svg"><metadata
   id="metadata23"><rdf:RDF><cc:Work
       rdf:about=""><dc:format>image/svg+xml</dc:format><dc:type
         rdf:resource="http://purl.org/dc/dcmitype/StillImage" /><dc:title /></cc:Work></rdf:RDF></metadata><defs
   id="defs21" /><sodipodi:namedview
   pagecolor="#ffffff"
   bordercolor="#666666"
   borderopacity="1"
   objecttolerance="10"
   gridtolerance="10"
   guidetolerance="10"
   inkscape:pageopacity="0"
   inkscape:pageshadow="2"
   inkscape:window-width="1920"
   inkscape:window-height="1020"
   id="namedview19"
   showgrid="false"
   inkscape:zoom="3.4766084"
   inkscape:cx="-17.240282"
   inkscape:cy="-8.2202244"
   inkscape:window-x="-4"
   inkscape:window-y="-4"
   inkscape:window-maximized="1"
   inkscape:current-layer="Layer_1" />

<g
   id="g3011"><g
     id="g3006"><path
       id="path6097"
       style="font-size:4.76152277px;font-style:normal;font-weight:bold;line-height:125%;letter-spacing:0px;word-spacing:0px;fill:#003366;fill-opacity:1;stroke:none;font-family:Sans;-inkscape-font-specification:Sans Bold"
       d="m 19.25425,13.762899 2.28612,0.724863 c -0.35049,1.274513 -0.93331,2.221079 -1.74844,2.839732 -0.81515,0.618653 -1.84935,0.927996 -3.1026,0.927996 -1.55063,0 -2.82512,-0.529711 -3.82347,-1.589133 -0.99836,-1.059422 -1.49753,-2.50781 -1.49753,-4.345234 0,-1.943598 0.50183,-3.4530739 1.50549,-4.5284279 1.00366,-1.075319 2.32329,-1.613013 3.9589,-1.613013 1.42848,0 2.5888,0.422166 3.48095,1.266531 0.53103,0.499184 0.92931,1.216064 1.19484,2.150707 L 19.1746,10.154485 C 19.03652,9.5491251 18.74843,9.0711831 18.31033,8.7206921 c -0.43812,-0.350491 -0.97048,-0.525703 -1.5971,-0.525737 -0.8656,3.4e-5 -1.56789,0.310748 -2.10689,0.931971 -0.53901,0.621325 -0.80851,1.6276419 -0.80851,3.0189519 0,1.476311 0.26552,2.52775 0.79656,3.154386 0.53103,0.626636 1.22138,0.939919 2.07105,0.939919 0.62662,0 1.16562,-0.199057 1.61701,-0.597411 0.45137,-0.398285 0.77531,-1.024886 0.9718,-1.879873 z"
       inkscape:connector-curvature="0" /><path
       id="path6099"
       style="font-size:4.76152277px;font-style:normal;font-weight:bold;line-height:125%;letter-spacing:0px;word-spacing:0px;fill:#003366;fill-opacity:1;stroke:none;font-family:Sans;-inkscape-font-specification:Sans Bold"
       d="m 22.97418,14.256773 2.29408,-0.223039 c 0.13808,0.770018 0.41819,1.335566 0.84037,1.696678 0.42217,0.361112 0.99171,0.541634 1.70862,0.541634 0.75938,0 1.33157,-0.160684 1.71658,-0.481917 0.385,-0.321369 0.5775,-0.696973 0.57751,-1.127122 -10e-6,-0.276144 -0.081,-0.511107 -0.24295,-0.704956 -0.16199,-0.193918 -0.44475,-0.362414 -0.84834,-0.505797 -0.27614,-0.09559 -0.90542,-0.265524 -1.88784,-0.509805 -1.26387,-0.313489 -2.15071,-0.69831 -2.6605,-1.155011 -0.7169,-0.642533 -1.07536,-1.425845 -1.07535,-2.3498319 -10e-6,-0.594773 0.1686,-1.151037 0.50581,-1.668791 0.3372,-0.517754 0.82311,-0.912065 1.4577,-1.182899 0.63459,-0.270663 1.40061,-0.406234 2.29807,-0.406234 1.46566,0 2.56889,0.321369 3.3097,0.963834 0.74079,0.642567 1.12977,1.500191 1.16695,2.572872 l -2.35781,0.103469 c -0.1009,-0.600049 -0.31729,-1.031534 -0.64919,-1.294385 -0.33189,-0.262783 -0.82975,-0.394277 -1.49355,-0.394311 -0.68504,3.4e-5 -1.22139,0.140813 -1.60904,0.4222 -0.2496,0.180556 -0.37439,0.422165 -0.37439,0.724862 0,0.276144 0.11683,0.512443 0.35049,0.708931 0.29738,0.2497629 1.01959,0.5098049 2.16664,0.7806389 1.14703,0.270663 1.99537,0.550953 2.545,0.840357 0.54961,0.289506 0.97976,0.685051 1.29042,1.186873 0.31065,0.501823 0.46598,1.121812 0.46599,1.859967 -10e-6,0.669086 -0.18587,1.295721 -0.55759,1.879873 -0.37174,0.584152 -0.89746,1.018275 -1.57718,1.302368 -0.67974,0.284024 -1.52675,0.42614 -2.54102,0.42614 -1.4763,0 -2.61006,-0.341241 -3.40131,-1.023551 -0.79125,-0.682379 -1.26387,-1.676773 -1.41787,-2.983115 z"
       inkscape:connector-curvature="0" /><path
       id="path6101"
       style="font-size:4.76152277px;font-style:normal;font-weight:bold;line-height:125%;letter-spacing:0px;word-spacing:0px;fill:#003366;fill-opacity:1;stroke:none;font-family:Sans;-inkscape-font-specification:Sans Bold"
       d="m 37.44763,18.056365 -4.17396,-11.6775569 2.55695,0 2.95523,8.6426389 2.85964,-8.6426389 2.50119,0 -4.18192,11.6775569 z"
       inkscape:connector-curvature="0" /></g><path
     inkscape:connector-curvature="0"
     id="path3838"
     d="M 13.71875,-2e-7 C 9.74594,-2e-7 6.5625,3.1834391 6.5625,7.1562501 l 0,10.0937499 c 0,3.972813 3.18344,7.15625 7.15625,7.15625 l 27.09375,0 C 44.78531,24.40625 48,21.222813 48,17.25 L 48,7.1562501 C 48,3.1834391 44.78531,-2e-7 40.8125,-2e-7 l -27.09375,0 z m 0.875,1.2812503 25.375,0 c 3.7235,0 6.71875,2.854638 6.71875,6.40625 l 0,9.0312499 c 0,3.551612 -2.99525,6.40625 -6.71875,6.40625 l -25.375,0 C 10.87024,23.125 7.875,20.270362 7.875,16.71875 l 0,-9.0312499 c 0,-3.551612 2.99524,-6.40625 6.71875,-6.40625 z"
     style="fill:#003366;fill-opacity:1;stroke:none;display:inline" /></g><path
   inkscape:connector-curvature="0"
   style="color:#000000;fill:#003366;fill-opacity:1;stroke:none;stroke-width:1.70000005;marker:none;visibility:visible;display:inline;overflow:visible;enable-background:accumulate"
   d="m 26.17497,25.653667 9.77011,0 0,9.77011 -9.77011,0 z"
   id="path4662"
   inkscape:export-filename="C:\Documents and Settings\jhernandez\Mis documentos\imagenCorp\iconos\iconos_jorge\ico_web\g5029.png"
   inkscape:export-xdpi="90"
   inkscape:export-ydpi="90" /><path
   inkscape:connector-curvature="0"
   style="color:#000000;fill:#003366;fill-opacity:1;stroke:none;stroke-width:1.70000005;marker:none;visibility:visible;display:inline;overflow:visible;enable-background:accumulate"
   d="m 13.08761,25.653667 9.76987,0 0,9.77011 -9.76987,0 z"
   id="path4664"
   inkscape:export-filename="C:\Documents and Settings\jhernandez\Mis documentos\imagenCorp\iconos\iconos_jorge\ico_web\g5029.png"
   inkscape:export-xdpi="90"
   inkscape:export-ydpi="90" /><path
   inkscape:connector-curvature="0"
   style="color:#000000;fill:#003366;fill-opacity:1;stroke:none;stroke-width:1.70000005;marker:none;visibility:visible;display:inline;overflow:visible;enable-background:accumulate"
   d="m 1e-5,25.653667 9.77014,0 0,9.77011 -9.77014,0 z"
   id="path4666-6"
   inkscape:export-filename="C:\Documents and Settings\jhernandez\Mis documentos\imagenCorp\iconos\iconos_jorge\ico_web\g5029.png"
   inkscape:export-xdpi="90"
   inkscape:export-ydpi="90" /><path
   inkscape:connector-curvature="0"
   style="color:#000000;fill:#003366;fill-opacity:1;stroke:none;stroke-width:1.70000005;marker:none;visibility:visible;display:inline;overflow:visible;enable-background:accumulate"
   d="m 0,13.065947 0,9.78125 9.15625,0 C 7.5637,21.533985 6.5625,19.519404 6.5625,17.284697 l 0,-4.21875 -6.5625,0 z"
   id="path4668" /><path
   inkscape:connector-curvature="0"
   style="color:#000000;fill:#003366;fill-opacity:1;stroke:none;stroke-width:1.70000005;marker:none;visibility:visible;display:inline;overflow:visible;enable-background:accumulate"
   d="m 0,0.5034471 0,9.7812499 6.5625,0 0,-3.0937499 c 0,-2.508249 1.27898,-4.68792 3.21875,-5.96875 l 0,-0.71875 -9.78125,0 z"
   id="path4670" /><path
   id="path4672-1"
   d="m 26.17497,38.229925 9.77011,0 0,9.770075 -9.77011,0 z"
   style="color:#000000;fill:#003366;fill-opacity:1;stroke:none;stroke-width:1.70000005;marker:none;visibility:visible;display:inline;overflow:visible;enable-background:accumulate"
   inkscape:connector-curvature="0"
   inkscape:export-filename="C:\Documents and Settings\jhernandez\Mis documentos\imagenCorp\iconos\iconos_jorge\ico_web\g5029.png"
   inkscape:export-xdpi="90"
   inkscape:export-ydpi="90" /><path
   id="path4674"
   d="m 13.08761,38.229925 9.76987,0 0,9.770075 -9.76987,0 z"
   style="color:#000000;fill:#003366;fill-opacity:1;stroke:none;stroke-width:1.70000005;marker:none;visibility:visible;display:inline;overflow:visible;enable-background:accumulate"
   inkscape:connector-curvature="0"
   inkscape:export-filename="C:\Documents and Settings\jhernandez\Mis documentos\imagenCorp\iconos\iconos_jorge\ico_web\g5029.png"
   inkscape:export-xdpi="90"
   inkscape:export-ydpi="90" /><path
   id="path4676"
   d="m 1e-5,38.229925 9.77014,0 L 9.77015,48 1e-5,48 z"
   style="color:#000000;fill:#003366;fill-opacity:1;stroke:none;stroke-width:1.70000005;marker:none;visibility:visible;display:inline;overflow:visible;enable-background:accumulate"
   inkscape:connector-curvature="0"
   inkscape:export-filename="C:\Documents and Settings\jhernandez\Mis documentos\imagenCorp\iconos\iconos_jorge\ico_web\g5029.png"
   inkscape:export-xdpi="90"
   inkscape:export-ydpi="90" /></svg>