<?xml version="1.0" encoding="UTF-8" standalone="no"?>
<!-- Generator: Adobe Illustrator 15.0.0, SVG Export Plug-In . SVG Version: 6.00 Build 0)  -->

<svg
   xmlns:dc="http://purl.org/dc/elements/1.1/"
   xmlns:cc="http://creativecommons.org/ns#"
   xmlns:rdf="http://www.w3.org/1999/02/22-rdf-syntax-ns#"
   xmlns:svg="http://www.w3.org/2000/svg"
   xmlns="http://www.w3.org/2000/svg"
   xmlns:sodipodi="http://sodipodi.sourceforge.net/DTD/sodipodi-0.dtd"
   xmlns:inkscape="http://www.inkscape.org/namespaces/inkscape"
   version="1.1"
   id="Layer_1"
   x="0px"
   y="0px"
   width="48px"
   height="48px"
   viewBox="0 0 48 48"
   enable-background="new 0 0 48 48"
   xml:space="preserve"
   inkscape:version="0.48.2 r9819"
   sodipodi:docname="modif_dat.svg"><metadata
   id="metadata23"><rdf:RDF><cc:Work
       rdf:about=""><dc:format>image/svg+xml</dc:format><dc:type
         rdf:resource="http://purl.org/dc/dcmitype/StillImage" /><dc:title /></cc:Work></rdf:RDF></metadata><defs
   id="defs21" /><sodipodi:namedview
   pagecolor="#ffffff"
   bordercolor="#666666"
   borderopacity="1"
   objecttolerance="10"
   gridtolerance="10"
   guidetolerance="10"
   inkscape:pageopacity="0"
   inkscape:pageshadow="2"
   inkscape:window-width="850"
   inkscape:window-height="423"
   id="namedview19"
   showgrid="false"
   inkscape:zoom="3.4766083"
   inkscape:cx="-0.47233823"
   inkscape:cy="22.722273"
   inkscape:window-x="1007"
   inkscape:window-y="476"
   inkscape:window-maximized="0"
   inkscape:current-layer="Layer_1"
   showguides="true"
   inkscape:guide-bbox="true" />

<g
   style="font-size:4.76152277px;font-style:normal;font-weight:normal;line-height:125%;letter-spacing:0px;word-spacing:0px;fill:#003366;fill-opacity:1;stroke:none;display:inline;font-family:Sans"
   id="text3241-1"
   transform="matrix(3.42611,0,0,3.42611,-225.40048,-1238.309)"><path
     inkscape:connector-curvature="0"
     d="m 69.323373,363.29476 1.257805,0 c 0.283643,0 0.499864,0.0217 0.648664,0.0651 0.199944,0.0589 0.371216,0.16353 0.513817,0.31387 0.142595,0.15035 0.251093,0.33441 0.325494,0.55218 0.0744,0.21777 0.111595,0.4863 0.111599,0.8056 -4e-6,0.28054 -0.03488,0.52234 -0.104624,0.72539 -0.08525,0.24799 -0.206924,0.44871 -0.365019,0.60216 -0.11935,0.11625 -0.280548,0.20692 -0.483592,0.27202 -0.1519,0.048 -0.354946,0.0721 -0.60914,0.0721 l -1.295004,0 z m 0.688189,0.57659 0,2.25754 0.513816,0 c 0.192196,0 0.330918,-0.0109 0.416169,-0.0326 0.111596,-0.0279 0.204207,-0.0752 0.277833,-0.14182 0.07362,-0.0666 0.133683,-0.17631 0.180184,-0.32898 0.0465,-0.15268 0.06975,-0.36076 0.06975,-0.62426 -2e-6,-0.26349 -0.02325,-0.46576 -0.06975,-0.60681 -0.0465,-0.14105 -0.1116,-0.2511 -0.195297,-0.33015 -0.0837,-0.079 -0.189873,-0.13252 -0.318519,-0.16042 -0.0961,-0.0217 -0.284422,-0.0326 -0.564966,-0.0326 z"
     style="font-weight:bold;fill:#003366;-inkscape-font-specification:Sans Bold"
     id="path6104" /><path
     inkscape:connector-curvature="0"
     d="m 75.840242,366.70316 -0.748638,0 -0.297595,-0.77422 -1.362428,0 -0.28132,0.77422 -0.730038,0 1.327553,-3.4084 0.727713,0 z m -1.267104,-1.34848 -0.469643,-1.26478 -0.460342,1.26478 z"
     style="font-weight:bold;fill:#003366;-inkscape-font-specification:Sans Bold"
     id="path6106" /><path
     inkscape:connector-curvature="0"
     d="m 76.974824,366.70316 0,-2.83181 -1.011359,0 0,-0.57659 2.708581,0 0,0.57659 -1.009033,0 0,2.83181 z"
     style="font-weight:bold;fill:#003366;-inkscape-font-specification:Sans Bold"
     id="path6108" /></g><path
   style="fill:#003366;fill-opacity:1;stroke:none;display:inline"
   d="M 13.71875,0 C 9.74594,0 6.5625,3.183439 6.5625,7.15625 l 0,10.09375 c 0,3.972813 3.18344,7.15625 7.15625,7.15625 l 27.09375,0 C 44.78531,24.40625 48,21.222813 48,17.25 L 48,7.15625 C 48,3.183439 44.78531,0 40.8125,0 L 13.71875,0 z m 0.875,1.28125 25.375,0 c 3.7235,0 6.71875,2.854638 6.71875,6.40625 l 0,9.03125 c 0,3.551612 -2.99525,6.40625 -6.71875,6.40625 l -25.375,0 C 10.87024,23.125 7.875,20.270362 7.875,16.71875 l 0,-9.03125 c 0,-3.551612 2.99524,-6.40625 6.71875,-6.40625 z"
   id="path3838"
   inkscape:connector-curvature="0" /><g
   transform="translate(0,0.034697)"
   id="g3919"><path
     inkscape:export-ydpi="90"
     inkscape:export-xdpi="90"
     inkscape:export-filename="C:\Documents and Settings\jhernandez\Mis documentos\imagenCorp\iconos\iconos_jorge\ico_web\g5029.png"
     id="path4662"
     d="m 26.174973,25.61897 9.77011,0 0,9.77011 -9.77011,0 z"
     style="color:#000000;fill:#003366;fill-opacity:1;stroke:none;stroke-width:1.70000005;marker:none;visibility:visible;display:inline;overflow:visible;enable-background:accumulate"
     inkscape:connector-curvature="0" /><path
     inkscape:export-ydpi="90"
     inkscape:export-xdpi="90"
     inkscape:export-filename="C:\Documents and Settings\jhernandez\Mis documentos\imagenCorp\iconos\iconos_jorge\ico_web\g5029.png"
     id="path4664"
     d="m 13.087609,25.61897 9.76987,0 0,9.77011 -9.76987,0 z"
     style="color:#000000;fill:#003366;fill-opacity:1;stroke:none;stroke-width:1.70000005;marker:none;visibility:visible;display:inline;overflow:visible;enable-background:accumulate"
     inkscape:connector-curvature="0" /><path
     inkscape:export-ydpi="90"
     inkscape:export-xdpi="90"
     inkscape:export-filename="C:\Documents and Settings\jhernandez\Mis documentos\imagenCorp\iconos\iconos_jorge\ico_web\g5029.png"
     id="path4666-6"
     d="m 5.783344e-6,25.61897 9.770144016656,0 0,9.77011 -9.770144016656,0 z"
     style="color:#000000;fill:#003366;fill-opacity:1;stroke:none;stroke-width:1.70000005;marker:none;visibility:visible;display:inline;overflow:visible;enable-background:accumulate"
     inkscape:connector-curvature="0" /><path
     id="path4668"
     d="m 0,13.03125 0,9.78125 9.15625,0 C 7.5636998,21.499288 6.5625,19.484707 6.5625,17.25 l 0,-4.21875 -6.5625,0 z"
     style="color:#000000;fill:#003366;fill-opacity:1;stroke:none;stroke-width:1.70000005;marker:none;visibility:visible;display:inline;overflow:visible;enable-background:accumulate"
     inkscape:connector-curvature="0" /><path
     id="path4670"
     d="m 0,0.46875 0,9.78125 6.5625,0 0,-3.09375 c 0,-2.5082491 1.2789847,-4.6879204 3.21875,-5.96875 l 0,-0.71875 -9.78125,0 z"
     style="color:#000000;fill:#003366;fill-opacity:1;stroke:none;stroke-width:1.70000005;marker:none;visibility:visible;display:inline;overflow:visible;enable-background:accumulate"
     inkscape:connector-curvature="0" /><path
     inkscape:export-ydpi="90"
     inkscape:export-xdpi="90"
     inkscape:export-filename="C:\Documents and Settings\jhernandez\Mis documentos\imagenCorp\iconos\iconos_jorge\ico_web\g5029.png"
     inkscape:connector-curvature="0"
     style="color:#000000;fill:#003366;fill-opacity:1;stroke:none;stroke-width:1.70000005;marker:none;visibility:visible;display:inline;overflow:visible;enable-background:accumulate"
     d="m 26.174973,38.195228 9.77011,0 0,9.770075 -9.77011,0 z"
     id="path4672-1" /><path
     inkscape:export-ydpi="90"
     inkscape:export-xdpi="90"
     inkscape:export-filename="C:\Documents and Settings\jhernandez\Mis documentos\imagenCorp\iconos\iconos_jorge\ico_web\g5029.png"
     inkscape:connector-curvature="0"
     style="color:#000000;fill:#003366;fill-opacity:1;stroke:none;stroke-width:1.70000005;marker:none;visibility:visible;display:inline;overflow:visible;enable-background:accumulate"
     d="m 13.087609,38.195228 9.76987,0 0,9.770075 -9.76987,0 z"
     id="path4674" /><path
     inkscape:export-ydpi="90"
     inkscape:export-xdpi="90"
     inkscape:export-filename="C:\Documents and Settings\jhernandez\Mis documentos\imagenCorp\iconos\iconos_jorge\ico_web\g5029.png"
     inkscape:connector-curvature="0"
     style="color:#000000;fill:#003366;fill-opacity:1;stroke:none;stroke-width:1.70000005;marker:none;visibility:visible;display:inline;overflow:visible;enable-background:accumulate"
     d="m 5.783344e-6,38.195228 9.770144016656,0 0,9.770075 -9.770144016656,0 z"
     id="path4676" /></g></svg>