<?xml version="1.0" encoding="UTF-8" standalone="no"?>
<!-- Generator: Adobe Illustrator 15.0.0, SVG Export Plug-In . SVG Version: 6.00 Build 0)  -->

<svg
   xmlns:dc="http://purl.org/dc/elements/1.1/"
   xmlns:cc="http://creativecommons.org/ns#"
   xmlns:rdf="http://www.w3.org/1999/02/22-rdf-syntax-ns#"
   xmlns:svg="http://www.w3.org/2000/svg"
   xmlns="http://www.w3.org/2000/svg"
   xmlns:sodipodi="http://sodipodi.sourceforge.net/DTD/sodipodi-0.dtd"
   xmlns:inkscape="http://www.inkscape.org/namespaces/inkscape"
   version="1.1"
   id="Layer_1"
   x="0px"
   y="0px"
   width="48px"
   height="48px"
   viewBox="0 0 48 48"
   enable-background="new 0 0 48 48"
   xml:space="preserve"
   inkscape:version="0.48.2 r9819"
   sodipodi:docname="cubo_XLS.svg"><metadata
   id="metadata23"><rdf:RDF><cc:Work
       rdf:about=""><dc:format>image/svg+xml</dc:format><dc:type
         rdf:resource="http://purl.org/dc/dcmitype/StillImage" /><dc:title></dc:title></cc:Work></rdf:RDF></metadata><defs
   id="defs21" /><sodipodi:namedview
   pagecolor="#ffffff"
   bordercolor="#666666"
   borderopacity="1"
   objecttolerance="10"
   gridtolerance="10"
   guidetolerance="10"
   inkscape:pageopacity="0"
   inkscape:pageshadow="2"
   inkscape:window-width="1920"
   inkscape:window-height="1020"
   id="namedview19"
   showgrid="false"
   inkscape:zoom="6.9532166"
   inkscape:cx="-9.1709296"
   inkscape:cy="54.882202"
   inkscape:window-x="-4"
   inkscape:window-y="-4"
   inkscape:window-maximized="1"
   inkscape:current-layer="text2999"
   showguides="true"
   inkscape:guide-bbox="true" />

<g
   style="font-size:4.76152277px;font-style:normal;font-weight:normal;line-height:125%;letter-spacing:0px;word-spacing:0px;fill:#003366;fill-opacity:1;stroke:none;display:inline;font-family:Sans"
   id="text3241-1"
   transform="matrix(3.42611,0,0,3.42611,-225.40048,-1238.309)"><g
     transform="scale(1.0021913,0.99781349)"
     style="font-size:4.74704456px;fill:#003366;font-family:Sans"
     id="text2999"><path
       d="m 69.086861,367.4924 1.161264,-1.77319 -1.052323,-1.62484 0.801991,0 0.68146,1.09173 0.667553,-1.09173 0.795037,0 -1.056959,1.65034 1.161265,1.74769 -0.827488,0 -0.753315,-1.17517 -0.755633,1.17517 z"
       style="font-weight:bold;fill:#003366;-inkscape-font-specification:Sans Bold"
       id="path3011" /><path
       d="m 72.621647,367.4924 0,-3.37022 0.686097,0 0,2.7977 1.705969,0 0,0.57252 z"
       style="font-weight:bold;fill:#003366;-inkscape-font-specification:Sans Bold"
       id="path3013" /><path
       d="m 75.331264,366.38677 0.667553,-0.0649 c 0.04018,0.22406 0.121689,0.38863 0.244538,0.49371 0.122847,0.10507 0.288576,0.15761 0.497188,0.15761 0.220971,0 0.387472,-0.0467 0.499506,-0.14023 0.112029,-0.0935 0.168045,-0.20281 0.168047,-0.32798 -2e-6,-0.0804 -0.02357,-0.14873 -0.0707,-0.20513 -0.04713,-0.0564 -0.129417,-0.10547 -0.246855,-0.14719 -0.08036,-0.0278 -0.263469,-0.0773 -0.549341,-0.14835 -0.367773,-0.0912 -0.625832,-0.2032 -0.774176,-0.33609 -0.208611,-0.18698 -0.312916,-0.4149 -0.312916,-0.68378 0,-0.17307 0.04906,-0.33493 0.147187,-0.4856 0.09812,-0.15066 0.239514,-0.26539 0.424174,-0.3442 0.184658,-0.0788 0.407562,-0.11821 0.668712,-0.11822 0.42649,10e-6 0.747518,0.0935 0.963085,0.28047 0.215561,0.18698 0.328751,0.43654 0.339571,0.74868 l -0.686096,0.0301 c -0.02936,-0.17461 -0.09233,-0.30016 -0.188909,-0.37666 -0.09658,-0.0765 -0.241449,-0.11473 -0.434605,-0.11473 -0.19934,0 -0.355411,0.041 -0.468214,0.12284 -0.07263,0.0525 -0.108942,0.12286 -0.108941,0.21093 -1e-6,0.0804 0.03399,0.14912 0.101987,0.2063 0.08653,0.0726 0.296689,0.14834 0.630467,0.22715 0.333775,0.0788 0.58063,0.16032 0.740567,0.24454 0.159932,0.0842 0.285098,0.19934 0.375499,0.34536 0.0904,0.14603 0.135593,0.32644 0.135596,0.54123 -3e-6,0.1947 -0.05409,0.37705 -0.162252,0.54702 -0.108171,0.16998 -0.261152,0.29631 -0.458943,0.37898 -0.197796,0.0827 -0.444265,0.12401 -0.739408,0.12401 -0.429584,0 -0.759497,-0.0993 -0.98974,-0.29785 -0.230244,-0.19857 -0.367773,-0.48792 -0.412585,-0.86805 z"
       style="font-weight:bold;fill:#003366;-inkscape-font-specification:Sans Bold"
       id="path3015" /></g></g><path
   style="fill:#003366;fill-opacity:1;stroke:none;display:inline"
   d="M 13.71875,0 C 9.74594,0 6.5625,3.183439 6.5625,7.15625 l 0,10.09375 c 0,3.972813 3.18344,7.15625 7.15625,7.15625 l 27.09375,0 C 44.78531,24.40625 48,21.222813 48,17.25 L 48,7.15625 C 48,3.183439 44.78531,0 40.8125,0 L 13.71875,0 z m 0.875,1.28125 25.375,0 c 3.7235,0 6.71875,2.854638 6.71875,6.40625 l 0,9.03125 c 0,3.551612 -2.99525,6.40625 -6.71875,6.40625 l -25.375,0 C 10.87024,23.125 7.875,20.270362 7.875,16.71875 l 0,-9.03125 c 0,-3.551612 2.99524,-6.40625 6.71875,-6.40625 z"
   id="path3838"
   inkscape:connector-curvature="0" /><g
   transform="translate(0,0.034697)"
   id="g3919"><path
     inkscape:export-ydpi="90"
     inkscape:export-xdpi="90"
     inkscape:export-filename="C:\Documents and Settings\jhernandez\Mis documentos\imagenCorp\iconos\iconos_jorge\ico_web\g5029.png"
     id="path4662"
     d="m 26.174973,25.61897 9.77011,0 0,9.77011 -9.77011,0 z"
     style="color:#000000;fill:#003366;fill-opacity:1;stroke:none;stroke-width:1.70000005;marker:none;visibility:visible;display:inline;overflow:visible;enable-background:accumulate"
     inkscape:connector-curvature="0" /><path
     inkscape:export-ydpi="90"
     inkscape:export-xdpi="90"
     inkscape:export-filename="C:\Documents and Settings\jhernandez\Mis documentos\imagenCorp\iconos\iconos_jorge\ico_web\g5029.png"
     id="path4664"
     d="m 13.087609,25.61897 9.76987,0 0,9.77011 -9.76987,0 z"
     style="color:#000000;fill:#003366;fill-opacity:1;stroke:none;stroke-width:1.70000005;marker:none;visibility:visible;display:inline;overflow:visible;enable-background:accumulate"
     inkscape:connector-curvature="0" /><path
     inkscape:export-ydpi="90"
     inkscape:export-xdpi="90"
     inkscape:export-filename="C:\Documents and Settings\jhernandez\Mis documentos\imagenCorp\iconos\iconos_jorge\ico_web\g5029.png"
     id="path4666-6"
     d="m 5.783344e-6,25.61897 9.770144016656,0 0,9.77011 -9.770144016656,0 z"
     style="color:#000000;fill:#003366;fill-opacity:1;stroke:none;stroke-width:1.70000005;marker:none;visibility:visible;display:inline;overflow:visible;enable-background:accumulate"
     inkscape:connector-curvature="0" /><path
     id="path4668"
     d="m 0,13.03125 0,9.78125 9.15625,0 C 7.5636998,21.499288 6.5625,19.484707 6.5625,17.25 l 0,-4.21875 -6.5625,0 z"
     style="color:#000000;fill:#003366;fill-opacity:1;stroke:none;stroke-width:1.70000005;marker:none;visibility:visible;display:inline;overflow:visible;enable-background:accumulate"
     inkscape:connector-curvature="0" /><path
     id="path4670"
     d="m 0,0.46875 0,9.78125 6.5625,0 0,-3.09375 c 0,-2.5082491 1.2789847,-4.6879204 3.21875,-5.96875 l 0,-0.71875 -9.78125,0 z"
     style="color:#000000;fill:#003366;fill-opacity:1;stroke:none;stroke-width:1.70000005;marker:none;visibility:visible;display:inline;overflow:visible;enable-background:accumulate"
     inkscape:connector-curvature="0" /><path
     inkscape:export-ydpi="90"
     inkscape:export-xdpi="90"
     inkscape:export-filename="C:\Documents and Settings\jhernandez\Mis documentos\imagenCorp\iconos\iconos_jorge\ico_web\g5029.png"
     inkscape:connector-curvature="0"
     style="color:#000000;fill:#003366;fill-opacity:1;stroke:none;stroke-width:1.70000005;marker:none;visibility:visible;display:inline;overflow:visible;enable-background:accumulate"
     d="m 26.174973,38.195228 9.77011,0 0,9.770075 -9.77011,0 z"
     id="path4672-1" /><path
     inkscape:export-ydpi="90"
     inkscape:export-xdpi="90"
     inkscape:export-filename="C:\Documents and Settings\jhernandez\Mis documentos\imagenCorp\iconos\iconos_jorge\ico_web\g5029.png"
     inkscape:connector-curvature="0"
     style="color:#000000;fill:#003366;fill-opacity:1;stroke:none;stroke-width:1.70000005;marker:none;visibility:visible;display:inline;overflow:visible;enable-background:accumulate"
     d="m 13.087609,38.195228 9.76987,0 0,9.770075 -9.76987,0 z"
     id="path4674" /><path
     inkscape:export-ydpi="90"
     inkscape:export-xdpi="90"
     inkscape:export-filename="C:\Documents and Settings\jhernandez\Mis documentos\imagenCorp\iconos\iconos_jorge\ico_web\g5029.png"
     inkscape:connector-curvature="0"
     style="color:#000000;fill:#003366;fill-opacity:1;stroke:none;stroke-width:1.70000005;marker:none;visibility:visible;display:inline;overflow:visible;enable-background:accumulate"
     d="m 5.783344e-6,38.195228 9.770144016656,0 0,9.770075 -9.770144016656,0 z"
     id="path4676" /></g></svg>