<?xml version="1.0" encoding="UTF-8" standalone="no"?>
<!-- Generator: Adobe Illustrator 15.0.0, SVG Export Plug-In . SVG Version: 6.00 Build 0)  -->

<svg
   xmlns:dc="http://purl.org/dc/elements/1.1/"
   xmlns:cc="http://creativecommons.org/ns#"
   xmlns:rdf="http://www.w3.org/1999/02/22-rdf-syntax-ns#"
   xmlns:svg="http://www.w3.org/2000/svg"
   xmlns="http://www.w3.org/2000/svg"
   xmlns:sodipodi="http://sodipodi.sourceforge.net/DTD/sodipodi-0.dtd"
   xmlns:inkscape="http://www.inkscape.org/namespaces/inkscape"
   version="1.1"
   id="Layer_1"
   x="0px"
   y="0px"
   width="48px"
   height="48px"
   viewBox="0 0 48 48"
   enable-background="new 0 0 48 48"
   xml:space="preserve"
   inkscape:version="0.48.2 r9819"
   sodipodi:docname="modif_delicious.svg"><metadata
   id="metadata23"><rdf:RDF><cc:Work
       rdf:about=""><dc:format>image/svg+xml</dc:format><dc:type
         rdf:resource="http://purl.org/dc/dcmitype/StillImage" /><dc:title /></cc:Work></rdf:RDF></metadata><defs
   id="defs21" /><sodipodi:namedview
   pagecolor="#ffffff"
   bordercolor="#666666"
   borderopacity="1"
   objecttolerance="10"
   gridtolerance="10"
   guidetolerance="10"
   inkscape:pageopacity="0"
   inkscape:pageshadow="2"
   inkscape:window-width="1920"
   inkscape:window-height="1020"
   id="namedview19"
   showgrid="false"
   inkscape:zoom="6.9532168"
   inkscape:cx="13.665364"
   inkscape:cy="29.268441"
   inkscape:window-x="-4"
   inkscape:window-y="-4"
   inkscape:window-maximized="1"
   inkscape:current-layer="Layer_1" />

<path
   style="fill:#003366;fill-opacity:1;fill-rule:nonzero;stroke:none"
   d="M 3.96875 0.03125 C 1.7821071 0.03125 0.03125 1.7821071 0.03125 3.96875 L 0.03125 44.03125 C 0.03125 46.217893 1.7821071 47.96875 3.96875 47.96875 L 44.03125 47.96875 C 46.217893 47.96875 47.96875 46.217893 47.96875 44.03125 L 47.96875 3.96875 C 47.96875 1.7821071 46.217893 0.03125 44.03125 0.03125 L 3.96875 0.03125 z M 8.46875 4.25 L 19.8125 4.25 C 23.954188 4.25 24.03125 4.261154 24.03125 8.4375 C 24.03125 4.797549 24.044439 4.313685 26.84375 4.25 C 27.243652 4.2409 27.697092 4.25 28.21875 4.25 L 39.5625 4.25 C 41.884775 4.25 43.75 6.1130797 43.75 8.4375 L 43.75 19.8125 C 43.75 23.436479 43.73746 23.934607 40.9375 24 C 43.69643 24.063819 43.75 24.551182 43.75 28.1875 L 43.75 39.5625 C 43.75 41.884775 41.855671 43.75 39.53125 43.75 L 28.1875 43.75 C 24.045812 43.75 23.96875 43.738846 23.96875 39.5625 C 23.96875 43.202451 23.955561 43.68632 21.15625 43.75 C 20.756348 43.7591 20.302908 43.75 19.78125 43.75 L 8.4375 43.75 C 6.115225 43.75 4.25 41.88692 4.25 39.5625 L 4.25 28.1875 C 4.25 24.563521 4.2625395 24.065393 7.0625 24 C 4.3000711 23.936925 4.25 23.448358 4.25 19.8125 L 4.25 8.4375 C 4.25 6.115225 6.144329 4.25 8.46875 4.25 z M 27.25 4.8125 C 24.6189 4.872536 24.625 5.318644 24.625 8.75 L 24.625 19.46875 C 24.625 23.42443 24.628947 23.4375 28.5625 23.4375 L 39.21875 23.4375 C 43.14414 23.4375 43.15625 23.37309 43.15625 19.46875 L 43.15625 8.75 C 43.15625 6.5587856 41.401477 4.8125 39.21875 4.8125 L 28.5625 4.8125 C 28.072189 4.8125 27.625871 4.80392 27.25 4.8125 z M 24.03125 21.1875 C 23.969555 23.991619 23.48413 24 19.8125 24 C 23.441789 23.999987 23.911242 24.012185 23.96875 26.8125 C 24.030445 24.008381 24.51587 24 28.1875 24 C 24.561393 23.999943 24.088739 23.986905 24.03125 21.1875 z M 7.5 24.5625 C 4.8679774 24.628208 4.84375 25.114952 4.84375 28.53125 L 4.84375 39.25 C 4.84375 41.441214 6.598523 43.1875 8.78125 43.1875 L 19.4375 43.1875 C 19.927811 43.1875 20.374129 43.1961 20.75 43.1875 C 23.3811 43.127464 23.375 42.681356 23.375 39.25 L 23.375 28.53125 C 23.375 24.57557 23.371053 24.5625 19.4375 24.5625 L 8.78125 24.5625 C 8.2905763 24.5625 7.8760032 24.553113 7.5 24.5625 z "
   id="rect4378" /></svg>