<?xml version="1.0" encoding="UTF-8" standalone="no"?>
<!-- Generator: Adobe Illustrator 15.0.0, SVG Export Plug-In . SVG Version: 6.00 Build 0)  -->

<svg
   xmlns:dc="http://purl.org/dc/elements/1.1/"
   xmlns:cc="http://creativecommons.org/ns#"
   xmlns:rdf="http://www.w3.org/1999/02/22-rdf-syntax-ns#"
   xmlns:svg="http://www.w3.org/2000/svg"
   xmlns="http://www.w3.org/2000/svg"
   xmlns:sodipodi="http://sodipodi.sourceforge.net/DTD/sodipodi-0.dtd"
   xmlns:inkscape="http://www.inkscape.org/namespaces/inkscape"
   version="1.1"
   id="Layer_1"
   x="0px"
   y="0px"
   width="48px"
   height="48px"
   viewBox="0 0 48 48"
   enable-background="new 0 0 48 48"
   xml:space="preserve"
   inkscape:version="0.48.2 r9819"
   sodipodi:docname="modif_digg.svg"><metadata
   id="metadata23"><rdf:RDF><cc:Work
       rdf:about=""><dc:format>image/svg+xml</dc:format><dc:type
         rdf:resource="http://purl.org/dc/dcmitype/StillImage" /><dc:title></dc:title></cc:Work></rdf:RDF></metadata><defs
   id="defs21" /><sodipodi:namedview
   pagecolor="#ffffff"
   bordercolor="#666666"
   borderopacity="1"
   objecttolerance="10"
   gridtolerance="10"
   guidetolerance="10"
   inkscape:pageopacity="0"
   inkscape:pageshadow="2"
   inkscape:window-width="1920"
   inkscape:window-height="1020"
   id="namedview19"
   showgrid="false"
   inkscape:zoom="2.4583334"
   inkscape:cx="20.011879"
   inkscape:cy="15.809858"
   inkscape:window-x="-4"
   inkscape:window-y="-4"
   inkscape:window-maximized="1"
   inkscape:current-layer="Layer_1"
   showguides="true"
   inkscape:guide-bbox="true" />

<path
   style="fill:#003366;fill-opacity:1;fill-rule:nonzero;stroke:none"
   d="M 4.0625 0.125 C 1.8851357 0.125 0.125 1.8851357 0.125 4.0625 L 0.125 43.9375 C 0.125 46.114864 1.8851357 47.875 4.0625 47.875 L 43.9375 47.875 C 46.114864 47.875 47.875 46.114864 47.875 43.9375 L 47.875 4.0625 C 47.875 1.8851357 46.114864 0.125 43.9375 0.125 L 4.0625 0.125 z M 24 6.34375 L 36.46875 6.34375 C 37.153078 6.34375 37.71875 7.3321335 37.71875 8.5625 L 37.71875 18.90625 C 37.71875 20.136616 37.153078 21.125 36.46875 21.125 L 24 21.125 C 23.315672 21.125 22.75 20.136616 22.75 18.90625 L 22.75 8.5625 C 22.75 7.3321335 23.315672 6.34375 24 6.34375 z M 12.34375 11.96875 C 17.356294 11.96875 18.988921 13.867863 19.5 17.125 C 19.509088 15.875392 20.059799 14.875 20.75 14.875 L 22.34375 14.875 L 22.34375 19.09375 C 22.34375 20.390049 22.935625 21.4375 23.65625 21.4375 L 36.78125 21.4375 C 37.501875 21.4375 38.09375 20.390049 38.09375 19.09375 L 38.09375 14.875 L 42.1875 14.875 C 42.883476 14.875 43.4375 15.892033 43.4375 17.15625 L 43.4375 23.03125 C 43.4375 24.295467 42.883476 25.3125 42.1875 25.3125 L 38.84375 25.3125 C 38.843869 25.3125 38.84375 25.34375 38.84375 25.34375 L 38.84375 41.40625 C 38.84375 42.25522 38.53811 42.9375 38.15625 42.9375 L 32.25 42.9375 C 31.86811 42.9375 31.5625 42.25522 31.5625 41.40625 L 31.5625 30.75 L 30.75 30.75 L 30.75 41.40625 C 30.75 42.25522 30.350021 42.9375 29.875 42.9375 L 22.53125 42.9375 C 22.056229 42.9375 21.6875 42.25522 21.6875 41.40625 L 21.6875 25.34375 C 21.6875 25.34375 21.687351 25.3125 21.6875 25.3125 L 20.75 25.3125 C 20.300908 25.3125 19.90767 24.890094 19.6875 24.25 C 19.68425 24.607364 19.6875 24.943109 19.6875 25.3125 C 19.701998 26.435022 19.146158 27.375 18.5 27.375 L 13.90625 27.375 L 13.90625 36.03125 C 16.084504 36.41875 17.75 37.57902 17.75 38.9375 C 17.75 40.61458 15.311886 41.90625 12.34375 41.90625 C 9.375615 41.90625 7.03125 40.61458 7.03125 38.9375 C 7.03125 37.56769 8.637754 36.40801 10.84375 36.03125 L 10.84375 27.375 L 6.28125 27.375 C 5.635032 27.375 5.0625 26.435618 5.0625 25.3125 C 5.0625 17.269897 3.984258 11.96875 12.34375 11.96875 z M 12.34375 36.78125 C 10.26525 36.78125 8.59375 37.76308 8.59375 38.9375 C 8.59375 40.11163 10.26525 41.0625 12.34375 41.0625 C 14.422221 41.0625 16.15625 40.11193 16.15625 38.9375 C 16.15625 37.76338 14.422221 36.78125 12.34375 36.78125 z "
   id="rect5139" /></svg>