<?xml version="1.0" encoding="UTF-8" standalone="no"?>
<!-- Generator: Adobe Illustrator 15.0.0, SVG Export Plug-In . SVG Version: 6.00 Build 0)  -->

<svg
   xmlns:dc="http://purl.org/dc/elements/1.1/"
   xmlns:cc="http://creativecommons.org/ns#"
   xmlns:rdf="http://www.w3.org/1999/02/22-rdf-syntax-ns#"
   xmlns:svg="http://www.w3.org/2000/svg"
   xmlns="http://www.w3.org/2000/svg"
   xmlns:sodipodi="http://sodipodi.sourceforge.net/DTD/sodipodi-0.dtd"
   xmlns:inkscape="http://www.inkscape.org/namespaces/inkscape"
   version="1.1"
   id="Layer_1"
   x="0px"
   y="0px"
   width="48px"
   height="48px"
   viewBox="0 0 48 48"
   enable-background="new 0 0 48 48"
   xml:space="preserve"
   inkscape:version="0.48.2 r9819"
   sodipodi:docname="_template.svg"><metadata
   id="metadata23"><rdf:RDF><cc:Work
       rdf:about=""><dc:format>image/svg+xml</dc:format><dc:type
         rdf:resource="http://purl.org/dc/dcmitype/StillImage" /><dc:title></dc:title></cc:Work></rdf:RDF></metadata><defs
   id="defs21" /><sodipodi:namedview
   pagecolor="#ffffff"
   bordercolor="#666666"
   borderopacity="1"
   objecttolerance="10"
   gridtolerance="10"
   guidetolerance="10"
   inkscape:pageopacity="0"
   inkscape:pageshadow="2"
   inkscape:window-width="868"
   inkscape:window-height="554"
   id="namedview19"
   showgrid="false"
   inkscape:zoom="4.9166667"
   inkscape:cx="24"
   inkscape:cy="20.12"
   inkscape:window-x="912"
   inkscape:window-y="331"
   inkscape:window-maximized="0"
   inkscape:current-layer="Layer_1" />

<g
   style="display:inline"
   id="g14952"
   inkscape:export-xdpi="300"
   inkscape:export-ydpi="300"
   transform="matrix(3.0084741,0,0,3.0084746,1490.0371,-3569.7137)"
   inkscape:export-filename="C:\Documents and Settings\jhernandez\Mis documentos\imagenCorp\iconos\iconos_jorge\ico_web\todos.png"><g
     id="g7768"
     transform="translate(0.8749733,43.456299)"><rect
       style="fill:#0058b0;fill-opacity:1;fill-rule:nonzero;stroke:none"
       id="rect7770"
       width="16"
       height="16"
       x="-496.155"
       y="1143.0964"
       rx="1.3175305"
       ry="1.3175305" /><path
       transform="matrix(0.09237623,0,0,0.09237623,-460.20536,1043.4774)"
       d="m -319,1102.1122 c 0,6.7655 -5.48451,12.25 -12.25,12.25 -6.76549,0 -12.25,-5.4845 -12.25,-12.25 0,-6.7655 5.48451,-12.25 12.25,-12.25 6.76549,0 12.25,5.4845 12.25,12.25 z"
       sodipodi:ry="12.25"
       sodipodi:rx="12.25"
       sodipodi:cy="1102.1122"
       sodipodi:cx="-331.25"
       id="path7772"
       style="fill:#ffffff;fill-opacity:1;fill-rule:nonzero;stroke:none"
       sodipodi:type="arc" /><path
       sodipodi:type="arc"
       style="fill:#ffffff;fill-opacity:1;fill-rule:nonzero;stroke:none"
       id="path7774"
       sodipodi:cx="-331.25"
       sodipodi:cy="1102.1122"
       sodipodi:rx="12.25"
       sodipodi:ry="12.25"
       d="m -319,1102.1122 c 0,6.7655 -5.48451,12.25 -12.25,12.25 -6.76549,0 -12.25,-5.4845 -12.25,-12.25 0,-6.7655 5.48451,-12.25 12.25,-12.25 6.76549,0 12.25,5.4845 12.25,12.25 z"
       transform="matrix(0.09237623,0,0,0.09237623,-454.90538,1043.4404)" /><path
       sodipodi:nodetypes="zccccsccccz"
       inkscape:connector-curvature="0"
       id="path7776"
       d="m -488.155,1149.3077 c 1.36935,0 2.01341,-0.6319 3.79894,-1.6628 l 0,10.4303 c 0,0 -1.57035,0 -1.92764,0 0,-0.3567 0.0589,-6.9305 0.0589,-7.5112 -0.442,0.2552 -1.04754,0.3694 -1.88334,0.3769 -0.8358,0.01 -1.6511,-0.2893 -1.85576,-0.3442 0,0.8049 -0.0277,6.3517 -0.0277,7.4785 -0.0541,0 -1.96238,0 -1.96238,0 l 0,-10.4302 c 1.7031,0.9832 2.42959,1.6629 3.79893,1.6627 z"
       style="fill:#ffffff;fill-opacity:1;fill-rule:nonzero;stroke:none" /></g><g
     transform="translate(0.8749733,43.456299)"
     id="g7878"><rect
       ry="1.3175305"
       rx="1.3175305"
       y="1143.0964"
       x="-496.155"
       height="16"
       width="16"
       id="rect7880"
       style="fill:#0058b0;fill-opacity:1;fill-rule:nonzero;stroke:none" /><path
       sodipodi:type="arc"
       style="fill:#ffffff;fill-opacity:1;fill-rule:nonzero;stroke:none"
       id="path7882"
       sodipodi:cx="-331.25"
       sodipodi:cy="1102.1122"
       sodipodi:rx="12.25"
       sodipodi:ry="12.25"
       d="m -319,1102.1122 c 0,6.7655 -5.48451,12.25 -12.25,12.25 -6.76549,0 -12.25,-5.4845 -12.25,-12.25 0,-6.7655 5.48451,-12.25 12.25,-12.25 6.76549,0 12.25,5.4845 12.25,12.25 z"
       transform="matrix(0.09237623,0,0,0.09237623,-460.20536,1043.4774)" /><path
       transform="matrix(0.09237623,0,0,0.09237623,-454.90538,1043.4404)"
       d="m -319,1102.1122 c 0,6.7655 -5.48451,12.25 -12.25,12.25 -6.76549,0 -12.25,-5.4845 -12.25,-12.25 0,-6.7655 5.48451,-12.25 12.25,-12.25 6.76549,0 12.25,5.4845 12.25,12.25 z"
       sodipodi:ry="12.25"
       sodipodi:rx="12.25"
       sodipodi:cy="1102.1122"
       sodipodi:cx="-331.25"
       id="path7884"
       style="fill:#ffffff;fill-opacity:1;fill-rule:nonzero;stroke:none"
       sodipodi:type="arc" /><path
       style="fill:#ffffff;fill-opacity:1;fill-rule:nonzero;stroke:none"
       d="m -488.155,1149.3077 c 1.36935,0 2.01341,-0.6319 3.79894,-1.6628 l 0,10.4303 c 0,0 -1.57035,0 -1.92764,0 0,-0.3567 0.0589,-6.9305 0.0589,-7.5112 -0.442,0.2552 -1.04754,0.3694 -1.88334,0.3769 -0.8358,0.01 -1.6511,-0.2893 -1.85576,-0.3442 0,0.8049 -0.0277,6.3517 -0.0277,7.4785 -0.0541,0 -1.96238,0 -1.96238,0 l 0,-10.4302 c 1.7031,0.9832 2.42959,1.6629 3.79893,1.6627 z"
       id="path7886"
       inkscape:connector-curvature="0"
       sodipodi:nodetypes="zccccsccccz" /></g><g
     transform="translate(0.8749733,43.456299)"
     id="g7988"><rect
       ry="1.3175305"
       rx="1.3175305"
       y="1143.0964"
       x="-496.155"
       height="16"
       width="16"
       id="rect7990"
       style="fill:#0058b0;fill-opacity:1;fill-rule:nonzero;stroke:none" /><path
       sodipodi:type="arc"
       style="fill:#ffffff;fill-opacity:1;fill-rule:nonzero;stroke:none"
       id="path7992"
       sodipodi:cx="-331.25"
       sodipodi:cy="1102.1122"
       sodipodi:rx="12.25"
       sodipodi:ry="12.25"
       d="m -319,1102.1122 c 0,6.7655 -5.48451,12.25 -12.25,12.25 -6.76549,0 -12.25,-5.4845 -12.25,-12.25 0,-6.7655 5.48451,-12.25 12.25,-12.25 6.76549,0 12.25,5.4845 12.25,12.25 z"
       transform="matrix(0.09237623,0,0,0.09237623,-460.20536,1043.4774)" /><path
       transform="matrix(0.09237623,0,0,0.09237623,-454.90538,1043.4404)"
       d="m -319,1102.1122 c 0,6.7655 -5.48451,12.25 -12.25,12.25 -6.76549,0 -12.25,-5.4845 -12.25,-12.25 0,-6.7655 5.48451,-12.25 12.25,-12.25 6.76549,0 12.25,5.4845 12.25,12.25 z"
       sodipodi:ry="12.25"
       sodipodi:rx="12.25"
       sodipodi:cy="1102.1122"
       sodipodi:cx="-331.25"
       id="path7994"
       style="fill:#ffffff;fill-opacity:1;fill-rule:nonzero;stroke:none"
       sodipodi:type="arc" /><path
       style="fill:#ffffff;fill-opacity:1;fill-rule:nonzero;stroke:none"
       d="m -488.155,1149.3077 c 1.36935,0 2.01341,-0.6319 3.79894,-1.6628 l 0,10.4303 c 0,0 -1.57035,0 -1.92764,0 0,-0.3567 0.0589,-6.9305 0.0589,-7.5112 -0.442,0.2552 -1.04754,0.3694 -1.88334,0.3769 -0.8358,0.01 -1.6511,-0.2893 -1.85576,-0.3442 0,0.8049 -0.0277,6.3517 -0.0277,7.4785 -0.0541,0 -1.96238,0 -1.96238,0 l 0,-10.4302 c 1.7031,0.9832 2.42959,1.6629 3.79893,1.6627 z"
       id="path7996"
       inkscape:connector-curvature="0"
       sodipodi:nodetypes="zccccsccccz" /></g><g
     id="g8098"
     transform="translate(0.8749733,43.456299)"><rect
       style="fill:#0058b0;fill-opacity:1;fill-rule:nonzero;stroke:none"
       id="rect8100"
       width="16"
       height="16"
       x="-496.155"
       y="1143.0964"
       rx="1.3175305"
       ry="1.3175305" /><path
       transform="matrix(0.09237623,0,0,0.09237623,-460.20536,1043.4774)"
       d="m -319,1102.1122 c 0,6.7655 -5.48451,12.25 -12.25,12.25 -6.76549,0 -12.25,-5.4845 -12.25,-12.25 0,-6.7655 5.48451,-12.25 12.25,-12.25 6.76549,0 12.25,5.4845 12.25,12.25 z"
       sodipodi:ry="12.25"
       sodipodi:rx="12.25"
       sodipodi:cy="1102.1122"
       sodipodi:cx="-331.25"
       id="path8102"
       style="fill:#ffffff;fill-opacity:1;fill-rule:nonzero;stroke:none"
       sodipodi:type="arc" /><path
       sodipodi:type="arc"
       style="fill:#ffffff;fill-opacity:1;fill-rule:nonzero;stroke:none"
       id="path8104"
       sodipodi:cx="-331.25"
       sodipodi:cy="1102.1122"
       sodipodi:rx="12.25"
       sodipodi:ry="12.25"
       d="m -319,1102.1122 c 0,6.7655 -5.48451,12.25 -12.25,12.25 -6.76549,0 -12.25,-5.4845 -12.25,-12.25 0,-6.7655 5.48451,-12.25 12.25,-12.25 6.76549,0 12.25,5.4845 12.25,12.25 z"
       transform="matrix(0.09237623,0,0,0.09237623,-454.90538,1043.4404)" /><path
       sodipodi:nodetypes="zccccsccccz"
       inkscape:connector-curvature="0"
       id="path8106"
       d="m -488.155,1149.3077 c 1.36935,0 2.01341,-0.6319 3.79894,-1.6628 l 0,10.4303 c 0,0 -1.57035,0 -1.92764,0 0,-0.3567 0.0589,-6.9305 0.0589,-7.5112 -0.442,0.2552 -1.04754,0.3694 -1.88334,0.3769 -0.8358,0.01 -1.6511,-0.2893 -1.85576,-0.3442 0,0.8049 -0.0277,6.3517 -0.0277,7.4785 -0.0541,0 -1.96238,0 -1.96238,0 l 0,-10.4302 c 1.7031,0.9832 2.42959,1.6629 3.79893,1.6627 z"
       style="fill:#ffffff;fill-opacity:1;fill-rule:nonzero;stroke:none" /></g><g
     transform="translate(0.8749733,43.456299)"
     id="g8208"><rect
       ry="1.3175305"
       rx="1.3175305"
       y="1143.0964"
       x="-496.155"
       height="16"
       width="16"
       id="rect8210"
       style="fill:#0058b0;fill-opacity:1;fill-rule:nonzero;stroke:none" /><path
       sodipodi:type="arc"
       style="fill:#ffffff;fill-opacity:1;fill-rule:nonzero;stroke:none"
       id="path8212"
       sodipodi:cx="-331.25"
       sodipodi:cy="1102.1122"
       sodipodi:rx="12.25"
       sodipodi:ry="12.25"
       d="m -319,1102.1122 c 0,6.7655 -5.48451,12.25 -12.25,12.25 -6.76549,0 -12.25,-5.4845 -12.25,-12.25 0,-6.7655 5.48451,-12.25 12.25,-12.25 6.76549,0 12.25,5.4845 12.25,12.25 z"
       transform="matrix(0.09237623,0,0,0.09237623,-460.20536,1043.4774)" /><path
       transform="matrix(0.09237623,0,0,0.09237623,-454.90538,1043.4404)"
       d="m -319,1102.1122 c 0,6.7655 -5.48451,12.25 -12.25,12.25 -6.76549,0 -12.25,-5.4845 -12.25,-12.25 0,-6.7655 5.48451,-12.25 12.25,-12.25 6.76549,0 12.25,5.4845 12.25,12.25 z"
       sodipodi:ry="12.25"
       sodipodi:rx="12.25"
       sodipodi:cy="1102.1122"
       sodipodi:cx="-331.25"
       id="path8214"
       style="fill:#ffffff;fill-opacity:1;fill-rule:nonzero;stroke:none"
       sodipodi:type="arc" /><path
       style="fill:#ffffff;fill-opacity:1;fill-rule:nonzero;stroke:none"
       d="m -488.155,1149.3077 c 1.36935,0 2.01341,-0.6319 3.79894,-1.6628 l 0,10.4303 c 0,0 -1.57035,0 -1.92764,0 0,-0.3567 0.0589,-6.9305 0.0589,-7.5112 -0.442,0.2552 -1.04754,0.3694 -1.88334,0.3769 -0.8358,0.01 -1.6511,-0.2893 -1.85576,-0.3442 0,0.8049 -0.0277,6.3517 -0.0277,7.4785 -0.0541,0 -1.96238,0 -1.96238,0 l 0,-10.4302 c 1.7031,0.9832 2.42959,1.6629 3.79893,1.6627 z"
       id="path8216"
       inkscape:connector-curvature="0"
       sodipodi:nodetypes="zccccsccccz" /></g><g
     id="g8318"
     transform="translate(0.8749733,43.456299)"><rect
       style="fill:#0058b0;fill-opacity:1;fill-rule:nonzero;stroke:none"
       id="rect8320"
       width="16"
       height="16"
       x="-496.155"
       y="1143.0964"
       rx="1.3175305"
       ry="1.3175305" /><path
       transform="matrix(0.09237623,0,0,0.09237623,-460.20536,1043.4774)"
       d="m -319,1102.1122 c 0,6.7655 -5.48451,12.25 -12.25,12.25 -6.76549,0 -12.25,-5.4845 -12.25,-12.25 0,-6.7655 5.48451,-12.25 12.25,-12.25 6.76549,0 12.25,5.4845 12.25,12.25 z"
       sodipodi:ry="12.25"
       sodipodi:rx="12.25"
       sodipodi:cy="1102.1122"
       sodipodi:cx="-331.25"
       id="path8322"
       style="fill:#ffffff;fill-opacity:1;fill-rule:nonzero;stroke:none"
       sodipodi:type="arc" /><path
       sodipodi:type="arc"
       style="fill:#ffffff;fill-opacity:1;fill-rule:nonzero;stroke:none"
       id="path8324"
       sodipodi:cx="-331.25"
       sodipodi:cy="1102.1122"
       sodipodi:rx="12.25"
       sodipodi:ry="12.25"
       d="m -319,1102.1122 c 0,6.7655 -5.48451,12.25 -12.25,12.25 -6.76549,0 -12.25,-5.4845 -12.25,-12.25 0,-6.7655 5.48451,-12.25 12.25,-12.25 6.76549,0 12.25,5.4845 12.25,12.25 z"
       transform="matrix(0.09237623,0,0,0.09237623,-454.90538,1043.4404)" /><path
       sodipodi:nodetypes="zccccsccccz"
       inkscape:connector-curvature="0"
       id="path8326"
       d="m -488.155,1149.3077 c 1.36935,0 2.01341,-0.6319 3.79894,-1.6628 l 0,10.4303 c 0,0 -1.57035,0 -1.92764,0 0,-0.3567 0.0589,-6.9305 0.0589,-7.5112 -0.442,0.2552 -1.04754,0.3694 -1.88334,0.3769 -0.8358,0.01 -1.6511,-0.2893 -1.85576,-0.3442 0,0.8049 -0.0277,6.3517 -0.0277,7.4785 -0.0541,0 -1.96238,0 -1.96238,0 l 0,-10.4302 c 1.7031,0.9832 2.42959,1.6629 3.79893,1.6627 z"
       style="fill:#ffffff;fill-opacity:1;fill-rule:nonzero;stroke:none" /></g><rect
     ry="1.3175305"
     rx="1.3175305"
     y="1186.5527"
     x="-495.28003"
     height="16"
     width="16"
     id="rect8430"
     style="fill:#003366;fill-opacity:1;fill-rule:nonzero;stroke:none" /><path
     sodipodi:type="arc"
     style="fill:#ffffff;fill-opacity:1;fill-rule:nonzero;stroke:none"
     id="path8432"
     sodipodi:cx="-331.25"
     sodipodi:cy="1102.1122"
     sodipodi:rx="12.25"
     sodipodi:ry="12.25"
     d="m -319,1102.1122 c 0,6.7655 -5.48451,12.25 -12.25,12.25 -6.76549,0 -12.25,-5.4845 -12.25,-12.25 0,-6.7655 5.48451,-12.25 12.25,-12.25 6.76549,0 12.25,5.4845 12.25,12.25 z"
     transform="matrix(0.09237623,0,0,0.09237623,-459.33039,1086.9337)" /><path
     transform="matrix(0.09237623,0,0,0.09237623,-454.03041,1086.8967)"
     d="m -319,1102.1122 c 0,6.7655 -5.48451,12.25 -12.25,12.25 -6.76549,0 -12.25,-5.4845 -12.25,-12.25 0,-6.7655 5.48451,-12.25 12.25,-12.25 6.76549,0 12.25,5.4845 12.25,12.25 z"
     sodipodi:ry="12.25"
     sodipodi:rx="12.25"
     sodipodi:cy="1102.1122"
     sodipodi:cx="-331.25"
     id="path8434"
     style="fill:#ffffff;fill-opacity:1;fill-rule:nonzero;stroke:none"
     sodipodi:type="arc" /><path
     style="fill:#ffffff;fill-opacity:1;fill-rule:nonzero;stroke:none"
     d="m -487.28003,1192.764 c 1.36935,0 2.01341,-0.6319 3.79894,-1.6628 l 0,10.4303 c 0,0 -1.57035,0 -1.92764,0 0,-0.3567 0.0589,-6.9305 0.0589,-7.5112 -0.442,0.2552 -1.04754,0.3694 -1.88334,0.3769 -0.8358,0.01 -1.6511,-0.2893 -1.85576,-0.3442 0,0.8049 -0.0277,6.3517 -0.0277,7.4785 -0.0541,0 -1.96238,0 -1.96238,0 l 0,-10.4302 c 1.7031,0.9832 2.42959,1.6629 3.79893,1.6627 z"
     id="path8436"
     inkscape:connector-curvature="0"
     sodipodi:nodetypes="zccccsccccz" /></g></svg>