<?xml version="1.0" encoding="UTF-8" standalone="no"?>
<!-- Generator: Adobe Illustrator 15.0.0, SVG Export Plug-In . SVG Version: 6.00 Build 0)  -->

<svg
   xmlns:dc="http://purl.org/dc/elements/1.1/"
   xmlns:cc="http://creativecommons.org/ns#"
   xmlns:rdf="http://www.w3.org/1999/02/22-rdf-syntax-ns#"
   xmlns:svg="http://www.w3.org/2000/svg"
   xmlns="http://www.w3.org/2000/svg"
   xmlns:sodipodi="http://sodipodi.sourceforge.net/DTD/sodipodi-0.dtd"
   xmlns:inkscape="http://www.inkscape.org/namespaces/inkscape"
   version="1.1"
   id="Layer_1"
   x="0px"
   y="0px"
   width="48px"
   height="48px"
   viewBox="0 0 48 48"
   enable-background="new 0 0 48 48"
   xml:space="preserve"
   inkscape:version="0.48.2 r9819"
   sodipodi:docname="modif_down.svg"><metadata
   id="metadata23"><rdf:RDF><cc:Work
       rdf:about=""><dc:format>image/svg+xml</dc:format><dc:type
         rdf:resource="http://purl.org/dc/dcmitype/StillImage" /><dc:title /></cc:Work></rdf:RDF></metadata><defs
   id="defs21" /><sodipodi:namedview
   pagecolor="#ffffff"
   bordercolor="#666666"
   borderopacity="1"
   objecttolerance="10"
   gridtolerance="10"
   guidetolerance="10"
   inkscape:pageopacity="0"
   inkscape:pageshadow="2"
   inkscape:window-width="1920"
   inkscape:window-height="1020"
   id="namedview19"
   showgrid="false"
   inkscape:zoom="4.9166667"
   inkscape:cx="-10.014756"
   inkscape:cy="14.63254"
   inkscape:window-x="-4"
   inkscape:window-y="-4"
   inkscape:window-maximized="1"
   inkscape:current-layer="Layer_1" />

<path
   style="color:#000000;fill:#003366;fill-opacity:1;fill-rule:evenodd;stroke:none;stroke-width:3;marker:none;visibility:visible;display:inline;overflow:visible;enable-background:accumulate"
   d="M 23.96875 0 C 10.723279 0 -1.3679001e-017 10.723279 0 23.96875 C 0 37.214221 10.723279 47.96875 23.96875 47.96875 C 37.214221 47.96875 47.96875 37.214221 47.96875 23.96875 C 47.96875 10.723279 37.214221 4.0163875e-017 23.96875 0 z M 23.9375 5.6875 L 24.03125 5.6875 C 25.777757 5.6875 27.1875 7.4839328 27.1875 9.71875 L 27.1875 30.34375 L 34.1875 22.03125 C 35.186466 20.840729 37.068348 20.783617 38.40625 21.90625 L 38.46875 21.96875 C 39.806652 23.091383 40.092716 24.934479 39.09375 26.125 L 26.34375 41.3125 C 25.785281 41.978057 24.954633 42.30167 24.09375 42.25 C 24.07271 42.250525 24.0524 42.25 24.03125 42.25 L 23.9375 42.25 C 23.90694 42.25 23.8741 42.2511 23.84375 42.25 C 22.993622 42.292665 22.176915 41.970246 21.625 41.3125 L 8.875 26.125 C 7.876034 24.934479 8.1620974 23.091383 9.5 21.96875 L 9.5625 21.90625 C 10.900402 20.783617 12.782284 20.840729 13.78125 22.03125 L 20.78125 30.34375 L 20.78125 9.71875 C 20.78125 7.4839328 22.190993 5.6875 23.9375 5.6875 z "
   id="path6391" /></svg>