<?xml version="1.0" encoding="utf-8"?>
<!-- Generator: Adobe Illustrator 15.0.0, SVG Export Plug-In . SVG Version: 6.00 Build 0)  -->
<!DOCTYPE svg PUBLIC "-//W3C//DTD SVG 1.1//EN" "http://www.w3.org/Graphics/SVG/1.1/DTD/svg11.dtd">
<svg version="1.1" id="Layer_1" xmlns="http://www.w3.org/2000/svg" xmlns:xlink="http://www.w3.org/1999/xlink" x="0px" y="0px"
	 width="48px" height="48px" viewBox="0 0 48 48" enable-background="new 0 0 48 48" xml:space="preserve">
<path d="M8.708,17.958C8.319,17.569,8.45,17,9,17h9V2c0-0.55,0.45-1,1-1h10c0.551,0,1,0.45,1,1v15h9
	c0.551,0,0.682,0.569,0.293,0.958L24.707,32.707c-0.389,0.391-1.025,0.391-1.415,0L8.708,17.958z M48,38v9H0v-9c0-0.551,0.45-1,1-1
	h45.923C47.474,37,48,37.449,48,38 M44,41h-4v2h4V41z"/>
</svg>
