<?xml version="1.0" encoding="UTF-8" standalone="no"?>
<!-- Generator: Adobe Illustrator 15.0.0, SVG Export Plug-In . SVG Version: 6.00 Build 0)  -->

<svg
   xmlns:dc="http://purl.org/dc/elements/1.1/"
   xmlns:cc="http://creativecommons.org/ns#"
   xmlns:rdf="http://www.w3.org/1999/02/22-rdf-syntax-ns#"
   xmlns:svg="http://www.w3.org/2000/svg"
   xmlns="http://www.w3.org/2000/svg"
   xmlns:sodipodi="http://sodipodi.sourceforge.net/DTD/sodipodi-0.dtd"
   xmlns:inkscape="http://www.inkscape.org/namespaces/inkscape"
   version="1.1"
   id="Layer_1"
   x="0px"
   y="0px"
   width="48px"
   height="48px"
   viewBox="0 0 48 48"
   enable-background="new 0 0 48 48"
   xml:space="preserve"
   inkscape:version="0.48.2 r9819"
   sodipodi:docname="modif_down_blank.svg"><metadata
   id="metadata23"><rdf:RDF><cc:Work
       rdf:about=""><dc:format>image/svg+xml</dc:format><dc:type
         rdf:resource="http://purl.org/dc/dcmitype/StillImage" /><dc:title></dc:title></cc:Work></rdf:RDF></metadata><defs
   id="defs21" /><sodipodi:namedview
   pagecolor="#ffffff"
   bordercolor="#666666"
   borderopacity="1"
   objecttolerance="10"
   gridtolerance="10"
   guidetolerance="10"
   inkscape:pageopacity="0"
   inkscape:pageshadow="2"
   inkscape:window-width="1920"
   inkscape:window-height="1020"
   id="namedview19"
   showgrid="false"
   inkscape:zoom="9.8333333"
   inkscape:cx="-10.746474"
   inkscape:cy="17.18118"
   inkscape:window-x="-4"
   inkscape:window-y="-4"
   inkscape:window-maximized="1"
   inkscape:current-layer="Layer_1" />

<path
   inkscape:connector-curvature="0"
   id="path3778"
   d="m 23.960749,8.6903142 c -1.462404,0 -2.642825,1.5042098 -2.642825,3.3754898 l 0,17.26994 -5.861313,-6.96031 c -0.836465,-0.996859 -2.412222,-1.04468 -3.532488,-0.104666 l -0.05233,0.05233 c -1.120267,0.940016 -1.359796,2.483296 -0.523332,3.480156 l 10.675964,12.716957 c 0.462136,0.55075 1.145989,0.820722 1.857827,0.784997 0.02542,9.21e-4 0.05291,0 0.0785,0 l 0.0785,0 c 0.01771,0 0.03471,4.39e-4 0.05233,0 0.720844,0.04327 1.41637,-0.227706 1.883994,-0.784997 L 36.651539,25.803257 c 0.836465,-0.99686 0.596935,-2.54014 -0.523331,-3.480156 l -0.05233,-0.05233 c -1.120266,-0.940014 -2.696023,-0.892193 -3.532488,0.104666 l -5.861313,6.96031 0,-17.26994 c 0,-1.87128 -1.180421,-3.3754898 -2.642824,-3.3754898 l -0.0785,0 z"
   style="fill:#003366;fill-opacity:1;fill-rule:nonzero;stroke:none" /><path
   style="fill:#003366;fill-opacity:1;fill-rule:nonzero;stroke:none"
   d="M 24 0.125 C 10.807022 0.125 0.125 10.807022 0.125 24 C 0.125 37.192978 10.807022 47.875 24 47.875 C 37.192978 47.875 47.875 37.192978 47.875 24 C 47.875 10.807022 37.192978 0.125 24 0.125 z M 24 5.96875 C 33.963517 5.96875 42.03125 14.036483 42.03125 24 C 42.03125 33.963517 33.963517 42.03125 24 42.03125 C 14.036483 42.03125 5.96875 33.963517 5.96875 24 C 5.96875 14.036483 14.036483 5.96875 24 5.96875 z "
   id="path3007" /></svg>