<?xml version="1.0" encoding="UTF-8" standalone="no"?>
<!-- Generator: Adobe Illustrator 15.0.0, SVG Export Plug-In . SVG Version: 6.00 Build 0)  -->

<svg
   xmlns:dc="http://purl.org/dc/elements/1.1/"
   xmlns:cc="http://creativecommons.org/ns#"
   xmlns:rdf="http://www.w3.org/1999/02/22-rdf-syntax-ns#"
   xmlns:svg="http://www.w3.org/2000/svg"
   xmlns="http://www.w3.org/2000/svg"
   xmlns:sodipodi="http://sodipodi.sourceforge.net/DTD/sodipodi-0.dtd"
   xmlns:inkscape="http://www.inkscape.org/namespaces/inkscape"
   version="1.1"
   id="Layer_1"
   x="0px"
   y="0px"
   width="48px"
   height="48px"
   viewBox="0 0 48 48"
   enable-background="new 0 0 48 48"
   xml:space="preserve"
   inkscape:version="0.48.2 r9819"
   sodipodi:docname="modif_exit.svg"><metadata
   id="metadata23"><rdf:RDF><cc:Work
       rdf:about=""><dc:format>image/svg+xml</dc:format><dc:type
         rdf:resource="http://purl.org/dc/dcmitype/StillImage" /><dc:title /></cc:Work></rdf:RDF></metadata><defs
   id="defs21" /><sodipodi:namedview
   pagecolor="#ffffff"
   bordercolor="#666666"
   borderopacity="1"
   objecttolerance="10"
   gridtolerance="10"
   guidetolerance="10"
   inkscape:pageopacity="0"
   inkscape:pageshadow="2"
   inkscape:window-width="1920"
   inkscape:window-height="1020"
   id="namedview19"
   showgrid="false"
   inkscape:zoom="2.4583333"
   inkscape:cx="-15.10078"
   inkscape:cy="-34.050893"
   inkscape:window-x="-4"
   inkscape:window-y="-4"
   inkscape:window-maximized="1"
   inkscape:current-layer="Layer_1"
   showguides="true"
   inkscape:guide-bbox="true" />

<g
   id="g3848" /><g
   id="g3900"
   transform="translate(-52.09375,10.1875)"><path
     id="rect3757"
     d="m 62.28125,-10.1875 c -5.64187,0 -10.1875,4.5456332 -10.1875,10.1875 l 0,27.625 c 0,5.641867 4.54563,10.1875 10.1875,10.1875 l 27.625,0 c 5.64187,0 10.1875,-4.545633 10.1875,-10.1875 l 0,-14.1875 c -0.356434,-0.841029 -1.110209,-1.838527 -2.6875,-1.84375 -1.567217,-0.0052 -2.32606,0.971625 -2.6875,1.8125 l 0,11.125 c 0,4.375541 -3.53071,7.875 -7.90625,7.875 l -21.4375,0 c -4.37554,0 -7.90625,-3.499459 -7.90625,-7.875 l 0,-21.4375 c 0,-4.375541 3.53071,-7.90625 7.90625,-7.90625 l 11.15625,0 c 0.803643,-0.336093 1.7463,-1.0596862 1.75,-2.6875 0.0034,-1.5267437 -1.104015,-2.3186327 -1.9375,-2.6875 l -14.0625,0 z"
     style="color:#000000;fill:#003366;fill-opacity:1;stroke:none;stroke-width:4.2116127;marker:none;visibility:visible;display:inline;overflow:visible;enable-background:accumulate"
     inkscape:connector-curvature="0" /><path
     inkscape:connector-curvature="0"
     id="rect3875"
     d="m 84.878405,-8.324413 c -1.40309,0 -2.53125,1.282423 -2.53125,2.875 0,1.592577 1.12816,2.875 2.53125,2.875 l 3.4375,0 -11.03125,11.0625 c -0.99213,0.992134 -0.90737,2.686378 0.21875,3.8125 1.12612,1.126122 2.85162,1.242134 3.84375,0.25 l 11.0625,-11.09375 0,3.46875 c 0,1.40309 1.28242,2.53125 2.875,2.53125 1.59258,0 2.875,-1.12816 2.875,-2.53125 l 0,-10.375 0,-0.34375 c 0,-0.655878 -0.28893,-1.269849 -0.75,-1.71875 -0.45778,-0.5196 -1.07971,-0.8125 -1.78125,-0.8125 l -0.34375,0 -0.53125,0 -9.875,0 z"
     style="fill:#003366;fill-opacity:1;fill-rule:nonzero;stroke:none" /></g></svg>