<?xml version="1.0" encoding="utf-8"?>
<!-- Generator: Adobe Illustrator 15.0.0, SVG Export Plug-In . SVG Version: 6.00 Build 0)  -->
<!DOCTYPE svg PUBLIC "-//W3C//DTD SVG 1.1//EN" "http://www.w3.org/Graphics/SVG/1.1/DTD/svg11.dtd">
<svg version="1.1" id="Layer_1" xmlns="http://www.w3.org/2000/svg" xmlns:xlink="http://www.w3.org/1999/xlink" x="0px" y="0px"
	 width="48px" height="48px" viewBox="0 0 48 48" enable-background="new 0 0 48 48" xml:space="preserve">
<path d="M37.895,0H10.105C4.535,0,0,4.532,0,10.105v27.789C0,43.468,4.535,48,10.105,48h27.789C43.466,48,48,43.468,48,37.895
	V10.105C48,4.532,43.466,0,37.895,0 M42.947,40.421c0,1.389-1.138,2.526-2.526,2.526H7.579c-1.389,0-2.526-1.138-2.526-2.526V7.579
	c0-1.389,1.137-2.526,2.526-2.526h32.842c1.389,0,2.526,1.137,2.526,2.526V40.421z M34.105,17.684c1.389,0,1.851,1.456,1.031,2.575
	l-9.642,13.388c-0.82,1.115-2.17,1.253-2.99,0.133l-9.642-13.588c-0.82-1.118-0.357-2.507,1.031-2.507H34.105z"/>
</svg>
