<?xml version="1.0" encoding="UTF-8" standalone="no"?>
<!-- Generator: Adobe Illustrator 15.0.0, SVG Export Plug-In . SVG Version: 6.00 Build 0)  -->

<svg
   xmlns:dc="http://purl.org/dc/elements/1.1/"
   xmlns:cc="http://creativecommons.org/ns#"
   xmlns:rdf="http://www.w3.org/1999/02/22-rdf-syntax-ns#"
   xmlns:svg="http://www.w3.org/2000/svg"
   xmlns="http://www.w3.org/2000/svg"
   xmlns:sodipodi="http://sodipodi.sourceforge.net/DTD/sodipodi-0.dtd"
   xmlns:inkscape="http://www.inkscape.org/namespaces/inkscape"
   version="1.1"
   id="Layer_1"
   x="0px"
   y="0px"
   width="48px"
   height="48px"
   viewBox="0 0 48 48"
   enable-background="new 0 0 48 48"
   xml:space="preserve"
   inkscape:version="0.48.2 r9819"
   sodipodi:docname="_template.svg"><metadata
   id="metadata23"><rdf:RDF><cc:Work
       rdf:about=""><dc:format>image/svg+xml</dc:format><dc:type
         rdf:resource="http://purl.org/dc/dcmitype/StillImage" /><dc:title></dc:title></cc:Work></rdf:RDF></metadata><defs
   id="defs21" /><sodipodi:namedview
   pagecolor="#ffffff"
   bordercolor="#666666"
   borderopacity="1"
   objecttolerance="10"
   gridtolerance="10"
   guidetolerance="10"
   inkscape:pageopacity="0"
   inkscape:pageshadow="2"
   inkscape:window-width="868"
   inkscape:window-height="554"
   id="namedview19"
   showgrid="false"
   inkscape:zoom="4.9166667"
   inkscape:cx="24"
   inkscape:cy="20.12"
   inkscape:window-x="912"
   inkscape:window-y="331"
   inkscape:window-maximized="0"
   inkscape:current-layer="Layer_1" />

<g
   style="display:inline"
   id="g14865"
   inkscape:export-xdpi="300"
   inkscape:export-ydpi="300"
   transform="matrix(3.0084717,0,0,3.0084717,1721.7093,-3569.8458)"
   inkscape:export-filename="C:\Documents and Settings\jhernandez\Mis documentos\imagenCorp\iconos\iconos_jorge\ico_web\todos.png"><g
     id="g7744"
     transform="translate(-2.6749496,43.299927)"><rect
       style="fill:#0058b0;fill-opacity:1;fill-rule:nonzero;stroke:none"
       id="rect7746"
       width="16"
       height="16"
       x="-569.61206"
       y="1143.2528"
       rx="1.3175305"
       ry="1.3175305" /><path
       inkscape:connector-curvature="0"
       id="path7748"
       style="font-size:70.97514343px;font-style:normal;font-weight:bold;line-height:125%;letter-spacing:0px;word-spacing:0px;fill:#ffffff;fill-opacity:1;stroke:none;font-family:Sans;-inkscape-font-specification:Sans Bold"
       d="m -562.9513,1149.5232 1.50398,0 0,-0.733 c 0,-0.8184 0.0916,-1.4292 0.27476,-1.8323 0.18318,-0.4031 0.52061,-0.7314 1.0123,-0.9849 0.49168,-0.2534 1.11351,-0.3802 1.86551,-0.3802 0.77126,0 1.52646,0.11 2.2656,0.3298 l -0.36635,1.7957 c -0.43063,-0.098 -0.84519,-0.1466 -1.24367,-0.1466 -0.39207,0 -0.67326,0.087 -0.84358,0.2611 -0.17033,0.1741 -0.25549,0.5085 -0.25548,1.0032 l 0,0.6872 2.02458,0 0,2.0247 -2.02458,0 0,7.7049 -2.70909,0 0,-7.7049 -1.50398,0 z" /></g><g
     transform="translate(-2.6749496,43.299927)"
     id="g7854"><rect
       ry="1.3175305"
       rx="1.3175305"
       y="1143.2528"
       x="-569.61206"
       height="16"
       width="16"
       id="rect7856"
       style="fill:#0058b0;fill-opacity:1;fill-rule:nonzero;stroke:none" /><path
       d="m -562.9513,1149.5232 1.50398,0 0,-0.733 c 0,-0.8184 0.0916,-1.4292 0.27476,-1.8323 0.18318,-0.4031 0.52061,-0.7314 1.0123,-0.9849 0.49168,-0.2534 1.11351,-0.3802 1.86551,-0.3802 0.77126,0 1.52646,0.11 2.2656,0.3298 l -0.36635,1.7957 c -0.43063,-0.098 -0.84519,-0.1466 -1.24367,-0.1466 -0.39207,0 -0.67326,0.087 -0.84358,0.2611 -0.17033,0.1741 -0.25549,0.5085 -0.25548,1.0032 l 0,0.6872 2.02458,0 0,2.0247 -2.02458,0 0,7.7049 -2.70909,0 0,-7.7049 -1.50398,0 z"
       style="font-size:70.97514343px;font-style:normal;font-weight:bold;line-height:125%;letter-spacing:0px;word-spacing:0px;fill:#ffffff;fill-opacity:1;stroke:none;font-family:Sans;-inkscape-font-specification:Sans Bold"
       id="path7858"
       inkscape:connector-curvature="0" /></g><g
     transform="translate(-2.6749496,43.299927)"
     id="g7964"><rect
       ry="1.3175305"
       rx="1.3175305"
       y="1143.2528"
       x="-569.61206"
       height="16"
       width="16"
       id="rect7966"
       style="fill:#0058b0;fill-opacity:1;fill-rule:nonzero;stroke:none" /><path
       d="m -562.9513,1149.5232 1.50398,0 0,-0.733 c 0,-0.8184 0.0916,-1.4292 0.27476,-1.8323 0.18318,-0.4031 0.52061,-0.7314 1.0123,-0.9849 0.49168,-0.2534 1.11351,-0.3802 1.86551,-0.3802 0.77126,0 1.52646,0.11 2.2656,0.3298 l -0.36635,1.7957 c -0.43063,-0.098 -0.84519,-0.1466 -1.24367,-0.1466 -0.39207,0 -0.67326,0.087 -0.84358,0.2611 -0.17033,0.1741 -0.25549,0.5085 -0.25548,1.0032 l 0,0.6872 2.02458,0 0,2.0247 -2.02458,0 0,7.7049 -2.70909,0 0,-7.7049 -1.50398,0 z"
       style="font-size:70.97514343px;font-style:normal;font-weight:bold;line-height:125%;letter-spacing:0px;word-spacing:0px;fill:#ffffff;fill-opacity:1;stroke:none;font-family:Sans;-inkscape-font-specification:Sans Bold"
       id="path7968"
       inkscape:connector-curvature="0" /></g><g
     id="g8074"
     transform="translate(-2.6749496,43.299927)"><rect
       style="fill:#0058b0;fill-opacity:1;fill-rule:nonzero;stroke:none"
       id="rect8076"
       width="16"
       height="16"
       x="-569.61206"
       y="1143.2528"
       rx="1.3175305"
       ry="1.3175305" /><path
       inkscape:connector-curvature="0"
       id="path8078"
       style="font-size:70.97514343px;font-style:normal;font-weight:bold;line-height:125%;letter-spacing:0px;word-spacing:0px;fill:#ffffff;fill-opacity:1;stroke:none;font-family:Sans;-inkscape-font-specification:Sans Bold"
       d="m -562.9513,1149.5232 1.50398,0 0,-0.733 c 0,-0.8184 0.0916,-1.4292 0.27476,-1.8323 0.18318,-0.4031 0.52061,-0.7314 1.0123,-0.9849 0.49168,-0.2534 1.11351,-0.3802 1.86551,-0.3802 0.77126,0 1.52646,0.11 2.2656,0.3298 l -0.36635,1.7957 c -0.43063,-0.098 -0.84519,-0.1466 -1.24367,-0.1466 -0.39207,0 -0.67326,0.087 -0.84358,0.2611 -0.17033,0.1741 -0.25549,0.5085 -0.25548,1.0032 l 0,0.6872 2.02458,0 0,2.0247 -2.02458,0 0,7.7049 -2.70909,0 0,-7.7049 -1.50398,0 z" /></g><g
     transform="translate(-2.6749496,43.299927)"
     id="g8184"><rect
       ry="1.3175305"
       rx="1.3175305"
       y="1143.2528"
       x="-569.61206"
       height="16"
       width="16"
       id="rect8186"
       style="fill:#0058b0;fill-opacity:1;fill-rule:nonzero;stroke:none" /><path
       d="m -562.9513,1149.5232 1.50398,0 0,-0.733 c 0,-0.8184 0.0916,-1.4292 0.27476,-1.8323 0.18318,-0.4031 0.52061,-0.7314 1.0123,-0.9849 0.49168,-0.2534 1.11351,-0.3802 1.86551,-0.3802 0.77126,0 1.52646,0.11 2.2656,0.3298 l -0.36635,1.7957 c -0.43063,-0.098 -0.84519,-0.1466 -1.24367,-0.1466 -0.39207,0 -0.67326,0.087 -0.84358,0.2611 -0.17033,0.1741 -0.25549,0.5085 -0.25548,1.0032 l 0,0.6872 2.02458,0 0,2.0247 -2.02458,0 0,7.7049 -2.70909,0 0,-7.7049 -1.50398,0 z"
       style="font-size:70.97514343px;font-style:normal;font-weight:bold;line-height:125%;letter-spacing:0px;word-spacing:0px;fill:#ffffff;fill-opacity:1;stroke:none;font-family:Sans;-inkscape-font-specification:Sans Bold"
       id="path8188"
       inkscape:connector-curvature="0" /></g><g
     id="g8294"
     transform="translate(-2.6749496,43.299927)"><rect
       style="fill:#0058b0;fill-opacity:1;fill-rule:nonzero;stroke:none"
       id="rect8296"
       width="16"
       height="16"
       x="-569.61206"
       y="1143.2528"
       rx="1.3175305"
       ry="1.3175305" /><path
       inkscape:connector-curvature="0"
       id="path8298"
       style="font-size:70.97514343px;font-style:normal;font-weight:bold;line-height:125%;letter-spacing:0px;word-spacing:0px;fill:#ffffff;fill-opacity:1;stroke:none;font-family:Sans;-inkscape-font-specification:Sans Bold"
       d="m -562.9513,1149.5232 1.50398,0 0,-0.733 c 0,-0.8184 0.0916,-1.4292 0.27476,-1.8323 0.18318,-0.4031 0.52061,-0.7314 1.0123,-0.9849 0.49168,-0.2534 1.11351,-0.3802 1.86551,-0.3802 0.77126,0 1.52646,0.11 2.2656,0.3298 l -0.36635,1.7957 c -0.43063,-0.098 -0.84519,-0.1466 -1.24367,-0.1466 -0.39207,0 -0.67326,0.087 -0.84358,0.2611 -0.17033,0.1741 -0.25549,0.5085 -0.25548,1.0032 l 0,0.6872 2.02458,0 0,2.0247 -2.02458,0 0,7.7049 -2.70909,0 0,-7.7049 -1.50398,0 z" /></g><rect
     ry="1.3175305"
     rx="1.3175305"
     y="1186.5527"
     x="-572.28699"
     height="16"
     width="16"
     id="rect8406"
     style="fill:#003366;fill-opacity:1;fill-rule:nonzero;stroke:none" /><path
     d="m -565.62625,1192.8231 1.50398,0 0,-0.733 c 0,-0.8184 0.0916,-1.4292 0.27476,-1.8323 0.18318,-0.4031 0.52061,-0.7314 1.0123,-0.9849 0.49168,-0.2534 1.11351,-0.3802 1.86551,-0.3802 0.77126,0 1.52646,0.11 2.2656,0.3298 l -0.36635,1.7957 c -0.43063,-0.098 -0.84519,-0.1466 -1.24367,-0.1466 -0.39207,0 -0.67326,0.087 -0.84358,0.2611 -0.17033,0.1741 -0.25549,0.5085 -0.25548,1.0032 l 0,0.6872 2.02458,0 0,2.0247 -2.02458,0 0,7.7049 -2.70909,0 0,-7.7049 -1.50398,0 z"
     style="font-size:70.97514343px;font-style:normal;font-weight:bold;line-height:125%;letter-spacing:0px;word-spacing:0px;fill:#ffffff;fill-opacity:1;stroke:none;font-family:Sans;-inkscape-font-specification:Sans Bold"
     id="path8408"
     inkscape:connector-curvature="0" /></g></svg>