<?xml version="1.0" encoding="utf-8"?>
<!-- Generator: Adobe Illustrator 15.0.0, SVG Export Plug-In . SVG Version: 6.00 Build 0)  -->
<!DOCTYPE svg PUBLIC "-//W3C//DTD SVG 1.1//EN" "http://www.w3.org/Graphics/SVG/1.1/DTD/svg11.dtd">
<svg version="1.1" id="Layer_1" xmlns="http://www.w3.org/2000/svg" xmlns:xlink="http://www.w3.org/1999/xlink" x="0px" y="0px"
	 width="48px" height="48px" viewBox="0 0 48 48" enable-background="new 0 0 48 48" xml:space="preserve">
<path d="M48,0v14h-4V4H34V0H48z M4,14V4h10V0H0v14H4z M44,34v10H34v4h14v-2V34H44z M4,34H0v14h14v-4H4V34z"/>
<path d="M35.121,17.121l4.172,4.172c0.389,0.388,0.709,0.258,0.709-0.294v-12c0-0.55-0.451-1-1-1h-12
	c-0.553,0-0.684,0.32-0.295,0.708l4.172,4.172l-6.875,6.876l-6.881-6.878l4.17-4.17c0.388-0.388,0.258-0.708-0.292-0.708h-12
	c-0.552,0-1,0.45-1,1v12c0,0.552,0.318,0.682,0.706,0.294l4.174-4.174l6.878,6.878l-6.88,6.882l-4.172-4.172
	c-0.388-0.389-0.706-0.258-0.706,0.291v12c0,0.553,0.448,1,1,1h12c0.55,0,0.68-0.316,0.292-0.705l-4.172-4.172l6.883-6.881
	l6.877,6.879l-4.174,4.174c-0.389,0.389-0.258,0.705,0.295,0.705h12c0.549,0,1-0.447,1-1v-12c0-0.549-0.32-0.68-0.709-0.291
	l-4.17,4.17l-6.879-6.88L35.121,17.121z"/>
</svg>
