<?xml version="1.0" encoding="UTF-8" standalone="no"?>
<!-- Generator: Adobe Illustrator 15.0.0, SVG Export Plug-In . SVG Version: 6.00 Build 0)  -->

<svg
   xmlns:dc="http://purl.org/dc/elements/1.1/"
   xmlns:cc="http://creativecommons.org/ns#"
   xmlns:rdf="http://www.w3.org/1999/02/22-rdf-syntax-ns#"
   xmlns:svg="http://www.w3.org/2000/svg"
   xmlns="http://www.w3.org/2000/svg"
   xmlns:sodipodi="http://sodipodi.sourceforge.net/DTD/sodipodi-0.dtd"
   xmlns:inkscape="http://www.inkscape.org/namespaces/inkscape"
   version="1.1"
   id="Layer_1"
   x="0px"
   y="0px"
   width="48px"
   height="48px"
   viewBox="0 0 48 48"
   enable-background="new 0 0 48 48"
   xml:space="preserve"
   inkscape:version="0.48.2 r9819"
   sodipodi:docname="modif_g_plus.svg"><metadata
   id="metadata23"><rdf:RDF><cc:Work
       rdf:about=""><dc:format>image/svg+xml</dc:format><dc:type
         rdf:resource="http://purl.org/dc/dcmitype/StillImage" /><dc:title></dc:title></cc:Work></rdf:RDF></metadata><defs
   id="defs21" /><sodipodi:namedview
   pagecolor="#ffffff"
   bordercolor="#666666"
   borderopacity="1"
   objecttolerance="10"
   gridtolerance="10"
   guidetolerance="10"
   inkscape:pageopacity="0"
   inkscape:pageshadow="2"
   inkscape:window-width="1920"
   inkscape:window-height="1020"
   id="namedview19"
   showgrid="false"
   inkscape:zoom="2.4583334"
   inkscape:cx="169.45775"
   inkscape:cy="35.295454"
   inkscape:window-x="-4"
   inkscape:window-y="-4"
   inkscape:window-maximized="1"
   inkscape:current-layer="Layer_1" />

<path
   style="fill:#003366;fill-opacity:1;fill-rule:nonzero;stroke:none"
   d="m 4,0.078125 c -2.183722,0 -3.9375,1.753778 -3.9375,3.9375 l 0,14.8125 c 0.292068,-3.634694 2.157683,-6.009463 4.0625,-7.46875 2.077953,-1.591649 4.15625,-2.125 4.15625,-2.125 l 0.09375,0.03125 15.8125,0.1875 c -1.280959,1.578469 -3.808164,1.598097 -5.4375,1.84375 0,0 3.87082,2.043298 3.78125,8.125 -0.09889,6.725191 -5.588905,8.041035 -5.875,10.1875 -0.286186,2.146465 7.585543,3.555553 7.15625,13 -0.158383,3.484634 -0.880154,4.803164 -1.40625,5.3125 l 21.59375,0 c 2.18372,0 3.9375,-1.753778 3.9375,-3.9375 l 0,-39.96875 c 0,-2.183722 -1.75378,-3.9375 -3.9375,-3.9375 l -40,0 z m 30.6875,9.09375 2.6875,0 0,7.9375 7.9375,0 0,2.6875 -7.9375,0 0,7.9375 -2.6875,0 0,-7.9375 -7.9375,0 0,-2.6875 7.9375,0 0,-7.9375 z m -24.59375,2.78125 c -0.153623,0 -0.314468,0.0013 -0.46875,0.03125 -2.467611,0.330133 -4.015327,3.915275 -3.46875,8 0.546547,4.084425 2.969889,7.142633 5.4375,6.8125 2.467611,-0.330433 4.046577,-3.915275 3.5,-8 -0.512395,-3.829486 -2.695598,-6.76586 -5,-6.84375 z m -10.03125,9.375 0,16.125 c 0,0 1.70219,-1.865009 3.5625,-2.4375 1.86028,-0.572191 8.3125,-1 8.3125,-1 0,0 -1.633148,-0.49188 -1.84375,-2.28125 -0.210603,-1.789071 0,-2.1875 0,-2.1875 -1.430987,0.462546 -4.225263,-0.09939 -5.65625,-0.375 0,0 -3.871526,-0.78579 -4.375,-7.84375 z M 10,37.140625 c -4.137211,0.238804 -7.406609,2.677599 -7.4375,5.6875 -0.025566,2.500422 1.045964,4.382036 4.53125,5.09375 l 7.4375,0 c 3.326026,-0.681562 4.412426,-2.402146 4.4375,-4.84375 0.03283,-3.210561 -3.599209,-5.87459 -8.125,-5.9375 -0.282862,-0.004 -0.567936,-0.01592 -0.84375,0 z m -9.9375,6.4375 0,0.40625 c 0,0.14251 0.04793,0.26777 0.0625,0.40625 C 0.089184,44.06506 0.064583,43.78429 0.0625,43.578125 z m 0.0625,0.8125 c 0.024992,0.237532 0.060078,0.464764 0.125,0.6875 -0.048283,-0.230953 -0.101804,-0.476648 -0.125,-0.6875 z"
   id="rect8396"
   inkscape:connector-curvature="0" /></svg>