<?xml version="1.0" encoding="UTF-8" standalone="no"?>
<!-- Generator: Adobe Illustrator 15.0.0, SVG Export Plug-In . SVG Version: 6.00 Build 0)  -->

<svg
   xmlns:dc="http://purl.org/dc/elements/1.1/"
   xmlns:cc="http://creativecommons.org/ns#"
   xmlns:rdf="http://www.w3.org/1999/02/22-rdf-syntax-ns#"
   xmlns:svg="http://www.w3.org/2000/svg"
   xmlns="http://www.w3.org/2000/svg"
   xmlns:sodipodi="http://sodipodi.sourceforge.net/DTD/sodipodi-0.dtd"
   xmlns:inkscape="http://www.inkscape.org/namespaces/inkscape"
   version="1.1"
   id="Layer_1"
   x="0px"
   y="0px"
   width="48px"
   height="48px"
   viewBox="0 0 48 48"
   enable-background="new 0 0 48 48"
   xml:space="preserve"
   inkscape:version="0.48.2 r9819"
   sodipodi:docname="modif_global.svg"><metadata
   id="metadata23"><rdf:RDF><cc:Work
       rdf:about=""><dc:format>image/svg+xml</dc:format><dc:type
         rdf:resource="http://purl.org/dc/dcmitype/StillImage" /><dc:title /></cc:Work></rdf:RDF></metadata><defs
   id="defs21" /><sodipodi:namedview
   pagecolor="#ffffff"
   bordercolor="#666666"
   borderopacity="1"
   objecttolerance="10"
   gridtolerance="10"
   guidetolerance="10"
   inkscape:pageopacity="0"
   inkscape:pageshadow="2"
   inkscape:window-width="1920"
   inkscape:window-height="1020"
   id="namedview19"
   showgrid="false"
   inkscape:zoom="3.4766083"
   inkscape:cx="18.977236"
   inkscape:cy="40.402448"
   inkscape:window-x="-4"
   inkscape:window-y="-4"
   inkscape:window-maximized="1"
   inkscape:current-layer="Layer_1" />

<path
   style="fill:#003366;fill-opacity:1;stroke:none;display:inline"
   d="M 24 0.125 C 23.767556 0.125 23.543354 0.14964076 23.3125 0.15625 C 10.454286 0.52437478 0.125 11.053292 0.125 24 C 0.125 36.946746 10.454286 47.475627 23.3125 47.84375 C 23.542664 47.86439 23.766928 47.875 24 47.875 C 24.233072 47.875 24.457336 47.86439 24.6875 47.84375 C 37.545719 47.475627 47.875 36.946746 47.875 24 C 47.875 11.053292 37.545719 0.52437478 24.6875 0.15625 C 24.457336 0.1356103 24.233072 0.125 24 0.125 z M 22.5 3.09375 L 22.5 12.875 L 14.8125 12.875 C 16.469777 7.6657377 19.253258 3.9745434 22.5 3.09375 z M 25.5 3.09375 C 28.746734 3.9745434 31.53022 7.6657377 33.1875 12.875 L 25.5 12.875 L 25.5 3.09375 z M 16.71875 3.90625 C 14.756476 6.1302626 13.155714 9.2152361 12.0625 12.875 L 5.78125 12.875 C 8.2935621 8.77133 12.1297 5.5702173 16.71875 3.90625 z M 31.28125 3.90625 C 35.870301 5.5702172 39.706439 8.77133 42.21875 12.875 L 35.9375 12.875 C 34.844285 9.2152361 33.243524 6.1302626 31.28125 3.90625 z M 4.25 15.875 L 11.3125 15.875 C 10.879584 17.984841 10.610322 20.223963 10.53125 22.5625 L 2.6875 22.5625 C 2.8446146 20.206506 3.3903089 17.960995 4.25 15.875 z M 14 15.875 L 22.5 15.875 L 22.5 22.5625 L 13.21875 22.5625 C 13.300192 20.209242 13.555877 17.954734 14 15.875 z M 25.5 15.875 L 34 15.875 C 34.444124 17.954734 34.699808 20.209242 34.78125 22.5625 L 25.5 22.5625 L 25.5 15.875 z M 36.6875 15.875 L 43.75 15.875 C 44.609691 17.960995 45.155385 20.206506 45.3125 22.5625 L 37.46875 22.5625 C 37.389678 20.223963 37.120417 17.984841 36.6875 15.875 z M 2.6875 25.5625 L 10.53125 25.5625 C 10.61556 27.856279 10.887283 30.052681 11.3125 32.125 L 4.25 32.125 C 3.4053244 30.075438 2.854963 27.873751 2.6875 25.5625 z M 13.21875 25.5625 L 22.5 25.5625 L 22.5 32.125 L 14 32.125 C 13.563711 30.081949 13.305585 27.870585 13.21875 25.5625 z M 25.5 25.5625 L 34.78125 25.5625 C 34.694415 27.870585 34.436291 30.081949 34 32.125 L 25.5 32.125 L 25.5 25.5625 z M 37.46875 25.5625 L 45.3125 25.5625 C 45.145037 27.873751 44.594675 30.075438 43.75 32.125 L 36.6875 32.125 C 37.112717 30.052681 37.38444 27.856279 37.46875 25.5625 z M 5.78125 35.125 L 12.0625 35.125 C 13.155714 38.784764 14.756476 41.869742 16.71875 44.09375 C 12.1297 42.429787 8.2935621 39.22867 5.78125 35.125 z M 14.8125 35.125 L 22.5 35.125 L 22.5 44.90625 C 19.253258 44.02546 16.469777 40.334261 14.8125 35.125 z M 25.5 35.125 L 33.1875 35.125 C 31.53022 40.334261 28.746734 44.02546 25.5 44.90625 L 25.5 35.125 z M 35.9375 35.125 L 42.21875 35.125 C 39.706439 39.22867 35.870301 42.429787 31.28125 44.09375 C 33.243524 41.869742 34.844285 38.784764 35.9375 35.125 z "
   id="path2982" /></svg>