<?xml version="1.0" encoding="UTF-8" standalone="no"?>
<!-- Generator: Adobe Illustrator 15.0.0, SVG Export Plug-In . SVG Version: 6.00 Build 0)  -->

<svg
   xmlns:dc="http://purl.org/dc/elements/1.1/"
   xmlns:cc="http://creativecommons.org/ns#"
   xmlns:rdf="http://www.w3.org/1999/02/22-rdf-syntax-ns#"
   xmlns:svg="http://www.w3.org/2000/svg"
   xmlns="http://www.w3.org/2000/svg"
   xmlns:sodipodi="http://sodipodi.sourceforge.net/DTD/sodipodi-0.dtd"
   xmlns:inkscape="http://www.inkscape.org/namespaces/inkscape"
   version="1.1"
   id="Layer_1"
   x="0px"
   y="0px"
   width="48px"
   height="48px"
   viewBox="0 0 48 48"
   enable-background="new 0 0 48 48"
   xml:space="preserve"
   inkscape:version="0.48.2 r9819"
   sodipodi:docname="D:\Proyectos\ISTAC\11-Metamac\02-workspace\metamac-portal\metamac-portal-web-client\icons\_template.svg"><metadata
   id="metadata3803"><rdf:RDF><cc:Work
       rdf:about=""><dc:format>image/svg+xml</dc:format><dc:type
         rdf:resource="http://purl.org/dc/dcmitype/StillImage" /><dc:title></dc:title></cc:Work></rdf:RDF></metadata><defs
   id="defs3801" /><sodipodi:namedview
   pagecolor="#ffffff"
   bordercolor="#666666"
   borderopacity="1"
   objecttolerance="10"
   gridtolerance="10"
   guidetolerance="10"
   inkscape:pageopacity="0"
   inkscape:pageshadow="2"
   inkscape:window-width="1920"
   inkscape:window-height="1018"
   id="namedview3799"
   showgrid="false"
   inkscape:zoom="4.9166667"
   inkscape:cx="-1.7288136"
   inkscape:cy="24"
   inkscape:window-x="-8"
   inkscape:window-y="-8"
   inkscape:window-maximized="1"
   inkscape:current-layer="Layer_1" />

<g
   style="display:inline"
   id="g15109"
   inkscape:export-xdpi="300"
   inkscape:export-ydpi="300"
   transform="matrix(2.9957613,0,0,2.9957613,1176.148,-3554.6287)"
   inkscape:export-filename="C:\Documents and Settings\jhernandez\Mis documentos\imagenCorp\iconos\iconos_jorge\ico_web\todos.png"><g
     id="g7826"
     transform="translate(10.314594,41.571045)"><rect
       ry="1.3175305"
       rx="1.3175305"
       y="1144.9817"
       x="-402.91864"
       height="16"
       width="16"
       id="rect7828"
       style="fill:#0058b0;fill-opacity:1;fill-rule:nonzero;stroke:none" /><path
       d="m -389.96944,1146.1067 0.3492,4.1502 -0.3492,0 c -0.35261,-1.0343 -0.80827,-1.8133 -1.36701,-2.3369 -0.80492,-0.7564 -1.83933,-1.1346 -3.10327,-1.1346 -1.72289,0 -3.03335,0.6627 -3.93137,1.9879 -0.75172,1.1183 -1.12755,2.45 -1.12755,3.995 0,1.2542 0.24942,2.3984 0.74832,3.4327 0.49896,1.0343 1.15251,1.7923 1.96072,2.2739 0.80828,0.4816 1.63811,0.7224 2.48961,0.7224 0.4989,0 0.9812,-0.061 1.44684,-0.1842 0.46564,-0.1229 0.91468,-0.3039 1.34706,-0.5431 l 0,-3.8011 c 0,-0.6593 -0.0514,-1.0909 -0.15466,-1.2945 -0.10312,-0.2036 -0.26279,-0.3588 -0.47895,-0.4655 -0.21622,-0.1066 -0.59707,-0.1599 -1.14249,-0.1599 l 0,-0.3685 5.23855,0 0,0.3685 -0.24948,0 c -0.51885,0 -0.8748,0.168 -1.06767,0.5042 -0.13304,0.2392 -0.19956,0.7111 -0.19956,1.4157 l 0,4.0242 c -0.76498,0.4007 -1.51999,0.6949 -2.26502,0.8824 -0.7451,0.1874 -1.57326,0.2812 -2.48459,0.2812 -2.61435,0 -4.59998,-0.8146 -5.95701,-2.4436 -1.0178,-1.2218 -1.52667,-2.6311 -1.52667,-4.2278 0,-1.1571 0.28602,-2.2658 0.85813,-3.326 0.67851,-1.2605 1.60979,-2.2302 2.7939,-2.909 0.99117,-0.5624 2.16196,-0.8436 3.5123,-0.8436 0.49228,0 0.93964,0.039 1.34211,0.1163 0.40246,0.078 0.97284,0.2489 1.71125,0.514 0.37248,0.1357 0.62196,0.2036 0.74838,0.2036 0.12635,0 0.23449,-0.057 0.3243,-0.1697 0.0897,-0.1131 0.14468,-0.3345 0.16462,-0.6642 z"
       style="font-size:76.10719299px;font-style:normal;font-variant:normal;font-weight:normal;font-stretch:normal;text-align:start;line-height:125%;letter-spacing:0px;word-spacing:0px;writing-mode:lr-tb;text-anchor:start;fill:#ffffff;fill-opacity:1;stroke:none;font-family:Times New Roman;-inkscape-font-specification:'Times New Roman,'"
       id="path7830"
       inkscape:connector-curvature="0" /></g><g
     transform="translate(10.314594,41.571045)"
     id="g7936"><rect
       style="fill:#0058b0;fill-opacity:1;fill-rule:nonzero;stroke:none"
       id="rect7938"
       width="16"
       height="16"
       x="-402.91864"
       y="1144.9817"
       rx="1.3175305"
       ry="1.3175305" /><path
       inkscape:connector-curvature="0"
       id="path7940"
       style="font-size:76.10719299px;font-style:normal;font-variant:normal;font-weight:normal;font-stretch:normal;text-align:start;line-height:125%;letter-spacing:0px;word-spacing:0px;writing-mode:lr-tb;text-anchor:start;fill:#ffffff;fill-opacity:1;stroke:none;font-family:Times New Roman;-inkscape-font-specification:'Times New Roman,'"
       d="m -389.96944,1146.1067 0.3492,4.1502 -0.3492,0 c -0.35261,-1.0343 -0.80827,-1.8133 -1.36701,-2.3369 -0.80492,-0.7564 -1.83933,-1.1346 -3.10327,-1.1346 -1.72289,0 -3.03335,0.6627 -3.93137,1.9879 -0.75172,1.1183 -1.12755,2.45 -1.12755,3.995 0,1.2542 0.24942,2.3984 0.74832,3.4327 0.49896,1.0343 1.15251,1.7923 1.96072,2.2739 0.80828,0.4816 1.63811,0.7224 2.48961,0.7224 0.4989,0 0.9812,-0.061 1.44684,-0.1842 0.46564,-0.1229 0.91468,-0.3039 1.34706,-0.5431 l 0,-3.8011 c 0,-0.6593 -0.0514,-1.0909 -0.15466,-1.2945 -0.10312,-0.2036 -0.26279,-0.3588 -0.47895,-0.4655 -0.21622,-0.1066 -0.59707,-0.1599 -1.14249,-0.1599 l 0,-0.3685 5.23855,0 0,0.3685 -0.24948,0 c -0.51885,0 -0.8748,0.168 -1.06767,0.5042 -0.13304,0.2392 -0.19956,0.7111 -0.19956,1.4157 l 0,4.0242 c -0.76498,0.4007 -1.51999,0.6949 -2.26502,0.8824 -0.7451,0.1874 -1.57326,0.2812 -2.48459,0.2812 -2.61435,0 -4.59998,-0.8146 -5.95701,-2.4436 -1.0178,-1.2218 -1.52667,-2.6311 -1.52667,-4.2278 0,-1.1571 0.28602,-2.2658 0.85813,-3.326 0.67851,-1.2605 1.60979,-2.2302 2.7939,-2.909 0.99117,-0.5624 2.16196,-0.8436 3.5123,-0.8436 0.49228,0 0.93964,0.039 1.34211,0.1163 0.40246,0.078 0.97284,0.2489 1.71125,0.514 0.37248,0.1357 0.62196,0.2036 0.74838,0.2036 0.12635,0 0.23449,-0.057 0.3243,-0.1697 0.0897,-0.1131 0.14468,-0.3345 0.16462,-0.6642 z" /></g><g
     transform="translate(10.314594,41.571045)"
     id="g8046"><rect
       style="fill:#0058b0;fill-opacity:1;fill-rule:nonzero;stroke:none"
       id="rect8048"
       width="16"
       height="16"
       x="-402.91864"
       y="1144.9817"
       rx="1.3175305"
       ry="1.3175305" /><path
       inkscape:connector-curvature="0"
       id="path8050"
       style="font-size:76.10719299px;font-style:normal;font-variant:normal;font-weight:normal;font-stretch:normal;text-align:start;line-height:125%;letter-spacing:0px;word-spacing:0px;writing-mode:lr-tb;text-anchor:start;fill:#ffffff;fill-opacity:1;stroke:none;font-family:Times New Roman;-inkscape-font-specification:'Times New Roman,'"
       d="m -389.96944,1146.1067 0.3492,4.1502 -0.3492,0 c -0.35261,-1.0343 -0.80827,-1.8133 -1.36701,-2.3369 -0.80492,-0.7564 -1.83933,-1.1346 -3.10327,-1.1346 -1.72289,0 -3.03335,0.6627 -3.93137,1.9879 -0.75172,1.1183 -1.12755,2.45 -1.12755,3.995 0,1.2542 0.24942,2.3984 0.74832,3.4327 0.49896,1.0343 1.15251,1.7923 1.96072,2.2739 0.80828,0.4816 1.63811,0.7224 2.48961,0.7224 0.4989,0 0.9812,-0.061 1.44684,-0.1842 0.46564,-0.1229 0.91468,-0.3039 1.34706,-0.5431 l 0,-3.8011 c 0,-0.6593 -0.0514,-1.0909 -0.15466,-1.2945 -0.10312,-0.2036 -0.26279,-0.3588 -0.47895,-0.4655 -0.21622,-0.1066 -0.59707,-0.1599 -1.14249,-0.1599 l 0,-0.3685 5.23855,0 0,0.3685 -0.24948,0 c -0.51885,0 -0.8748,0.168 -1.06767,0.5042 -0.13304,0.2392 -0.19956,0.7111 -0.19956,1.4157 l 0,4.0242 c -0.76498,0.4007 -1.51999,0.6949 -2.26502,0.8824 -0.7451,0.1874 -1.57326,0.2812 -2.48459,0.2812 -2.61435,0 -4.59998,-0.8146 -5.95701,-2.4436 -1.0178,-1.2218 -1.52667,-2.6311 -1.52667,-4.2278 0,-1.1571 0.28602,-2.2658 0.85813,-3.326 0.67851,-1.2605 1.60979,-2.2302 2.7939,-2.909 0.99117,-0.5624 2.16196,-0.8436 3.5123,-0.8436 0.49228,0 0.93964,0.039 1.34211,0.1163 0.40246,0.078 0.97284,0.2489 1.71125,0.514 0.37248,0.1357 0.62196,0.2036 0.74838,0.2036 0.12635,0 0.23449,-0.057 0.3243,-0.1697 0.0897,-0.1131 0.14468,-0.3345 0.16462,-0.6642 z" /></g><g
     id="g8156"
     transform="translate(10.314594,41.571045)"><rect
       ry="1.3175305"
       rx="1.3175305"
       y="1144.9817"
       x="-402.91864"
       height="16"
       width="16"
       id="rect8158"
       style="fill:#0058b0;fill-opacity:1;fill-rule:nonzero;stroke:none" /><path
       d="m -389.96944,1146.1067 0.3492,4.1502 -0.3492,0 c -0.35261,-1.0343 -0.80827,-1.8133 -1.36701,-2.3369 -0.80492,-0.7564 -1.83933,-1.1346 -3.10327,-1.1346 -1.72289,0 -3.03335,0.6627 -3.93137,1.9879 -0.75172,1.1183 -1.12755,2.45 -1.12755,3.995 0,1.2542 0.24942,2.3984 0.74832,3.4327 0.49896,1.0343 1.15251,1.7923 1.96072,2.2739 0.80828,0.4816 1.63811,0.7224 2.48961,0.7224 0.4989,0 0.9812,-0.061 1.44684,-0.1842 0.46564,-0.1229 0.91468,-0.3039 1.34706,-0.5431 l 0,-3.8011 c 0,-0.6593 -0.0514,-1.0909 -0.15466,-1.2945 -0.10312,-0.2036 -0.26279,-0.3588 -0.47895,-0.4655 -0.21622,-0.1066 -0.59707,-0.1599 -1.14249,-0.1599 l 0,-0.3685 5.23855,0 0,0.3685 -0.24948,0 c -0.51885,0 -0.8748,0.168 -1.06767,0.5042 -0.13304,0.2392 -0.19956,0.7111 -0.19956,1.4157 l 0,4.0242 c -0.76498,0.4007 -1.51999,0.6949 -2.26502,0.8824 -0.7451,0.1874 -1.57326,0.2812 -2.48459,0.2812 -2.61435,0 -4.59998,-0.8146 -5.95701,-2.4436 -1.0178,-1.2218 -1.52667,-2.6311 -1.52667,-4.2278 0,-1.1571 0.28602,-2.2658 0.85813,-3.326 0.67851,-1.2605 1.60979,-2.2302 2.7939,-2.909 0.99117,-0.5624 2.16196,-0.8436 3.5123,-0.8436 0.49228,0 0.93964,0.039 1.34211,0.1163 0.40246,0.078 0.97284,0.2489 1.71125,0.514 0.37248,0.1357 0.62196,0.2036 0.74838,0.2036 0.12635,0 0.23449,-0.057 0.3243,-0.1697 0.0897,-0.1131 0.14468,-0.3345 0.16462,-0.6642 z"
       style="font-size:76.10719299px;font-style:normal;font-variant:normal;font-weight:normal;font-stretch:normal;text-align:start;line-height:125%;letter-spacing:0px;word-spacing:0px;writing-mode:lr-tb;text-anchor:start;fill:#ffffff;fill-opacity:1;stroke:none;font-family:Times New Roman;-inkscape-font-specification:'Times New Roman,'"
       id="path8160"
       inkscape:connector-curvature="0" /></g><g
     transform="translate(10.314594,41.571045)"
     id="g8266"><rect
       style="fill:#0058b0;fill-opacity:1;fill-rule:nonzero;stroke:none"
       id="rect8268"
       width="16"
       height="16"
       x="-402.91864"
       y="1144.9817"
       rx="1.3175305"
       ry="1.3175305" /><path
       inkscape:connector-curvature="0"
       id="path8270"
       style="font-size:76.10719299px;font-style:normal;font-variant:normal;font-weight:normal;font-stretch:normal;text-align:start;line-height:125%;letter-spacing:0px;word-spacing:0px;writing-mode:lr-tb;text-anchor:start;fill:#ffffff;fill-opacity:1;stroke:none;font-family:Times New Roman;-inkscape-font-specification:'Times New Roman,'"
       d="m -389.96944,1146.1067 0.3492,4.1502 -0.3492,0 c -0.35261,-1.0343 -0.80827,-1.8133 -1.36701,-2.3369 -0.80492,-0.7564 -1.83933,-1.1346 -3.10327,-1.1346 -1.72289,0 -3.03335,0.6627 -3.93137,1.9879 -0.75172,1.1183 -1.12755,2.45 -1.12755,3.995 0,1.2542 0.24942,2.3984 0.74832,3.4327 0.49896,1.0343 1.15251,1.7923 1.96072,2.2739 0.80828,0.4816 1.63811,0.7224 2.48961,0.7224 0.4989,0 0.9812,-0.061 1.44684,-0.1842 0.46564,-0.1229 0.91468,-0.3039 1.34706,-0.5431 l 0,-3.8011 c 0,-0.6593 -0.0514,-1.0909 -0.15466,-1.2945 -0.10312,-0.2036 -0.26279,-0.3588 -0.47895,-0.4655 -0.21622,-0.1066 -0.59707,-0.1599 -1.14249,-0.1599 l 0,-0.3685 5.23855,0 0,0.3685 -0.24948,0 c -0.51885,0 -0.8748,0.168 -1.06767,0.5042 -0.13304,0.2392 -0.19956,0.7111 -0.19956,1.4157 l 0,4.0242 c -0.76498,0.4007 -1.51999,0.6949 -2.26502,0.8824 -0.7451,0.1874 -1.57326,0.2812 -2.48459,0.2812 -2.61435,0 -4.59998,-0.8146 -5.95701,-2.4436 -1.0178,-1.2218 -1.52667,-2.6311 -1.52667,-4.2278 0,-1.1571 0.28602,-2.2658 0.85813,-3.326 0.67851,-1.2605 1.60979,-2.2302 2.7939,-2.909 0.99117,-0.5624 2.16196,-0.8436 3.5123,-0.8436 0.49228,0 0.93964,0.039 1.34211,0.1163 0.40246,0.078 0.97284,0.2489 1.71125,0.514 0.37248,0.1357 0.62196,0.2036 0.74838,0.2036 0.12635,0 0.23449,-0.057 0.3243,-0.1697 0.0897,-0.1131 0.14468,-0.3345 0.16462,-0.6642 z" /></g><g
     id="g8376"
     transform="translate(10.314594,41.571045)"><rect
       ry="1.3175305"
       rx="1.3175305"
       y="1144.9817"
       x="-402.91864"
       height="16"
       width="16"
       id="rect8378"
       style="fill:#0058b0;fill-opacity:1;fill-rule:nonzero;stroke:none" /><path
       d="m -389.96944,1146.1067 0.3492,4.1502 -0.3492,0 c -0.35261,-1.0343 -0.80827,-1.8133 -1.36701,-2.3369 -0.80492,-0.7564 -1.83933,-1.1346 -3.10327,-1.1346 -1.72289,0 -3.03335,0.6627 -3.93137,1.9879 -0.75172,1.1183 -1.12755,2.45 -1.12755,3.995 0,1.2542 0.24942,2.3984 0.74832,3.4327 0.49896,1.0343 1.15251,1.7923 1.96072,2.2739 0.80828,0.4816 1.63811,0.7224 2.48961,0.7224 0.4989,0 0.9812,-0.061 1.44684,-0.1842 0.46564,-0.1229 0.91468,-0.3039 1.34706,-0.5431 l 0,-3.8011 c 0,-0.6593 -0.0514,-1.0909 -0.15466,-1.2945 -0.10312,-0.2036 -0.26279,-0.3588 -0.47895,-0.4655 -0.21622,-0.1066 -0.59707,-0.1599 -1.14249,-0.1599 l 0,-0.3685 5.23855,0 0,0.3685 -0.24948,0 c -0.51885,0 -0.8748,0.168 -1.06767,0.5042 -0.13304,0.2392 -0.19956,0.7111 -0.19956,1.4157 l 0,4.0242 c -0.76498,0.4007 -1.51999,0.6949 -2.26502,0.8824 -0.7451,0.1874 -1.57326,0.2812 -2.48459,0.2812 -2.61435,0 -4.59998,-0.8146 -5.95701,-2.4436 -1.0178,-1.2218 -1.52667,-2.6311 -1.52667,-4.2278 0,-1.1571 0.28602,-2.2658 0.85813,-3.326 0.67851,-1.2605 1.60979,-2.2302 2.7939,-2.909 0.99117,-0.5624 2.16196,-0.8436 3.5123,-0.8436 0.49228,0 0.93964,0.039 1.34211,0.1163 0.40246,0.078 0.97284,0.2489 1.71125,0.514 0.37248,0.1357 0.62196,0.2036 0.74838,0.2036 0.12635,0 0.23449,-0.057 0.3243,-0.1697 0.0897,-0.1131 0.14468,-0.3345 0.16462,-0.6642 z"
       style="font-size:76.10719299px;font-style:normal;font-variant:normal;font-weight:normal;font-stretch:normal;text-align:start;line-height:125%;letter-spacing:0px;word-spacing:0px;writing-mode:lr-tb;text-anchor:start;fill:#ffffff;fill-opacity:1;stroke:none;font-family:Times New Roman;-inkscape-font-specification:'Times New Roman,'"
       id="path8380"
       inkscape:connector-curvature="0" /></g><rect
     style="fill:#003366;fill-opacity:1;fill-rule:nonzero;stroke:none"
     id="rect8488"
     width="16"
     height="16"
     x="-392.60403"
     y="1186.5527"
     rx="1.3175305"
     ry="1.3175305" /><path
     inkscape:connector-curvature="0"
     id="path8490"
     style="font-size:76.10719299px;font-style:normal;font-variant:normal;font-weight:normal;font-stretch:normal;text-align:start;line-height:125%;letter-spacing:0px;word-spacing:0px;writing-mode:lr-tb;text-anchor:start;fill:#ffffff;fill-opacity:1;stroke:none;font-family:Times New Roman;-inkscape-font-specification:'Times New Roman,'"
     d="m -379.65485,1187.6777 0.3492,4.1502 -0.3492,0 c -0.35261,-1.0343 -0.80827,-1.8133 -1.36701,-2.3369 -0.80492,-0.7564 -1.83933,-1.1346 -3.10327,-1.1346 -1.72289,0 -3.03335,0.6627 -3.93137,1.9879 -0.75172,1.1183 -1.12755,2.45 -1.12755,3.995 0,1.2542 0.24942,2.3984 0.74832,3.4327 0.49896,1.0343 1.15251,1.7923 1.96072,2.2739 0.80828,0.4816 1.63811,0.7224 2.48961,0.7224 0.4989,0 0.9812,-0.061 1.44684,-0.1842 0.46564,-0.1229 0.91468,-0.3039 1.34706,-0.5431 l 0,-3.8011 c 0,-0.6593 -0.0514,-1.0909 -0.15466,-1.2945 -0.10312,-0.2036 -0.26279,-0.3588 -0.47895,-0.4655 -0.21622,-0.1066 -0.59707,-0.1599 -1.14249,-0.1599 l 0,-0.3685 5.23855,0 0,0.3685 -0.24948,0 c -0.51885,0 -0.8748,0.168 -1.06767,0.5042 -0.13304,0.2392 -0.19956,0.7111 -0.19956,1.4157 l 0,4.0242 c -0.76498,0.4007 -1.51999,0.6949 -2.26502,0.8824 -0.7451,0.1874 -1.57326,0.2812 -2.48459,0.2812 -2.61435,0 -4.59998,-0.8146 -5.95701,-2.4436 -1.0178,-1.2218 -1.52667,-2.6311 -1.52667,-4.2278 0,-1.1571 0.28602,-2.2658 0.85813,-3.326 0.67851,-1.2605 1.60979,-2.2302 2.7939,-2.909 0.99117,-0.5624 2.16196,-0.8436 3.5123,-0.8436 0.49228,0 0.93964,0.039 1.34211,0.1163 0.40246,0.078 0.97284,0.2489 1.71125,0.514 0.37248,0.1357 0.62196,0.2036 0.74838,0.2036 0.12635,0 0.23449,-0.057 0.3243,-0.1697 0.0897,-0.1131 0.14468,-0.3345 0.16462,-0.6642 z" /></g></svg>