<?xml version="1.0" encoding="UTF-8" standalone="no"?>
<!-- Generator: Adobe Illustrator 15.0.0, SVG Export Plug-In . SVG Version: 6.00 Build 0)  -->

<svg
   xmlns:dc="http://purl.org/dc/elements/1.1/"
   xmlns:cc="http://creativecommons.org/ns#"
   xmlns:rdf="http://www.w3.org/1999/02/22-rdf-syntax-ns#"
   xmlns:svg="http://www.w3.org/2000/svg"
   xmlns="http://www.w3.org/2000/svg"
   xmlns:sodipodi="http://sodipodi.sourceforge.net/DTD/sodipodi-0.dtd"
   xmlns:inkscape="http://www.inkscape.org/namespaces/inkscape"
   version="1.1"
   id="Layer_1"
   x="0px"
   y="0px"
   width="48px"
   height="48px"
   viewBox="0 0 48 48"
   enable-background="new 0 0 48 48"
   xml:space="preserve"
   inkscape:version="0.48.2 r9819"
   sodipodi:docname="graf_SVG.svg"><metadata
   id="metadata23"><rdf:RDF><cc:Work
       rdf:about=""><dc:format>image/svg+xml</dc:format><dc:type
         rdf:resource="http://purl.org/dc/dcmitype/StillImage" /><dc:title></dc:title></cc:Work></rdf:RDF></metadata><defs
   id="defs21" /><sodipodi:namedview
   pagecolor="#ffffff"
   bordercolor="#666666"
   borderopacity="1"
   objecttolerance="10"
   gridtolerance="10"
   guidetolerance="10"
   inkscape:pageopacity="0"
   inkscape:pageshadow="2"
   inkscape:window-width="1920"
   inkscape:window-height="1020"
   id="namedview19"
   showgrid="false"
   inkscape:zoom="6.9532166"
   inkscape:cx="74.097862"
   inkscape:cy="6.8550172"
   inkscape:window-x="-4"
   inkscape:window-y="-4"
   inkscape:window-maximized="1"
   inkscape:current-layer="text2994" />

<path
   inkscape:connector-curvature="0"
   style="color:#000000;fill:#003366;fill-opacity:1;fill-rule:evenodd;stroke:none;stroke-width:2;marker:none;visibility:visible;display:inline;overflow:visible;enable-background:accumulate"
   d="m 17.75,8.8125 0,30.84375 -1.3125,0 0,-15.28125 -6.28125,0 0,15.28125 -1.28125,0 0,-6.59375 -6.28125,0 0,6.59375 -2.59375,0 0,3.15625 2.59375,0 6.28125,0 25.125,0 0,-3.15625 -2.34375,0 0,-17.4375 -6.28125,0 0,17.4375 -1.34375,0 0,-17.46875 c -2.553244,-0.145133 -4.5625,-2.25292 -4.5625,-4.84375 l 0,-6.8125 c 0,-0.6120356 0.107311,-1.1804924 0.3125,-1.71875 l -2.03125,0 z"
   id="path4932" /><path
   style="fill:#003366;fill-opacity:1;stroke:none;display:inline"
   d="m 23.891621,5.200321 c -2.79389,0 -5.032652,2.2387614 -5.032652,5.032653 l 0,7.098457 c 0,2.793891 2.238762,5.032651 5.032652,5.032651 l 19.053753,0 C 45.739262,22.364082 48,20.125322 48,17.331431 l 0,-7.098457 C 48,7.4390824 45.739262,5.200321 42.945374,5.200321 l -19.053753,0 z m 0.615346,0.9010425 17.845036,0 c 2.618562,0 4.724978,2.0075316 4.724978,4.5052125 l 0,6.351251 c 0,2.497681 -2.106416,4.505213 -4.724978,4.505213 l -17.845036,0 c -2.618569,0 -4.724979,-2.007532 -4.724979,-4.505213 l 0,-6.351251 c 0,-2.4976809 2.10641,-4.5052125 4.724979,-4.5052125 z"
   id="path3838"
   inkscape:connector-curvature="0" /><g
   style="font-size:7.29550838px;font-style:normal;font-weight:normal;line-height:125%;letter-spacing:0px;word-spacing:0px;fill:#003366;fill-opacity:1;stroke:none;font-family:Sans"
   id="text2994"><path
     d="m 22.443475,17.96002 0,-8.3556369 2.707318,0 c 1.025926,8.4e-6 1.69468,0.041806 2.006265,0.1253916 0.478761,0.1253996 0.879634,0.3980313 1.202619,0.8178953 0.322971,0.419878 0.48446,0.962291 0.484467,1.62724 -7e-6,0.512971 -0.0931,0.944241 -0.279281,1.293813 -0.186194,0.34958 -0.422728,0.624112 -0.709602,0.823594 -0.286887,0.19949 -0.578517,0.331531 -0.874891,0.396124 -0.402778,0.0798 -0.986038,0.119695 -1.749782,0.119691 l -1.100026,0 0,3.151888 z m 1.687087,-6.942132 0,2.37104 0.923337,0 c 0.664951,5e-6 1.109521,-0.04369 1.333711,-0.131091 0.224179,-0.08739 0.399917,-0.22418 0.527214,-0.410372 0.127286,-0.186183 0.190932,-0.402768 0.190937,-0.649757 -5e-6,-0.303973 -0.0893,-0.554756 -0.267882,-0.752349 -0.178593,-0.19758 -0.404677,-0.321071 -0.678254,-0.370475 -0.201391,-0.03799 -0.606063,-0.05699 -1.214018,-0.057 z"
     style="font-size:11.67281342px;font-weight:bold;fill:#003366;-inkscape-font-specification:Sans Bold"
     id="path3789" /><path
     d="m 30.234851,9.6043831 3.083492,0 c 0.695348,8.4e-6 1.225412,0.053205 1.590193,0.1595893 0.490161,0.1443983 0.910032,0.4008806 1.259615,0.7694486 0.349569,0.368582 0.615551,0.819801 0.797946,1.353658 0.18238,0.53387 0.273574,1.192175 0.273581,1.974917 -7e-6,0.687757 -0.0855,1.280517 -0.256482,1.77828 -0.208994,0.607961 -0.507273,1.100027 -0.89484,1.476201 -0.292587,0.284981 -0.68776,0.507266 -1.18552,0.666855 -0.37238,0.117792 -0.870146,0.176688 -1.493299,0.176688 l -3.174686,0 z m 1.687086,1.4135049 0,5.534327 1.259615,0 c 0.471164,1e-6 0.811241,-0.0266 1.020231,-0.0798 0.273577,-0.06839 0.500611,-0.184286 0.681104,-0.347676 0.180482,-0.163387 0.327722,-0.432219 0.441721,-0.806496 0.113986,-0.374272 0.170982,-0.884387 0.170988,-1.530347 -6e-6,-0.645951 -0.057,-1.141818 -0.170988,-1.4876 -0.113999,-0.34577 -0.273588,-0.615552 -0.478768,-0.809345 -0.205192,-0.19378 -0.465474,-0.324871 -0.780848,-0.393274 -0.235588,-0.05319 -0.697257,-0.07979 -1.385006,-0.07979 z"
     style="font-size:11.67281342px;font-weight:bold;fill:#003366;-inkscape-font-specification:Sans Bold"
     id="path3791" /><path
     d="m 38.68738,17.96002 0,-8.3556369 5.728114,0 0,1.4135049 -4.041027,0 0,1.977767 3.488165,0 0,1.413504 -3.488165,0 0,3.550861 z"
     style="font-size:11.67281342px;font-weight:bold;fill:#003366;-inkscape-font-specification:Sans Bold"
     id="path3793" /></g><g
   style="font-size:7.29550838px;font-style:normal;font-weight:normal;line-height:125%;letter-spacing:0px;word-spacing:0px;fill:#003366;fill-opacity:1;stroke:none;font-family:Sans"
   id="text3777" /></svg>