<?xml version="1.0" encoding="UTF-8" standalone="no"?>
<!-- Generator: Adobe Illustrator 15.0.0, SVG Export Plug-In . SVG Version: 6.00 Build 0)  -->

<svg
   xmlns:dc="http://purl.org/dc/elements/1.1/"
   xmlns:cc="http://creativecommons.org/ns#"
   xmlns:rdf="http://www.w3.org/1999/02/22-rdf-syntax-ns#"
   xmlns:svg="http://www.w3.org/2000/svg"
   xmlns="http://www.w3.org/2000/svg"
   xmlns:sodipodi="http://sodipodi.sourceforge.net/DTD/sodipodi-0.dtd"
   xmlns:inkscape="http://www.inkscape.org/namespaces/inkscape"
   version="1.1"
   id="Layer_1"
   x="0px"
   y="0px"
   width="48px"
   height="48px"
   viewBox="0 0 48 48"
   enable-background="new 0 0 48 48"
   xml:space="preserve"
   inkscape:version="0.48.2 r9819"
   sodipodi:docname="modif_jpg.svg"><metadata
   id="metadata23"><rdf:RDF><cc:Work
       rdf:about=""><dc:format>image/svg+xml</dc:format><dc:type
         rdf:resource="http://purl.org/dc/dcmitype/StillImage" /><dc:title></dc:title></cc:Work></rdf:RDF></metadata><defs
   id="defs21" /><sodipodi:namedview
   pagecolor="#ffffff"
   bordercolor="#666666"
   borderopacity="1"
   objecttolerance="10"
   gridtolerance="10"
   guidetolerance="10"
   inkscape:pageopacity="0"
   inkscape:pageshadow="2"
   inkscape:window-width="1920"
   inkscape:window-height="1020"
   id="namedview19"
   showgrid="false"
   inkscape:zoom="6.9532166"
   inkscape:cx="74.097862"
   inkscape:cy="6.8550172"
   inkscape:window-x="-4"
   inkscape:window-y="-4"
   inkscape:window-maximized="1"
   inkscape:current-layer="Layer_1" />

<path
   inkscape:connector-curvature="0"
   style="color:#000000;fill:#003366;fill-opacity:1;fill-rule:evenodd;stroke:none;stroke-width:2;marker:none;visibility:visible;display:inline;overflow:visible;enable-background:accumulate"
   d="m 17.75,8.8125 0,30.84375 -1.3125,0 0,-15.28125 -6.28125,0 0,15.28125 -1.28125,0 0,-6.59375 -6.28125,0 0,6.59375 -2.59375,0 0,3.15625 2.59375,0 6.28125,0 25.125,0 0,-3.15625 -2.34375,0 0,-17.4375 -6.28125,0 0,17.4375 -1.34375,0 0,-17.46875 c -2.553244,-0.145133 -4.5625,-2.25292 -4.5625,-4.84375 l 0,-6.8125 c 0,-0.6120356 0.107311,-1.1804924 0.3125,-1.71875 l -2.03125,0 z"
   id="path4932" /><path
   style="fill:#003366;fill-opacity:1;stroke:none;display:inline"
   d="m 23.891621,5.200321 c -2.79389,0 -5.032652,2.2387614 -5.032652,5.032653 l 0,7.098457 c 0,2.793891 2.238762,5.032651 5.032652,5.032651 l 19.053753,0 C 45.739262,22.364082 48,20.125322 48,17.331431 l 0,-7.098457 C 48,7.4390824 45.739262,5.200321 42.945374,5.200321 l -19.053753,0 z m 0.615346,0.9010425 17.845036,0 c 2.618562,0 4.724978,2.0075316 4.724978,4.5052125 l 0,6.351251 c 0,2.497681 -2.106416,4.505213 -4.724978,4.505213 l -17.845036,0 c -2.618569,0 -4.724979,-2.007532 -4.724979,-4.505213 l 0,-6.351251 c 0,-2.4976809 2.10641,-4.5052125 4.724979,-4.5052125 z"
   id="path3838"
   inkscape:connector-curvature="0" /><g
   style="font-size:7.29550838px;font-style:normal;font-weight:normal;line-height:125%;letter-spacing:0px;word-spacing:0px;fill:#003366;fill-opacity:1;stroke:none;font-family:Sans"
   id="text3766"><path
     d="m 21.551485,17.96002 0,-8.3556369 2.707317,0 c 1.025927,8.4e-6 1.694681,0.041806 2.006265,0.1253916 0.478762,0.1253996 0.879634,0.3980313 1.202619,0.8178953 0.322971,0.419878 0.48446,0.962291 0.484467,1.62724 -7e-6,0.512971 -0.0931,0.944241 -0.279281,1.293813 -0.186194,0.34958 -0.422728,0.624112 -0.709602,0.823594 -0.286887,0.19949 -0.578517,0.331531 -0.874891,0.396124 -0.402778,0.0798 -0.986038,0.119695 -1.749782,0.119691 l -1.100026,0 0,3.151888 z m 1.687086,-6.942132 0,2.37104 0.923338,0 c 0.664951,5e-6 1.10952,-0.04369 1.33371,-0.131091 0.22418,-0.08739 0.399918,-0.22418 0.527214,-0.410372 0.127286,-0.186183 0.190932,-0.402768 0.190937,-0.649757 -5e-6,-0.303973 -0.0893,-0.554756 -0.267881,-0.752349 -0.178593,-0.19758 -0.404678,-0.321071 -0.678255,-0.370475 -0.201391,-0.03799 -0.606063,-0.05699 -1.214018,-0.057 z"
     style="font-size:11.67281342px;font-weight:bold;fill:#003366;-inkscape-font-specification:Sans Bold"
     id="path3771" /><path
     d="m 29.365658,17.96002 0,-8.3556369 1.64149,0 3.419769,5.5799239 0,-5.5799239 1.567395,0 0,8.3556369 -1.692786,0 -3.368473,-5.448833 0,5.448833 z"
     style="font-size:11.67281342px;font-weight:bold;fill:#003366;-inkscape-font-specification:Sans Bold"
     id="path3773" /><path
     d="m 41.671129,14.887927 0,-1.407805 3.636354,0 0,3.328576 c -0.353384,0.341977 -0.865399,0.643107 -1.536046,0.903389 -0.670661,0.260282 -1.349865,0.390423 -2.037613,0.390423 -0.873945,0 -1.635793,-0.183337 -2.285546,-0.550012 -0.649758,-0.366675 -1.138024,-0.891039 -1.464801,-1.573094 -0.326779,-0.682052 -0.490168,-1.423951 -0.490167,-2.2257 -10e-7,-0.870137 0.182387,-1.643384 0.547163,-2.319744 0.364774,-0.676347 0.898638,-1.195012 1.601592,-1.5559953 0.535761,-0.277373 1.202615,-0.4160635 2.000565,-0.416072 1.037325,8.5e-6 1.847619,0.2175436 2.430887,0.6526063 0.583253,0.435078 0.958477,1.036387 1.125674,1.803928 l -1.675687,0.313479 C 43.405705,11.82154 43.18437,11.497612 42.859498,11.260122 42.534615,11.022644 42.128992,10.903903 41.64263,10.903896 c -0.737154,7e-6 -1.323264,0.233691 -1.758331,0.701052 -0.435073,0.467375 -0.652608,1.160827 -0.652606,2.08036 -2e-6,0.991737 0.220383,1.735536 0.661155,2.2314 0.440767,0.495868 1.018328,0.743801 1.732684,0.7438 0.353371,1e-6 0.707697,-0.06934 1.062978,-0.208036 0.35527,-0.138689 0.660199,-0.306828 0.914788,-0.504416 l 0,-1.060129 z"
     style="font-size:11.67281342px;font-weight:bold;fill:#003366;-inkscape-font-specification:Sans Bold"
     id="path3775" /></g></svg>