<?xml version="1.0" encoding="UTF-8" standalone="no"?>
<!-- Generator: Adobe Illustrator 15.0.0, SVG Export Plug-In . SVG Version: 6.00 Build 0)  -->

<svg
   xmlns:dc="http://purl.org/dc/elements/1.1/"
   xmlns:cc="http://creativecommons.org/ns#"
   xmlns:rdf="http://www.w3.org/1999/02/22-rdf-syntax-ns#"
   xmlns:svg="http://www.w3.org/2000/svg"
   xmlns="http://www.w3.org/2000/svg"
   xmlns:sodipodi="http://sodipodi.sourceforge.net/DTD/sodipodi-0.dtd"
   xmlns:inkscape="http://www.inkscape.org/namespaces/inkscape"
   version="1.1"
   id="Layer_1"
   x="0px"
   y="0px"
   width="48px"
   height="48px"
   viewBox="0 0 48 48"
   enable-background="new 0 0 48 48"
   xml:space="preserve"
   inkscape:version="0.48.2 r9819"
   sodipodi:docname="graf_PNG.svg"><metadata
   id="metadata23"><rdf:RDF><cc:Work
       rdf:about=""><dc:format>image/svg+xml</dc:format><dc:type
         rdf:resource="http://purl.org/dc/dcmitype/StillImage" /><dc:title></dc:title></cc:Work></rdf:RDF></metadata><defs
   id="defs21" /><sodipodi:namedview
   pagecolor="#ffffff"
   bordercolor="#666666"
   borderopacity="1"
   objecttolerance="10"
   gridtolerance="10"
   guidetolerance="10"
   inkscape:pageopacity="0"
   inkscape:pageshadow="2"
   inkscape:window-width="1920"
   inkscape:window-height="1020"
   id="namedview19"
   showgrid="false"
   inkscape:zoom="6.9532166"
   inkscape:cx="74.097862"
   inkscape:cy="6.8550172"
   inkscape:window-x="-4"
   inkscape:window-y="-4"
   inkscape:window-maximized="1"
   inkscape:current-layer="Layer_1" />

<path
   inkscape:connector-curvature="0"
   style="color:#000000;fill:#003366;fill-opacity:1;fill-rule:evenodd;stroke:none;stroke-width:2;marker:none;visibility:visible;display:inline;overflow:visible;enable-background:accumulate"
   d="m 17.75,8.8125 0,30.84375 -1.3125,0 0,-15.28125 -6.28125,0 0,15.28125 -1.28125,0 0,-6.59375 -6.28125,0 0,6.59375 -2.59375,0 0,3.15625 2.59375,0 6.28125,0 25.125,0 0,-3.15625 -2.34375,0 0,-17.4375 -6.28125,0 0,17.4375 -1.34375,0 0,-17.46875 c -2.553244,-0.145133 -4.5625,-2.25292 -4.5625,-4.84375 l 0,-6.8125 c 0,-0.6120356 0.107311,-1.1804924 0.3125,-1.71875 l -2.03125,0 z"
   id="path4932" /><path
   style="fill:#003366;fill-opacity:1;stroke:none;display:inline"
   d="m 23.891621,5.200321 c -2.79389,0 -5.032652,2.2387614 -5.032652,5.032653 l 0,7.098457 c 0,2.793891 2.238762,5.032651 5.032652,5.032651 l 19.053753,0 C 45.739262,22.364082 48,20.125322 48,17.331431 l 0,-7.098457 C 48,7.4390824 45.739262,5.200321 42.945374,5.200321 l -19.053753,0 z m 0.615346,0.9010425 17.845036,0 c 2.618562,0 4.724978,2.0075316 4.724978,4.5052125 l 0,6.351251 c 0,2.497681 -2.106416,4.505213 -4.724978,4.505213 l -17.845036,0 c -2.618569,0 -4.724979,-2.007532 -4.724979,-4.505213 l 0,-6.351251 c 0,-2.4976809 2.10641,-4.5052125 4.724979,-4.5052125 z"
   id="path3838"
   inkscape:connector-curvature="0" /><g
   style="font-size:7.29550838px;font-style:normal;font-weight:normal;line-height:125%;letter-spacing:0px;word-spacing:0px;fill:#003366;fill-opacity:1;stroke:none;font-family:Sans"
   id="text3777"><path
     d="m 21.656927,15.238454 1.641489,-0.15959 c 0.09879,0.550966 0.299228,0.955638 0.60131,1.214019 0.302076,0.258384 0.709598,0.387575 1.222567,0.387574 0.543359,1e-6 0.952781,-0.114941 1.228267,-0.344827 0.275476,-0.229883 0.413217,-0.498715 0.413223,-0.806496 -6e-6,-0.197584 -0.05795,-0.365722 -0.173839,-0.504416 -0.115897,-0.138687 -0.318233,-0.259329 -0.607009,-0.361926 -0.197591,-0.06839 -0.64786,-0.189983 -1.350809,-0.364775 -0.904341,-0.224181 -1.538898,-0.499662 -1.903672,-0.826444 -0.512966,-0.459764 -0.769448,-1.020226 -0.769448,-1.681387 0,-0.425565 0.120641,-0.823587 0.361926,-1.194069 0.241282,-0.370468 0.588959,-0.6525985 1.04303,-0.8463934 0.454066,-0.1937786 1.002179,-0.290672 1.644339,-0.2906805 1.048724,8.5e-6 1.83812,0.2298928 2.36819,0.6896539 0.530058,0.459776 0.808389,1.073434 0.834994,1.840976 l -1.687086,0.07409 c -0.0722,-0.429365 -0.22704,-0.738094 -0.464519,-0.926188 -0.237489,-0.18808 -0.593714,-0.282124 -1.068678,-0.282131 -0.49017,7e-6 -0.873944,0.1007 -1.151322,0.30208 -0.178591,0.129198 -0.267885,0.302086 -0.267882,0.518665 -3e-6,0.197593 0.08359,0.366681 0.250783,0.507266 0.212783,0.178593 0.729547,0.36478 1.550295,0.558562 0.82074,0.193792 1.427748,0.394228 1.821028,0.601309 0.393267,0.207091 0.701046,0.490171 0.923337,0.849243 0.222278,0.359079 0.333421,0.802699 0.333428,1.33086 -7e-6,0.47877 -0.132998,0.92714 -0.398973,1.34511 -0.265989,0.417972 -0.642163,0.728601 -1.128524,0.931887 -0.486373,0.203286 -1.092431,0.304929 -1.818178,0.30493 -1.056331,-10e-7 -1.867576,-0.244134 -2.433736,-0.732401 -0.566162,-0.488266 -0.904339,-1.199768 -1.014531,-2.134506 z"
     style="font-size:11.67281342px;font-weight:bold;fill:#003366;-inkscape-font-specification:Sans Bold"
     id="path3782" /><path
     d="m 32.013129,17.95717 -2.986599,-8.3556365 1.829577,0 2.114558,6.1840835 2.046162,-6.1840835 1.789679,0 -2.992298,8.3556365 z"
     style="font-size:11.67281342px;font-weight:bold;fill:#003366;-inkscape-font-specification:Sans Bold"
     id="path3784" /><path
     d="m 41.565686,14.885078 0,-1.407806 3.636354,0 0,3.328576 c -0.353384,0.341978 -0.865399,0.643107 -1.536046,0.903389 -0.670661,0.260283 -1.349865,0.390424 -2.037613,0.390424 -0.873945,0 -1.635793,-0.183338 -2.285546,-0.550013 -0.649758,-0.366675 -1.138024,-0.891039 -1.464801,-1.573094 -0.326779,-0.682051 -0.490168,-1.423951 -0.490167,-2.2257 -10e-7,-0.870136 0.182387,-1.643383 0.547163,-2.319744 0.364774,-0.676347 0.898638,-1.195011 1.601592,-1.5559949 0.535761,-0.2773729 1.202615,-0.4160635 2.000565,-0.416072 1.037325,8.5e-6 1.847619,0.2175437 2.430887,0.6526059 0.583253,0.435078 0.958477,1.036387 1.125674,1.803929 l -1.675687,0.313478 c -0.117799,-0.410366 -0.339134,-0.734294 -0.664006,-0.971784 -0.324883,-0.237477 -0.730506,-0.356219 -1.216868,-0.356226 -0.737154,7e-6 -1.323264,0.233691 -1.758331,0.701053 -0.435073,0.467374 -0.652608,1.160827 -0.652606,2.08036 -2e-6,0.991736 0.220383,1.735535 0.661155,2.231399 0.440767,0.495868 1.018328,0.743801 1.732684,0.7438 0.353371,10e-7 0.707697,-0.06934 1.062978,-0.208036 0.35527,-0.138689 0.660199,-0.306827 0.914788,-0.504416 l 0,-1.060128 z"
     style="font-size:11.67281342px;font-weight:bold;fill:#003366;-inkscape-font-specification:Sans Bold"
     id="path3786" /></g></svg>