<?xml version="1.0" encoding="UTF-8" standalone="no"?>
<!-- Generator: Adobe Illustrator 15.0.0, SVG Export Plug-In . SVG Version: 6.00 Build 0)  -->

<svg
   xmlns:dc="http://purl.org/dc/elements/1.1/"
   xmlns:cc="http://creativecommons.org/ns#"
   xmlns:rdf="http://www.w3.org/1999/02/22-rdf-syntax-ns#"
   xmlns:svg="http://www.w3.org/2000/svg"
   xmlns="http://www.w3.org/2000/svg"
   xmlns:sodipodi="http://sodipodi.sourceforge.net/DTD/sodipodi-0.dtd"
   xmlns:inkscape="http://www.inkscape.org/namespaces/inkscape"
   version="1.1"
   id="Layer_1"
   x="0px"
   y="0px"
   width="48px"
   height="48px"
   viewBox="0 0 48 48"
   enable-background="new 0 0 48 48"
   xml:space="preserve"
   inkscape:version="0.48.2 r9819"
   sodipodi:docname="_gviz.svg"><metadata
   id="metadata23"><rdf:RDF><cc:Work
       rdf:about=""><dc:format>image/svg+xml</dc:format><dc:type
         rdf:resource="http://purl.org/dc/dcmitype/StillImage" /><dc:title></dc:title></cc:Work></rdf:RDF></metadata><defs
   id="defs21" /><sodipodi:namedview
   pagecolor="#ffffff"
   bordercolor="#666666"
   borderopacity="1"
   objecttolerance="10"
   gridtolerance="10"
   guidetolerance="10"
   inkscape:pageopacity="0"
   inkscape:pageshadow="2"
   inkscape:window-width="1920"
   inkscape:window-height="1020"
   id="namedview19"
   showgrid="false"
   inkscape:zoom="4.9166667"
   inkscape:cx="-1.5254236"
   inkscape:cy="24"
   inkscape:window-x="-4"
   inkscape:window-y="-4"
   inkscape:window-maximized="1"
   inkscape:current-layer="Layer_1" />

<g
   id="g3047"><g
     transform="matrix(3.4551573,0,0,3.4551573,-687.32466,-1248.8075)"
     id="text5039"
     style="font-size:3.92595935px;font-style:normal;font-weight:normal;line-height:125%;letter-spacing:0px;word-spacing:0px;fill:#003366;fill-opacity:1;stroke:none;display:inline;font-family:Sans"><path
       id="path6139"
       style="font-size:3.96109247px;font-weight:bold;fill:#003366;-inkscape-font-specification:Sans Bold"
       d="m 203.94614,365.37413 0,-0.47773 1.23398,0 0,1.12953 c -0.11992,0.11605 -0.29367,0.21824 -0.52125,0.30656 -0.22759,0.0883 -0.45807,0.13249 -0.69145,0.13249 -0.29657,0 -0.5551,-0.0622 -0.77559,-0.18664 -0.22049,-0.12443 -0.38618,-0.30237 -0.49707,-0.53382 -0.11089,-0.23145 -0.16633,-0.48321 -0.16633,-0.75528 0,-0.29527 0.0619,-0.55767 0.18567,-0.78719 0.12379,-0.22951 0.30495,-0.40552 0.54349,-0.52802 0.18181,-0.0941 0.4081,-0.14118 0.67888,-0.14119 0.35201,10e-6 0.62698,0.0738 0.82491,0.22146 0.19792,0.14764 0.32525,0.35169 0.38199,0.61215 l -0.56864,0.10638 c -0.04,-0.13926 -0.11508,-0.24918 -0.22532,-0.32977 -0.11025,-0.0806 -0.24789,-0.12088 -0.41294,-0.12088 -0.25015,0 -0.44904,0.0793 -0.59668,0.23789 -0.14764,0.1586 -0.22146,0.39392 -0.22145,0.70596 -1e-5,0.33654 0.0748,0.58894 0.22435,0.75721 0.14958,0.16827 0.34557,0.25241 0.58798,0.2524 0.11991,10e-6 0.24015,-0.0235 0.36071,-0.0706 0.12056,-0.0471 0.22404,-0.10412 0.31043,-0.17117 l 0,-0.35975 z"
       inkscape:connector-curvature="0" /><path
       id="path6141"
       style="font-size:3.96109247px;font-weight:bold;fill:#003366;-inkscape-font-specification:Sans Bold"
       d="m 206.42956,366.41663 -1.01348,-2.83543 0.62085,0 0.71756,2.09852 0.69436,-2.09852 0.60731,0 -1.01541,2.83543 z"
       inkscape:connector-curvature="0" /><path
       id="path6144"
       style="font-size:3.96109247px;font-weight:bold;fill:#003366;-inkscape-font-specification:Sans Bold"
       d="m 208.33468,366.41663 0,-2.83543 0.5725,0 0,2.83543 z"
       inkscape:connector-curvature="0" /><path
       id="path6146"
       style="font-size:3.96109247px;font-weight:bold;fill:#003366;-inkscape-font-specification:Sans Bold"
       d="m 209.20503,366.41663 0,-0.51642 1.48928,-1.83935 -1.32101,0 0,-0.47966 2.07532,0 0,0.44484 -1.5531,1.91286 1.61306,0 0,0.47773 z"
       inkscape:connector-curvature="0" /></g><g
     transform="translate(-54.508475,-37.830508)"
     id="g3035"><path
       style="fill:#003366;fill-opacity:1;stroke:none;display:inline"
       d="m 68.227225,37.830508 c -3.97281,0 -7.15625,3.183439 -7.15625,7.15625 l 0,10.09375 c 0,3.972813 3.18344,7.15625 7.15625,7.15625 l 27.09375,0 c 3.97281,0 7.187495,-3.183437 7.187495,-7.15625 l 0,-10.09375 c 0,-3.972811 -3.214685,-7.15625 -7.187495,-7.15625 l -27.09375,0 z m 0.875,1.28125 25.375,0 c 3.7235,0 6.718745,2.854638 6.718745,6.40625 l 0,9.03125 c 0,3.551612 -2.995245,6.40625 -6.718745,6.40625 l -25.375,0 c -3.72351,0 -6.71875,-2.854638 -6.71875,-6.40625 l 0,-9.03125 c 0,-3.551612 2.99524,-6.40625 6.71875,-6.40625 z"
       id="path3838"
       inkscape:connector-curvature="0" /><g
       transform="translate(54.508475,37.865205)"
       id="g3919"><path
         inkscape:export-ydpi="90"
         inkscape:export-xdpi="90"
         inkscape:export-filename="C:\Documents and Settings\jhernandez\Mis documentos\imagenCorp\iconos\iconos_jorge\ico_web\g5029.png"
         id="path4662"
         d="m 26.174973,25.61897 9.77011,0 0,9.77011 -9.77011,0 z"
         style="color:#000000;fill:#003366;fill-opacity:1;stroke:none;stroke-width:1.70000005;marker:none;visibility:visible;display:inline;overflow:visible;enable-background:accumulate"
         inkscape:connector-curvature="0" /><path
         inkscape:export-ydpi="90"
         inkscape:export-xdpi="90"
         inkscape:export-filename="C:\Documents and Settings\jhernandez\Mis documentos\imagenCorp\iconos\iconos_jorge\ico_web\g5029.png"
         id="path4664"
         d="m 13.087609,25.61897 9.76987,0 0,9.77011 -9.76987,0 z"
         style="color:#000000;fill:#003366;fill-opacity:1;stroke:none;stroke-width:1.70000005;marker:none;visibility:visible;display:inline;overflow:visible;enable-background:accumulate"
         inkscape:connector-curvature="0" /><path
         inkscape:export-ydpi="90"
         inkscape:export-xdpi="90"
         inkscape:export-filename="C:\Documents and Settings\jhernandez\Mis documentos\imagenCorp\iconos\iconos_jorge\ico_web\g5029.png"
         id="path4666-6"
         d="m 5.783344e-6,25.61897 9.770144016656,0 0,9.77011 -9.770144016656,0 z"
         style="color:#000000;fill:#003366;fill-opacity:1;stroke:none;stroke-width:1.70000005;marker:none;visibility:visible;display:inline;overflow:visible;enable-background:accumulate"
         inkscape:connector-curvature="0" /><path
         id="path4668"
         d="m 0,13.03125 0,9.78125 9.15625,0 C 7.5636998,21.499288 6.5625,19.484707 6.5625,17.25 l 0,-4.21875 -6.5625,0 z"
         style="color:#000000;fill:#003366;fill-opacity:1;stroke:none;stroke-width:1.70000005;marker:none;visibility:visible;display:inline;overflow:visible;enable-background:accumulate"
         inkscape:connector-curvature="0" /><path
         id="path4670"
         d="m 0,0.46875 0,9.78125 6.5625,0 0,-3.09375 c 0,-2.5082491 1.2789847,-4.6879204 3.21875,-5.96875 l 0,-0.71875 -9.78125,0 z"
         style="color:#000000;fill:#003366;fill-opacity:1;stroke:none;stroke-width:1.70000005;marker:none;visibility:visible;display:inline;overflow:visible;enable-background:accumulate"
         inkscape:connector-curvature="0" /><path
         inkscape:export-ydpi="90"
         inkscape:export-xdpi="90"
         inkscape:export-filename="C:\Documents and Settings\jhernandez\Mis documentos\imagenCorp\iconos\iconos_jorge\ico_web\g5029.png"
         inkscape:connector-curvature="0"
         style="color:#000000;fill:#003366;fill-opacity:1;stroke:none;stroke-width:1.70000005;marker:none;visibility:visible;display:inline;overflow:visible;enable-background:accumulate"
         d="m 26.174973,38.195228 9.77011,0 0,9.770075 -9.77011,0 z"
         id="path4672-1" /><path
         inkscape:export-ydpi="90"
         inkscape:export-xdpi="90"
         inkscape:export-filename="C:\Documents and Settings\jhernandez\Mis documentos\imagenCorp\iconos\iconos_jorge\ico_web\g5029.png"
         inkscape:connector-curvature="0"
         style="color:#000000;fill:#003366;fill-opacity:1;stroke:none;stroke-width:1.70000005;marker:none;visibility:visible;display:inline;overflow:visible;enable-background:accumulate"
         d="m 13.087609,38.195228 9.76987,0 0,9.770075 -9.76987,0 z"
         id="path4674" /><path
         inkscape:export-ydpi="90"
         inkscape:export-xdpi="90"
         inkscape:export-filename="C:\Documents and Settings\jhernandez\Mis documentos\imagenCorp\iconos\iconos_jorge\ico_web\g5029.png"
         inkscape:connector-curvature="0"
         style="color:#000000;fill:#003366;fill-opacity:1;stroke:none;stroke-width:1.70000005;marker:none;visibility:visible;display:inline;overflow:visible;enable-background:accumulate"
         d="m 5.783344e-6,38.195228 9.770144016656,0 0,9.770075 -9.770144016656,0 z"
         id="path4676" /></g></g></g></svg>