<?xml version="1.0" encoding="UTF-8" standalone="no"?>
<!-- Generator: Adobe Illustrator 15.0.0, SVG Export Plug-In . SVG Version: 6.00 Build 0)  -->

<svg
   xmlns:dc="http://purl.org/dc/elements/1.1/"
   xmlns:cc="http://creativecommons.org/ns#"
   xmlns:rdf="http://www.w3.org/1999/02/22-rdf-syntax-ns#"
   xmlns:svg="http://www.w3.org/2000/svg"
   xmlns="http://www.w3.org/2000/svg"
   xmlns:sodipodi="http://sodipodi.sourceforge.net/DTD/sodipodi-0.dtd"
   xmlns:inkscape="http://www.inkscape.org/namespaces/inkscape"
   version="1.1"
   id="Layer_1"
   x="0px"
   y="0px"
   width="48px"
   height="48px"
   viewBox="0 0 48 48"
   enable-background="new 0 0 48 48"
   xml:space="preserve"
   inkscape:version="0.48.2 r9819"
   sodipodi:docname="_help.svg"><metadata
   id="metadata23"><rdf:RDF><cc:Work
       rdf:about=""><dc:format>image/svg+xml</dc:format><dc:type
         rdf:resource="http://purl.org/dc/dcmitype/StillImage" /><dc:title></dc:title></cc:Work></rdf:RDF></metadata><defs
   id="defs21">
</defs><sodipodi:namedview
   pagecolor="#ffffff"
   bordercolor="#666666"
   borderopacity="1"
   objecttolerance="10"
   gridtolerance="10"
   guidetolerance="10"
   inkscape:pageopacity="0"
   inkscape:pageshadow="2"
   inkscape:window-width="1920"
   inkscape:window-height="1020"
   id="namedview19"
   showgrid="false"
   inkscape:zoom="6.9532167"
   inkscape:cx="33.174976"
   inkscape:cy="20.715379"
   inkscape:window-x="-4"
   inkscape:window-y="-4"
   inkscape:window-maximized="1"
   inkscape:current-layer="Layer_1" />

<path
   style="color:#000000;fill:#003366;fill-opacity:1;fill-rule:evenodd;stroke:none;stroke-width:3;marker:none;visibility:visible;display:inline;overflow:visible;enable-background:accumulate"
   d="M 23.875 0 C 10.685693 0 -1.3877788e-017 10.685693 0 23.875 C 0 37.064307 10.685693 47.75 23.875 47.75 C 37.064307 47.75 47.75 37.064307 47.75 23.875 C 47.75 10.685693 37.064307 4.2789846e-017 23.875 0 z M 23.8125 7.59375 C 27.361998 7.5937826 30.183789 8.5196027 32.28125 10.375 C 34.378667 12.230456 35.437474 14.379649 35.4375 16.84375 C 35.437474 18.207842 35.051264 19.501375 34.28125 20.71875 C 33.511187 21.936164 31.866524 23.590075 29.34375 25.6875 C 28.038332 26.772902 27.221582 27.652479 26.90625 28.3125 C 26.590883 28.972545 26.439398 30.142339 26.46875 31.84375 L 20.875 31.84375 C 20.86032 31.037051 20.84374 30.551019 20.84375 30.375 C 20.843739 28.556252 21.148625 27.079656 21.75 25.90625 C 22.351352 24.732872 23.539644 23.404258 25.34375 21.9375 C 27.147825 20.470778 28.241714 19.517211 28.59375 19.0625 C 29.136425 18.343818 29.40623 17.5529 29.40625 16.6875 C 29.40623 15.484796 28.929447 14.45182 27.96875 13.59375 C 27.008017 12.735734 25.721817 12.312528 24.09375 12.3125 C 22.524323 12.312528 21.212293 12.761565 20.15625 13.65625 C 19.100187 14.550988 18.364762 15.885347 17.96875 17.71875 L 12.28125 17.03125 C 12.442589 14.405808 13.580806 12.177205 15.65625 10.34375 C 17.731682 8.5103542 20.438983 7.5937826 23.8125 7.59375 z M 20.875 34 L 27.0625 34 L 27.0625 40.1875 L 20.875 40.1875 L 20.875 34 z "
   id="path5262" /></svg>