<?xml version="1.0" encoding="UTF-8" standalone="no"?>
<!-- Generator: Adobe Illustrator 15.0.0, SVG Export Plug-In . SVG Version: 6.00 Build 0)  -->

<svg
   xmlns:dc="http://purl.org/dc/elements/1.1/"
   xmlns:cc="http://creativecommons.org/ns#"
   xmlns:rdf="http://www.w3.org/1999/02/22-rdf-syntax-ns#"
   xmlns:svg="http://www.w3.org/2000/svg"
   xmlns="http://www.w3.org/2000/svg"
   xmlns:sodipodi="http://sodipodi.sourceforge.net/DTD/sodipodi-0.dtd"
   xmlns:inkscape="http://www.inkscape.org/namespaces/inkscape"
   version="1.1"
   id="Layer_1"
   x="0px"
   y="0px"
   width="48px"
   height="48px"
   viewBox="0 0 48 48"
   enable-background="new 0 0 48 48"
   xml:space="preserve"
   inkscape:version="0.48.2 r9819"
   sodipodi:docname="help.svg"><metadata
   id="metadata9"><rdf:RDF><cc:Work
       rdf:about=""><dc:format>image/svg+xml</dc:format><dc:type
         rdf:resource="http://purl.org/dc/dcmitype/StillImage" /></cc:Work></rdf:RDF></metadata><defs
   id="defs7" /><sodipodi:namedview
   pagecolor="#ffffff"
   bordercolor="#666666"
   borderopacity="1"
   objecttolerance="10"
   gridtolerance="10"
   guidetolerance="10"
   inkscape:pageopacity="0"
   inkscape:pageshadow="2"
   inkscape:window-width="640"
   inkscape:window-height="480"
   id="namedview5"
   showgrid="false"
   inkscape:zoom="4.9166667"
   inkscape:cx="24"
   inkscape:cy="24"
   inkscape:window-x="1002"
   inkscape:window-y="302"
   inkscape:window-maximized="0"
   inkscape:current-layer="Layer_1" />

<g
   transform="matrix(1.954687,0,0,1.954687,-491.93567,-1899.5137)"
   id="circle_x5F_question_x5F_mark"><path
     inkscape:connector-curvature="0"
     id="path1031"
     d="m 266.047,991.5 c 0,0.275 -0.225,0.5 -0.5,0.5 H 262.5 c -0.275,0 -0.5,-0.225 -0.5,-0.5 v -3 c 0,-0.275 0.225,-0.5 0.5,-0.5 h 3.047 c 0.275,0 0.5,0.225 0.5,0.5 v 3 z M 264,971.75 c -6.765,0 -12.25,5.484 -12.25,12.25 0,6.766 5.485,12.25 12.25,12.25 6.765,0 12.25,-5.484 12.25,-12.25 0,-6.766 -5.485,-12.25 -12.25,-12.25 z m 2.85,12.082 c -0.967,0.631 -1.256,1.175 -1.288,2.424 -0.003,0.137 -0.114,0.244 -0.25,0.244 h -2.562 c -0.068,0 -0.25,-0.182 -0.25,-0.25 v -1.02 c 0,-1.069 0.576,-2.01 1.766,-2.877 0.093,-0.064 0.983,-0.646 0.983,-1.449 0,-0.666 -0.501,-1.131 -1.219,-1.131 -1.022,0 -1.593,0.513 -1.647,1.491 -0.008,0.132 -0.117,0.235 -0.25,0.235 H 262 259.439 c -0.068,0 -0.135,-0.028 -0.182,-0.078 -0.047,-0.049 -0.072,-0.116 -0.068,-0.185 0.14,-2.716 1.904,-4.273 4.844,-4.273 2.229,0 4.629,1.209 4.629,3.864 0,1.78 -0.406,2.116 -1.812,3.005 z" /></g></svg>