<?xml version="1.0" encoding="utf-8"?>
<!-- Generator: Adobe Illustrator 15.0.0, SVG Export Plug-In . SVG Version: 6.00 Build 0)  -->
<!DOCTYPE svg PUBLIC "-//W3C//DTD SVG 1.1//EN" "http://www.w3.org/Graphics/SVG/1.1/DTD/svg11.dtd">
<svg version="1.1" id="Layer_1" xmlns="http://www.w3.org/2000/svg" xmlns:xlink="http://www.w3.org/1999/xlink" x="0px" y="0px"
	 width="48px" height="48px" viewBox="0 0 48 48" enable-background="new 0 0 48 48" xml:space="preserve">
<path d="M24.01,0C10.75,0,0,10.749,0,24.01c0,13.261,10.75,24.01,24.01,24.01c13.259,0,24.01-10.749,24.01-24.01
	C48.02,10.749,37.269,0,24.01,0 M22.05,11.27c0-0.539,0.441-0.98,0.98-0.98h3.92c0.539,0,0.979,0.441,0.979,0.98v3.92
	c0,0.539-0.44,0.98-0.979,0.98h-3.92c-0.539,0-0.98-0.441-0.98-0.98V11.27z M31.851,36.749c0,0.541-0.441,0.98-0.98,0.98H19.11
	c-0.539,0-0.98-0.439-0.98-0.98v-3.92c0-0.539,0.441-0.979,0.98-0.979h2.94V24.01h-2.94c-0.539,0-0.98-0.441-0.98-0.98v-3.92
	c0-0.539,0.441-0.98,0.98-0.98h7.84c0.539,0,0.979,0.441,0.979,0.98v12.741h2.94c0.539,0,0.98,0.439,0.98,0.979V36.749z"/>
</svg>
