<?xml version="1.0" encoding="UTF-8" standalone="no"?>
<!-- Generator: Adobe Illustrator 15.0.0, SVG Export Plug-In . SVG Version: 6.00 Build 0)  -->

<svg
   xmlns:dc="http://purl.org/dc/elements/1.1/"
   xmlns:cc="http://creativecommons.org/ns#"
   xmlns:rdf="http://www.w3.org/1999/02/22-rdf-syntax-ns#"
   xmlns:svg="http://www.w3.org/2000/svg"
   xmlns="http://www.w3.org/2000/svg"
   xmlns:sodipodi="http://sodipodi.sourceforge.net/DTD/sodipodi-0.dtd"
   xmlns:inkscape="http://www.inkscape.org/namespaces/inkscape"
   version="1.1"
   id="Layer_1"
   x="0px"
   y="0px"
   width="48px"
   height="48px"
   viewBox="0 0 48 48"
   enable-background="new 0 0 48 48"
   xml:space="preserve"
   inkscape:version="0.48.2 r9819"
   sodipodi:docname="_jpg.svg"><metadata
   id="metadata23"><rdf:RDF><cc:Work
       rdf:about=""><dc:format>image/svg+xml</dc:format><dc:type
         rdf:resource="http://purl.org/dc/dcmitype/StillImage" /><dc:title></dc:title></cc:Work></rdf:RDF></metadata><defs
   id="defs21" /><sodipodi:namedview
   pagecolor="#ffffff"
   bordercolor="#666666"
   borderopacity="1"
   objecttolerance="10"
   gridtolerance="10"
   guidetolerance="10"
   inkscape:pageopacity="0"
   inkscape:pageshadow="2"
   inkscape:window-width="1920"
   inkscape:window-height="1020"
   id="namedview19"
   showgrid="false"
   inkscape:zoom="3.4766083"
   inkscape:cx="-12.500348"
   inkscape:cy="-26.729135"
   inkscape:window-x="-4"
   inkscape:window-y="-4"
   inkscape:window-maximized="1"
   inkscape:current-layer="Layer_1" />

<g
   id="g3014"><path
     id="path4932"
     d="M 17.75 8.8125 L 17.75 39.65625 L 16.4375 39.65625 L 16.4375 24.375 L 10.15625 24.375 L 10.15625 39.65625 L 8.875 39.65625 L 8.875 33.0625 L 2.59375 33.0625 L 2.59375 39.65625 L 0 39.65625 L 0 42.8125 L 2.59375 42.8125 L 8.875 42.8125 L 34 42.8125 L 34 39.65625 L 31.65625 39.65625 L 31.65625 22.21875 L 25.375 22.21875 L 25.375 39.65625 L 24.03125 39.65625 L 24.03125 22.1875 C 21.478006 22.042367 19.46875 19.93458 19.46875 17.34375 L 19.46875 10.53125 C 19.46875 9.9192144 19.576061 9.3507576 19.78125 8.8125 L 17.75 8.8125 z "
     style="color:#000000;fill:#003366;fill-opacity:1;fill-rule:evenodd;stroke:none;stroke-width:2;marker:none;visibility:visible;display:inline;overflow:visible;enable-background:accumulate" /><g
     transform="matrix(2.6856677,0,0,2.6856677,-232.71149,-1072.8504)"
     id="text4936"
     style="font-size:4.347507px;font-style:normal;font-weight:normal;line-height:125%;letter-spacing:0px;word-spacing:0px;fill:#003366;fill-opacity:1;stroke:none;font-family:Sans"><path
       id="path6180"
       style="font-weight:bold;fill:#003366;-inkscape-font-specification:Sans Bold"
       d="m 96.292587,403.10876 0.626228,0 0,1.96996 c -2e-6,0.25757 -0.02264,0.4557 -0.06793,0.59439 -0.06086,0.18115 -0.171241,0.32656 -0.331157,0.43624 -0.15992,0.10968 -0.370785,0.16451 -0.632597,0.16451 -0.3071,0 -0.543438,-0.086 -0.709017,-0.25792 -0.165579,-0.17194 -0.249076,-0.4242 -0.250491,-0.75678 l 0.592263,-0.0679 c 0.0071,0.17832 0.03326,0.30427 0.07854,0.37786 0.06793,0.1118 0.171239,0.16771 0.30993,0.1677 0.140104,10e-6 0.239168,-0.04 0.297192,-0.11993 0.05802,-0.08 0.08703,-0.24589 0.08704,-0.4978 z"
       inkscape:connector-curvature="0" /><path
       id="path6182"
       style="font-weight:bold;fill:#003366;-inkscape-font-specification:Sans Bold"
       d="m 97.589622,406.22079 0,-3.11203 1.008333,0 c 0.382103,0 0.631179,0.0156 0.747228,0.0467 0.178313,0.0467 0.327617,0.14825 0.447912,0.30463 0.12029,0.15638 0.180436,0.3584 0.180438,0.60606 -2e-6,0.19105 -0.03468,0.35168 -0.104017,0.48187 -0.06935,0.1302 -0.157444,0.23245 -0.264289,0.30675 -0.106851,0.0743 -0.215467,0.12348 -0.325851,0.14753 -0.150014,0.0297 -0.367247,0.0446 -0.651702,0.0446 l -0.409701,0 0,1.17391 z m 0.628351,-2.58557 0,0.88308 0.343894,0 c 0.24766,10e-6 0.413238,-0.0163 0.496737,-0.0488 0.08349,-0.0325 0.148948,-0.0835 0.19636,-0.15284 0.04741,-0.0693 0.07111,-0.15001 0.07111,-0.242 -2e-6,-0.11322 -0.03326,-0.20662 -0.09977,-0.28021 -0.06652,-0.0736 -0.150721,-0.11958 -0.252614,-0.13799 -0.07501,-0.0141 -0.225727,-0.0212 -0.452158,-0.0212 z"
       inkscape:connector-curvature="0" /><path
       id="path6184"
       style="font-weight:bold;fill:#003366;-inkscape-font-specification:Sans Bold"
       d="m 101.94137,405.0766 0,-0.52433 1.35436,0 0,1.23972 c -0.13162,0.12737 -0.32232,0.23952 -0.5721,0.33646 -0.24979,0.0969 -0.50275,0.14541 -0.7589,0.14541 -0.3255,0 -0.60925,-0.0683 -0.85125,-0.20485 -0.242,-0.13656 -0.42385,-0.33186 -0.54556,-0.58589 -0.12171,-0.25403 -0.18256,-0.53035 -0.18256,-0.82896 0,-0.32408 0.0679,-0.61207 0.20379,-0.86398 0.13586,-0.2519 0.33469,-0.44508 0.59651,-0.57952 0.19954,-0.10331 0.44791,-0.15497 0.7451,-0.15497 0.38635,0 0.68814,0.081 0.90538,0.24306 0.21723,0.16205 0.35698,0.386 0.41925,0.67187 l -0.6241,0.11675 c -0.0439,-0.15284 -0.12631,-0.27348 -0.24731,-0.36193 -0.121,-0.0884 -0.27208,-0.13268 -0.45322,-0.13268 -0.27455,0 -0.49285,0.087 -0.65488,0.26111 -0.16205,0.17407 -0.24307,0.43234 -0.24307,0.77482 0,0.36937 0.0821,0.6464 0.24625,0.83108 0.16416,0.18468 0.37927,0.27703 0.64533,0.27702 0.13161,1e-5 0.26358,-0.0258 0.39591,-0.0775 0.13231,-0.0516 0.24588,-0.11427 0.34071,-0.18787 l 0,-0.39484 z"
       inkscape:connector-curvature="0" /></g><path
     inkscape:connector-curvature="0"
     id="path3838"
     d="m 23.891621,5.200321 c -2.79389,0 -5.032652,2.2387614 -5.032652,5.032653 l 0,7.098457 c 0,2.793891 2.238762,5.032651 5.032652,5.032651 l 19.053753,0 C 45.739262,22.364082 48,20.125322 48,17.331431 l 0,-7.098457 C 48,7.4390824 45.739262,5.200321 42.945374,5.200321 l -19.053753,0 z m 0.615346,0.9010425 17.845036,0 c 2.618562,0 4.724978,2.0075316 4.724978,4.5052125 l 0,6.351251 c 0,2.497681 -2.106416,4.505213 -4.724978,4.505213 l -17.845036,0 c -2.618569,0 -4.724979,-2.007532 -4.724979,-4.505213 l 0,-6.351251 c 0,-2.4976809 2.10641,-4.5052125 4.724979,-4.5052125 z"
     style="fill:#003366;fill-opacity:1;stroke:none;display:inline" /></g></svg>