<?xml version="1.0" encoding="UTF-8" standalone="no"?>
<!-- Generator: Adobe Illustrator 15.0.0, SVG Export Plug-In . SVG Version: 6.00 Build 0)  -->

<svg
   xmlns:dc="http://purl.org/dc/elements/1.1/"
   xmlns:cc="http://creativecommons.org/ns#"
   xmlns:rdf="http://www.w3.org/1999/02/22-rdf-syntax-ns#"
   xmlns:svg="http://www.w3.org/2000/svg"
   xmlns="http://www.w3.org/2000/svg"
   xmlns:sodipodi="http://sodipodi.sourceforge.net/DTD/sodipodi-0.dtd"
   xmlns:inkscape="http://www.inkscape.org/namespaces/inkscape"
   version="1.1"
   id="Layer_1"
   x="0px"
   y="0px"
   width="48px"
   height="48px"
   viewBox="0 0 48 48"
   enable-background="new 0 0 48 48"
   xml:space="preserve"
   inkscape:version="0.48.2 r9819"
   sodipodi:docname="modif_json2.svg"><metadata
   id="metadata23"><rdf:RDF><cc:Work
       rdf:about=""><dc:format>image/svg+xml</dc:format><dc:type
         rdf:resource="http://purl.org/dc/dcmitype/StillImage" /><dc:title /></cc:Work></rdf:RDF></metadata><defs
   id="defs21" /><sodipodi:namedview
   pagecolor="#ffffff"
   bordercolor="#666666"
   borderopacity="1"
   objecttolerance="10"
   gridtolerance="10"
   guidetolerance="10"
   inkscape:pageopacity="0"
   inkscape:pageshadow="2"
   inkscape:window-width="1920"
   inkscape:window-height="1020"
   id="namedview19"
   showgrid="false"
   inkscape:zoom="1.7383042"
   inkscape:cx="44.757412"
   inkscape:cy="-66.285644"
   inkscape:window-x="-4"
   inkscape:window-y="-4"
   inkscape:window-maximized="1"
   inkscape:current-layer="Layer_1" />

<g
   id="g4032"><path
     id="rect4772"
     d="M 0.125 0.4375 L 0.125 48 L 35.84375 48 L 35.84375 23.875 L 14.15625 23.875 C 12.408904 23.875 10.8162 23.240812 9.59375 22.1875 L 7.71875 22.1875 L 7.71875 20.125 L 7.96875 20.125 C 7.4744923 19.17181 7.1875 18.090071 7.1875 16.9375 L 7.1875 7.15625 C 7.1875 3.9280599 9.3710729 1.2276608 12.34375 0.4375 L 0.125 0.4375 z M 3.15625 20.125 L 5 20.125 L 5 22.1875 L 3.15625 22.1875 L 3.15625 20.125 z M 3.15625 24.4375 L 5 24.4375 L 5 26.5 L 3.15625 26.5 L 3.15625 24.4375 z M 7.71875 24.4375 L 32.8125 24.4375 L 32.8125 26.5 L 7.71875 26.5 L 7.71875 24.4375 z M 3.15625 28.78125 L 5 28.78125 L 5 30.8125 L 3.15625 30.8125 L 3.15625 28.78125 z M 7.71875 28.78125 L 32.8125 28.78125 L 32.8125 30.8125 L 7.71875 30.8125 L 7.71875 28.78125 z M 3.15625 33.09375 L 5 33.09375 L 5 35.125 L 3.15625 35.125 L 3.15625 33.09375 z M 7.71875 33.09375 L 32.8125 33.09375 L 32.8125 35.125 L 7.71875 35.125 L 7.71875 33.09375 z M 3.15625 37.40625 L 5 37.40625 L 5 39.46875 L 3.15625 39.46875 L 3.15625 37.40625 z M 7.71875 37.40625 L 32.8125 37.40625 L 32.8125 39.46875 L 7.71875 39.46875 L 7.71875 37.40625 z M 3.15625 41.71875 L 5 41.71875 L 5 43.78125 L 3.15625 43.78125 L 3.15625 41.71875 z M 7.71875 41.71875 L 32.8125 41.71875 L 32.8125 43.78125 L 7.71875 43.78125 L 7.71875 41.71875 z "
     style="fill:#003366;fill-opacity:1;stroke:none" /><g
     transform="matrix(3.4406679,0,0,3.4406679,-150.46569,-1306.9309)"
     style="font-size:4.86759233px;font-style:normal;font-weight:normal;line-height:125%;letter-spacing:0px;word-spacing:0px;fill:#003366;fill-opacity:1;stroke:none;font-family:Sans"
     id="text4800"><path
       inkscape:connector-curvature="0"
       d="m 47.726666,382.08157 0.578071,0 0,1.81847 c -2e-6,0.23776 -0.0209,0.42065 -0.06271,0.54868 -0.05618,0.16721 -0.158073,0.30144 -0.305692,0.40269 -0.147622,0.10124 -0.342271,0.15186 -0.58395,0.15186 -0.283484,0 -0.501648,-0.0794 -0.654493,-0.23808 -0.152846,-0.15873 -0.229922,-0.39159 -0.231229,-0.69859 l 0.546718,-0.0627 c 0.0065,0.1646 0.0307,0.28087 0.0725,0.3488 0.06271,0.1032 0.158071,0.1548 0.286096,0.1548 0.12933,0 0.220776,-0.0369 0.274339,-0.11071 0.05356,-0.0738 0.08034,-0.22698 0.08034,-0.45952 z"
       style="font-size:4.01318312px;font-weight:bold;fill:#003366;-inkscape-font-specification:Sans Bold"
       id="path6157" /><path
       inkscape:connector-curvature="0"
       d="m 48.776991,384.01957 0.564354,-0.0549 c 0.03397,0.18942 0.102876,0.32855 0.206734,0.41738 0.103856,0.0888 0.243964,0.13325 0.420326,0.13325 0.18681,0 0.327572,-0.0395 0.422285,-0.11855 0.09471,-0.079 0.142067,-0.17146 0.142069,-0.27728 -2e-6,-0.0679 -0.01992,-0.12574 -0.05977,-0.17342 -0.03985,-0.0477 -0.109411,-0.0892 -0.208693,-0.12443 -0.06793,-0.0235 -0.222739,-0.0653 -0.464416,-0.12541 -0.310919,-0.0771 -0.529083,-0.17179 -0.654494,-0.28414 -0.176361,-0.15807 -0.264541,-0.35076 -0.264541,-0.57807 0,-0.14631 0.04148,-0.28316 0.124432,-0.41053 0.08295,-0.12737 0.202488,-0.22437 0.3586,-0.29099 0.156111,-0.0666 0.344555,-0.0999 0.565334,-0.0999 0.360557,0 0.631956,0.079 0.814198,0.2371 0.182237,0.15808 0.277928,0.36906 0.287075,0.63294 l -0.58003,0.0255 c -0.02482,-0.14762 -0.07806,-0.25376 -0.159704,-0.31843 -0.08165,-0.0647 -0.204123,-0.097 -0.367418,-0.097 -0.168524,0 -0.300467,0.0346 -0.395832,0.10386 -0.0614,0.0444 -0.0921,0.10386 -0.0921,0.17832 -1e-6,0.0679 0.02874,0.12606 0.08622,0.1744 0.07316,0.0614 0.250823,0.12541 0.533001,0.19204 0.282175,0.0666 0.490868,0.13553 0.62608,0.20673 0.135207,0.0712 0.241024,0.16852 0.317449,0.29197 0.07642,0.12346 0.114632,0.27598 0.114634,0.45756 -2e-6,0.16461 -0.04572,0.31876 -0.137169,0.46246 -0.09145,0.1437 -0.22078,0.2505 -0.387994,0.32039 -0.167217,0.0699 -0.375584,0.10483 -0.6251,0.10483 -0.363173,0 -0.642084,-0.0839 -0.836733,-0.2518 -0.19465,-0.16787 -0.310917,-0.41249 -0.348802,-0.73386 z"
       style="font-size:4.01318312px;font-weight:bold;fill:#003366;-inkscape-font-specification:Sans Bold"
       id="path6159" /><path
       inkscape:connector-curvature="0"
       d="m 51.487066,383.53556 c -10e-7,-0.29262 0.04376,-0.53822 0.13129,-0.73679 0.06532,-0.14632 0.154479,-0.27761 0.26748,-0.39388 0.113001,-0.11626 0.23678,-0.20248 0.371337,-0.25866 0.178973,-0.0758 0.38538,-0.11365 0.619222,-0.11365 0.423263,0 0.761941,0.13129 1.016033,0.39387 0.254087,0.26258 0.381132,0.62771 0.381135,1.09539 -3e-6,0.46377 -0.126068,0.82661 -0.378196,1.08854 -0.252132,0.26193 -0.589177,0.39289 -1.011134,0.39289 -0.427185,0 -0.766842,-0.13031 -1.018972,-0.39093 -0.252131,-0.26062 -0.378196,-0.61955 -0.378195,-1.07678 z m 0.597666,-0.0196 c -1e-6,0.32528 0.07512,0.57186 0.22535,0.73973 0.150232,0.16787 0.340962,0.2518 0.572192,0.2518 0.231226,0 0.420977,-0.0833 0.569253,-0.24984 0.148271,-0.16656 0.222407,-0.41641 0.22241,-0.74953 -3e-6,-0.32921 -0.07218,-0.5748 -0.216532,-0.7368 -0.144356,-0.16199 -0.336067,-0.24298 -0.575131,-0.24298 -0.239068,0 -0.431758,0.082 -0.578071,0.24592 -0.146315,0.16395 -0.219472,0.41119 -0.219471,0.7417 z"
       style="font-size:4.01318312px;font-weight:bold;fill:#003366;-inkscape-font-specification:Sans Bold"
       id="path6161" /><path
       inkscape:connector-curvature="0"
       d="m 54.730141,384.95428 0,-2.87271 0.564354,0 1.175737,1.91841 0,-1.91841 0.538879,0 0,2.87271 -0.58199,0 -1.158101,-1.87334 0,1.87334 z"
       style="font-size:4.01318312px;font-weight:bold;fill:#003366;-inkscape-font-specification:Sans Bold"
       id="path6163" /></g><path
     inkscape:connector-curvature="0"
     id="path3838"
     d="m 14.158789,0 c -3.92181,0 -7.0644,3.294889 -7.0644,7.406784 l 0,10.447125 c 0,4.111902 3.14259,7.406782 7.0644,7.406782 l 26.745971,0 C 44.82657,25.260691 48,21.965811 48,17.853909 L 48,7.406784 C 48,3.294889 44.82657,0 40.90476,0 L 14.158789,0 z m 0.86377,1.326106 25.049281,0 c 3.67571,0 6.6325,2.954575 6.6325,6.630527 l 0,9.347427 c 0,3.675952 -2.95679,6.630531 -6.6325,6.630531 l -25.049281,0 c -3.67571,0 -6.6325,-2.954579 -6.6325,-6.630531 l 0,-9.347427 c 0,-3.675952 2.95679,-6.630527 6.6325,-6.630527 z"
     style="fill:#003366;fill-opacity:1;stroke:none;display:inline" /></g></svg>