<?xml version="1.0" encoding="UTF-8" standalone="no"?>
<!-- Generator: Adobe Illustrator 15.0.0, SVG Export Plug-In . SVG Version: 6.00 Build 0)  -->

<svg
   xmlns:dc="http://purl.org/dc/elements/1.1/"
   xmlns:cc="http://creativecommons.org/ns#"
   xmlns:rdf="http://www.w3.org/1999/02/22-rdf-syntax-ns#"
   xmlns:svg="http://www.w3.org/2000/svg"
   xmlns="http://www.w3.org/2000/svg"
   xmlns:sodipodi="http://sodipodi.sourceforge.net/DTD/sodipodi-0.dtd"
   xmlns:inkscape="http://www.inkscape.org/namespaces/inkscape"
   version="1.1"
   id="Layer_1"
   x="0px"
   y="0px"
   width="48px"
   height="48px"
   viewBox="0 0 48 48"
   enable-background="new 0 0 48 48"
   xml:space="preserve"
   inkscape:version="0.48.2 r9819"
   sodipodi:docname="_json.svg"><metadata
   id="metadata23"><rdf:RDF><cc:Work
       rdf:about=""><dc:format>image/svg+xml</dc:format><dc:type
         rdf:resource="http://purl.org/dc/dcmitype/StillImage" /><dc:title></dc:title></cc:Work></rdf:RDF></metadata><defs
   id="defs21" /><sodipodi:namedview
   pagecolor="#ffffff"
   bordercolor="#666666"
   borderopacity="1"
   objecttolerance="10"
   gridtolerance="10"
   guidetolerance="10"
   inkscape:pageopacity="0"
   inkscape:pageshadow="2"
   inkscape:window-width="1920"
   inkscape:window-height="1020"
   id="namedview19"
   showgrid="false"
   inkscape:zoom="4.9166667"
   inkscape:cx="-1.5254236"
   inkscape:cy="24"
   inkscape:window-x="-4"
   inkscape:window-y="-4"
   inkscape:window-maximized="1"
   inkscape:current-layer="Layer_1" />

<g
   id="g3071"><g
     transform="matrix(3.4406274,0,0,3.4406274,-531.91735,-1243.5559)"
     id="text4658"
     style="font-size:3.92595935px;font-style:normal;font-weight:normal;line-height:125%;letter-spacing:0px;word-spacing:0px;fill:#003366;fill-opacity:1;stroke:none;display:inline;font-family:Sans"><path
       id="path6125"
       style="font-weight:bold;fill:#003366;-inkscape-font-specification:Sans Bold"
       d="m 158.76624,363.59283 0.56551,0 0,1.77895 c 0,0.23259 -0.0205,0.41151 -0.0613,0.53675 -0.055,0.16358 -0.15464,0.29489 -0.29905,0.39394 -0.14441,0.099 -0.33483,0.14856 -0.57126,0.14856 -0.27732,0 -0.49074,-0.0776 -0.64027,-0.23291 -0.14952,-0.15528 -0.22492,-0.38308 -0.2262,-0.6834 l 0.53484,-0.0613 c 0.006,0.16102 0.03,0.27476 0.0709,0.34122 0.0614,0.10096 0.15464,0.15144 0.27988,0.15144 0.12652,0 0.21598,-0.0361 0.26838,-0.10831 0.0524,-0.0722 0.0786,-0.22205 0.0786,-0.44953 z"
       inkscape:connector-curvature="0" /><path
       id="path6127"
       style="font-weight:bold;fill:#003366;-inkscape-font-specification:Sans Bold"
       d="m 159.79374,365.48871 0.55209,-0.0537 c 0.0332,0.1853 0.10064,0.32141 0.20224,0.40831 0.1016,0.0869 0.23866,0.13036 0.41119,0.13035 0.18275,10e-6 0.32045,-0.0387 0.41311,-0.11597 0.0927,-0.0773 0.13898,-0.16774 0.13898,-0.27125 0,-0.0665 -0.0195,-0.12301 -0.0585,-0.16966 -0.039,-0.0466 -0.10703,-0.0872 -0.20416,-0.12172 -0.0665,-0.023 -0.21789,-0.0639 -0.45432,-0.12269 -0.30416,-0.0754 -0.51758,-0.16805 -0.64027,-0.27796 -0.17253,-0.15463 -0.25879,-0.34314 -0.25879,-0.56551 0,-0.14313 0.0406,-0.277 0.12173,-0.4016 0.0812,-0.1246 0.19809,-0.21949 0.35081,-0.28467 0.15271,-0.0652 0.33706,-0.0978 0.55304,-0.0978 0.35272,0 0.61822,0.0773 0.7965,0.23195 0.17828,0.15464 0.27189,0.36104 0.28084,0.61919 l -0.56742,0.0249 c -0.0243,-0.14441 -0.0764,-0.24825 -0.15624,-0.31151 -0.0799,-0.0633 -0.19968,-0.0949 -0.35943,-0.0949 -0.16486,0 -0.29394,0.0339 -0.38723,0.1016 -0.0601,0.0435 -0.0901,0.1016 -0.0901,0.17444 0,0.0665 0.0281,0.12333 0.0844,0.17061 0.0716,0.0601 0.24537,0.12269 0.52142,0.18787 0.27604,0.0652 0.4802,0.13259 0.61247,0.20224 0.13227,0.0697 0.23579,0.16486 0.31055,0.28563 0.0748,0.12077 0.11214,0.26997 0.11214,0.44761 0,0.16103 -0.0447,0.31183 -0.13419,0.4524 -0.0895,0.14058 -0.21598,0.24506 -0.37956,0.31343 -0.16358,0.0684 -0.36742,0.10256 -0.61151,0.10256 -0.35528,0 -0.62813,-0.0821 -0.81855,-0.24633 -0.19042,-0.16422 -0.30416,-0.40353 -0.34122,-0.71791 z"
       inkscape:connector-curvature="0" /><path
       id="path6129"
       style="font-weight:bold;fill:#003366;-inkscape-font-specification:Sans Bold"
       d="m 162.44491,365.01522 c 0,-0.28627 0.0428,-0.52653 0.12844,-0.72078 0.0639,-0.14313 0.15112,-0.27157 0.26167,-0.38531 0.11054,-0.11374 0.23163,-0.19809 0.36327,-0.25304 0.17508,-0.0741 0.377,-0.11119 0.60576,-0.11119 0.41406,0 0.74538,0.12844 0.99395,0.38531 0.24856,0.25688 0.37285,0.61407 0.37285,1.07159 0,0.45368 -0.12333,0.80864 -0.36998,1.06488 -0.24665,0.25623 -0.57637,0.38435 -0.98915,0.38435 -0.4179,0 -0.75018,-0.12748 -0.99683,-0.38243 -0.24665,-0.25496 -0.36998,-0.60609 -0.36998,-1.05338 z m 0.58468,-0.0192 c 0,0.31822 0.0735,0.55944 0.22045,0.72366 0.14697,0.16422 0.33356,0.24633 0.55976,0.24633 0.2262,0 0.41183,-0.0815 0.55688,-0.24442 0.14505,-0.16294 0.21757,-0.40735 0.21758,-0.73324 -1e-5,-0.32205 -0.0706,-0.56231 -0.21183,-0.72078 -0.14122,-0.15847 -0.32876,-0.2377 -0.56263,-0.23771 -0.23387,1e-5 -0.42237,0.0802 -0.56551,0.24058 -0.14313,0.16039 -0.2147,0.40225 -0.2147,0.72558 z"
       inkscape:connector-curvature="0" /><path
       id="path6131"
       style="font-weight:bold;fill:#003366;-inkscape-font-specification:Sans Bold"
       d="m 165.6175,366.40311 0,-2.81028 0.55209,0 1.15019,1.87671 0,-1.87671 0.52716,0 0,2.81028 -0.56934,0 -1.13293,-1.83263 0,1.83263 z"
       inkscape:connector-curvature="0" /></g><path
     inkscape:connector-curvature="0"
     id="path3838"
     d="M 13.71875,0 C 9.74594,0 6.5625,3.183439 6.5625,7.15625 l 0,10.09375 c 0,3.972813 3.18344,7.15625 7.15625,7.15625 l 27.09375,0 C 44.78531,24.40625 48,21.222813 48,17.25 L 48,7.15625 C 48,3.183439 44.78531,0 40.8125,0 L 13.71875,0 z m 0.875,1.28125 25.375,0 c 3.7235,0 6.71875,2.854638 6.71875,6.40625 l 0,9.03125 c 0,3.551612 -2.99525,6.40625 -6.71875,6.40625 l -25.375,0 C 10.87024,23.125 7.875,20.270362 7.875,16.71875 l 0,-9.03125 c 0,-3.551612 2.99524,-6.40625 6.71875,-6.40625 z"
     style="fill:#003366;fill-opacity:1;stroke:none;display:inline" /><g
     id="g3919"
     transform="translate(0,0.034697)"><path
       inkscape:connector-curvature="0"
       style="color:#000000;fill:#003366;fill-opacity:1;stroke:none;stroke-width:1.70000005;marker:none;visibility:visible;display:inline;overflow:visible;enable-background:accumulate"
       d="m 26.174973,25.61897 9.77011,0 0,9.77011 -9.77011,0 z"
       id="path4662"
       inkscape:export-filename="C:\Documents and Settings\jhernandez\Mis documentos\imagenCorp\iconos\iconos_jorge\ico_web\g5029.png"
       inkscape:export-xdpi="90"
       inkscape:export-ydpi="90" /><path
       inkscape:connector-curvature="0"
       style="color:#000000;fill:#003366;fill-opacity:1;stroke:none;stroke-width:1.70000005;marker:none;visibility:visible;display:inline;overflow:visible;enable-background:accumulate"
       d="m 13.087609,25.61897 9.76987,0 0,9.77011 -9.76987,0 z"
       id="path4664"
       inkscape:export-filename="C:\Documents and Settings\jhernandez\Mis documentos\imagenCorp\iconos\iconos_jorge\ico_web\g5029.png"
       inkscape:export-xdpi="90"
       inkscape:export-ydpi="90" /><path
       inkscape:connector-curvature="0"
       style="color:#000000;fill:#003366;fill-opacity:1;stroke:none;stroke-width:1.70000005;marker:none;visibility:visible;display:inline;overflow:visible;enable-background:accumulate"
       d="m 5.783344e-6,25.61897 9.770144016656,0 0,9.77011 -9.770144016656,0 z"
       id="path4666-6"
       inkscape:export-filename="C:\Documents and Settings\jhernandez\Mis documentos\imagenCorp\iconos\iconos_jorge\ico_web\g5029.png"
       inkscape:export-xdpi="90"
       inkscape:export-ydpi="90" /><path
       inkscape:connector-curvature="0"
       style="color:#000000;fill:#003366;fill-opacity:1;stroke:none;stroke-width:1.70000005;marker:none;visibility:visible;display:inline;overflow:visible;enable-background:accumulate"
       d="m 0,13.03125 0,9.78125 9.15625,0 C 7.5636998,21.499288 6.5625,19.484707 6.5625,17.25 l 0,-4.21875 -6.5625,0 z"
       id="path4668" /><path
       inkscape:connector-curvature="0"
       style="color:#000000;fill:#003366;fill-opacity:1;stroke:none;stroke-width:1.70000005;marker:none;visibility:visible;display:inline;overflow:visible;enable-background:accumulate"
       d="m 0,0.46875 0,9.78125 6.5625,0 0,-3.09375 c 0,-2.5082491 1.2789847,-4.6879204 3.21875,-5.96875 l 0,-0.71875 -9.78125,0 z"
       id="path4670" /><path
       id="path4672-1"
       d="m 26.174973,38.195228 9.77011,0 0,9.770075 -9.77011,0 z"
       style="color:#000000;fill:#003366;fill-opacity:1;stroke:none;stroke-width:1.70000005;marker:none;visibility:visible;display:inline;overflow:visible;enable-background:accumulate"
       inkscape:connector-curvature="0"
       inkscape:export-filename="C:\Documents and Settings\jhernandez\Mis documentos\imagenCorp\iconos\iconos_jorge\ico_web\g5029.png"
       inkscape:export-xdpi="90"
       inkscape:export-ydpi="90" /><path
       id="path4674"
       d="m 13.087609,38.195228 9.76987,0 0,9.770075 -9.76987,0 z"
       style="color:#000000;fill:#003366;fill-opacity:1;stroke:none;stroke-width:1.70000005;marker:none;visibility:visible;display:inline;overflow:visible;enable-background:accumulate"
       inkscape:connector-curvature="0"
       inkscape:export-filename="C:\Documents and Settings\jhernandez\Mis documentos\imagenCorp\iconos\iconos_jorge\ico_web\g5029.png"
       inkscape:export-xdpi="90"
       inkscape:export-ydpi="90" /><path
       id="path4676"
       d="m 5.783344e-6,38.195228 9.770144016656,0 0,9.770075 -9.770144016656,0 z"
       style="color:#000000;fill:#003366;fill-opacity:1;stroke:none;stroke-width:1.70000005;marker:none;visibility:visible;display:inline;overflow:visible;enable-background:accumulate"
       inkscape:connector-curvature="0"
       inkscape:export-filename="C:\Documents and Settings\jhernandez\Mis documentos\imagenCorp\iconos\iconos_jorge\ico_web\g5029.png"
       inkscape:export-xdpi="90"
       inkscape:export-ydpi="90" /></g></g></svg>