<?xml version="1.0" encoding="UTF-8" standalone="no"?>
<!-- Generator: Adobe Illustrator 15.0.0, SVG Export Plug-In . SVG Version: 6.00 Build 0)  -->

<svg
   xmlns:dc="http://purl.org/dc/elements/1.1/"
   xmlns:cc="http://creativecommons.org/ns#"
   xmlns:rdf="http://www.w3.org/1999/02/22-rdf-syntax-ns#"
   xmlns:svg="http://www.w3.org/2000/svg"
   xmlns="http://www.w3.org/2000/svg"
   xmlns:sodipodi="http://sodipodi.sourceforge.net/DTD/sodipodi-0.dtd"
   xmlns:inkscape="http://www.inkscape.org/namespaces/inkscape"
   version="1.1"
   id="Layer_1"
   x="0px"
   y="0px"
   width="48px"
   height="48px"
   viewBox="0 0 48 48"
   enable-background="new 0 0 48 48"
   xml:space="preserve"
   inkscape:version="0.48.2 r9819"
   sodipodi:docname="_kml.svg"><metadata
   id="metadata23"><rdf:RDF><cc:Work
       rdf:about=""><dc:format>image/svg+xml</dc:format><dc:type
         rdf:resource="http://purl.org/dc/dcmitype/StillImage" /><dc:title></dc:title></cc:Work></rdf:RDF></metadata><defs
   id="defs21" /><sodipodi:namedview
   pagecolor="#ffffff"
   bordercolor="#666666"
   borderopacity="1"
   objecttolerance="10"
   gridtolerance="10"
   guidetolerance="10"
   inkscape:pageopacity="0"
   inkscape:pageshadow="2"
   inkscape:window-width="1920"
   inkscape:window-height="1020"
   id="namedview19"
   showgrid="false"
   inkscape:zoom="2.4583333"
   inkscape:cx="-33.675111"
   inkscape:cy="16.772574"
   inkscape:window-x="-4"
   inkscape:window-y="-4"
   inkscape:window-maximized="1"
   inkscape:current-layer="Layer_1" />

<path
   style="fill:#003366;fill-opacity:1;stroke:none;display:inline"
   d="m 22.538629,5.0225431 c -2.950685,0 -5.31509,2.3644039 -5.31509,5.3150899 l 0,7.496831 c 0,2.950688 2.364405,5.31509 5.31509,5.31509 l 20.123071,0 c 2.950686,0 5.3383,-2.364402 5.3383,-5.31509 l 0,-7.496831 C 48,7.386947 45.612386,5.0225431 42.6617,5.0225431 l -20.123071,0 z m 0.649881,0.95161 18.84652,0 c 2.765518,0 4.99015,2.1201968 4.99015,4.7580499 l 0,6.70769 c 0,2.637854 -2.224632,4.758051 -4.99015,4.758051 l -18.84652,0 c -2.765526,0 -4.990151,-2.120197 -4.990151,-4.758051 l 0,-6.70769 c 0,-2.6378531 2.224625,-4.7580499 4.990151,-4.7580499 z"
   id="path3838"
   inkscape:connector-curvature="0" /><path
   style="color:#000000;fill:#003366;fill-opacity:1;stroke:none;stroke-width:1.70000005;marker:none;visibility:visible;display:inline;overflow:visible;enable-background:accumulate"
   d="m 17.968751,7.071178 c -9.9192661,0 -17.9687496026127,8.018247 -17.9687496026127,17.9375 0,9.919281 8.0494835026127,17.96875 17.9687496026127,17.96875 9.91901,0 17.96875,-8.049469 17.96875,-17.96875 0,-0.6853 -0.05027,-1.365912 -0.125,-2.03125 l -1.15625,0 c -0.0469,0.445307 -0.129498,0.90801 -0.25,1.375 -1.007322,3.902798 -5.883597,2.632859 -6.5625,1.75 -0.528005,-0.68639 -0.456,-2.398363 -1.03125,-3.125 l -1.3125,0 c -0.633984,0.830356 -0.543271,2.898177 -1.25,2.84375 -0.882884,-0.06669 -2.727089,-2.104466 -3.40625,-1.96875 -0.67916,0.136096 -1.127645,1.164573 -0.3125,1.84375 0.81489,0.679149 1.049125,0.301757 2,0.4375 0.950616,0.136095 1.606869,2.217554 0.65625,2.625 -0.988078,1.733944 -1.134404,3.989772 -2.25,5.5 -0.37024,0.694819 -1.30074,2.077965 -1.59375,2.3125 -0.67916,0.543406 -2.0625,1.1875 -2.0625,1.1875 0,0 -1.159354,0.566333 -1.90625,-0.65625 -0.747151,-1.222339 0.769882,-5.615944 -0.25,-6.90625 -1.018868,-1.290332 -2.260929,-2.516372 -5.2187496,-3 0.079543,-0.982192 -0.749386,-1.534154 -0.65625,-2.40625 0.151386,-0.679936 0.8892516,-2.490413 1.2499996,-2.5625 1.358061,-0.27173 4.794826,-1.617846 5.40625,-0.53125 0.611167,1.086596 3.103286,2.60713 3.375,1.65625 0.123719,-0.433369 0.403392,-1.110944 0.59375,-1.75 -0.607657,-0.562788 -1.06599,-1.262016 -1.34375,-2.0625 -1.231098,-0.585191 -2.861467,-1.451024 -3.3125,-1 -0.611421,0.611183 -0.935436,2.02843 -2.78125,2.03125 -1.458383,0.0025 -1.927964,-0.444655 -1.65625,-1.53125 0.271459,-1.086623 -0.457561,-1.875 0.96875,-1.875 1.426054,0 2.5,-0.02234 2.5,-0.90625 l 0.90625,-2 c 0.769219,0.05639 0.724472,-1.350623 2.96875,-1.6875 -0.04812,-0.09851 -0.006,-0.151924 0.125,-0.15625 l 0,-1.75 c 0,-1.377143 0.528017,-2.612599 1.40625,-3.53125 -0.554016,-0.051482 -1.120039,-0.0625 -1.6875,-0.0625 z m -3.78125,5.34375 c 0.305838,-0.130945 0.339122,0.374173 0.1875,0.71875 l 0,0.75 c 0.06157,0.207939 -0.131136,0.231148 -0.59375,0.1875 -0.505199,-1.039641 -0.04661,-1.464063 0.40625,-1.65625 z m -6.4374996,11.34375 c 0.3084099,-0.04942 0.6817978,0.01095 0.875,0.21875 -0.064144,0.343058 -0.2999679,0.165797 -0.59375,0.4375 -0.8649199,-0.487748 -0.7028465,-0.324902 -0.5625,-0.5625 0.073446,-0.03531 0.1784467,-0.07728 0.28125,-0.09375 z m 14.8749996,9.65625 c 0.06151,-0.03404 0.11339,-0.02938 0.125,0 0.148811,0.0244 -0.130228,0.89881 -0.375,0.75 -0.21995,-0.305971 0.06548,-0.647892 0.25,-0.75 z"
   id="path3001"
   inkscape:connector-curvature="0" /><g
   transform="matrix(2.7110673,0,0,2.7110673,-119.79585,-1085.7653)"
   id="g3005"
   style="font-size:4.55059528px;font-style:normal;font-weight:normal;line-height:125%;letter-spacing:0px;word-spacing:0px;fill:#003366;fill-opacity:1;stroke:none;font-family:Sans"><path
     id="path3007"
     style="font-weight:bold;fill:#003366;-inkscape-font-specification:Sans Bold"
     d="m 51.524032,407.31815 0,-3.25741 0.657703,0 0,1.4465 1.328739,-1.4465 0.884344,0 -1.226528,1.26874 1.293187,1.98867 -0.851015,0 -0.895454,-1.52872 -0.533273,0.54438 0,0.98434 z"
     inkscape:connector-curvature="0" /><path
     id="path3009"
     style="font-weight:bold;fill:#003366;-inkscape-font-specification:Sans Bold"
     d="m 54.794772,407.31815 0,-3.25741 0.984333,0 0.591044,2.22197 0.584379,-2.22197 0.986554,0 0,3.25741 -0.611041,0 0,-2.56416 -0.646594,2.56416 -0.633261,0 -0.644372,-2.56416 0,2.56416 z"
     inkscape:connector-curvature="0" /><path
     id="path3011"
     style="font-weight:bold;fill:#003366;-inkscape-font-specification:Sans Bold"
     d="m 58.616561,407.31815 0,-3.23075 0.657703,0 0,2.68192 1.63537,0 0,0.54883 z"
     inkscape:connector-curvature="0" /></g></svg>