<?xml version="1.0" encoding="utf-8"?>
<!-- Generator: Adobe Illustrator 15.0.0, SVG Export Plug-In . SVG Version: 6.00 Build 0)  -->
<!DOCTYPE svg PUBLIC "-//W3C//DTD SVG 1.1//EN" "http://www.w3.org/Graphics/SVG/1.1/DTD/svg11.dtd">
<svg version="1.1" id="Layer_1" xmlns="http://www.w3.org/2000/svg" xmlns:xlink="http://www.w3.org/1999/xlink" x="0px" y="0px"
	 width="48px" height="48px" viewBox="0 0 48 48" enable-background="new 0 0 48 48" xml:space="preserve">
<path d="M43.34,11.2c2.544,0,4.604-2.057,4.604-4.604c0-2.547-2.061-4.605-4.604-4.605s-4.604,2.058-4.604,4.605
	c0,1.128,0.42,2.148,1.094,2.949l-6.116,9.271c-0.449-0.147-0.924-0.247-1.423-0.247c-2.544,0-4.604,2.058-4.604,4.605
	c0,0.193,0.033,0.377,0.057,0.566l-8.572,3.788c-0.844-0.967-2.072-1.592-3.458-1.592c-2.543,0-4.605,2.059-4.605,4.606
	c0,0.871,0.256,1.677,0.677,2.37l-8.046,9.293L3.684,0H1.842H0l0.055,48h1.842H48v-1.841v-1.843H5.566l8.283-9.573
	c0.571,0.255,1.2,0.4,1.862,0.4c2.543,0,4.605-2.059,4.605-4.605c0-0.162-0.033-0.317-0.048-0.479l8.618-3.81
	c0.841,0.932,2.047,1.526,3.403,1.526c2.543,0,4.604-2.058,4.604-4.605c0-1.037-0.353-1.981-0.93-2.75l6.197-9.394
	C42.537,11.128,42.93,11.2,43.34,11.2"/>
</svg>
