<?xml version="1.0" encoding="UTF-8" standalone="no"?>
<!-- Generator: Adobe Illustrator 15.0.0, SVG Export Plug-In . SVG Version: 6.00 Build 0)  -->

<svg
   xmlns:dc="http://purl.org/dc/elements/1.1/"
   xmlns:cc="http://creativecommons.org/ns#"
   xmlns:rdf="http://www.w3.org/1999/02/22-rdf-syntax-ns#"
   xmlns:svg="http://www.w3.org/2000/svg"
   xmlns="http://www.w3.org/2000/svg"
   xmlns:sodipodi="http://sodipodi.sourceforge.net/DTD/sodipodi-0.dtd"
   xmlns:inkscape="http://www.inkscape.org/namespaces/inkscape"
   version="1.1"
   id="Layer_1"
   x="0px"
   y="0px"
   width="48px"
   height="48px"
   viewBox="0 0 48 48"
   enable-background="new 0 0 48 48"
   xml:space="preserve"
   inkscape:version="0.48.2 r9819"
   sodipodi:docname="_template.svg"><metadata
   id="metadata23"><rdf:RDF><cc:Work
       rdf:about=""><dc:format>image/svg+xml</dc:format><dc:type
         rdf:resource="http://purl.org/dc/dcmitype/StillImage" /><dc:title></dc:title></cc:Work></rdf:RDF></metadata><defs
   id="defs21" /><sodipodi:namedview
   pagecolor="#ffffff"
   bordercolor="#666666"
   borderopacity="1"
   objecttolerance="10"
   gridtolerance="10"
   guidetolerance="10"
   inkscape:pageopacity="0"
   inkscape:pageshadow="2"
   inkscape:window-width="868"
   inkscape:window-height="554"
   id="namedview19"
   showgrid="false"
   inkscape:zoom="4.9166667"
   inkscape:cx="24"
   inkscape:cy="20.12"
   inkscape:window-x="912"
   inkscape:window-y="331"
   inkscape:window-maximized="0"
   inkscape:current-layer="Layer_1" />

<g
   style="display:inline"
   id="g14887"
   inkscape:export-xdpi="300"
   inkscape:export-ydpi="300"
   transform="matrix(2.9830508,0,0,2.9830508,1630.5894,-3539.2759)"
   inkscape:export-filename="C:\Documents and Settings\jhernandez\Mis documentos\imagenCorp\iconos\iconos_jorge\ico_web\todos.png"><g
     id="g7750"
     transform="translate(-6.1180153,43.690552)"><rect
       ry="1.3175305"
       rx="1.3175305"
       y="1142.8622"
       x="-540.5"
       height="16"
       width="16"
       id="rect7752"
       style="fill:#0058b0;fill-opacity:1;fill-rule:nonzero;stroke:none;display:inline" /><path
       inkscape:connector-curvature="0"
       d="m -535.40855,1146.9514 c -0.004,-0.2907 -0.10017,-0.5256 -0.28743,-0.7046 -0.18726,-0.179 -0.43985,-0.271 -0.75775,-0.2762 -0.30594,0.01 -0.55308,0.097 -0.74143,0.2762 -0.18835,0.179 -0.28524,0.4139 -0.29069,0.7046 0.005,0.2853 0.0999,0.5186 0.2858,0.6999 0.18589,0.1813 0.43467,0.275 0.74632,0.2809 0.30647,0 0.55579,-0.093 0.74795,-0.2669 0.19216,-0.1744 0.29123,-0.4123 0.29723,-0.7139 z m -1.99891,1.8871 0,6.9153 1.93358,0 0,-6.9153 z"
       style="font-size:46.96403503px;font-style:normal;font-variant:normal;font-weight:bold;font-stretch:normal;text-align:start;line-height:125%;letter-spacing:0px;word-spacing:0px;writing-mode:lr-tb;text-anchor:start;fill:#ffffff;fill-opacity:1;stroke:none;font-family:Adobe Gothic Std B;-inkscape-font-specification:Adobe Gothic Std B Bold"
       id="path7754" /><path
       inkscape:connector-curvature="0"
       d="m -532.02148,1149.7821 -0.0915,-0.9312 -1.67228,0 c 0.0136,0.3021 0.0256,0.6229 0.0359,0.9622 0.0104,0.3394 0.0158,0.7098 0.0163,1.1112 l 0,4.8295 1.93358,0 0,-4.1094 c 0.019,-0.5217 0.16059,-0.8937 0.42461,-1.1159 0.26401,-0.2222 0.53619,-0.3303 0.81654,-0.3243 0.40637,0.01 0.69433,0.1572 0.86391,0.4407 0.16956,0.2835 0.25176,0.6415 0.24659,1.0739 l 0,4.035 1.93358,0 0,-4.2336 c -0.0153,-0.9648 -0.24279,-1.6766 -0.68263,-2.1354 -0.43985,-0.4589 -1.00054,-0.6865 -1.68208,-0.6829 -0.53022,0.013 -0.97224,0.1296 -1.32607,0.3492 -0.35384,0.2196 -0.61296,0.4633 -0.77735,0.731 z"
       style="font-size:46.96403503px;font-style:normal;font-variant:normal;font-weight:bold;font-stretch:normal;text-align:start;line-height:125%;letter-spacing:0px;word-spacing:0px;writing-mode:lr-tb;text-anchor:start;fill:#ffffff;fill-opacity:1;stroke:none;font-family:Adobe Gothic Std B;-inkscape-font-specification:Adobe Gothic Std B Bold"
       id="path7756" /></g><g
     transform="translate(-6.1180153,43.690552)"
     id="g7860"><rect
       style="fill:#0058b0;fill-opacity:1;fill-rule:nonzero;stroke:none;display:inline"
       id="rect7862"
       width="16"
       height="16"
       x="-540.5"
       y="1142.8622"
       rx="1.3175305"
       ry="1.3175305" /><path
       id="path7864"
       style="font-size:46.96403503px;font-style:normal;font-variant:normal;font-weight:bold;font-stretch:normal;text-align:start;line-height:125%;letter-spacing:0px;word-spacing:0px;writing-mode:lr-tb;text-anchor:start;fill:#ffffff;fill-opacity:1;stroke:none;font-family:Adobe Gothic Std B;-inkscape-font-specification:Adobe Gothic Std B Bold"
       d="m -535.40855,1146.9514 c -0.004,-0.2907 -0.10017,-0.5256 -0.28743,-0.7046 -0.18726,-0.179 -0.43985,-0.271 -0.75775,-0.2762 -0.30594,0.01 -0.55308,0.097 -0.74143,0.2762 -0.18835,0.179 -0.28524,0.4139 -0.29069,0.7046 0.005,0.2853 0.0999,0.5186 0.2858,0.6999 0.18589,0.1813 0.43467,0.275 0.74632,0.2809 0.30647,0 0.55579,-0.093 0.74795,-0.2669 0.19216,-0.1744 0.29123,-0.4123 0.29723,-0.7139 z m -1.99891,1.8871 0,6.9153 1.93358,0 0,-6.9153 z"
       inkscape:connector-curvature="0" /><path
       id="path7866"
       style="font-size:46.96403503px;font-style:normal;font-variant:normal;font-weight:bold;font-stretch:normal;text-align:start;line-height:125%;letter-spacing:0px;word-spacing:0px;writing-mode:lr-tb;text-anchor:start;fill:#ffffff;fill-opacity:1;stroke:none;font-family:Adobe Gothic Std B;-inkscape-font-specification:Adobe Gothic Std B Bold"
       d="m -532.02148,1149.7821 -0.0915,-0.9312 -1.67228,0 c 0.0136,0.3021 0.0256,0.6229 0.0359,0.9622 0.0104,0.3394 0.0158,0.7098 0.0163,1.1112 l 0,4.8295 1.93358,0 0,-4.1094 c 0.019,-0.5217 0.16059,-0.8937 0.42461,-1.1159 0.26401,-0.2222 0.53619,-0.3303 0.81654,-0.3243 0.40637,0.01 0.69433,0.1572 0.86391,0.4407 0.16956,0.2835 0.25176,0.6415 0.24659,1.0739 l 0,4.035 1.93358,0 0,-4.2336 c -0.0153,-0.9648 -0.24279,-1.6766 -0.68263,-2.1354 -0.43985,-0.4589 -1.00054,-0.6865 -1.68208,-0.6829 -0.53022,0.013 -0.97224,0.1296 -1.32607,0.3492 -0.35384,0.2196 -0.61296,0.4633 -0.77735,0.731 z"
       inkscape:connector-curvature="0" /></g><g
     transform="translate(-6.1180153,43.690552)"
     id="g7970"><rect
       style="fill:#0058b0;fill-opacity:1;fill-rule:nonzero;stroke:none;display:inline"
       id="rect7972"
       width="16"
       height="16"
       x="-540.5"
       y="1142.8622"
       rx="1.3175305"
       ry="1.3175305" /><path
       id="path7974"
       style="font-size:46.96403503px;font-style:normal;font-variant:normal;font-weight:bold;font-stretch:normal;text-align:start;line-height:125%;letter-spacing:0px;word-spacing:0px;writing-mode:lr-tb;text-anchor:start;fill:#ffffff;fill-opacity:1;stroke:none;font-family:Adobe Gothic Std B;-inkscape-font-specification:Adobe Gothic Std B Bold"
       d="m -535.40855,1146.9514 c -0.004,-0.2907 -0.10017,-0.5256 -0.28743,-0.7046 -0.18726,-0.179 -0.43985,-0.271 -0.75775,-0.2762 -0.30594,0.01 -0.55308,0.097 -0.74143,0.2762 -0.18835,0.179 -0.28524,0.4139 -0.29069,0.7046 0.005,0.2853 0.0999,0.5186 0.2858,0.6999 0.18589,0.1813 0.43467,0.275 0.74632,0.2809 0.30647,0 0.55579,-0.093 0.74795,-0.2669 0.19216,-0.1744 0.29123,-0.4123 0.29723,-0.7139 z m -1.99891,1.8871 0,6.9153 1.93358,0 0,-6.9153 z"
       inkscape:connector-curvature="0" /><path
       id="path7976"
       style="font-size:46.96403503px;font-style:normal;font-variant:normal;font-weight:bold;font-stretch:normal;text-align:start;line-height:125%;letter-spacing:0px;word-spacing:0px;writing-mode:lr-tb;text-anchor:start;fill:#ffffff;fill-opacity:1;stroke:none;font-family:Adobe Gothic Std B;-inkscape-font-specification:Adobe Gothic Std B Bold"
       d="m -532.02148,1149.7821 -0.0915,-0.9312 -1.67228,0 c 0.0136,0.3021 0.0256,0.6229 0.0359,0.9622 0.0104,0.3394 0.0158,0.7098 0.0163,1.1112 l 0,4.8295 1.93358,0 0,-4.1094 c 0.019,-0.5217 0.16059,-0.8937 0.42461,-1.1159 0.26401,-0.2222 0.53619,-0.3303 0.81654,-0.3243 0.40637,0.01 0.69433,0.1572 0.86391,0.4407 0.16956,0.2835 0.25176,0.6415 0.24659,1.0739 l 0,4.035 1.93358,0 0,-4.2336 c -0.0153,-0.9648 -0.24279,-1.6766 -0.68263,-2.1354 -0.43985,-0.4589 -1.00054,-0.6865 -1.68208,-0.6829 -0.53022,0.013 -0.97224,0.1296 -1.32607,0.3492 -0.35384,0.2196 -0.61296,0.4633 -0.77735,0.731 z"
       inkscape:connector-curvature="0" /></g><g
     id="g8080"
     transform="translate(-6.1180153,43.690552)"><rect
       ry="1.3175305"
       rx="1.3175305"
       y="1142.8622"
       x="-540.5"
       height="16"
       width="16"
       id="rect8082"
       style="fill:#0058b0;fill-opacity:1;fill-rule:nonzero;stroke:none;display:inline" /><path
       inkscape:connector-curvature="0"
       d="m -535.40855,1146.9514 c -0.004,-0.2907 -0.10017,-0.5256 -0.28743,-0.7046 -0.18726,-0.179 -0.43985,-0.271 -0.75775,-0.2762 -0.30594,0.01 -0.55308,0.097 -0.74143,0.2762 -0.18835,0.179 -0.28524,0.4139 -0.29069,0.7046 0.005,0.2853 0.0999,0.5186 0.2858,0.6999 0.18589,0.1813 0.43467,0.275 0.74632,0.2809 0.30647,0 0.55579,-0.093 0.74795,-0.2669 0.19216,-0.1744 0.29123,-0.4123 0.29723,-0.7139 z m -1.99891,1.8871 0,6.9153 1.93358,0 0,-6.9153 z"
       style="font-size:46.96403503px;font-style:normal;font-variant:normal;font-weight:bold;font-stretch:normal;text-align:start;line-height:125%;letter-spacing:0px;word-spacing:0px;writing-mode:lr-tb;text-anchor:start;fill:#ffffff;fill-opacity:1;stroke:none;font-family:Adobe Gothic Std B;-inkscape-font-specification:Adobe Gothic Std B Bold"
       id="path8084" /><path
       inkscape:connector-curvature="0"
       d="m -532.02148,1149.7821 -0.0915,-0.9312 -1.67228,0 c 0.0136,0.3021 0.0256,0.6229 0.0359,0.9622 0.0104,0.3394 0.0158,0.7098 0.0163,1.1112 l 0,4.8295 1.93358,0 0,-4.1094 c 0.019,-0.5217 0.16059,-0.8937 0.42461,-1.1159 0.26401,-0.2222 0.53619,-0.3303 0.81654,-0.3243 0.40637,0.01 0.69433,0.1572 0.86391,0.4407 0.16956,0.2835 0.25176,0.6415 0.24659,1.0739 l 0,4.035 1.93358,0 0,-4.2336 c -0.0153,-0.9648 -0.24279,-1.6766 -0.68263,-2.1354 -0.43985,-0.4589 -1.00054,-0.6865 -1.68208,-0.6829 -0.53022,0.013 -0.97224,0.1296 -1.32607,0.3492 -0.35384,0.2196 -0.61296,0.4633 -0.77735,0.731 z"
       style="font-size:46.96403503px;font-style:normal;font-variant:normal;font-weight:bold;font-stretch:normal;text-align:start;line-height:125%;letter-spacing:0px;word-spacing:0px;writing-mode:lr-tb;text-anchor:start;fill:#ffffff;fill-opacity:1;stroke:none;font-family:Adobe Gothic Std B;-inkscape-font-specification:Adobe Gothic Std B Bold"
       id="path8086" /></g><g
     transform="translate(-6.1180153,43.690552)"
     id="g8190"><rect
       style="fill:#0058b0;fill-opacity:1;fill-rule:nonzero;stroke:none;display:inline"
       id="rect8192"
       width="16"
       height="16"
       x="-540.5"
       y="1142.8622"
       rx="1.3175305"
       ry="1.3175305" /><path
       id="path8194"
       style="font-size:46.96403503px;font-style:normal;font-variant:normal;font-weight:bold;font-stretch:normal;text-align:start;line-height:125%;letter-spacing:0px;word-spacing:0px;writing-mode:lr-tb;text-anchor:start;fill:#ffffff;fill-opacity:1;stroke:none;font-family:Adobe Gothic Std B;-inkscape-font-specification:Adobe Gothic Std B Bold"
       d="m -535.40855,1146.9514 c -0.004,-0.2907 -0.10017,-0.5256 -0.28743,-0.7046 -0.18726,-0.179 -0.43985,-0.271 -0.75775,-0.2762 -0.30594,0.01 -0.55308,0.097 -0.74143,0.2762 -0.18835,0.179 -0.28524,0.4139 -0.29069,0.7046 0.005,0.2853 0.0999,0.5186 0.2858,0.6999 0.18589,0.1813 0.43467,0.275 0.74632,0.2809 0.30647,0 0.55579,-0.093 0.74795,-0.2669 0.19216,-0.1744 0.29123,-0.4123 0.29723,-0.7139 z m -1.99891,1.8871 0,6.9153 1.93358,0 0,-6.9153 z"
       inkscape:connector-curvature="0" /><path
       id="path8196"
       style="font-size:46.96403503px;font-style:normal;font-variant:normal;font-weight:bold;font-stretch:normal;text-align:start;line-height:125%;letter-spacing:0px;word-spacing:0px;writing-mode:lr-tb;text-anchor:start;fill:#ffffff;fill-opacity:1;stroke:none;font-family:Adobe Gothic Std B;-inkscape-font-specification:Adobe Gothic Std B Bold"
       d="m -532.02148,1149.7821 -0.0915,-0.9312 -1.67228,0 c 0.0136,0.3021 0.0256,0.6229 0.0359,0.9622 0.0104,0.3394 0.0158,0.7098 0.0163,1.1112 l 0,4.8295 1.93358,0 0,-4.1094 c 0.019,-0.5217 0.16059,-0.8937 0.42461,-1.1159 0.26401,-0.2222 0.53619,-0.3303 0.81654,-0.3243 0.40637,0.01 0.69433,0.1572 0.86391,0.4407 0.16956,0.2835 0.25176,0.6415 0.24659,1.0739 l 0,4.035 1.93358,0 0,-4.2336 c -0.0153,-0.9648 -0.24279,-1.6766 -0.68263,-2.1354 -0.43985,-0.4589 -1.00054,-0.6865 -1.68208,-0.6829 -0.53022,0.013 -0.97224,0.1296 -1.32607,0.3492 -0.35384,0.2196 -0.61296,0.4633 -0.77735,0.731 z"
       inkscape:connector-curvature="0" /></g><g
     id="g8300"
     transform="translate(-6.1180153,43.690552)"><rect
       ry="1.3175305"
       rx="1.3175305"
       y="1142.8622"
       x="-540.5"
       height="16"
       width="16"
       id="rect8302"
       style="fill:#0058b0;fill-opacity:1;fill-rule:nonzero;stroke:none;display:inline" /><path
       inkscape:connector-curvature="0"
       d="m -535.40855,1146.9514 c -0.004,-0.2907 -0.10017,-0.5256 -0.28743,-0.7046 -0.18726,-0.179 -0.43985,-0.271 -0.75775,-0.2762 -0.30594,0.01 -0.55308,0.097 -0.74143,0.2762 -0.18835,0.179 -0.28524,0.4139 -0.29069,0.7046 0.005,0.2853 0.0999,0.5186 0.2858,0.6999 0.18589,0.1813 0.43467,0.275 0.74632,0.2809 0.30647,0 0.55579,-0.093 0.74795,-0.2669 0.19216,-0.1744 0.29123,-0.4123 0.29723,-0.7139 z m -1.99891,1.8871 0,6.9153 1.93358,0 0,-6.9153 z"
       style="font-size:46.96403503px;font-style:normal;font-variant:normal;font-weight:bold;font-stretch:normal;text-align:start;line-height:125%;letter-spacing:0px;word-spacing:0px;writing-mode:lr-tb;text-anchor:start;fill:#ffffff;fill-opacity:1;stroke:none;font-family:Adobe Gothic Std B;-inkscape-font-specification:Adobe Gothic Std B Bold"
       id="path8304" /><path
       inkscape:connector-curvature="0"
       d="m -532.02148,1149.7821 -0.0915,-0.9312 -1.67228,0 c 0.0136,0.3021 0.0256,0.6229 0.0359,0.9622 0.0104,0.3394 0.0158,0.7098 0.0163,1.1112 l 0,4.8295 1.93358,0 0,-4.1094 c 0.019,-0.5217 0.16059,-0.8937 0.42461,-1.1159 0.26401,-0.2222 0.53619,-0.3303 0.81654,-0.3243 0.40637,0.01 0.69433,0.1572 0.86391,0.4407 0.16956,0.2835 0.25176,0.6415 0.24659,1.0739 l 0,4.035 1.93358,0 0,-4.2336 c -0.0153,-0.9648 -0.24279,-1.6766 -0.68263,-2.1354 -0.43985,-0.4589 -1.00054,-0.6865 -1.68208,-0.6829 -0.53022,0.013 -0.97224,0.1296 -1.32607,0.3492 -0.35384,0.2196 -0.61296,0.4633 -0.77735,0.731 z"
       style="font-size:46.96403503px;font-style:normal;font-variant:normal;font-weight:bold;font-stretch:normal;text-align:start;line-height:125%;letter-spacing:0px;word-spacing:0px;writing-mode:lr-tb;text-anchor:start;fill:#ffffff;fill-opacity:1;stroke:none;font-family:Adobe Gothic Std B;-inkscape-font-specification:Adobe Gothic Std B Bold"
       id="path8306" /></g><rect
     style="fill:#003366;fill-opacity:1;fill-rule:nonzero;stroke:none;display:inline"
     id="rect8412"
     width="16"
     height="16"
     x="-546.61804"
     y="1186.5527"
     rx="1.3175305"
     ry="1.3175305" /><path
     id="path8414"
     style="font-size:46.96403503px;font-style:normal;font-variant:normal;font-weight:bold;font-stretch:normal;text-align:start;line-height:125%;letter-spacing:0px;word-spacing:0px;writing-mode:lr-tb;text-anchor:start;fill:#ffffff;fill-opacity:1;stroke:none;font-family:Adobe Gothic Std B;-inkscape-font-specification:Adobe Gothic Std B Bold"
     d="m -541.52657,1190.642 c -0.004,-0.2907 -0.10017,-0.5256 -0.28743,-0.7046 -0.18726,-0.179 -0.43985,-0.271 -0.75775,-0.2762 -0.30594,0.01 -0.55308,0.097 -0.74143,0.2762 -0.18835,0.179 -0.28524,0.4139 -0.29069,0.7046 0.005,0.2853 0.0999,0.5186 0.2858,0.6999 0.18589,0.1813 0.43467,0.275 0.74632,0.2809 0.30647,0 0.55579,-0.093 0.74795,-0.2669 0.19216,-0.1744 0.29123,-0.4123 0.29723,-0.7139 z m -1.99891,1.8871 0,6.9153 1.93358,0 0,-6.9153 z"
     inkscape:connector-curvature="0" /><path
     id="path8416"
     style="font-size:46.96403503px;font-style:normal;font-variant:normal;font-weight:bold;font-stretch:normal;text-align:start;line-height:125%;letter-spacing:0px;word-spacing:0px;writing-mode:lr-tb;text-anchor:start;fill:#ffffff;fill-opacity:1;stroke:none;font-family:Adobe Gothic Std B;-inkscape-font-specification:Adobe Gothic Std B Bold"
     d="m -538.1395,1193.4727 -0.0915,-0.9312 -1.67228,0 c 0.0136,0.3021 0.0256,0.6229 0.0359,0.9622 0.0104,0.3394 0.0158,0.7098 0.0163,1.1112 l 0,4.8295 1.93358,0 0,-4.1094 c 0.019,-0.5217 0.16059,-0.8937 0.42461,-1.1159 0.26401,-0.2222 0.53619,-0.3303 0.81654,-0.3243 0.40637,0.01 0.69433,0.1572 0.86391,0.4407 0.16956,0.2835 0.25176,0.6415 0.24659,1.0739 l 0,4.035 1.93358,0 0,-4.2336 c -0.0153,-0.9648 -0.24279,-1.6766 -0.68263,-2.1354 -0.43985,-0.4589 -1.00054,-0.6865 -1.68208,-0.6829 -0.53022,0.013 -0.97224,0.1296 -1.32607,0.3492 -0.35384,0.2196 -0.61296,0.4633 -0.77735,0.731 z"
     inkscape:connector-curvature="0" /></g></svg>