<?xml version="1.0" encoding="UTF-8" standalone="no"?>
<!-- Generator: Adobe Illustrator 15.0.0, SVG Export Plug-In . SVG Version: 6.00 Build 0)  -->

<svg
   xmlns:dc="http://purl.org/dc/elements/1.1/"
   xmlns:cc="http://creativecommons.org/ns#"
   xmlns:rdf="http://www.w3.org/1999/02/22-rdf-syntax-ns#"
   xmlns:svg="http://www.w3.org/2000/svg"
   xmlns="http://www.w3.org/2000/svg"
   xmlns:sodipodi="http://sodipodi.sourceforge.net/DTD/sodipodi-0.dtd"
   xmlns:inkscape="http://www.inkscape.org/namespaces/inkscape"
   version="1.1"
   id="Layer_1"
   x="0px"
   y="0px"
   width="48px"
   height="48px"
   viewBox="0 0 48 48"
   enable-background="new 0 0 48 48"
   xml:space="preserve"
   inkscape:version="0.48.2 r9819"
   sodipodi:docname="modif_m1.svg"><metadata
   id="metadata23"><rdf:RDF><cc:Work
       rdf:about=""><dc:format>image/svg+xml</dc:format><dc:type
         rdf:resource="http://purl.org/dc/dcmitype/StillImage" /><dc:title /></cc:Work></rdf:RDF></metadata><defs
   id="defs21" /><sodipodi:namedview
   pagecolor="#ffffff"
   bordercolor="#666666"
   borderopacity="1"
   objecttolerance="10"
   gridtolerance="10"
   guidetolerance="10"
   inkscape:pageopacity="0"
   inkscape:pageshadow="2"
   inkscape:window-width="1920"
   inkscape:window-height="1020"
   id="namedview19"
   showgrid="false"
   inkscape:zoom="2.4583333"
   inkscape:cx="-146.10109"
   inkscape:cy="1.041988"
   inkscape:window-x="-4"
   inkscape:window-y="-4"
   inkscape:window-maximized="1"
   inkscape:current-layer="Layer_1" />

<path
   inkscape:connector-curvature="0"
   style="fill:#003366;fill-opacity:1;stroke:none"
   d="m 12.3125,-0.125 0,6.5625 22.25,0 0,0.375 9.8125,0 0,2.125 -9.8125,0 0,2.1875 9.8125,0 0,2.15625 -9.8125,0 0,2.15625 9.8125,0 0,2.15625 -9.8125,0 0,2.15625 9.8125,0 0,2.15625 -9.8125,0 0,2.15625 9.8125,0 0,2.15625 -9.8125,0 0,2.1875 9.8125,0 0,2.125 -9.8125,0 0,2.1875 9.8125,0 0,2.125 -9.8125,0 0,2.1875 9.8125,0 0,2.125 -9.8125,0 0,2.1875 9.8125,0 0,2.125 -28.40625,0 0,-2.0625 -3.65625,0 0,6.59375 35.6875,0 0,-48.125 -35.6875,0 z"
   id="rect3035" /><path
   style="fill:#003366;fill-opacity:1;stroke:none"
   d="m 0,7.3125 0,33.34375 33.375,0 0,-33.34375 -33.375,0 z m 7.1875,6.84375 5.96875,0 3.5625,13.40625 3.53125,-13.40625 5.96875,0 0,19.6875 -3.71875,0 0,-15.5 -3.90625,15.5 -3.8125,0 -3.90625,-15.5 0,15.5 -3.6875,0 0,-19.6875 z"
   id="path3071"
   inkscape:connector-curvature="0" /></svg>