<?xml version="1.0" encoding="UTF-8" standalone="no"?>
<!-- Generator: Adobe Illustrator 15.0.0, SVG Export Plug-In . SVG Version: 6.00 Build 0)  -->

<svg
   xmlns:dc="http://purl.org/dc/elements/1.1/"
   xmlns:cc="http://creativecommons.org/ns#"
   xmlns:rdf="http://www.w3.org/1999/02/22-rdf-syntax-ns#"
   xmlns:svg="http://www.w3.org/2000/svg"
   xmlns="http://www.w3.org/2000/svg"
   xmlns:sodipodi="http://sodipodi.sourceforge.net/DTD/sodipodi-0.dtd"
   xmlns:inkscape="http://www.inkscape.org/namespaces/inkscape"
   version="1.1"
   id="Layer_1"
   x="0px"
   y="0px"
   width="48px"
   height="48px"
   viewBox="0 0 48 48"
   enable-background="new 0 0 48 48"
   xml:space="preserve"
   inkscape:version="0.48.2 r9819"
   sodipodi:docname="modif_m_json.svg"><metadata
   id="metadata23"><rdf:RDF><cc:Work
       rdf:about=""><dc:format>image/svg+xml</dc:format><dc:type
         rdf:resource="http://purl.org/dc/dcmitype/StillImage" /><dc:title></dc:title></cc:Work></rdf:RDF></metadata><defs
   id="defs21" /><sodipodi:namedview
   pagecolor="#ffffff"
   bordercolor="#666666"
   borderopacity="1"
   objecttolerance="10"
   gridtolerance="10"
   guidetolerance="10"
   inkscape:pageopacity="0"
   inkscape:pageshadow="2"
   inkscape:window-width="1920"
   inkscape:window-height="1020"
   id="namedview19"
   showgrid="false"
   inkscape:zoom="9.8333333"
   inkscape:cx="32.409765"
   inkscape:cy="29.669075"
   inkscape:window-x="-4"
   inkscape:window-y="-4"
   inkscape:window-maximized="1"
   inkscape:current-layer="Layer_1" />

<path
   style="fill:#003366;fill-opacity:1;stroke:none"
   d="M 0 10.5625 L 0 44.90625 L 34.34375 44.90625 L 34.34375 23.46875 L 26.6875 23.46875 L 26.6875 37.5625 L 23 37.5625 L 23 23.46875 L 22.65625 23.46875 L 19.09375 37.5625 L 15.25 37.5625 L 11.375 22.09375 L 11.375 37.5625 L 7.6875 37.5625 L 7.6875 17.90625 L 13.53125 17.90625 C 13.508424 17.686902 13.5 17.475666 13.5 17.25 L 13.5 10.5625 L 0 10.5625 z M 14.25 20.21875 L 17.1875 31.3125 L 19.25 23.4375 C 17.079898 23.314227 15.229235 22.060385 14.25 20.21875 z "
   id="path6231" /><g
   transform="matrix(2.9873498,0,0,2.9873498,-324.93383,-1264.2063)"
   id="g3037"><path
     inkscape:connector-curvature="0"
     d="m 115.11225,426.23941 0.56551,0 0,1.77895 c -1e-5,0.23259 -0.0205,0.41151 -0.0614,0.53675 -0.055,0.16358 -0.15464,0.29489 -0.29905,0.39394 -0.14441,0.099 -0.33483,0.14856 -0.57125,0.14856 -0.27733,0 -0.49075,-0.0776 -0.64027,-0.23291 -0.14953,-0.15528 -0.22493,-0.38308 -0.2262,-0.6834 l 0.53483,-0.0613 c 0.006,0.16102 0.03,0.27476 0.0709,0.34122 0.0613,0.10096 0.15463,0.15144 0.27988,0.15144 0.12652,0 0.21597,-0.0361 0.26837,-0.10831 0.0524,-0.0722 0.0786,-0.22205 0.0786,-0.44953 z"
     style="font-size:3.92595935px;font-style:normal;font-weight:bold;line-height:125%;letter-spacing:0px;word-spacing:0px;fill:#003366;fill-opacity:1;stroke:none;font-family:Sans;-inkscape-font-specification:Sans Bold"
     id="path3039" /><path
     inkscape:connector-curvature="0"
     d="m 116.13975,428.13529 0.55208,-0.0537 c 0.0332,0.1853 0.10064,0.32141 0.20224,0.40831 0.1016,0.0869 0.23867,0.13036 0.41119,0.13036 0.18275,0 0.32046,-0.0387 0.41311,-0.11598 0.0926,-0.0773 0.13898,-0.16774 0.13898,-0.27125 0,-0.0665 -0.0195,-0.12301 -0.0585,-0.16966 -0.039,-0.0466 -0.10704,-0.0872 -0.20416,-0.12172 -0.0665,-0.023 -0.2179,-0.0639 -0.45432,-0.12269 -0.30417,-0.0754 -0.51759,-0.16805 -0.64027,-0.27796 -0.17253,-0.15463 -0.2588,-0.34314 -0.25879,-0.56551 -1e-5,-0.14313 0.0406,-0.277 0.12172,-0.4016 0.0811,-0.1246 0.19809,-0.21949 0.35081,-0.28467 0.15272,-0.0652 0.33707,-0.0978 0.55305,-0.0978 0.35272,0 0.61822,0.0773 0.7965,0.23195 0.17827,0.15464 0.27189,0.36104 0.28083,0.61919 l -0.56742,0.0249 c -0.0243,-0.14441 -0.0764,-0.24825 -0.15623,-0.31151 -0.0799,-0.0633 -0.19969,-0.0949 -0.35944,-0.0949 -0.16486,0 -0.29393,0.0339 -0.38722,0.1016 -0.0601,0.0435 -0.0901,0.1016 -0.0901,0.17444 0,0.0665 0.0281,0.12333 0.0844,0.17061 0.0716,0.0601 0.24537,0.12269 0.52141,0.18787 0.27604,0.0652 0.4802,0.13259 0.61247,0.20224 0.13227,0.0697 0.23579,0.16486 0.31055,0.28563 0.0748,0.12077 0.11214,0.26997 0.11215,0.44761 -1e-5,0.16103 -0.0447,0.31183 -0.13419,0.45241 -0.0895,0.14057 -0.21598,0.24505 -0.37956,0.31342 -0.16359,0.0684 -0.36742,0.10256 -0.61152,0.10256 -0.35528,0 -0.62812,-0.0821 -0.81854,-0.24633 -0.19042,-0.16422 -0.30416,-0.40352 -0.34122,-0.71791 z"
     style="font-size:3.92595935px;font-style:normal;font-weight:bold;line-height:125%;letter-spacing:0px;word-spacing:0px;fill:#003366;fill-opacity:1;stroke:none;font-family:Sans;-inkscape-font-specification:Sans Bold"
     id="path3041" /><path
     inkscape:connector-curvature="0"
     d="m 118.79092,427.6618 c 0,-0.28627 0.0428,-0.52653 0.12844,-0.72078 0.0639,-0.14313 0.15112,-0.27157 0.26166,-0.38531 0.11055,-0.11374 0.23164,-0.19809 0.36327,-0.25304 0.17508,-0.0741 0.377,-0.11119 0.60576,-0.11119 0.41407,0 0.74538,0.12844 0.99395,0.38531 0.24857,0.25688 0.37285,0.61407 0.37285,1.07159 0,0.45368 -0.12332,0.80864 -0.36997,1.06488 -0.24666,0.25623 -0.57637,0.38435 -0.98916,0.38435 -0.4179,0 -0.75018,-0.12748 -0.99683,-0.38243 -0.24665,-0.25496 -0.36997,-0.60609 -0.36997,-1.05338 z m 0.58468,-0.0192 c -1e-5,0.31822 0.0735,0.55944 0.22045,0.72366 0.14696,0.16422 0.33355,0.24633 0.55975,0.24633 0.2262,0 0.41183,-0.0815 0.55688,-0.24442 0.14505,-0.16294 0.21758,-0.40735 0.21758,-0.73324 0,-0.32205 -0.0706,-0.56231 -0.21183,-0.72078 -0.14121,-0.15847 -0.32876,-0.2377 -0.56263,-0.2377 -0.23387,0 -0.42237,0.0802 -0.5655,0.24058 -0.14314,0.16038 -0.21471,0.40224 -0.2147,0.72557 z"
     style="font-size:3.92595935px;font-style:normal;font-weight:bold;line-height:125%;letter-spacing:0px;word-spacing:0px;fill:#003366;fill-opacity:1;stroke:none;font-family:Sans;-inkscape-font-specification:Sans Bold"
     id="path3043" /><path
     inkscape:connector-curvature="0"
     d="m 121.96351,429.04969 0,-2.81028 0.55209,0 1.15018,1.87671 0,-1.87671 0.52717,0 0,2.81028 -0.56934,0 -1.13293,-1.83263 0,1.83263 z"
     style="font-size:3.92595935px;font-style:normal;font-weight:bold;line-height:125%;letter-spacing:0px;word-spacing:0px;fill:#003366;fill-opacity:1;stroke:none;font-family:Sans;-inkscape-font-specification:Sans Bold"
     id="path3045" /></g><path
   style="fill:#003366;fill-opacity:1;stroke:none;display:inline"
   d="m 19.374991,3.2220235 c -3.317316,0 -5.975507,2.658187 -5.975507,5.9755033 l 0,8.4283302 c 0,3.317318 2.658191,5.975503 5.975507,5.975503 l 22.623412,0 C 45.315718,23.60136 48,20.943175 48,17.625857 L 48,9.1975268 C 48,5.8802105 45.315718,3.2220235 41.998403,3.2220235 l -22.623412,0 z m 0.730629,1.0698499 21.188248,0 c 3.10914,0 5.610188,2.3836366 5.610188,5.3492498 l 0,7.5411368 c 0,2.965614 -2.501048,5.34925 -5.610188,5.34925 l -21.188248,0 c -3.109149,0 -5.610192,-2.383636 -5.610192,-5.34925 l 0,-7.5411368 c 0,-2.9656132 2.501043,-5.3492498 5.610192,-5.3492498 z"
   id="path3838"
   inkscape:connector-curvature="0" /></svg>