<?xml version="1.0" encoding="UTF-8" standalone="no"?>
<!-- Generator: Adobe Illustrator 15.0.0, SVG Export Plug-In . SVG Version: 6.00 Build 0)  -->

<svg
   xmlns:dc="http://purl.org/dc/elements/1.1/"
   xmlns:cc="http://creativecommons.org/ns#"
   xmlns:rdf="http://www.w3.org/1999/02/22-rdf-syntax-ns#"
   xmlns:svg="http://www.w3.org/2000/svg"
   xmlns="http://www.w3.org/2000/svg"
   xmlns:sodipodi="http://sodipodi.sourceforge.net/DTD/sodipodi-0.dtd"
   xmlns:inkscape="http://www.inkscape.org/namespaces/inkscape"
   version="1.1"
   id="Layer_1"
   x="0px"
   y="0px"
   width="48px"
   height="48px"
   viewBox="0 0 48 48"
   enable-background="new 0 0 48 48"
   xml:space="preserve"
   inkscape:version="0.48.2 r9819"
   sodipodi:docname="_m_xml.svg"><metadata
   id="metadata23"><rdf:RDF><cc:Work
       rdf:about=""><dc:format>image/svg+xml</dc:format><dc:type
         rdf:resource="http://purl.org/dc/dcmitype/StillImage" /><dc:title></dc:title></cc:Work></rdf:RDF></metadata><defs
   id="defs21" /><sodipodi:namedview
   pagecolor="#ffffff"
   bordercolor="#666666"
   borderopacity="1"
   objecttolerance="10"
   gridtolerance="10"
   guidetolerance="10"
   inkscape:pageopacity="0"
   inkscape:pageshadow="2"
   inkscape:window-width="1920"
   inkscape:window-height="1020"
   id="namedview19"
   showgrid="false"
   inkscape:zoom="2.4583333"
   inkscape:cx="-76.866007"
   inkscape:cy="10.942091"
   inkscape:window-x="-4"
   inkscape:window-y="-4"
   inkscape:window-maximized="1"
   inkscape:current-layer="Layer_1" />

<g
   id="g6291"
   transform="matrix(3.0126666,0,0,3.0126666,-258.45375,-1275.1235)"><path
     id="path6219"
     style="font-size:4.61814928px;font-style:normal;font-weight:bold;line-height:125%;letter-spacing:0px;word-spacing:0px;fill:#003366;fill-opacity:1;stroke:none;font-family:Sans;-inkscape-font-specification:Sans Bold"
     d="m 91.320627,429.27933 1.142883,-1.70519 -1.035667,-1.56253 0.789297,0 0.670674,1.04986 0.656987,-1.04986 0.782454,0 -1.04023,1.58706 1.142884,1.68066 -0.81439,0 -0.741392,-1.1301 -0.743673,1.1301 z"
     inkscape:connector-curvature="0" /><path
     id="path6221"
     style="font-size:4.61814928px;font-style:normal;font-weight:bold;line-height:125%;letter-spacing:0px;word-spacing:0px;fill:#003366;fill-opacity:1;stroke:none;font-family:Sans;-inkscape-font-specification:Sans Bold"
     d="m 94.77209,429.27933 0,-3.26772 1.010574,0 0.6068,2.22901 0.599958,-2.22901 1.012855,0 0,3.26772 -0.627332,0 0,-2.57226 -0.663831,2.57226 -0.650143,0 -0.66155,-2.57226 0,2.57226 z"
     inkscape:connector-curvature="0" /><path
     id="path6223"
     style="font-size:4.61814928px;font-style:normal;font-weight:bold;line-height:125%;letter-spacing:0px;word-spacing:0px;fill:#003366;fill-opacity:1;stroke:none;font-family:Sans;-inkscape-font-specification:Sans Bold"
     d="m 98.695763,429.27933 0,-3.24097 0.675236,0 0,2.69041 1.678971,0 0,0.55056 z"
     inkscape:connector-curvature="0" /></g><g
   id="g3035"
   transform="translate(-110.44068,0)"><path
     id="path6231"
     d="m 110.44068,10.245637 0,34.343751 34.34375,0 0,-21.4375 -7.65625,0 0,14.09375 -3.6875,0 0,-14.09375 -0.34375,0 -3.5625,14.09375 -3.84375,0 -3.875,-15.46875 0,15.46875 -3.6875,0 0,-19.65625 5.84375,0 c -0.0228,-0.219348 -0.0312,-0.430584 -0.0312,-0.65625 l 0,-6.687501 -13.5,0 z m 14.25,9.656251 2.9375,11.09375 2.0625,-7.875 c -2.1701,-0.123273 -4.02077,-1.377115 -5,-3.21875 z"
     style="fill:#003366;fill-opacity:1;stroke:none"
     inkscape:connector-curvature="0" /><path
     inkscape:connector-curvature="0"
     id="path3838"
     d="m 129.81567,2.905161 c -3.31732,0 -5.97551,2.658187 -5.97551,5.975503 l 0,8.428331 c 0,3.317318 2.65819,5.975503 5.97551,5.975503 l 22.62341,0 c 3.31732,0 6.0016,-2.658185 6.0016,-5.975503 l 0,-8.428331 c 0,-3.317316 -2.68428,-5.975503 -6.0016,-5.975503 l -22.62341,0 z m 0.73063,1.06985 21.18825,0 c 3.10914,0 5.61018,2.383636 5.61018,5.34925 l 0,7.541137 c 0,2.965614 -2.50104,5.34925 -5.61018,5.34925 l -21.18825,0 c -3.10915,0 -5.61019,-2.383636 -5.61019,-5.34925 l 0,-7.541137 c 0,-2.965614 2.50104,-5.34925 5.61019,-5.34925 z"
     style="fill:#003366;fill-opacity:1;stroke:none;display:inline" /></g></svg>