<?xml version="1.0" encoding="UTF-8" standalone="no"?>
<!-- Generator: Adobe Illustrator 15.0.0, SVG Export Plug-In . SVG Version: 6.00 Build 0)  -->

<svg
   xmlns:dc="http://purl.org/dc/elements/1.1/"
   xmlns:cc="http://creativecommons.org/ns#"
   xmlns:rdf="http://www.w3.org/1999/02/22-rdf-syntax-ns#"
   xmlns:svg="http://www.w3.org/2000/svg"
   xmlns="http://www.w3.org/2000/svg"
   xmlns:sodipodi="http://sodipodi.sourceforge.net/DTD/sodipodi-0.dtd"
   xmlns:inkscape="http://www.inkscape.org/namespaces/inkscape"
   version="1.1"
   id="Layer_1"
   x="0px"
   y="0px"
   width="48px"
   height="48px"
   viewBox="0 0 48 48"
   enable-background="new 0 0 48 48"
   xml:space="preserve"
   inkscape:version="0.48.2 r9819"
   sodipodi:docname="modif_shp.svg"><metadata
   id="metadata23"><rdf:RDF><cc:Work
       rdf:about=""><dc:format>image/svg+xml</dc:format><dc:type
         rdf:resource="http://purl.org/dc/dcmitype/StillImage" /><dc:title></dc:title></cc:Work></rdf:RDF></metadata><defs
   id="defs21" /><sodipodi:namedview
   pagecolor="#ffffff"
   bordercolor="#666666"
   borderopacity="1"
   objecttolerance="10"
   gridtolerance="10"
   guidetolerance="10"
   inkscape:pageopacity="0"
   inkscape:pageshadow="2"
   inkscape:window-width="1920"
   inkscape:window-height="1020"
   id="namedview19"
   showgrid="false"
   inkscape:zoom="9.8333333"
   inkscape:cx="33.526429"
   inkscape:cy="22.028824"
   inkscape:window-x="-4"
   inkscape:window-y="-4"
   inkscape:window-maximized="1"
   inkscape:current-layer="Layer_1" />

<path
   style="fill:#003366;fill-opacity:1;stroke:none;display:inline"
   d="m 22.538628,5.182214 c -2.950685,0 -5.31509,2.364404 -5.31509,5.31509 l 0,7.496831 c 0,2.950688 2.364405,5.31509 5.31509,5.31509 l 20.123069,0 c 2.95069,0 5.3383,-2.364402 5.3383,-5.31509 l 0,-7.496831 c 0,-2.950686 -2.38761,-5.31509 -5.3383,-5.31509 l -20.123069,0 z m 0.649881,0.95161 18.846518,0 c 2.76552,0 4.99015,2.120197 4.99015,4.75805 l 0,6.70769 c 0,2.637854 -2.22463,4.758051 -4.99015,4.758051 l -18.846518,0 c -2.765526,0 -4.990151,-2.120197 -4.990151,-4.758051 l 0,-6.70769 c 0,-2.637853 2.224625,-4.75805 4.990151,-4.75805 z"
   id="path3838"
   inkscape:connector-curvature="0" /><path
   style="color:#000000;fill:#003366;fill-opacity:1;stroke:none;stroke-width:1.70000005;marker:none;visibility:visible;display:inline;overflow:visible;enable-background:accumulate"
   d="M 17.96875,7.230849 C 8.049484,7.230849 0,15.249096 0,25.168349 c 0,9.919281 8.049484,17.96875 17.96875,17.96875 9.91901,0 17.968747,-8.049469 17.968747,-17.96875 0,-0.6853 -0.0503,-1.365912 -0.125,-2.03125 l -1.15625,0 c -0.0469,0.445307 -0.12949,0.90801 -0.25,1.375 -1.00732,3.902798 -5.883594,2.632859 -6.562497,1.75 -0.528005,-0.68639 -0.456,-2.398363 -1.03125,-3.125 l -1.3125,0 c -0.633984,0.830356 -0.543271,2.898177 -1.25,2.84375 -0.882884,-0.06669 -2.727089,-2.104466 -3.40625,-1.96875 -0.67916,0.136096 -1.127645,1.164573 -0.3125,1.84375 0.81489,0.679149 1.049125,0.301757 2,0.4375 0.950616,0.136095 1.606869,2.217554 0.65625,2.625 -0.988078,1.733944 -1.134404,3.989772 -2.25,5.5 -0.37024,0.694819 -1.30074,2.077965 -1.59375,2.3125 -0.67916,0.543406 -2.0625,1.1875 -2.0625,1.1875 0,0 -1.159354,0.566333 -1.90625,-0.65625 -0.747151,-1.222339 0.769882,-5.615944 -0.25,-6.90625 -1.018868,-1.290332 -2.260929,-2.516372 -5.21875,-3 0.07954,-0.982192 -0.749386,-1.534154 -0.65625,-2.40625 0.151386,-0.679936 0.889252,-2.490413 1.25,-2.5625 1.358061,-0.27173 4.794826,-1.617846 5.40625,-0.53125 0.611167,1.086596 3.103286,2.60713 3.375,1.65625 0.123719,-0.433369 0.403392,-1.110944 0.59375,-1.75 -0.607657,-0.562788 -1.06599,-1.262016 -1.34375,-2.0625 -1.231098,-0.585191 -2.861467,-1.451024 -3.3125,-1 -0.611421,0.611183 -0.935436,2.02843 -2.78125,2.03125 -1.458383,0.0025 -1.927964,-0.444655 -1.65625,-1.53125 0.271459,-1.086623 -0.457561,-1.875 0.96875,-1.875 1.426054,0 2.5,-0.02234 2.5,-0.90625 l 0.90625,-2 c 0.769219,0.05639 0.724472,-1.350623 2.96875,-1.6875 -0.04812,-0.09851 -0.006,-0.151924 0.125,-0.15625 l 0,-1.75 c 0,-1.377143 0.528017,-2.612599 1.40625,-3.53125 -0.554016,-0.05148 -1.120039,-0.0625 -1.6875,-0.0625 z m -3.78125,5.34375 c 0.305838,-0.130945 0.339122,0.374173 0.1875,0.71875 l 0,0.75 c 0.06157,0.207939 -0.131136,0.231148 -0.59375,0.1875 -0.505199,-1.039641 -0.04661,-1.464063 0.40625,-1.65625 z M 7.75,23.918349 c 0.30841,-0.04942 0.681798,0.01095 0.875,0.21875 -0.06414,0.343058 -0.299968,0.165797 -0.59375,0.4375 -0.86492,-0.487748 -0.702846,-0.324902 -0.5625,-0.5625 0.07345,-0.03531 0.178447,-0.07728 0.28125,-0.09375 z m 14.875,9.65625 c 0.06151,-0.03404 0.11339,-0.02938 0.125,0 0.148811,0.0244 -0.130228,0.89881 -0.375,0.75 -0.21995,-0.305971 0.06548,-0.647892 0.25,-0.75 z"
   id="path3001"
   inkscape:connector-curvature="0" /><g
   style="font-size:7.29550838px;font-style:normal;font-weight:normal;line-height:125%;letter-spacing:0px;word-spacing:0px;fill:#003366;fill-opacity:1;stroke:none;font-family:Sans"
   id="text3005"><path
     d="m 20.83921,15.701972 1.641489,-0.159589 c 0.09879,0.550965 0.299228,0.955637 0.60131,1.214018 0.302077,0.258384 0.709599,0.387575 1.222568,0.387574 0.543359,10e-7 0.952781,-0.114941 1.228267,-0.344827 0.275476,-0.229883 0.413216,-0.498714 0.413222,-0.806496 -6e-6,-0.197584 -0.05795,-0.365722 -0.173838,-0.504416 -0.115898,-0.138687 -0.318234,-0.259329 -0.607009,-0.361925 -0.197592,-0.06839 -0.647861,-0.189984 -1.350809,-0.364776 -0.904342,-0.224181 -1.538899,-0.499662 -1.903672,-0.826444 -0.512967,-0.459764 -0.769449,-1.020226 -0.769448,-1.681387 -1e-6,-0.425565 0.120641,-0.823587 0.361925,-1.194069 0.241283,-0.370468 0.588959,-0.652598 1.04303,-0.846393 0.454067,-0.193779 1.002179,-0.2906722 1.644339,-0.2906807 1.048725,8.5e-6 1.838121,0.2298927 2.368191,0.6896537 0.530057,0.459776 0.808388,1.073434 0.834993,1.840976 l -1.687086,0.07409 c -0.0722,-0.429365 -0.22704,-0.738094 -0.464519,-0.926188 -0.237488,-0.18808 -0.593714,-0.282124 -1.068678,-0.282131 -0.49017,7e-6 -0.873944,0.1007 -1.151322,0.30208 -0.17859,0.129198 -0.267884,0.302086 -0.267882,0.518665 -2e-6,0.197593 0.08359,0.366681 0.250783,0.507266 0.212783,0.178593 0.729548,0.364781 1.550296,0.558562 0.820739,0.193792 1.427748,0.394228 1.821027,0.60131 0.393267,0.20709 0.701046,0.490171 0.923338,0.849242 0.222278,0.35908 0.33342,0.802699 0.333427,1.330861 -7e-6,0.478769 -0.132998,0.927139 -0.398973,1.345109 -0.265988,0.417972 -0.642163,0.728601 -1.128524,0.931887 -0.486372,0.203286 -1.092431,0.304929 -1.818177,0.30493 -1.056332,-10e-7 -1.867576,-0.244134 -2.433736,-0.732401 -0.566163,-0.488266 -0.90434,-1.199767 -1.014532,-2.134506 z"
     style="font-size:11.67281342px;font-weight:bold;fill:#003366;-inkscape-font-specification:Sans Bold"
     id="path3012" /><path
     d="m 31.195412,18.420689 -2.986598,-8.355637 1.829576,0 2.114558,6.184083 2.046162,-6.184083 1.789679,0 -2.992298,8.355637 z"
     style="font-size:11.67281342px;font-weight:bold;fill:#003366;-inkscape-font-specification:Sans Bold"
     id="path3014" /><path
     d="m 40.747969,15.348596 0,-1.407805 3.636355,0 0,3.328575 c -0.353384,0.341978 -0.865399,0.643107 -1.536047,0.903389 -0.670661,0.260283 -1.349864,0.390424 -2.037612,0.390424 -0.873945,0 -1.635793,-0.183338 -2.285546,-0.550013 -0.649758,-0.366674 -1.138025,-0.891039 -1.464802,-1.573094 -0.326778,-0.682051 -0.490167,-1.423951 -0.490167,-2.2257 0,-0.870136 0.182387,-1.643383 0.547164,-2.319744 0.364774,-0.676347 0.898637,-1.195011 1.601592,-1.555995 0.53576,-0.277373 1.202615,-0.4160632 2.000565,-0.4160717 1.037324,8.5e-6 1.847619,0.2175437 2.430886,0.6526057 0.583253,0.435078 0.958477,1.036387 1.125674,1.803929 l -1.675687,0.313479 c -0.117798,-0.410367 -0.339133,-0.734294 -0.664005,-0.971785 -0.324884,-0.237477 -0.730506,-0.356219 -1.216868,-0.356226 -0.737154,7e-6 -1.323264,0.233691 -1.758332,0.701053 -0.435073,0.467374 -0.652608,1.160827 -0.652606,2.08036 -2e-6,0.991736 0.220383,1.735535 0.661156,2.231399 0.440767,0.495868 1.018327,0.743801 1.732683,0.7438 0.353371,1e-6 0.707697,-0.06934 1.062978,-0.208036 0.35527,-0.138689 0.660199,-0.306827 0.914789,-0.504416 l 0,-1.060128 z"
     style="font-size:11.67281342px;font-weight:bold;fill:#003366;-inkscape-font-specification:Sans Bold"
     id="path3016" /></g></svg>