<?xml version="1.0" encoding="utf-8"?>
<!-- Generator: Adobe Illustrator 15.0.0, SVG Export Plug-In . SVG Version: 6.00 Build 0)  -->
<!DOCTYPE svg PUBLIC "-//W3C//DTD SVG 1.1//EN" "http://www.w3.org/Graphics/SVG/1.1/DTD/svg11.dtd">
<svg version="1.1" id="Layer_1" xmlns="http://www.w3.org/2000/svg" xmlns:xlink="http://www.w3.org/1999/xlink" x="0px" y="0px"
	 width="48px" height="48px" viewBox="0 0 48 48" enable-background="new 0 0 48 48" xml:space="preserve">
<path d="M23.851,0C14.544,0,5.888,5.597,2.066,14.083c-3.87,8.597-2.202,18.95,4.154,25.904c6.349,6.945,16.476,9.543,25.386,6.484
	C40.36,43.468,46.738,35.395,47.62,26.18C48.943,12.343,37.762,0,23.851,0 M15.211,10.357c0.657-1.915,4.204,1.118,2.302,2.784
	c-0.455,0.399-2.925,0.334-2.399-0.242c0.209-0.23,0.532-0.232,0.74-0.52C16.394,11.628,15.549,10.947,15.211,10.357 M32.05,36.999
	c-0.061,0.761-0.593,2.649-1.631,2.649c-0.753,0-0.743-1.061-0.669-1.576c0.278-1.842,1.062-2.187,2.062-3.569
	C32.505,35.091,32.114,36.228,32.05,36.999 M34.413,23.866c-0.906,0.966-2.259,2.496-3.741,2.49
	c-1.006-0.004-1.103-3.12-2.323-3.696c-0.618-0.295-1.479,0.404-0.98,1.01c0.542,0.657,0.538,1.547,1.23,2.117
	c1.204,0.984,2.281,2.118,3.85,0.91c-0.159,1.842-1.555,2.885-2.638,4.216c-0.608,0.747-1.091,1.588-0.897,2.587
	c0.165,0.842,0.771,1.981,0.092,2.75c-0.446,0.51-1.455,0.793-1.493,1.595c0.114,0.3,0.156,0.608,0.133,0.926
	c-0.214,0.443-0.673,0.735-0.91,1.19c-0.451,0.871-1.39,2.561-2.401,2.889c-0.495,0.161-1.767,0.58-2.154,0.093
	c-1.027-1.295-0.67-4.309-1.272-5.822c-0.398-0.999,0.351-1.492,0.365-2.424c0.012-0.713-0.478-1.313-0.812-1.901
	c-0.431-0.753-0.34-1.258-0.309-2.077c0.026-0.773-0.722-0.389-1.145-0.635c-0.472-0.273-0.523-0.888-1.194-0.469
	c-0.577,0.354-2.354,0.652-3.014,0.539c-0.957-0.165-2.119-2.227-2.363-3.082c-0.225-0.802,0.386-1.57,0.163-2.243
	c-0.238-0.707-0.033-1.356,0.433-1.91c0.714-0.842,1.565-2.256,2.48-2.805c0.651-0.392,1.501-0.012,2.274-0.225
	c0.692-0.187,1.719-0.435,2.453-0.268c0.765,0.173-0.099,0.931,0.408,1.212c0.592,0.326,1.019,0.616,1.575,0.971
	c0.573,0.363,0.788-0.658,1.2-0.759c0.501-0.122,1.188-0.193,1.697-0.091c0.987,0.208,3.009-0.472,2.016-1.939
	c-0.349-0.514-1.286-0.665-1.815-0.883c-0.654-0.272-0.263-1.383-1.14-1.342c-0.658,0.163,0.243,0.85,0.02,1.233
	c-0.408,0.699-1.175-0.775-1.28-0.965c-0.122-0.221-1.561-2.208-2.016-1.777c-0.152,0.146,2.419,3.075,0.464,2.504
	c-0.006-0.773-0.804-0.852-1.224-1.365c-0.586-0.715-1.056-0.398-1.708,0.173c-0.637,0.557-1.562,1.334-2.331,1.704
	c-1.678,0.804-1.417-0.924-1.369-1.93c0.03-0.672,1.027-0.358,1.385-0.515c1.09-0.48,0.023-0.99-0.258-1.45
	c0.319-0.478,2.256-1.049,2.801-1.191c1.228-0.326,2.256-1.335,3.755-0.588c0.193,0.093,2.074-1.082,0.734-1.417
	c-1.489-0.885-1.556,0.402-2.685,0.748c-0.008-1.245-3.055-1.358-1.911-3.024c0.931-1.361,1.69-1.55,4.33-1.745
	c1.932-0.128,2.865-0.063,3.284,0.291c0.418,0.354,0.547,1.629-0.459,1.754c0.188,1.664,1.929,0.128,2.595-0.299
	c1.098-0.703,3.413-0.27,3.727-0.521c0.312-0.251-0.207-0.967,0.066-1.418c0.258-0.427,0.908-0.208,0.997,0.227
	c1.18,0.189,1.741-0.688,3,0.147c3.793,2.527,6.734,6.164,8.23,12.052c0.672,2.642,0.797,5.591,0.027,5.378
	c-0.519-0.142-0.27-1.296-0.611-1.625c-0.896,0.209-2.4,1.694-2.791,2.517c-0.243,0.513,0.24,2.502-0.829,2.502
	c-0.431,0-0.643-1.588-0.705-1.858c-0.183-0.781-0.326-1.61-0.668-2.343c-0.387-0.842-0.741-0.311-1.357-0.431
	c-0.793-0.158-0.607-1.218-1.724-1.313C34.639,22.161,34.28,22.977,34.413,23.866"/>
</svg>
