<?xml version="1.0" encoding="UTF-8" standalone="no"?>
<!-- Generator: Adobe Illustrator 15.0.0, SVG Export Plug-In . SVG Version: 6.00 Build 0)  -->

<svg
   xmlns:dc="http://purl.org/dc/elements/1.1/"
   xmlns:cc="http://creativecommons.org/ns#"
   xmlns:rdf="http://www.w3.org/1999/02/22-rdf-syntax-ns#"
   xmlns:svg="http://www.w3.org/2000/svg"
   xmlns="http://www.w3.org/2000/svg"
   xmlns:sodipodi="http://sodipodi.sourceforge.net/DTD/sodipodi-0.dtd"
   xmlns:inkscape="http://www.inkscape.org/namespaces/inkscape"
   version="1.1"
   id="Layer_1"
   x="0px"
   y="0px"
   width="48px"
   height="48px"
   viewBox="0 0 48 48"
   enable-background="new 0 0 48 48"
   xml:space="preserve"
   inkscape:version="0.48.2 r9819"
   sodipodi:docname="map.svg"><metadata
   id="metadata9"><rdf:RDF><cc:Work
       rdf:about=""><dc:format>image/svg+xml</dc:format><dc:type
         rdf:resource="http://purl.org/dc/dcmitype/StillImage" /></cc:Work></rdf:RDF></metadata><defs
   id="defs7" /><sodipodi:namedview
   pagecolor="#ffffff"
   bordercolor="#666666"
   borderopacity="1"
   objecttolerance="10"
   gridtolerance="10"
   guidetolerance="10"
   inkscape:pageopacity="0"
   inkscape:pageshadow="2"
   inkscape:window-width="1920"
   inkscape:window-height="1018"
   id="namedview5"
   showgrid="false"
   inkscape:zoom="4.9166667"
   inkscape:cx="24"
   inkscape:cy="24"
   inkscape:window-x="-8"
   inkscape:window-y="-8"
   inkscape:window-maximized="1"
   inkscape:current-layer="Layer_1" />
<path
   d="M 23.84375 0 C 14.53675 0 5.8845 5.60775 2.0625 14.09375 C -1.8075 22.69075 -0.13725 33.046 6.21875 40 C 12.56775 46.945 22.68375 49.52775 31.59375 46.46875 C 40.34775 43.46575 46.743 35.4025 47.625 26.1875 C 48.948 12.3505 37.75475 0 23.84375 0 z M 32.34375 6.78125 C 32.639578 6.6830938 33.027 6.8925 33.09375 7.21875 C 34.27375 7.40775 34.83475 6.54 36.09375 7.375 C 39.88675 9.902 42.8165 13.51825 44.3125 19.40625 C 44.9845 22.04825 45.11375 24.99425 44.34375 24.78125 C 43.82475 24.63925 44.091 23.48525 43.75 23.15625 C 42.854 23.36525 41.3285 24.8645 40.9375 25.6875 C 40.6945 26.2005 41.194 28.1875 40.125 28.1875 C 39.694 28.1875 39.46825 26.61375 39.40625 26.34375 C 39.22325 25.56275 39.092 24.733 38.75 24 C 38.363 23.158 38.02225 23.6825 37.40625 23.5625 C 36.61325 23.4045 36.77325 22.345 35.65625 22.25 C 34.62525 22.166 34.27325 22.986 34.40625 23.875 C 33.50025 24.841 32.1695 26.34975 30.6875 26.34375 C 29.6815 26.33975 29.56375 23.23225 28.34375 22.65625 C 27.72575 22.36125 26.876 23.05025 27.375 23.65625 C 27.917 24.31325 27.90175 25.21125 28.59375 25.78125 C 29.79775 26.76525 30.8685 27.8955 32.4375 26.6875 C 32.2785 28.5295 30.8955 29.57525 29.8125 30.90625 C 29.2045 31.65325 28.71225 32.501 28.90625 33.5 C 29.07125 34.342 29.679 35.481 29 36.25 C 28.554 36.76 27.538 37.04175 27.5 37.84375 C 27.614 38.14375 27.67925 38.46325 27.65625 38.78125 C 27.44225 39.22425 26.987 39.51375 26.75 39.96875 C 26.299 40.83975 25.35475 42.51575 24.34375 42.84375 C 23.84875 43.00475 22.5745 43.4245 22.1875 42.9375 C 21.1605 41.6425 21.50825 38.638 20.90625 37.125 C 20.50825 36.126 21.26725 35.6195 21.28125 34.6875 C 21.29325 33.9745 20.80275 33.36925 20.46875 32.78125 C 20.03775 32.02825 20.12525 31.53775 20.15625 30.71875 C 20.18225 29.94575 19.423 30.33975 19 30.09375 C 18.528 29.82075 18.4835 29.206 17.8125 29.625 C 17.2355 29.979 15.4725 30.26925 14.8125 30.15625 C 13.8555 29.99125 12.6815 27.9175 12.4375 27.0625 C 12.2125 26.2605 12.81675 25.51675 12.59375 24.84375 C 12.35575 24.13675 12.56525 23.46025 13.03125 22.90625 C 13.74525 22.06425 14.585 20.674 15.5 20.125 C 16.151 19.733 17.00825 20.088 17.78125 19.875 C 18.47325 19.688 19.516 19.458 20.25 19.625 C 21.015 19.798 20.14925 20.56275 20.65625 20.84375 C 21.24825 21.16975 21.66275 21.4575 22.21875 21.8125 C 22.79175 22.1755 23.0255 21.13225 23.4375 21.03125 C 23.9385 20.90925 24.616 20.86675 25.125 20.96875 C 26.112 21.17675 28.118 20.467 27.125 19 C 26.776 18.486 25.8415 18.343 25.3125 18.125 C 24.6585 17.853 25.0645 16.74025 24.1875 16.78125 C 23.5295 16.94425 24.4105 17.64825 24.1875 18.03125 C 23.7795 18.73025 23.01125 17.2525 22.90625 17.0625 C 22.78425 16.8415 21.36125 14.85025 20.90625 15.28125 C 20.75425 15.42725 23.33 18.35225 21.375 17.78125 C 21.369 17.00825 20.57625 16.91925 20.15625 16.40625 C 19.57025 15.69125 19.0895 16.02275 18.4375 16.59375 C 17.8005 17.15075 16.86275 17.9425 16.09375 18.3125 C 14.41575 19.1165 14.702 17.381 14.75 16.375 C 14.78 15.703 15.767 16.00075 16.125 15.84375 C 17.215 15.36375 16.156 14.86625 15.875 14.40625 C 16.194 13.92825 18.11125 13.36075 18.65625 13.21875 C 19.88425 12.89275 20.90725 11.878 22.40625 12.625 C 22.59925 12.718 24.49625 11.55375 23.15625 11.21875 C 21.66725 10.33375 21.59775 11.62275 20.46875 11.96875 C 20.46075 10.72375 17.4185 10.6035 18.5625 8.9375 C 19.4935 7.5765 20.235 7.3825 22.875 7.1875 C 24.807 7.0595 25.7685 7.11475 26.1875 7.46875 C 26.6055 7.82275 26.72475 9.09375 25.71875 9.21875 C 25.90675 10.88275 27.6465 9.3645 28.3125 8.9375 C 29.4105 8.2345 31.71725 8.65725 32.03125 8.40625 C 32.34325 8.15525 31.82075 7.451 32.09375 7 C 32.15825 6.89325 32.245141 6.8139687 32.34375 6.78125 z "
   id="path2992" /><path
   d="m 15.211,10.357 c 0.657,-1.915 4.204,1.118 2.302,2.784 -0.455,0.399 -2.925,0.334 -2.399,-0.242 0.209,-0.23 0.532,-0.232 0.74,-0.52 0.54,-0.751 -0.305,-1.432 -0.643,-2.022"
   id="path2990" /><path
   d="m 32.05,36.999 c -0.061,0.761 -0.593,2.649 -1.631,2.649 -0.753,0 -0.743,-1.061 -0.669,-1.576 0.278,-1.842 1.062,-2.187 2.062,-3.569 0.693,0.588 0.302,1.725 0.238,2.496"
   id="path2988" />
</svg>