<?xml version="1.0" encoding="UTF-8" standalone="no"?>
<!-- Generator: Adobe Illustrator 15.0.0, SVG Export Plug-In . SVG Version: 6.00 Build 0)  -->

<svg
   xmlns:dc="http://purl.org/dc/elements/1.1/"
   xmlns:cc="http://creativecommons.org/ns#"
   xmlns:rdf="http://www.w3.org/1999/02/22-rdf-syntax-ns#"
   xmlns:svg="http://www.w3.org/2000/svg"
   xmlns="http://www.w3.org/2000/svg"
   xmlns:sodipodi="http://sodipodi.sourceforge.net/DTD/sodipodi-0.dtd"
   xmlns:inkscape="http://www.inkscape.org/namespaces/inkscape"
   version="1.1"
   id="Layer_1"
   x="0px"
   y="0px"
   width="48px"
   height="48px"
   viewBox="0 0 48 48"
   enable-background="new 0 0 48 48"
   xml:space="preserve"
   inkscape:version="0.48.2 r9819"
   sodipodi:docname="mapbubble.svg"><metadata
   id="metadata9"><rdf:RDF><cc:Work
       rdf:about=""><dc:format>image/svg+xml</dc:format><dc:type
         rdf:resource="http://purl.org/dc/dcmitype/StillImage" /></cc:Work></rdf:RDF></metadata><defs
   id="defs7" /><sodipodi:namedview
   pagecolor="#ffffff"
   bordercolor="#666666"
   borderopacity="1"
   objecttolerance="10"
   gridtolerance="10"
   guidetolerance="10"
   inkscape:pageopacity="0"
   inkscape:pageshadow="2"
   inkscape:window-width="1280"
   inkscape:window-height="1002"
   id="namedview5"
   showgrid="false"
   inkscape:zoom="3.3868041"
   inkscape:cx="52.537257"
   inkscape:cy="13.084622"
   inkscape:window-x="1912"
   inkscape:window-y="48"
   inkscape:window-maximized="1"
   inkscape:current-layer="Layer_1" />

<path
   sodipodi:type="arc"
   style="fill:#000000;fill-opacity:1;stroke:#ffffff;stroke-width:0;stroke-linecap:butt;stroke-linejoin:miter;stroke-miterlimit:4;stroke-opacity:1;stroke-dasharray:none"
   id="path2984"
   sodipodi:cx="15.050847"
   sodipodi:cy="14.644068"
   sodipodi:rx="8.1355934"
   sodipodi:ry="8.1355934"
   d="m 23.18644,14.644068 a 8.1355934,8.1355934 0 1 1 -16.2711864,0 8.1355934,8.1355934 0 1 1 16.2711864,0 z"
   transform="matrix(0.67914623,0,0,0.67914623,19.491235,22.04267)" /><path
   sodipodi:type="arc"
   style="fill:#000000;fill-opacity:1;stroke:#ffffff;stroke-width:0;stroke-linecap:butt;stroke-linejoin:miter;stroke-miterlimit:4;stroke-opacity:1;stroke-dasharray:none"
   id="path2984-1"
   sodipodi:cx="15.050847"
   sodipodi:cy="14.644068"
   sodipodi:rx="8.1355934"
   sodipodi:ry="8.1355934"
   d="m 23.18644,14.644068 a 8.1355934,8.1355934 0 1 1 -16.2711864,0 8.1355934,8.1355934 0 1 1 16.2711864,0 z"
   transform="matrix(0.40414624,0,0,0.40414624,37.359035,12.54436)" /><path
   sodipodi:type="arc"
   style="fill:#000000;fill-opacity:1;stroke:#ffffff;stroke-width:0;stroke-linecap:butt;stroke-linejoin:miter;stroke-miterlimit:4;stroke-opacity:1;stroke-dasharray:none"
   id="path2984-7"
   sodipodi:cx="15.050847"
   sodipodi:cy="14.644068"
   sodipodi:rx="8.1355934"
   sodipodi:ry="8.1355934"
   d="m 23.18644,14.644068 a 8.1355934,8.1355934 0 1 1 -16.2711864,0 8.1355934,8.1355934 0 1 1 16.2711864,0 z"
   transform="matrix(0.39164624,0,0,0.39164624,34.394625,20.76131)" /><path
   sodipodi:type="arc"
   style="fill:#000000;fill-opacity:1;stroke:#ffffff;stroke-width:0;stroke-linecap:butt;stroke-linejoin:miter;stroke-miterlimit:4;stroke-opacity:1;stroke-dasharray:none"
   id="path2984-4"
   sodipodi:cx="15.050847"
   sodipodi:cy="14.644068"
   sodipodi:rx="8.1355934"
   sodipodi:ry="8.1355934"
   d="m 23.18644,14.644068 a 8.1355934,8.1355934 0 1 1 -16.2711864,0 8.1355934,8.1355934 0 1 1 16.2711864,0 z"
   transform="matrix(0.35414624,0,0,0.35414624,-1.3460549,31.78504)" /><path
   sodipodi:type="arc"
   style="fill:#000000;fill-opacity:1;stroke:#ffffff;stroke-width:0;stroke-linecap:butt;stroke-linejoin:miter;stroke-miterlimit:4;stroke-opacity:1;stroke-dasharray:none"
   id="path2984-0"
   sodipodi:cx="15.050847"
   sodipodi:cy="14.644068"
   sodipodi:rx="8.1355934"
   sodipodi:ry="8.1355934"
   d="m 23.18644,14.644068 a 8.1355934,8.1355934 0 1 1 -16.2711864,0 8.1355934,8.1355934 0 1 1 16.2711864,0 z"
   transform="matrix(0.67914623,0,0,0.67914623,8.8132651,13.3986)" /><path
   sodipodi:type="arc"
   style="fill:#000000;fill-opacity:1;stroke:#ffffff;stroke-width:0;stroke-linecap:butt;stroke-linejoin:miter;stroke-miterlimit:4;stroke-opacity:1;stroke-dasharray:none"
   id="path2984-4-9"
   sodipodi:cx="15.050847"
   sodipodi:cy="14.644068"
   sodipodi:rx="8.1355934"
   sodipodi:ry="8.1355934"
   d="m 23.18644,14.644068 a 8.1355934,8.1355934 0 1 1 -16.2711864,0 8.1355934,8.1355934 0 1 1 16.2711864,0 z"
   transform="matrix(0.41664624,0,0,0.41664624,-1.2697849,10.32741)" /><path
   sodipodi:type="arc"
   style="fill:#000000;fill-opacity:1;stroke:#ffffff;stroke-width:0;stroke-linecap:butt;stroke-linejoin:miter;stroke-miterlimit:4;stroke-opacity:1;stroke-dasharray:none"
   id="path2984-4-4"
   sodipodi:cx="15.050847"
   sodipodi:cy="14.644068"
   sodipodi:rx="8.1355934"
   sodipodi:ry="8.1355934"
   d="m 23.18644,14.644068 a 8.1355934,8.1355934 0 1 1 -16.2711864,0 8.1355934,8.1355934 0 1 1 16.2711864,0 z"
   transform="matrix(0.31664624,0,0,0.31664624,5.3200451,23.99521)" /><path
   sodipodi:type="arc"
   style="fill:#000000;fill-opacity:1;stroke:#ffffff;stroke-width:0;stroke-linecap:butt;stroke-linejoin:miter;stroke-miterlimit:4;stroke-opacity:1;stroke-dasharray:none"
   id="path2984-2"
   sodipodi:cx="15.050847"
   sodipodi:cy="14.644068"
   sodipodi:rx="8.1355934"
   sodipodi:ry="8.1355934"
   d="m 23.18644,14.644068 a 8.1355934,8.1355934 0 1 1 -16.2711864,0 8.1355934,8.1355934 0 1 1 16.2711864,0 z"
   transform="matrix(0.67914623,0,0,0.67914623,20.780953,-0.32973169)" /><path
   sodipodi:type="arc"
   style="fill:#000000;fill-opacity:1;stroke:#ffffff;stroke-width:0;stroke-linecap:butt;stroke-linejoin:miter;stroke-miterlimit:4;stroke-opacity:1;stroke-dasharray:none"
   id="path2984-3"
   sodipodi:cx="15.050847"
   sodipodi:cy="14.644068"
   sodipodi:rx="8.1355934"
   sodipodi:ry="8.1355934"
   d="m 23.18644,14.644068 a 8.1355934,8.1355934 0 1 1 -16.2711864,0 8.1355934,8.1355934 0 1 1 16.2711864,0 z"
   transform="matrix(0.67914623,0,0,0.67914623,6.0177724,29.491892)" /><path
   sodipodi:type="arc"
   style="fill:#000000;fill-opacity:1;stroke:#ffffff;stroke-width:0;stroke-linecap:butt;stroke-linejoin:miter;stroke-miterlimit:4;stroke-opacity:1;stroke-dasharray:none"
   id="path2984-7-1"
   sodipodi:cx="15.050847"
   sodipodi:cy="14.644068"
   sodipodi:rx="8.1355934"
   sodipodi:ry="8.1355934"
   d="m 23.18644,14.644068 a 8.1355934,8.1355934 0 1 1 -16.2711864,0 8.1355934,8.1355934 0 1 1 16.2711864,0 z"
   transform="matrix(0.39164624,0,0,0.39164624,9.4590993,2.994647)" /><path
   sodipodi:type="arc"
   style="fill:#000000;fill-opacity:1;stroke:#ffffff;stroke-width:0;stroke-linecap:butt;stroke-linejoin:miter;stroke-miterlimit:4;stroke-opacity:1;stroke-dasharray:none"
   id="path2984-7-1-1"
   sodipodi:cx="15.050847"
   sodipodi:cy="14.644068"
   sodipodi:rx="8.1355934"
   sodipodi:ry="8.1355934"
   d="m 23.18644,14.644068 a 8.1355934,8.1355934 0 1 1 -16.2711864,0 8.1355934,8.1355934 0 1 1 16.2711864,0 z"
   transform="matrix(0.17388934,0,0,0.17388934,27.794969,18.289301)" /></svg>