<?xml version="1.0" encoding="UTF-8" standalone="no"?>
<!-- Generator: Adobe Illustrator 15.0.0, SVG Export Plug-In . SVG Version: 6.00 Build 0)  -->

<svg
   xmlns:dc="http://purl.org/dc/elements/1.1/"
   xmlns:cc="http://creativecommons.org/ns#"
   xmlns:rdf="http://www.w3.org/1999/02/22-rdf-syntax-ns#"
   xmlns:svg="http://www.w3.org/2000/svg"
   xmlns="http://www.w3.org/2000/svg"
   xmlns:sodipodi="http://sodipodi.sourceforge.net/DTD/sodipodi-0.dtd"
   xmlns:inkscape="http://www.inkscape.org/namespaces/inkscape"
   version="1.1"
   id="Layer_1"
   x="0px"
   y="0px"
   width="48px"
   height="48px"
   viewBox="0 0 48 48"
   enable-background="new 0 0 48 48"
   xml:space="preserve"
   inkscape:version="0.48.2 r9819"
   sodipodi:docname="_template.svg"><metadata
   id="metadata23"><rdf:RDF><cc:Work
       rdf:about=""><dc:format>image/svg+xml</dc:format><dc:type
         rdf:resource="http://purl.org/dc/dcmitype/StillImage" /><dc:title></dc:title></cc:Work></rdf:RDF></metadata><defs
   id="defs21" /><sodipodi:namedview
   pagecolor="#ffffff"
   bordercolor="#666666"
   borderopacity="1"
   objecttolerance="10"
   gridtolerance="10"
   guidetolerance="10"
   inkscape:pageopacity="0"
   inkscape:pageshadow="2"
   inkscape:window-width="868"
   inkscape:window-height="554"
   id="namedview19"
   showgrid="false"
   inkscape:zoom="4.9166667"
   inkscape:cx="24"
   inkscape:cy="20.12"
   inkscape:window-x="912"
   inkscape:window-y="331"
   inkscape:window-maximized="0"
   inkscape:current-layer="Layer_1" />

<g
   style="display:inline"
   id="g15153"
   inkscape:export-xdpi="300"
   inkscape:export-ydpi="300"
   transform="matrix(2.9957627,0,0,2.9957627,1406.8432,-3610.5204)"
   inkscape:export-filename="C:\Documents and Settings\jhernandez\Mis documentos\imagenCorp\iconos\iconos_jorge\ico_web\todos.png"><g
     id="g7786"
     transform="translate(2.5576096,40)"><g
       id="g7788"><rect
         ry="1.3175305"
         rx="1.3175305"
         y="1165.2317"
         x="-472.16864"
         height="16"
         width="16"
         id="rect7790"
         style="fill:#0058b0;fill-opacity:1;fill-rule:nonzero;stroke:none" /><path
         id="path7792"
         d="m -470.57777,1177.3184 c -0.96558,-1.6893 0.26727,-4.5121 1.55923,-5.6254 0.22418,-0.1865 0.42224,-0.3245 0.44013,-0.3066 -0.67409,1.7063 -2.11412,3.7037 -1.34772,5.3895 0.64462,1.4179 2.79441,1.9795 4.16099,2.126 2.13111,0.2187 2.22167,0.231 2.22167,0.3021 -2.73075,0.4785 -5.82968,0.222 -7.0343,-1.8856 z"
         style="fill:#ffffff;fill-opacity:1"
         inkscape:connector-curvature="0"
         sodipodi:nodetypes="accacca" /><path
         id="path7794"
         d="m -463.55852,1176.8581 c -0.85865,-0.3975 -1.21847,-0.2901 -2.03831,-0.6503 -0.21304,-0.2859 2.02989,-0.1834 2.52281,-0.069 0.42613,0.099 0.24501,2.0915 0.20032,3.0178 -0.71799,0.5171 -0.14626,-1.6927 -0.68482,-2.2984 z"
         style="fill:#ffffff;fill-opacity:1"
         inkscape:connector-curvature="0"
         sodipodi:nodetypes="ccscc" /><path
         id="path7796"
         d="m -462.69953,1179.1448 c 2.87969,-1.1427 2.58166,-1.1448 1.91902,-2.8003 -1.34961,-3.3518 -1.28817,-4.6065 0.26658,-5.444 3.13914,-1.2478 2.74765,-1.4251 2.58803,-3.6243 1.40331,2.3379 -0.18445,3.1756 -1.28042,3.7435 -2.99854,1.0801 -1.40455,3.7081 -0.83444,5.0381 0.32641,0.765 0.69606,1.7276 0.20698,2.4176 -0.36703,0.5024 -1.52706,0.7584 -2.52914,0.7611 -0.37268,10e-4 -0.42103,-0.012 -0.33661,-0.092 z"
         style="fill:#ffffff;fill-opacity:1"
         inkscape:connector-curvature="0"
         sodipodi:nodetypes="ccccccccc" /><path
         id="path7798"
         d="m -468.01206,1168.8828 c 2.11285,-3.2166 4.94439,-1.3284 6.63715,-0.9832 0.78591,0.1602 1.8073,0.7554 2.38728,-0.6032 0.41122,1.8606 -1.9647,1.7416 -3.08405,1.1417 -2.09086,-1.1205 -4.51918,-0.4815 -5.34781,1.3316 -0.53598,1.1728 0.95476,2.8812 2.4956,2.9557 0.78869,-0.042 0.83458,0.1171 0.24933,0.2788 -3.60356,0.5816 -4.30802,-2.6439 -3.3375,-4.1214 z"
         style="fill:#ffffff;fill-opacity:1"
         inkscape:connector-curvature="0"
         sodipodi:nodetypes="sscssccs" /></g></g><g
     transform="translate(2.5576096,40)"
     id="g7896"><g
       id="g7898"><rect
         style="fill:#0058b0;fill-opacity:1;fill-rule:nonzero;stroke:none"
         id="rect7900"
         width="16"
         height="16"
         x="-472.16864"
         y="1165.2317"
         rx="1.3175305"
         ry="1.3175305" /><path
         sodipodi:nodetypes="accacca"
         inkscape:connector-curvature="0"
         style="fill:#ffffff;fill-opacity:1"
         d="m -470.57777,1177.3184 c -0.96558,-1.6893 0.26727,-4.5121 1.55923,-5.6254 0.22418,-0.1865 0.42224,-0.3245 0.44013,-0.3066 -0.67409,1.7063 -2.11412,3.7037 -1.34772,5.3895 0.64462,1.4179 2.79441,1.9795 4.16099,2.126 2.13111,0.2187 2.22167,0.231 2.22167,0.3021 -2.73075,0.4785 -5.82968,0.222 -7.0343,-1.8856 z"
         id="path7902" /><path
         sodipodi:nodetypes="ccscc"
         inkscape:connector-curvature="0"
         style="fill:#ffffff;fill-opacity:1"
         d="m -463.55852,1176.8581 c -0.85865,-0.3975 -1.21847,-0.2901 -2.03831,-0.6503 -0.21304,-0.2859 2.02989,-0.1834 2.52281,-0.069 0.42613,0.099 0.24501,2.0915 0.20032,3.0178 -0.71799,0.5171 -0.14626,-1.6927 -0.68482,-2.2984 z"
         id="path7904" /><path
         sodipodi:nodetypes="ccccccccc"
         inkscape:connector-curvature="0"
         style="fill:#ffffff;fill-opacity:1"
         d="m -462.69953,1179.1448 c 2.87969,-1.1427 2.58166,-1.1448 1.91902,-2.8003 -1.34961,-3.3518 -1.28817,-4.6065 0.26658,-5.444 3.13914,-1.2478 2.74765,-1.4251 2.58803,-3.6243 1.40331,2.3379 -0.18445,3.1756 -1.28042,3.7435 -2.99854,1.0801 -1.40455,3.7081 -0.83444,5.0381 0.32641,0.765 0.69606,1.7276 0.20698,2.4176 -0.36703,0.5024 -1.52706,0.7584 -2.52914,0.7611 -0.37268,10e-4 -0.42103,-0.012 -0.33661,-0.092 z"
         id="path7906" /><path
         sodipodi:nodetypes="sscssccs"
         inkscape:connector-curvature="0"
         style="fill:#ffffff;fill-opacity:1"
         d="m -468.01206,1168.8828 c 2.11285,-3.2166 4.94439,-1.3284 6.63715,-0.9832 0.78591,0.1602 1.8073,0.7554 2.38728,-0.6032 0.41122,1.8606 -1.9647,1.7416 -3.08405,1.1417 -2.09086,-1.1205 -4.51918,-0.4815 -5.34781,1.3316 -0.53598,1.1728 0.95476,2.8812 2.4956,2.9557 0.78869,-0.042 0.83458,0.1171 0.24933,0.2788 -3.60356,0.5816 -4.30802,-2.6439 -3.3375,-4.1214 z"
         id="path7908" /></g></g><g
     transform="translate(2.5576096,40)"
     id="g8006"><g
       id="g8008"><rect
         style="fill:#0058b0;fill-opacity:1;fill-rule:nonzero;stroke:none"
         id="rect8010"
         width="16"
         height="16"
         x="-472.16864"
         y="1165.2317"
         rx="1.3175305"
         ry="1.3175305" /><path
         sodipodi:nodetypes="accacca"
         inkscape:connector-curvature="0"
         style="fill:#ffffff;fill-opacity:1"
         d="m -470.57777,1177.3184 c -0.96558,-1.6893 0.26727,-4.5121 1.55923,-5.6254 0.22418,-0.1865 0.42224,-0.3245 0.44013,-0.3066 -0.67409,1.7063 -2.11412,3.7037 -1.34772,5.3895 0.64462,1.4179 2.79441,1.9795 4.16099,2.126 2.13111,0.2187 2.22167,0.231 2.22167,0.3021 -2.73075,0.4785 -5.82968,0.222 -7.0343,-1.8856 z"
         id="path8012" /><path
         sodipodi:nodetypes="ccscc"
         inkscape:connector-curvature="0"
         style="fill:#ffffff;fill-opacity:1"
         d="m -463.55852,1176.8581 c -0.85865,-0.3975 -1.21847,-0.2901 -2.03831,-0.6503 -0.21304,-0.2859 2.02989,-0.1834 2.52281,-0.069 0.42613,0.099 0.24501,2.0915 0.20032,3.0178 -0.71799,0.5171 -0.14626,-1.6927 -0.68482,-2.2984 z"
         id="path8014" /><path
         sodipodi:nodetypes="ccccccccc"
         inkscape:connector-curvature="0"
         style="fill:#ffffff;fill-opacity:1"
         d="m -462.69953,1179.1448 c 2.87969,-1.1427 2.58166,-1.1448 1.91902,-2.8003 -1.34961,-3.3518 -1.28817,-4.6065 0.26658,-5.444 3.13914,-1.2478 2.74765,-1.4251 2.58803,-3.6243 1.40331,2.3379 -0.18445,3.1756 -1.28042,3.7435 -2.99854,1.0801 -1.40455,3.7081 -0.83444,5.0381 0.32641,0.765 0.69606,1.7276 0.20698,2.4176 -0.36703,0.5024 -1.52706,0.7584 -2.52914,0.7611 -0.37268,10e-4 -0.42103,-0.012 -0.33661,-0.092 z"
         id="path8016" /><path
         sodipodi:nodetypes="sscssccs"
         inkscape:connector-curvature="0"
         style="fill:#ffffff;fill-opacity:1"
         d="m -468.01206,1168.8828 c 2.11285,-3.2166 4.94439,-1.3284 6.63715,-0.9832 0.78591,0.1602 1.8073,0.7554 2.38728,-0.6032 0.41122,1.8606 -1.9647,1.7416 -3.08405,1.1417 -2.09086,-1.1205 -4.51918,-0.4815 -5.34781,1.3316 -0.53598,1.1728 0.95476,2.8812 2.4956,2.9557 0.78869,-0.042 0.83458,0.1171 0.24933,0.2788 -3.60356,0.5816 -4.30802,-2.6439 -3.3375,-4.1214 z"
         id="path8018" /></g></g><g
     id="g8116"
     transform="translate(2.5576096,40)"><g
       id="g8118"><rect
         ry="1.3175305"
         rx="1.3175305"
         y="1165.2317"
         x="-472.16864"
         height="16"
         width="16"
         id="rect8120"
         style="fill:#0058b0;fill-opacity:1;fill-rule:nonzero;stroke:none" /><path
         id="path8122"
         d="m -470.57777,1177.3184 c -0.96558,-1.6893 0.26727,-4.5121 1.55923,-5.6254 0.22418,-0.1865 0.42224,-0.3245 0.44013,-0.3066 -0.67409,1.7063 -2.11412,3.7037 -1.34772,5.3895 0.64462,1.4179 2.79441,1.9795 4.16099,2.126 2.13111,0.2187 2.22167,0.231 2.22167,0.3021 -2.73075,0.4785 -5.82968,0.222 -7.0343,-1.8856 z"
         style="fill:#ffffff;fill-opacity:1"
         inkscape:connector-curvature="0"
         sodipodi:nodetypes="accacca" /><path
         id="path8124"
         d="m -463.55852,1176.8581 c -0.85865,-0.3975 -1.21847,-0.2901 -2.03831,-0.6503 -0.21304,-0.2859 2.02989,-0.1834 2.52281,-0.069 0.42613,0.099 0.24501,2.0915 0.20032,3.0178 -0.71799,0.5171 -0.14626,-1.6927 -0.68482,-2.2984 z"
         style="fill:#ffffff;fill-opacity:1"
         inkscape:connector-curvature="0"
         sodipodi:nodetypes="ccscc" /><path
         id="path8126"
         d="m -462.69953,1179.1448 c 2.87969,-1.1427 2.58166,-1.1448 1.91902,-2.8003 -1.34961,-3.3518 -1.28817,-4.6065 0.26658,-5.444 3.13914,-1.2478 2.74765,-1.4251 2.58803,-3.6243 1.40331,2.3379 -0.18445,3.1756 -1.28042,3.7435 -2.99854,1.0801 -1.40455,3.7081 -0.83444,5.0381 0.32641,0.765 0.69606,1.7276 0.20698,2.4176 -0.36703,0.5024 -1.52706,0.7584 -2.52914,0.7611 -0.37268,10e-4 -0.42103,-0.012 -0.33661,-0.092 z"
         style="fill:#ffffff;fill-opacity:1"
         inkscape:connector-curvature="0"
         sodipodi:nodetypes="ccccccccc" /><path
         id="path8128"
         d="m -468.01206,1168.8828 c 2.11285,-3.2166 4.94439,-1.3284 6.63715,-0.9832 0.78591,0.1602 1.8073,0.7554 2.38728,-0.6032 0.41122,1.8606 -1.9647,1.7416 -3.08405,1.1417 -2.09086,-1.1205 -4.51918,-0.4815 -5.34781,1.3316 -0.53598,1.1728 0.95476,2.8812 2.4956,2.9557 0.78869,-0.042 0.83458,0.1171 0.24933,0.2788 -3.60356,0.5816 -4.30802,-2.6439 -3.3375,-4.1214 z"
         style="fill:#ffffff;fill-opacity:1"
         inkscape:connector-curvature="0"
         sodipodi:nodetypes="sscssccs" /></g></g><g
     transform="translate(2.5576096,40)"
     id="g8226"><g
       id="g8228"><rect
         style="fill:#0058b0;fill-opacity:1;fill-rule:nonzero;stroke:none"
         id="rect8230"
         width="16"
         height="16"
         x="-472.16864"
         y="1165.2317"
         rx="1.3175305"
         ry="1.3175305" /><path
         sodipodi:nodetypes="accacca"
         inkscape:connector-curvature="0"
         style="fill:#ffffff;fill-opacity:1"
         d="m -470.57777,1177.3184 c -0.96558,-1.6893 0.26727,-4.5121 1.55923,-5.6254 0.22418,-0.1865 0.42224,-0.3245 0.44013,-0.3066 -0.67409,1.7063 -2.11412,3.7037 -1.34772,5.3895 0.64462,1.4179 2.79441,1.9795 4.16099,2.126 2.13111,0.2187 2.22167,0.231 2.22167,0.3021 -2.73075,0.4785 -5.82968,0.222 -7.0343,-1.8856 z"
         id="path8232" /><path
         sodipodi:nodetypes="ccscc"
         inkscape:connector-curvature="0"
         style="fill:#ffffff;fill-opacity:1"
         d="m -463.55852,1176.8581 c -0.85865,-0.3975 -1.21847,-0.2901 -2.03831,-0.6503 -0.21304,-0.2859 2.02989,-0.1834 2.52281,-0.069 0.42613,0.099 0.24501,2.0915 0.20032,3.0178 -0.71799,0.5171 -0.14626,-1.6927 -0.68482,-2.2984 z"
         id="path8234" /><path
         sodipodi:nodetypes="ccccccccc"
         inkscape:connector-curvature="0"
         style="fill:#ffffff;fill-opacity:1"
         d="m -462.69953,1179.1448 c 2.87969,-1.1427 2.58166,-1.1448 1.91902,-2.8003 -1.34961,-3.3518 -1.28817,-4.6065 0.26658,-5.444 3.13914,-1.2478 2.74765,-1.4251 2.58803,-3.6243 1.40331,2.3379 -0.18445,3.1756 -1.28042,3.7435 -2.99854,1.0801 -1.40455,3.7081 -0.83444,5.0381 0.32641,0.765 0.69606,1.7276 0.20698,2.4176 -0.36703,0.5024 -1.52706,0.7584 -2.52914,0.7611 -0.37268,10e-4 -0.42103,-0.012 -0.33661,-0.092 z"
         id="path8236" /><path
         sodipodi:nodetypes="sscssccs"
         inkscape:connector-curvature="0"
         style="fill:#ffffff;fill-opacity:1"
         d="m -468.01206,1168.8828 c 2.11285,-3.2166 4.94439,-1.3284 6.63715,-0.9832 0.78591,0.1602 1.8073,0.7554 2.38728,-0.6032 0.41122,1.8606 -1.9647,1.7416 -3.08405,1.1417 -2.09086,-1.1205 -4.51918,-0.4815 -5.34781,1.3316 -0.53598,1.1728 0.95476,2.8812 2.4956,2.9557 0.78869,-0.042 0.83458,0.1171 0.24933,0.2788 -3.60356,0.5816 -4.30802,-2.6439 -3.3375,-4.1214 z"
         id="path8238" /></g></g><g
     id="g8336"
     transform="translate(2.5576096,40)"><g
       id="g8338"><rect
         ry="1.3175305"
         rx="1.3175305"
         y="1165.2317"
         x="-472.16864"
         height="16"
         width="16"
         id="rect8340"
         style="fill:#0058b0;fill-opacity:1;fill-rule:nonzero;stroke:none" /><path
         id="path8342"
         d="m -470.57777,1177.3184 c -0.96558,-1.6893 0.26727,-4.5121 1.55923,-5.6254 0.22418,-0.1865 0.42224,-0.3245 0.44013,-0.3066 -0.67409,1.7063 -2.11412,3.7037 -1.34772,5.3895 0.64462,1.4179 2.79441,1.9795 4.16099,2.126 2.13111,0.2187 2.22167,0.231 2.22167,0.3021 -2.73075,0.4785 -5.82968,0.222 -7.0343,-1.8856 z"
         style="fill:#ffffff;fill-opacity:1"
         inkscape:connector-curvature="0"
         sodipodi:nodetypes="accacca" /><path
         id="path8344"
         d="m -463.55852,1176.8581 c -0.85865,-0.3975 -1.21847,-0.2901 -2.03831,-0.6503 -0.21304,-0.2859 2.02989,-0.1834 2.52281,-0.069 0.42613,0.099 0.24501,2.0915 0.20032,3.0178 -0.71799,0.5171 -0.14626,-1.6927 -0.68482,-2.2984 z"
         style="fill:#ffffff;fill-opacity:1"
         inkscape:connector-curvature="0"
         sodipodi:nodetypes="ccscc" /><path
         id="path8346"
         d="m -462.69953,1179.1448 c 2.87969,-1.1427 2.58166,-1.1448 1.91902,-2.8003 -1.34961,-3.3518 -1.28817,-4.6065 0.26658,-5.444 3.13914,-1.2478 2.74765,-1.4251 2.58803,-3.6243 1.40331,2.3379 -0.18445,3.1756 -1.28042,3.7435 -2.99854,1.0801 -1.40455,3.7081 -0.83444,5.0381 0.32641,0.765 0.69606,1.7276 0.20698,2.4176 -0.36703,0.5024 -1.52706,0.7584 -2.52914,0.7611 -0.37268,10e-4 -0.42103,-0.012 -0.33661,-0.092 z"
         style="fill:#ffffff;fill-opacity:1"
         inkscape:connector-curvature="0"
         sodipodi:nodetypes="ccccccccc" /><path
         id="path8348"
         d="m -468.01206,1168.8828 c 2.11285,-3.2166 4.94439,-1.3284 6.63715,-0.9832 0.78591,0.1602 1.8073,0.7554 2.38728,-0.6032 0.41122,1.8606 -1.9647,1.7416 -3.08405,1.1417 -2.09086,-1.1205 -4.51918,-0.4815 -5.34781,1.3316 -0.53598,1.1728 0.95476,2.8812 2.4956,2.9557 0.78869,-0.042 0.83458,0.1171 0.24933,0.2788 -3.60356,0.5816 -4.30802,-2.6439 -3.3375,-4.1214 z"
         style="fill:#ffffff;fill-opacity:1"
         inkscape:connector-curvature="0"
         sodipodi:nodetypes="sscssccs" /></g></g><rect
     ry="1.3175305"
     rx="1.3175305"
     y="1205.2317"
     x="-469.61102"
     height="16"
     width="16"
     id="rect8450"
     style="fill:#003366;fill-opacity:1;fill-rule:nonzero;stroke:none" /><path
     id="path8452"
     d="m -468.02016,1217.3184 c -0.96558,-1.6893 0.26727,-4.5121 1.55923,-5.6254 0.22418,-0.1865 0.42224,-0.3245 0.44013,-0.3066 -0.67409,1.7063 -2.11412,3.7037 -1.34772,5.3895 0.64462,1.4179 2.79441,1.9795 4.16099,2.126 2.13111,0.2187 2.22167,0.231 2.22167,0.3021 -2.73075,0.4785 -5.82968,0.222 -7.0343,-1.8856 z"
     style="fill:#ffffff;fill-opacity:1"
     inkscape:connector-curvature="0"
     sodipodi:nodetypes="accacca" /><path
     id="path8454"
     d="m -461.00091,1216.8581 c -0.85865,-0.3975 -1.21847,-0.2901 -2.03831,-0.6503 -0.21304,-0.2859 2.02989,-0.1834 2.52281,-0.069 0.42613,0.099 0.24501,2.0915 0.20032,3.0178 -0.71799,0.5171 -0.14626,-1.6927 -0.68482,-2.2984 z"
     style="fill:#ffffff;fill-opacity:1"
     inkscape:connector-curvature="0"
     sodipodi:nodetypes="ccscc" /><path
     id="path8456"
     d="m -460.14192,1219.1448 c 2.87969,-1.1427 2.58166,-1.1448 1.91902,-2.8003 -1.34961,-3.3518 -1.28817,-4.6065 0.26658,-5.444 3.13914,-1.2478 2.74765,-1.4251 2.58803,-3.6243 1.40331,2.3379 -0.18445,3.1756 -1.28042,3.7435 -2.99854,1.0801 -1.40455,3.7081 -0.83444,5.0381 0.32641,0.765 0.69606,1.7276 0.20698,2.4176 -0.36703,0.5024 -1.52706,0.7584 -2.52914,0.7611 -0.37268,10e-4 -0.42103,-0.012 -0.33661,-0.092 z"
     style="fill:#ffffff;fill-opacity:1"
     inkscape:connector-curvature="0"
     sodipodi:nodetypes="ccccccccc" /><path
     id="path8458"
     d="m -465.45445,1208.8828 c 2.11285,-3.2166 4.94439,-1.3284 6.63715,-0.9832 0.78591,0.1602 1.8073,0.7554 2.38728,-0.6032 0.41122,1.8606 -1.9647,1.7416 -3.08405,1.1417 -2.09086,-1.1205 -4.51918,-0.4815 -5.34781,1.3316 -0.53598,1.1728 0.95476,2.8812 2.4956,2.9557 0.78869,-0.042 0.83458,0.1171 0.24933,0.2788 -3.60356,0.5816 -4.30802,-2.6439 -3.3375,-4.1214 z"
     style="fill:#ffffff;fill-opacity:1"
     inkscape:connector-curvature="0"
     sodipodi:nodetypes="sscssccs" /></g></svg>