<?xml version="1.0" encoding="UTF-8" standalone="no"?>
<!-- Generator: Adobe Illustrator 15.0.0, SVG Export Plug-In . SVG Version: 6.00 Build 0)  -->

<svg
   xmlns:dc="http://purl.org/dc/elements/1.1/"
   xmlns:cc="http://creativecommons.org/ns#"
   xmlns:rdf="http://www.w3.org/1999/02/22-rdf-syntax-ns#"
   xmlns:svg="http://www.w3.org/2000/svg"
   xmlns="http://www.w3.org/2000/svg"
   xmlns:sodipodi="http://sodipodi.sourceforge.net/DTD/sodipodi-0.dtd"
   xmlns:inkscape="http://www.inkscape.org/namespaces/inkscape"
   version="1.1"
   id="Layer_1"
   x="0px"
   y="0px"
   width="48px"
   height="48px"
   viewBox="0 0 48 48"
   enable-background="new 0 0 48 48"
   xml:space="preserve"
   inkscape:version="0.48.2 r9819"
   sodipodi:docname="modif_minus.svg"><metadata
   id="metadata23"><rdf:RDF><cc:Work
       rdf:about=""><dc:format>image/svg+xml</dc:format><dc:type
         rdf:resource="http://purl.org/dc/dcmitype/StillImage" /><dc:title /></cc:Work></rdf:RDF></metadata><defs
   id="defs21" /><sodipodi:namedview
   pagecolor="#ffffff"
   bordercolor="#666666"
   borderopacity="1"
   objecttolerance="10"
   gridtolerance="10"
   guidetolerance="10"
   inkscape:pageopacity="0"
   inkscape:pageshadow="2"
   inkscape:window-width="1920"
   inkscape:window-height="1020"
   id="namedview19"
   showgrid="false"
   inkscape:zoom="1.7383042"
   inkscape:cx="278.51008"
   inkscape:cy="-29.102817"
   inkscape:window-x="-4"
   inkscape:window-y="-4"
   inkscape:window-maximized="1"
   inkscape:current-layer="Layer_1" />

<path
   style="color:#000000;fill:#003366;fill-opacity:1;stroke:none;stroke-width:4.2116127;marker:none;visibility:visible;display:inline;overflow:visible;enable-background:accumulate"
   d="M 10.1875,0 C 4.54563,0 0,4.545633 0,10.1875 l 0,27.625 C 0,43.454367 4.54563,48 10.1875,48 l 27.625,0 C 43.45437,48 48,43.454367 48,37.8125 l 0,-27.625 C 48,4.545633 43.45437,0 37.8125,0 l -27.625,0 z m 2.15625,3.75 23.3125,0 c 4.75804,0 8.59375,3.835709 8.59375,8.59375 l 0,23.3125 c 0,4.758041 -3.83571,8.59375 -8.59375,8.59375 l -23.3125,0 c -4.75804,0 -8.5625,-3.835709 -8.5625,-8.59375 l 0,-23.3125 C 3.78125,7.585709 7.58571,3.75 12.34375,3.75 z"
   id="rect3753"
   inkscape:connector-curvature="0" /><rect
   style="fill:#003366;fill-opacity:1;fill-rule:nonzero;stroke:none"
   id="rect3030"
   width="25.220339"
   height="7.6271186"
   x="11.389831"
   y="20.186441" /></svg>