<?xml version="1.0" encoding="UTF-8"?>
<svg xmlns="http://www.w3.org/2000/svg" xmlns:xlink="http://www.w3.org/1999/xlink" width="410pt" height="410pt" viewBox="0 0 410 410" version="1.1">
<g id="surface1">
<path style=" stroke:none;fill-rule:nonzero;fill:rgb(0%,20%,40%);fill-opacity:1;" d="M 87.019531 0 C 38.828125 0 0 38.828125 0 87.019531 L 0 322.980469 C 0 371.171875 38.828125 410 87.019531 410 L 322.980469 410 C 371.171875 410 410 371.171875 410 322.980469 L 410 87.019531 C 410 38.828125 371.171875 0 322.980469 0 Z M 105.4375 32.03125 L 304.5625 32.03125 C 345.207031 32.03125 377.96875 64.792969 377.96875 105.4375 L 377.96875 304.5625 C 377.96875 345.207031 345.207031 377.96875 304.5625 377.96875 L 105.4375 377.96875 C 64.792969 377.96875 32.296875 345.207031 32.296875 304.5625 L 32.296875 105.4375 C 32.296875 64.792969 64.792969 32.03125 105.4375 32.03125 Z M 105.4375 32.03125 "/>
<path style=" stroke:none;fill-rule:nonzero;fill:rgb(0%,20%,40%);fill-opacity:1;" d="M 97.289062 172.425781 L 312.710938 172.425781 L 312.710938 237.574219 L 97.289062 237.574219 Z M 97.289062 172.425781 "/>
</g>
</svg>
