<?xml version="1.0" encoding="UTF-8" standalone="no"?>
<!-- Generator: Adobe Illustrator 15.0.0, SVG Export Plug-In . SVG Version: 6.00 Build 0)  -->

<svg
   xmlns:dc="http://purl.org/dc/elements/1.1/"
   xmlns:cc="http://creativecommons.org/ns#"
   xmlns:rdf="http://www.w3.org/1999/02/22-rdf-syntax-ns#"
   xmlns:svg="http://www.w3.org/2000/svg"
   xmlns="http://www.w3.org/2000/svg"
   xmlns:sodipodi="http://sodipodi.sourceforge.net/DTD/sodipodi-0.dtd"
   xmlns:inkscape="http://www.inkscape.org/namespaces/inkscape"
   version="1.1"
   id="Layer_1"
   x="0px"
   y="0px"
   width="48px"
   height="48px"
   viewBox="0 0 48 48"
   enable-background="new 0 0 48 48"
   xml:space="preserve"
   inkscape:version="0.48.2 r9819"
   sodipodi:docname="modif_pdf.svg"><metadata
   id="metadata23"><rdf:RDF><cc:Work
       rdf:about=""><dc:format>image/svg+xml</dc:format><dc:type
         rdf:resource="http://purl.org/dc/dcmitype/StillImage" /><dc:title /></cc:Work></rdf:RDF></metadata><defs
   id="defs21" /><sodipodi:namedview
   pagecolor="#ffffff"
   bordercolor="#666666"
   borderopacity="1"
   objecttolerance="10"
   gridtolerance="10"
   guidetolerance="10"
   inkscape:pageopacity="0"
   inkscape:pageshadow="2"
   inkscape:window-width="1920"
   inkscape:window-height="1020"
   id="namedview19"
   showgrid="false"
   inkscape:zoom="2.8284271"
   inkscape:cx="10.802905"
   inkscape:cy="-24.467208"
   inkscape:window-x="-4"
   inkscape:window-y="-4"
   inkscape:window-maximized="1"
   inkscape:current-layer="Layer_1" />

<path
   inkscape:connector-curvature="0"
   style="fill:#003366;fill-opacity:1;stroke:none;display:inline"
   d="M 0,0.62500069 0,48 l 35.21875,0 0,-23.0625 -2.875,0 0,0.46875 -29.53125,0 0,-2.25 6.7812504,0 C 9.000805,22.630239 8.492165,22.011595 8.09375,21.3125 l -5.1875,0 0,-2.28125 4.375,0 C 7.19533,18.577829 7.125,18.104551 7.125,17.625 l 0,-0.46875 -4.3125,0 0,-2.28125 4.3125,0 0,-1.875 -4.3125,0 0,-2.25 4.3125,0 0,-1.8749999 -4.3125,0 0,-2.25 4.34375,0 c 0.255201,-2.6995325 1.921473,-4.967986 4.25,-5.99999941 l -11.40625,0 z M 2.8125,27.28125 l 29.53125,0 0,2.28125 -29.53125,0 0,-2.28125 z m 0,4.125 29.53125,0 0,2.28125 -29.53125,0 0,-2.28125 z m 0,4.15625 29.53125,0 0,2.25 -29.53125,0 0,-2.25 z m 0,4.125 29.53125,0 0,2.28125 -29.53125,0 0,-2.28125 z"
   id="rect3347-2" /><g
   id="g3010"
   transform="translate(0,-0.70710679)"><g
     transform="translate(0.03389108,-5.3511986e-5)"
     id="g3067"><path
       id="path6150"
       style="font-size:4.8435235px;font-style:normal;font-weight:bold;line-height:125%;letter-spacing:0px;word-spacing:0px;fill:#003366;fill-opacity:1;stroke:none;font-family:Sans;-inkscape-font-specification:Sans Bold"
       d="m 11.93248,18.456653 0,-11.938638 3.829558,0 c 1.451195,3.44e-5 2.397148,0.059915 2.837892,0.1790577 0.677225,0.1790577 1.244237,0.5687148 1.701106,1.168627 0.456869,0.5999122 0.685303,1.3749222 0.685303,2.3250303 0,0.732931 -0.131585,1.349131 -0.395064,1.848598 -0.263513,0.499502 -0.597932,0.891742 -1.003735,1.176788 -0.405802,0.285115 -0.818321,0.473677 -1.237555,0.56596 -0.569739,0.113977 -1.394742,0.171138 -2.475076,0.171138 l -1.55602,0 0,4.503439 z m 2.386409,-9.9190048 0,3.3877718 1.306075,0 c 0.940601,3.5e-5 1.569452,-0.06233 1.886553,-0.187322 0.317034,-0.124996 0.565683,-0.320238 0.745779,-0.586345 0.179993,-0.266176 0.269989,-0.575498 0.269989,-0.92838 0,-0.434318 -0.126131,-0.79264 -0.378906,-1.0749658 -0.252604,-0.2823603 -0.572432,-0.4587666 -0.959418,-0.5293566 -0.284989,-0.054406 -0.857285,-0.081265 -1.71723,-0.081265 z"
       inkscape:connector-curvature="0" /><path
       id="path6152"
       style="font-size:4.8435235px;font-style:normal;font-weight:bold;line-height:125%;letter-spacing:0px;word-spacing:0px;fill:#003366;fill-opacity:1;stroke:none;font-family:Sans;-inkscape-font-specification:Sans Bold"
       d="m 22.953515,6.518015 4.361629,0 c 0.983587,3.44e-5 1.733388,0.076099 2.249369,0.2279542 0.693348,0.2062607 1.287258,0.5727781 1.781762,1.0994143 0.494469,0.5266363 0.870682,1.1713474 1.128707,1.9341332 0.258058,0.7627863 0.386951,1.7033893 0.386985,2.8217773 -3.4e-5,0.982683 -0.121018,1.829626 -0.362816,2.540829 -0.295557,0.868671 -0.717552,1.571713 -1.265747,2.109196 -0.413882,0.407185 -0.97285,0.724805 -1.67697,0.952829 -0.526719,0.168383 -1.230806,0.252402 -2.112295,0.252402 l -4.490624,0 z m 2.386409,2.0196332 0,7.9075328 1.781727,0 c 0.666486,0 1.147525,-0.03788 1.44315,-0.113977 0.386985,-0.09779 0.708109,-0.263422 0.96344,-0.496782 0.255332,-0.233464 0.463551,-0.617542 0.624829,-1.152305 0.161244,-0.534763 0.241695,-1.263631 0.242036,-2.186605 -3.4e-5,-0.922939 -0.08079,-1.631422 -0.242036,-2.125484 C 29.991826,9.8759668 29.766051,9.4905107 29.475812,9.2136255 29.185709,8.9367747 28.817405,8.7494528 28.371308,8.6516942 28.037912,8.5755947 27.385028,8.5377171 26.412178,8.5377171 z"
       inkscape:connector-curvature="0" /><path
       id="path6154"
       style="font-size:4.8435235px;font-style:normal;font-weight:bold;line-height:125%;letter-spacing:0px;word-spacing:0px;fill:#003366;fill-opacity:1;stroke:none;font-family:Sans;-inkscape-font-specification:Sans Bold"
       d="m 34.909764,18.456653 0,-11.938638 8.102487,0 0,2.0196332 -5.716078,0 0,2.8258748 4.934062,0 0,2.019633 -4.934062,0 0,5.073497 z"
       inkscape:connector-curvature="0" /></g><path
     inkscape:connector-curvature="0"
     id="path3838"
     d="m 14.15879,0 c -3.92181,0 -7.0644,3.294889 -7.0644,7.406784 l 0,10.447125 c 0,4.111898 3.14259,7.406784 7.0644,7.406784 l 26.74597,0 C 44.82657,25.260693 48,21.965807 48,17.853909 L 48,7.406784 C 48,3.294889 44.82657,0 40.90476,0 L 14.15879,0 z m 0.86377,1.326106 25.04928,0 c 3.67571,0 6.6325,2.954575 6.6325,6.630527 l 0,9.347427 c 0,3.675952 -2.95679,6.630528 -6.6325,6.630528 l -25.04928,0 c -3.67571,0 -6.6325,-2.954576 -6.6325,-6.630528 l 0,-9.347427 c 0,-3.675952 2.95679,-6.630527 6.6325,-6.630527 z"
     style="fill:#003366;fill-opacity:1;stroke:none;display:inline" /></g></svg>