<?xml version="1.0" encoding="utf-8"?>
<!-- Generator: Adobe Illustrator 15.0.0, SVG Export Plug-In . SVG Version: 6.00 Build 0)  -->
<!DOCTYPE svg PUBLIC "-//W3C//DTD SVG 1.1//EN" "http://www.w3.org/Graphics/SVG/1.1/DTD/svg11.dtd">
<svg version="1.1" id="Layer_1" xmlns="http://www.w3.org/2000/svg" xmlns:xlink="http://www.w3.org/1999/xlink" x="0px" y="0px"
	 width="48px" height="48px" viewBox="0 0 48 48" enable-background="new 0 0 48 48" xml:space="preserve">
<g>
	<path d="M34.024,9.966h9.021L33.022-0.059v9.022C33.022,9.515,33.472,9.966,34.024,9.966"/>
	<rect x="16.983" y="7.961" width="6.014" height="6.015"/>
	<path d="M31.017,10.968V-0.059H5.956c-0.551,0-1.002,0.451-1.002,1.002v46.111c0,0.553,0.451,1.004,1.002,1.004h36.088
		c0.551,0,1.002-0.451,1.002-1.004v-7.016H14.979c-1.103,0-2.005-0.904-2.005-2.006V28.01c0-1.104,0.902-2.006,2.005-2.006h28.067
		V11.971H32.019C31.468,11.971,31.017,11.52,31.017,10.968 M25.003,15.98h-4.01v4.01H10.969V9.966h4.01v-4.01h10.024V15.98z"/>
	<path d="M29.013,28.01h-4.01v10.023h4.01l2.004-2.004v-6.016L29.013,28.01z M29.013,36.029h-2.006v-6.016h2.006V36.029z"/>
	<path d="M16.983,28.01v10.023h2.005v-2.004h2.005l2.004-2.006v-4.01l-2.004-2.004H16.983z M18.988,30.014h2.005v4.01h-2.005V30.014
		z"/>
	<polygon points="39.036,28.01 39.036,30.014 35.026,30.014 35.026,32.02 39.036,32.02 39.036,34.023 35.026,34.023 35.026,38.033 
		33.022,38.033 33.022,28.01 	"/>
	<polygon points="14.979,11.971 12.974,11.971 12.974,17.985 18.988,17.985 18.988,15.98 14.979,15.98 	"/>
</g>
</svg>
