<?xml version="1.0" encoding="utf-8"?>
<!-- Generator: Adobe Illustrator 15.0.0, SVG Export Plug-In . SVG Version: 6.00 Build 0)  -->
<!DOCTYPE svg PUBLIC "-//W3C//DTD SVG 1.1//EN" "http://www.w3.org/Graphics/SVG/1.1/DTD/svg11.dtd">
<svg version="1.1" id="Layer_1" xmlns="http://www.w3.org/2000/svg" xmlns:xlink="http://www.w3.org/1999/xlink" x="0px" y="0px"
	 width="48px" height="48px" viewBox="0 0 48 48" enable-background="new 0 0 48 48" xml:space="preserve">
<path d="M48,20.397v7.106c0,0.661-0.591,1.296-1.252,1.296H28.8v17.901c0,0.661-0.576,1.299-1.237,1.299h-7.107
	c-0.66,0-1.255-0.638-1.255-1.299V28.8h-18c-0.66,0-1.2-0.635-1.2-1.296v-7.106c0-0.66,0.54-1.197,1.2-1.197h18v-18
	c0-0.66,0.595-1.2,1.255-1.2h7.107C28.224,0,28.8,0.54,28.8,1.2v18h17.948C47.409,19.2,48,19.738,48,20.397"/>
</svg>
