<?xml version="1.0" encoding="UTF-8" standalone="no"?>
<svg
   xmlns:dc="http://purl.org/dc/elements/1.1/"
   xmlns:cc="http://creativecommons.org/ns#"
   xmlns:rdf="http://www.w3.org/1999/02/22-rdf-syntax-ns#"
   xmlns:svg="http://www.w3.org/2000/svg"
   xmlns="http://www.w3.org/2000/svg"
   xmlns:sodipodi="http://sodipodi.sourceforge.net/DTD/sodipodi-0.dtd"
   xmlns:inkscape="http://www.inkscape.org/namespaces/inkscape"
   width="410pt"
   height="410pt"
   viewBox="0 0 410 410"
   version="1.1"
   id="svg7"
   sodipodi:docname="plus-fill.svg"
   inkscape:version="0.92.1 r15371">
  <metadata
     id="metadata13">
    <rdf:RDF>
      <cc:Work
         rdf:about="">
        <dc:format>image/svg+xml</dc:format>
        <dc:type
           rdf:resource="http://purl.org/dc/dcmitype/StillImage" />
      </cc:Work>
    </rdf:RDF>
  </metadata>
  <defs
     id="defs11" />
  <sodipodi:namedview
     pagecolor="#ffffff"
     bordercolor="#666666"
     borderopacity="1"
     objecttolerance="10"
     gridtolerance="10"
     guidetolerance="10"
     inkscape:pageopacity="0"
     inkscape:pageshadow="2"
     inkscape:window-width="1920"
     inkscape:window-height="1017"
     id="namedview9"
     showgrid="false"
     inkscape:zoom="0.43170732"
     inkscape:cx="277.9661"
     inkscape:cy="273.33333"
     inkscape:window-x="-8"
     inkscape:window-y="-8"
     inkscape:window-maximized="1"
     inkscape:current-layer="svg7" />
  <path
     style="fill:#003366;fill-opacity:1;fill-rule:nonzero;stroke:none;stroke-width:1.33333337"
     d="M 116.02539 0 C 51.77018 0 -9.4739031e-015 51.77018 0 116.02539 L 0 430.64062 C 0 494.89583 51.77018 546.66602 116.02539 546.66602 L 430.64062 546.66602 C 494.89583 546.66602 546.66602 494.89583 546.66602 430.64062 L 546.66602 116.02539 C 546.66602 51.77018 494.89583 -9.4739031e-015 430.64062 0 L 116.02539 0 z M 229.73438 129.72852 L 316.93164 129.72852 L 316.93164 229.73438 L 416.94336 229.73438 L 416.94336 316.57227 L 316.93164 316.57227 L 316.93164 416.9375 L 229.73438 416.9375 L 229.73438 316.57227 L 129.72852 316.57227 L 129.72852 229.73438 L 229.73438 229.73438 L 229.73438 129.72852 z "
     transform="scale(0.74999997)"
     id="path21" />
  <path
     style="fill:#003366;fill-opacity:1;fill-rule:nonzero;stroke:none"
     d="M 172.30078,97.296875"
     id="path2" />
  <path
     style="fill:#003366;fill-opacity:1;fill-rule:nonzero;stroke:none"
     d="M 105.4375,32.03125"
     id="path4" />
</svg>
