<?xml version="1.0" encoding="utf-8"?>
<!-- Generator: Adobe Illustrator 15.0.0, SVG Export Plug-In . SVG Version: 6.00 Build 0)  -->
<!DOCTYPE svg PUBLIC "-//W3C//DTD SVG 1.1//EN" "http://www.w3.org/Graphics/SVG/1.1/DTD/svg11.dtd">
<svg version="1.1" id="Layer_1" xmlns="http://www.w3.org/2000/svg" xmlns:xlink="http://www.w3.org/1999/xlink" x="0px" y="0px"
	 width="48px" height="48px" viewBox="0 0 48 48" enable-background="new 0 0 48 48" xml:space="preserve">
<g>
	<path d="M34.016,9.979h9.013L33.014-0.037v9.014C33.014,9.527,33.464,9.979,34.016,9.979"/>
	<path d="M12.985,15.187l5.163-1.252l2.003-3.319L23,15.187V7.976H12.985V15.187z M15.965,9.31c0.931,0,1.686,0.753,1.686,1.686
		c0,0.934-0.755,1.687-1.686,1.687c-0.929,0-1.686-0.753-1.686-1.687C14.279,10.062,15.036,9.31,15.965,9.31"/>
	<path d="M31.011,10.979V-0.038H5.973c-0.551,0-1.001,0.451-1.001,1.001v46.071c0,0.551,0.451,1.002,1.001,1.002h36.054
		c0.552,0,1.001-0.451,1.001-1.002v-7.01H14.987c-1.102,0-2.003-0.904-2.003-2.004V28.004c0-1.1,0.901-2.004,2.003-2.004h28.042
		V11.98H32.012C31.461,11.98,31.011,11.532,31.011,10.979 M25.002,17.114c0,0.483-0.391,0.875-0.877,0.875H11.856
		c-0.485,0-0.875-0.392-0.875-0.875V6.849c0-0.483,0.391-0.875,0.875-0.875h12.269c0.487,0,0.877,0.393,0.877,0.875V17.114z"/>
	<path d="M29.008,28.006v2.002h-2.003v8.012h-2.003V28.006H29.008z M29.008,30.008h2.003v8.012h-2.003V30.008z"/>
	<polygon points="33.014,38.02 39.022,38.02 39.022,32.012 37.02,32.012 37.02,36.018 35.017,36.018 35.017,30.008 39.022,30.008 
		39.022,28.006 33.014,28.006 	"/>
	<path d="M16.99,28.006V38.02h2.003v-2.002h2.003l2.003-2.004v-4.006l-2.003-2.002H16.99z M18.993,30.008h2.003v4.006h-2.003V30.008
		z"/>
</g>
</svg>
