<?xml version="1.0" encoding="UTF-8" standalone="no"?>
<!-- Generator: Adobe Illustrator 15.0.0, SVG Export Plug-In . SVG Version: 6.00 Build 0)  -->

<svg
   xmlns:dc="http://purl.org/dc/elements/1.1/"
   xmlns:cc="http://creativecommons.org/ns#"
   xmlns:rdf="http://www.w3.org/1999/02/22-rdf-syntax-ns#"
   xmlns:svg="http://www.w3.org/2000/svg"
   xmlns="http://www.w3.org/2000/svg"
   xmlns:sodipodi="http://sodipodi.sourceforge.net/DTD/sodipodi-0.dtd"
   xmlns:inkscape="http://www.inkscape.org/namespaces/inkscape"
   version="1.1"
   id="Layer_1"
   x="0px"
   y="0px"
   width="48px"
   height="48px"
   viewBox="0 0 48 48"
   enable-background="new 0 0 48 48"
   xml:space="preserve"
   inkscape:version="0.48.2 r9819"
   sodipodi:docname="modif_rdf.svg"><metadata
   id="metadata23"><rdf:RDF><cc:Work
       rdf:about=""><dc:format>image/svg+xml</dc:format><dc:type
         rdf:resource="http://purl.org/dc/dcmitype/StillImage" /><dc:title></dc:title></cc:Work></rdf:RDF></metadata><defs
   id="defs21">
</defs><sodipodi:namedview
   pagecolor="#ffffff"
   bordercolor="#666666"
   borderopacity="1"
   objecttolerance="10"
   gridtolerance="10"
   guidetolerance="10"
   inkscape:pageopacity="0"
   inkscape:pageshadow="2"
   inkscape:window-width="1920"
   inkscape:window-height="1020"
   id="namedview19"
   showgrid="false"
   inkscape:zoom="6.9532167"
   inkscape:cx="37.869965"
   inkscape:cy="1.2116591"
   inkscape:window-x="-4"
   inkscape:window-y="-4"
   inkscape:window-maximized="1"
   inkscape:current-layer="Layer_1" />

<g
   id="g3103"><path
     inkscape:connector-curvature="0"
     id="path3838"
     d="M 13.71875,0 C 9.74594,0 6.5625,3.183439 6.5625,7.15625 l 0,10.09375 c 0,3.972813 3.18344,7.15625 7.15625,7.15625 l 27.09375,0 C 44.78531,24.40625 48,21.222813 48,17.25 L 48,7.15625 C 48,3.183439 44.78531,0 40.8125,0 L 13.71875,0 z m 0.875,1.28125 25.375,0 c 3.7235,0 6.71875,2.854638 6.71875,6.40625 l 0,9.03125 c 0,3.551612 -2.99525,6.40625 -6.71875,6.40625 l -25.375,0 C 10.87024,23.125 7.875,20.270362 7.875,16.71875 l 0,-9.03125 c 0,-3.551612 2.99524,-6.40625 6.71875,-6.40625 z"
     style="fill:#003366;fill-opacity:1;stroke:none;display:inline" /><path
     inkscape:export-ydpi="90"
     inkscape:export-xdpi="90"
     inkscape:export-filename="C:\Documents and Settings\jhernandez\Mis documentos\imagenCorp\iconos\iconos_jorge\ico_web\g5029.png"
     id="path4662"
     d="m 26.174973,25.653667 9.77011,0 0,9.77011 -9.77011,0 z"
     style="color:#000000;fill:#003366;fill-opacity:1;stroke:none;stroke-width:1.70000005;marker:none;visibility:visible;display:inline;overflow:visible;enable-background:accumulate"
     inkscape:connector-curvature="0" /><path
     inkscape:export-ydpi="90"
     inkscape:export-xdpi="90"
     inkscape:export-filename="C:\Documents and Settings\jhernandez\Mis documentos\imagenCorp\iconos\iconos_jorge\ico_web\g5029.png"
     id="path4664"
     d="m 13.087609,25.653667 9.76987,0 0,9.77011 -9.76987,0 z"
     style="color:#000000;fill:#003366;fill-opacity:1;stroke:none;stroke-width:1.70000005;marker:none;visibility:visible;display:inline;overflow:visible;enable-background:accumulate"
     inkscape:connector-curvature="0" /><path
     inkscape:export-ydpi="90"
     inkscape:export-xdpi="90"
     inkscape:export-filename="C:\Documents and Settings\jhernandez\Mis documentos\imagenCorp\iconos\iconos_jorge\ico_web\g5029.png"
     id="path4666-6"
     d="m 5.783344e-6,25.653667 9.770144016656,0 0,9.77011 -9.770144016656,0 z"
     style="color:#000000;fill:#003366;fill-opacity:1;stroke:none;stroke-width:1.70000005;marker:none;visibility:visible;display:inline;overflow:visible;enable-background:accumulate"
     inkscape:connector-curvature="0" /><path
     id="path4668"
     d="m 0,13.065947 0,9.78125 9.15625,0 C 7.5636998,21.533985 6.5625,19.519404 6.5625,17.284697 l 0,-4.21875 -6.5625,0 z"
     style="color:#000000;fill:#003366;fill-opacity:1;stroke:none;stroke-width:1.70000005;marker:none;visibility:visible;display:inline;overflow:visible;enable-background:accumulate"
     inkscape:connector-curvature="0" /><path
     id="path4670"
     d="m 0,0.503447 0,9.78125 6.5625,0 0,-3.09375 c 0,-2.5082491 1.2789847,-4.6879204 3.21875,-5.96875 l 0,-0.71875 -9.78125,0 z"
     style="color:#000000;fill:#003366;fill-opacity:1;stroke:none;stroke-width:1.70000005;marker:none;visibility:visible;display:inline;overflow:visible;enable-background:accumulate"
     inkscape:connector-curvature="0" /><path
     inkscape:export-ydpi="90"
     inkscape:export-xdpi="90"
     inkscape:export-filename="C:\Documents and Settings\jhernandez\Mis documentos\imagenCorp\iconos\iconos_jorge\ico_web\g5029.png"
     inkscape:connector-curvature="0"
     style="color:#000000;fill:#003366;fill-opacity:1;stroke:none;stroke-width:1.70000005;marker:none;visibility:visible;display:inline;overflow:visible;enable-background:accumulate"
     d="m 26.174973,38.229925 9.77011,0 0,9.770075 -9.77011,0 z"
     id="path4672-1" /><path
     inkscape:export-ydpi="90"
     inkscape:export-xdpi="90"
     inkscape:export-filename="C:\Documents and Settings\jhernandez\Mis documentos\imagenCorp\iconos\iconos_jorge\ico_web\g5029.png"
     inkscape:connector-curvature="0"
     style="color:#000000;fill:#003366;fill-opacity:1;stroke:none;stroke-width:1.70000005;marker:none;visibility:visible;display:inline;overflow:visible;enable-background:accumulate"
     d="m 13.087609,38.229925 9.76987,0 0,9.770075 -9.76987,0 z"
     id="path4674" /><path
     inkscape:export-ydpi="90"
     inkscape:export-xdpi="90"
     inkscape:export-filename="C:\Documents and Settings\jhernandez\Mis documentos\imagenCorp\iconos\iconos_jorge\ico_web\g5029.png"
     inkscape:connector-curvature="0"
     style="color:#000000;fill:#003366;fill-opacity:1;stroke:none;stroke-width:1.70000005;marker:none;visibility:visible;display:inline;overflow:visible;enable-background:accumulate"
     d="m 5.783344e-6,38.229925 9.770144016656,0 0,9.770075 L 5.783344e-6,48 z"
     id="path4676" /><path
     d="m 11.878171,18.056402 0,-11.6775231 4.962549,0 c 1.247931,1.16e-5 2.154678,0.1048915 2.720241,0.3146399 0.565546,0.2097711 1.018256,0.5828249 1.35813,1.1191624 0.339853,0.536358 0.509785,1.1497061 0.509796,1.8400463 -1.1e-5,0.8762205 -0.257564,1.5997585 -0.77266,2.1706175 -0.515116,0.570871 -1.28512,0.930649 -2.310015,1.079334 0.509788,0.297386 0.930635,0.623974 1.262543,0.979765 0.331889,0.3558 0.779288,0.987734 1.342198,1.895806 l 1.425837,2.278152 -2.819811,0 -1.704632,-2.541016 c -0.60539,-0.908071 -1.019599,-1.480264 -1.242629,-1.71658 -0.223041,-0.236308 -0.459353,-0.398274 -0.708935,-0.4859 -0.249593,-0.08762 -0.645216,-0.131427 -1.18687,-0.131432 l -0.477934,0 0,4.874928 z m 2.357808,-6.738871 1.744459,0 c 1.131105,7e-6 1.837384,-0.04779 2.118842,-0.14338 0.281442,-0.09558 0.501822,-0.260201 0.661142,-0.493865 0.159303,-0.233649 0.238958,-0.52572 0.238967,-0.8762127 -9e-6,-0.3929594 -0.104888,-0.7102542 -0.31464,-0.9518854 C 18.474981,8.6105751 18.178928,8.4579018 17.796588,8.3941677 17.605407,8.3676255 17.031887,8.3543495 16.076025,8.3543398 l -1.840046,0 z"
     style="font-size:16.31348419px;font-style:normal;font-weight:bold;line-height:125%;letter-spacing:0px;word-spacing:0px;fill:#003366;fill-opacity:1;stroke:none;font-family:Sans;-inkscape-font-specification:Sans Bold"
     id="path3050"
     inkscape:connector-curvature="0" /><path
     d="m 23.651281,6.3788789 4.309372,0 c 0.971793,1.16e-5 1.712591,0.074357 2.222394,0.2230359 0.685031,0.2018056 1.271827,0.5602558 1.760391,1.0753517 0.488545,0.5151166 0.860271,1.1457235 1.115179,1.8918225 0.254888,0.746116 0.382337,1.666138 0.382348,2.760069 -1.1e-5,0.961184 -0.119495,1.789602 -0.358451,2.485258 -0.292081,0.849663 -0.708945,1.537356 -1.250594,2.063082 -0.408908,0.398279 -0.961187,0.708936 -1.656838,0.931972 -0.520425,0.164621 -1.216084,0.246932 -2.086979,0.246932 l -4.436822,0 z m 2.357808,1.9754609 0,7.7345672 1.760391,0 c 0.658481,2e-6 1.133759,-0.03717 1.425837,-0.111518 0.38234,-0.09558 0.699635,-0.257551 0.951885,-0.4859 0.252235,-0.228343 0.458012,-0.604052 0.617332,-1.127128 0.159303,-0.523068 0.238958,-1.235986 0.238967,-2.138755 -9e-6,-0.902758 -0.07966,-1.595761 -0.238967,-2.079013 C 30.605214,9.6633566 30.382178,9.2863201 30.095426,9.015482 29.808658,8.744662 29.444897,8.5614541 29.004143,8.4658578 28.674893,8.3915221 28.029683,8.3543495 27.06851,8.3543398 z"
     style="font-size:16.31348419px;font-style:normal;font-weight:bold;line-height:125%;letter-spacing:0px;word-spacing:0px;fill:#003366;fill-opacity:1;stroke:none;font-family:Sans;-inkscape-font-specification:Sans Bold"
     id="path3052"
     inkscape:connector-curvature="0" /><path
     d="m 35.464219,18.056402 0,-11.6775231 8.005396,0 0,1.9754609 -5.647588,0 0,2.7640522 4.874928,0 0,1.975461 -4.874928,0 0,4.962549 z"
     style="font-size:16.31348419px;font-style:normal;font-weight:bold;line-height:125%;letter-spacing:0px;word-spacing:0px;fill:#003366;fill-opacity:1;stroke:none;font-family:Sans;-inkscape-font-specification:Sans Bold"
     id="path3054"
     inkscape:connector-curvature="0" /></g></svg>