<?xml version="1.0" encoding="utf-8"?>
<!-- Generator: Adobe Illustrator 15.0.0, SVG Export Plug-In . SVG Version: 6.00 Build 0)  -->
<!DOCTYPE svg PUBLIC "-//W3C//DTD SVG 1.1//EN" "http://www.w3.org/Graphics/SVG/1.1/DTD/svg11.dtd">
<svg version="1.1" id="Layer_1" xmlns="http://www.w3.org/2000/svg" xmlns:xlink="http://www.w3.org/1999/xlink" x="0px" y="0px"
	 width="48px" height="48px" viewBox="0 0 48 48" enable-background="new 0 0 48 48" xml:space="preserve">
<g>
	<path d="M46.086,8.067H18.407h-3.749L0.326,22.4c-0.363,0.364-0.383,0.978-0.04,1.362l14.373,16.17h31.427
		c1.03,0,1.874-0.844,1.874-1.875V9.942C47.96,8.913,47.116,8.067,46.086,8.067 M39.843,28.561c0.316,0.316,0.316,0.836,0,1.152
		l-3.416,3.416c-0.316,0.316-0.835,0.316-1.155,0l-4.631-4.633l-4.638,4.638c-0.317,0.317-0.835,0.317-1.153,0l-3.416-3.415
		c-0.319-0.318-0.319-0.838,0-1.153l4.638-4.638l-4.644-4.642c-0.316-0.318-0.316-0.837,0-1.154l3.417-3.417
		c0.316-0.317,0.835-0.317,1.153,0l4.642,4.645l4.641-4.638c0.312-0.32,0.833-0.32,1.151,0l3.415,3.415
		c0.317,0.318,0.317,0.837,0,1.155l-4.638,4.638L39.843,28.561z"/>
</g>
</svg>
