<?xml version="1.0" encoding="utf-8"?>
<!-- Generator: Adobe Illustrator 15.0.0, SVG Export Plug-In . SVG Version: 6.00 Build 0)  -->
<!DOCTYPE svg PUBLIC "-//W3C//DTD SVG 1.1//EN" "http://www.w3.org/Graphics/SVG/1.1/DTD/svg11.dtd">
<svg version="1.1" id="Layer_1" xmlns="http://www.w3.org/2000/svg" xmlns:xlink="http://www.w3.org/1999/xlink" x="0px" y="0px"
	 width="48px" height="48px" viewBox="0 0 48 48" enable-background="new 0 0 48 48" xml:space="preserve">
<path d="M34.991,5.087c0.07-0.214,0.137-0.473,0.2-0.776c0.062-0.304,0.094-0.464,0.094-0.482l0.08-0.536h0.107
	c0,0.071,0.018,0.25,0.054,0.536l0.32,1.258l1.929,5.836h-4.739L34.991,5.087z M20.612,37.939c-0.16-0.16-0.366-0.24-0.616-0.24
	h-5.141V0.856c0-0.25-0.081-0.455-0.241-0.616C14.455,0.08,14.249,0,13.999,0H8.858c-0.25,0-0.455,0.08-0.616,0.241
	C8.082,0.402,8.001,0.607,8.001,0.856v36.843h-5.14c-0.393,0-0.661,0.178-0.804,0.535c-0.143,0.339-0.081,0.651,0.188,0.938
	l8.568,8.567c0.196,0.16,0.401,0.241,0.616,0.241c0.232,0,0.438-0.081,0.616-0.241l8.541-8.542c0.179-0.214,0.268-0.428,0.268-0.643
	C20.854,38.306,20.773,38.1,20.612,37.939z M39.997,41.742v3.186h-6.64c-0.375,0-0.644,0.018-0.804,0.054l-0.374,0.054v-0.054
	l0.294-0.294c0.269-0.322,0.455-0.554,0.562-0.696l9.88-14.19v-2.383H27.734v6.131h3.213V30.47h6.212
	c0.321,0,0.589-0.027,0.803-0.08c0.054,0,0.122-0.005,0.201-0.014c0.081-0.009,0.139-0.014,0.174-0.014v0.08l-0.294,0.242
	c-0.161,0.16-0.348,0.4-0.562,0.722l-9.88,14.164v2.41h15.637v-6.238H39.997z M43.746,17.725L37.588,0H33.25l-6.158,17.725h-1.874
	v2.837h7.685v-2.837h-2.009l1.258-3.855h6.507l1.259,3.855h-2.008v2.837h7.711v-2.837H43.746z"/>
</svg>
