<?xml version="1.0" encoding="utf-8"?>
<!-- Generator: Adobe Illustrator 15.0.0, SVG Export Plug-In . SVG Version: 6.00 Build 0)  -->
<!DOCTYPE svg PUBLIC "-//W3C//DTD SVG 1.1//EN" "http://www.w3.org/Graphics/SVG/1.1/DTD/svg11.dtd">
<svg version="1.1" id="Layer_1" xmlns="http://www.w3.org/2000/svg" xmlns:xlink="http://www.w3.org/1999/xlink" x="0px" y="0px"
	 width="48px" height="48px" viewBox="0 0 48 48" enable-background="new 0 0 48 48" xml:space="preserve">
<path d="M47.569,41.776L35.594,29.799c1.948-3.02,3.098-6.601,3.098-10.456C38.691,8.678,30.009,0,19.345,0
	C8.676,0,0,8.678,0,19.343c0,10.668,8.676,19.345,19.345,19.345c3.851,0,7.434-1.144,10.455-3.094L41.775,47.57
	c0.398,0.4,1.055,0.4,1.451,0l4.343-4.343C47.972,42.829,47.972,42.177,47.569,41.776 M6.145,19.343c0-7.275,5.92-13.2,13.2-13.2
	s13.199,5.925,13.199,13.2c0,7.28-5.919,13.202-13.199,13.202S6.145,26.623,6.145,19.343"/>
</svg>
