<?xml version="1.0" encoding="utf-8"?>
<!-- Generator: Adobe Illustrator 15.0.0, SVG Export Plug-In . SVG Version: 6.00 Build 0)  -->
<!DOCTYPE svg PUBLIC "-//W3C//DTD SVG 1.1//EN" "http://www.w3.org/Graphics/SVG/1.1/DTD/svg11.dtd">
<svg version="1.1" id="Layer_1" xmlns="http://www.w3.org/2000/svg" xmlns:xlink="http://www.w3.org/1999/xlink" x="0px" y="0px"
	 width="48px" height="48px" viewBox="0 0 48 48" enable-background="new 0 0 48 48" xml:space="preserve">
<path d="M40.188,32.696c-1.967,0-3.742,0.764-5.092,1.989l-13.941-8.224c0.187-0.794,0.314-1.609,0.314-2.463
	c0-0.878-0.137-1.72-0.339-2.536l13.902-8.202c1.359,1.257,3.159,2.041,5.156,2.041c4.203,0,7.61-3.404,7.61-7.609
	c0-4.206-3.407-7.61-7.61-7.61c-4.204,0-7.61,3.404-7.61,7.61c0,0.632,0.1,1.236,0.246,1.826l-13.598,8.016
	c-1.944-2.517-4.959-4.17-8.39-4.17c-5.873,0-10.635,4.76-10.635,10.634c0,5.875,4.762,10.635,10.635,10.635
	c3.457,0,6.496-1.676,8.439-4.23l13.569,8.002c-0.156,0.611-0.267,1.24-0.267,1.901c0,4.203,3.406,7.609,7.61,7.609
	c4.203,0,7.61-3.406,7.61-7.609C47.799,36.102,44.392,32.696,40.188,32.696"/>
</svg>
