<?xml version="1.0" encoding="UTF-8" standalone="no"?>
<!-- Generator: Adobe Illustrator 15.0.0, SVG Export Plug-In . SVG Version: 6.00 Build 0)  -->

<svg
   xmlns:dc="http://purl.org/dc/elements/1.1/"
   xmlns:cc="http://creativecommons.org/ns#"
   xmlns:rdf="http://www.w3.org/1999/02/22-rdf-syntax-ns#"
   xmlns:svg="http://www.w3.org/2000/svg"
   xmlns="http://www.w3.org/2000/svg"
   xmlns:sodipodi="http://sodipodi.sourceforge.net/DTD/sodipodi-0.dtd"
   xmlns:inkscape="http://www.inkscape.org/namespaces/inkscape"
   version="1.1"
   id="Layer_1"
   x="0px"
   y="0px"
   width="48px"
   height="48px"
   viewBox="0 0 48 48"
   enable-background="new 0 0 48 48"
   xml:space="preserve"
   inkscape:version="0.48.2 r9819"
   sodipodi:docname="_shp.svg"><metadata
   id="metadata23"><rdf:RDF><cc:Work
       rdf:about=""><dc:format>image/svg+xml</dc:format><dc:type
         rdf:resource="http://purl.org/dc/dcmitype/StillImage" /><dc:title></dc:title></cc:Work></rdf:RDF></metadata><defs
   id="defs21" /><sodipodi:namedview
   pagecolor="#ffffff"
   bordercolor="#666666"
   borderopacity="1"
   objecttolerance="10"
   gridtolerance="10"
   guidetolerance="10"
   inkscape:pageopacity="0"
   inkscape:pageshadow="2"
   inkscape:window-width="1920"
   inkscape:window-height="1020"
   id="namedview19"
   showgrid="false"
   inkscape:zoom="4.9166667"
   inkscape:cx="-1.5254236"
   inkscape:cy="20.12"
   inkscape:window-x="-4"
   inkscape:window-y="-4"
   inkscape:window-maximized="1"
   inkscape:current-layer="Layer_1" />

<g
   id="g3007"><g
     transform="matrix(2.6882541,0,0,2.6882541,-176.85766,-1075.3018)"
     id="text4952"
     style="font-size:4.55059528px;font-style:normal;font-weight:normal;line-height:125%;letter-spacing:0px;word-spacing:0px;fill:#003366;fill-opacity:1;stroke:none;font-family:Sans"><path
       id="path6173"
       style="font-weight:bold;fill:#003366;-inkscape-font-specification:Sans Bold"
       d="m 73.476872,405.90356 0.639928,-0.0622 c 0.03851,0.2148 0.116652,0.37256 0.234418,0.47328 0.117763,0.10073 0.276634,0.1511 0.476612,0.1511 0.211826,0 0.371438,-0.0448 0.478835,-0.13443 0.107393,-0.0896 0.161091,-0.19442 0.161093,-0.31441 -2e-6,-0.077 -0.02259,-0.14257 -0.06777,-0.19664 -0.04518,-0.0541 -0.124062,-0.1011 -0.23664,-0.1411 -0.07703,-0.0267 -0.252566,-0.0741 -0.526607,-0.14221 -0.352554,-0.0874 -0.599933,-0.19479 -0.742138,-0.32218 -0.199978,-0.17924 -0.299966,-0.39773 -0.299966,-0.65548 0,-0.16591 0.04703,-0.32107 0.141095,-0.4655 0.09406,-0.14443 0.229603,-0.25442 0.406621,-0.32997 0.177015,-0.0755 0.390695,-0.11331 0.641038,-0.11332 0.408841,10e-6 0.716583,0.0896 0.923229,0.26886 0.20664,0.17924 0.315146,0.41847 0.325518,0.7177 l -0.657703,0.0289 c -0.02815,-0.16738 -0.08851,-0.28774 -0.181091,-0.36107 -0.09258,-0.0733 -0.231456,-0.10998 -0.416619,-0.10999 -0.191091,10e-6 -0.340703,0.0393 -0.448838,0.11777 -0.06962,0.0504 -0.104433,0.11777 -0.104433,0.2022 0,0.077 0.03259,0.14295 0.09777,0.19775 0.08295,0.0696 0.284411,0.14221 0.604376,0.21776 0.319962,0.0756 0.556601,0.15369 0.70992,0.23441 0.153313,0.0807 0.273299,0.1911 0.359959,0.33108 0.08665,0.13998 0.129982,0.31293 0.129985,0.51883 -3e-6,0.18664 -0.05185,0.36144 -0.155538,0.52438 -0.103694,0.16295 -0.250344,0.28405 -0.43995,0.3633 -0.18961,0.0793 -0.425879,0.11887 -0.708809,0.11887 -0.411806,0 -0.728066,-0.0952 -0.948781,-0.28552 -0.220716,-0.19035 -0.352553,-0.46773 -0.395511,-0.83213 z"
       inkscape:connector-curvature="0" /><path
       id="path6175"
       style="font-weight:bold;fill:#003366;-inkscape-font-specification:Sans Bold"
       d="m 76.685398,406.96344 0,-3.25741 0.657703,0 0,1.28208 1.288743,0 0,-1.28208 0.657703,0 0,3.25741 -0.657703,0 0,-1.42428 -1.288743,0 0,1.42428 z"
       inkscape:connector-curvature="0" /><path
       id="path6177"
       style="font-weight:bold;fill:#003366;-inkscape-font-specification:Sans Bold"
       d="m 79.971692,406.96344 0,-3.25741 1.055436,0 c 0.399953,0 0.660664,0.0163 0.782133,0.0489 0.186644,0.0489 0.342922,0.15518 0.468836,0.31886 0.125909,0.16369 0.188865,0.37514 0.188868,0.63437 -3e-6,0.19998 -0.03629,0.36811 -0.108877,0.50439 -0.07259,0.13628 -0.164799,0.2433 -0.276635,0.32107 -0.111842,0.0778 -0.225532,0.12925 -0.341073,0.15443 -0.157021,0.0311 -0.384402,0.0467 -0.682145,0.0467 l -0.42884,0 0,1.22875 z m 0.657703,-2.70636 0,0.92434 0.359959,0 c 0.259229,0 0.432542,-0.017 0.519941,-0.0511 0.0874,-0.0341 0.155907,-0.0874 0.205533,-0.15998 0.04962,-0.0726 0.07443,-0.15701 0.07444,-0.2533 -2e-6,-0.1185 -0.03481,-0.21627 -0.104433,-0.2933 -0.06962,-0.077 -0.157762,-0.12517 -0.264414,-0.14443 -0.07851,-0.0148 -0.236271,-0.0222 -0.47328,-0.0222 z"
       inkscape:connector-curvature="0" /></g><g
     transform="translate(-68.745763,-12.450513)"
     id="g2997"><path
       style="fill:#003366;fill-opacity:1;stroke:none;display:inline"
       d="m 91.284391,17.632727 c -2.950685,0 -5.31509,2.364404 -5.31509,5.31509 l 0,7.496831 c 0,2.950688 2.364405,5.31509 5.31509,5.31509 l 20.123069,0 c 2.95069,0 5.3383,-2.364402 5.3383,-5.31509 l 0,-7.496831 c 0,-2.950686 -2.38761,-5.31509 -5.3383,-5.31509 l -20.123069,0 z m 0.649881,0.95161 18.846518,0 c 2.76552,0 4.99015,2.120197 4.99015,4.75805 l 0,6.70769 c 0,2.637854 -2.22463,4.758051 -4.99015,4.758051 l -18.846518,0 c -2.765526,0 -4.990151,-2.120197 -4.990151,-4.758051 l 0,-6.70769 c 0,-2.637853 2.224625,-4.75805 4.990151,-4.75805 z"
       id="path3838"
       inkscape:connector-curvature="0" /><path
       style="color:#000000;fill:#003366;fill-opacity:1;stroke:none;stroke-width:1.70000005;marker:none;visibility:visible;display:inline;overflow:visible;enable-background:accumulate"
       d="m 86.714513,19.681362 c -9.919266,0 -17.96875,8.018247 -17.96875,17.9375 0,9.919281 8.049484,17.96875 17.96875,17.96875 9.91901,0 17.968747,-8.049469 17.968747,-17.96875 0,-0.6853 -0.0503,-1.365912 -0.125,-2.03125 l -1.15625,0 c -0.0469,0.445307 -0.12949,0.90801 -0.25,1.375 -1.00732,3.902798 -5.883594,2.632859 -6.562497,1.75 -0.528005,-0.68639 -0.456,-2.398363 -1.03125,-3.125 l -1.3125,0 c -0.633984,0.830356 -0.543271,2.898177 -1.25,2.84375 -0.882884,-0.06669 -2.727089,-2.104466 -3.40625,-1.96875 -0.67916,0.136096 -1.127645,1.164573 -0.3125,1.84375 0.81489,0.679149 1.049125,0.301757 2,0.4375 0.950616,0.136095 1.606869,2.217554 0.65625,2.625 -0.988078,1.733944 -1.134404,3.989772 -2.25,5.5 -0.37024,0.694819 -1.30074,2.077965 -1.59375,2.3125 -0.67916,0.543406 -2.0625,1.1875 -2.0625,1.1875 0,0 -1.159354,0.566333 -1.90625,-0.65625 -0.747151,-1.222339 0.769882,-5.615944 -0.25,-6.90625 -1.018868,-1.290332 -2.260929,-2.516372 -5.21875,-3 0.07954,-0.982192 -0.749386,-1.534154 -0.65625,-2.40625 0.151386,-0.679936 0.889252,-2.490413 1.25,-2.5625 1.358061,-0.27173 4.794826,-1.617846 5.40625,-0.53125 0.611167,1.086596 3.103286,2.60713 3.375,1.65625 0.123719,-0.433369 0.403392,-1.110944 0.59375,-1.75 -0.607657,-0.562788 -1.06599,-1.262016 -1.34375,-2.0625 -1.231098,-0.585191 -2.861467,-1.451024 -3.3125,-1 -0.611421,0.611183 -0.935436,2.02843 -2.78125,2.03125 -1.458383,0.0025 -1.927964,-0.444655 -1.65625,-1.53125 0.271459,-1.086623 -0.457561,-1.875 0.96875,-1.875 1.426054,0 2.5,-0.02234 2.5,-0.90625 l 0.90625,-2 c 0.769219,0.05639 0.724472,-1.350623 2.96875,-1.6875 -0.04812,-0.09851 -0.006,-0.151924 0.125,-0.15625 l 0,-1.75 c 0,-1.377143 0.528017,-2.612599 1.40625,-3.53125 -0.554016,-0.05148 -1.120039,-0.0625 -1.6875,-0.0625 z m -3.78125,5.34375 c 0.305838,-0.130945 0.339122,0.374173 0.1875,0.71875 l 0,0.75 c 0.06157,0.207939 -0.131136,0.231148 -0.59375,0.1875 -0.505199,-1.039641 -0.04661,-1.464063 0.40625,-1.65625 z m -6.4375,11.34375 c 0.30841,-0.04942 0.681798,0.01095 0.875,0.21875 -0.06414,0.343058 -0.299968,0.165797 -0.59375,0.4375 -0.86492,-0.487748 -0.702846,-0.324902 -0.5625,-0.5625 0.07345,-0.03531 0.178447,-0.07728 0.28125,-0.09375 z m 14.875,9.65625 c 0.06151,-0.03404 0.11339,-0.02938 0.125,0 0.148811,0.0244 -0.130228,0.89881 -0.375,0.75 -0.21995,-0.305971 0.06548,-0.647892 0.25,-0.75 z"
       id="path3001"
       inkscape:connector-curvature="0" /></g></g></svg>