<?xml version="1.0" encoding="utf-8"?>
<!-- Generator: Adobe Illustrator 15.0.0, SVG Export Plug-In . SVG Version: 6.00 Build 0)  -->
<!DOCTYPE svg PUBLIC "-//W3C//DTD SVG 1.1//EN" "http://www.w3.org/Graphics/SVG/1.1/DTD/svg11.dtd">
<svg version="1.1" id="Layer_1" xmlns="http://www.w3.org/2000/svg" xmlns:xlink="http://www.w3.org/1999/xlink" x="0px" y="0px"
	 width="48px" height="48px" viewBox="0 0 48 48" enable-background="new 0 0 48 48" xml:space="preserve">
<g>
	<path d="M33.969,10.044h8.971l-9.967-9.968v8.972C32.973,9.595,33.42,10.044,33.969,10.044"/>
	<rect x="13.035" y="16.025" width="1.994" height="1.994"/>
	<path d="M30.979,11.041V0.076H6.057c-0.548,0-0.997,0.449-0.997,0.997v45.855c0,0.549,0.449,0.996,0.997,0.996h35.886
		c0.549,0,0.996-0.447,0.996-0.996v-6.979H15.028c-1.096,0-1.994-0.896-1.994-1.994v-9.967c0-1.098,0.897-1.994,1.994-1.994h27.911
		V12.038H31.975C31.426,12.038,30.979,11.589,30.979,11.041 M24.996,12.038H21.01l-3.988,3.988v3.987h-5.981v-5.981h3.987
		l3.988-3.988V6.057h5.98V12.038z"/>
	<rect x="21.01" y="8.05" width="1.994" height="1.994"/>
	<polygon points="17.022,35.963 17.022,37.955 21.01,37.955 23.003,35.963 23.003,33.969 21.01,33.969 21.01,35.963 	"/>
	<rect x="19.016" y="31.975" width="1.994" height="1.994"/>
	<polygon points="17.022,29.98 17.022,31.975 19.016,31.975 19.016,29.98 23.003,29.98 23.003,27.988 19.016,27.988 	"/>
	<polygon points="32.973,37.955 38.953,37.955 38.953,31.975 36.959,31.975 36.959,35.963 34.965,35.963 34.965,29.98 38.953,29.98 
		38.953,27.988 32.973,27.988 	"/>
	<rect x="28.984" y="27.988" width="1.994" height="7.975"/>
	<polygon points="26.99,27.988 24.996,27.988 24.996,37.955 28.984,37.955 28.984,35.963 26.99,35.963 	"/>
</g>
</svg>
