<?xml version="1.0" encoding="UTF-8" standalone="no"?>
<!-- Generator: Adobe Illustrator 15.0.0, SVG Export Plug-In . SVG Version: 6.00 Build 0)  -->

<svg
   xmlns:dc="http://purl.org/dc/elements/1.1/"
   xmlns:cc="http://creativecommons.org/ns#"
   xmlns:rdf="http://www.w3.org/1999/02/22-rdf-syntax-ns#"
   xmlns:svg="http://www.w3.org/2000/svg"
   xmlns="http://www.w3.org/2000/svg"
   xmlns:sodipodi="http://sodipodi.sourceforge.net/DTD/sodipodi-0.dtd"
   xmlns:inkscape="http://www.inkscape.org/namespaces/inkscape"
   version="1.1"
   id="Layer_1"
   x="0px"
   y="0px"
   width="48px"
   height="48px"
   viewBox="0 0 48 48"
   enable-background="new 0 0 48 48"
   xml:space="preserve"
   inkscape:version="0.48.2 r9819"
   sodipodi:docname="table.svg"><metadata
   id="metadata9"><rdf:RDF><cc:Work
       rdf:about=""><dc:format>image/svg+xml</dc:format><dc:type
         rdf:resource="http://purl.org/dc/dcmitype/StillImage" /></cc:Work></rdf:RDF></metadata><defs
   id="defs7" /><sodipodi:namedview
   pagecolor="#ffffff"
   bordercolor="#666666"
   borderopacity="1"
   objecttolerance="10"
   gridtolerance="10"
   guidetolerance="10"
   inkscape:pageopacity="0"
   inkscape:pageshadow="2"
   inkscape:window-width="640"
   inkscape:window-height="480"
   id="namedview5"
   showgrid="false"
   inkscape:zoom="4.9166667"
   inkscape:cx="24"
   inkscape:cy="24"
   inkscape:window-x="0"
   inkscape:window-y="0"
   inkscape:window-maximized="0"
   inkscape:current-layer="Layer_1" />
<path
   id="path2988"
   d="M 44.019,20.009 H 32.014 v -6.003 h 12.005 v 6.003 z m 0,8.003 H 32.014 V 22.01 h 12.005 v 6.002 z m 0,8.003 H 32.014 v -6.002 h 12.005 v 6.002 z m 0,8.004 H 32.014 v -6.002 h 12.005 v 6.002 z m -26.012,0 v -6.002 h 12.005 v 6.002 H 18.007 z m -14.005,0 v -6.002 h 12.005 v 6.002 H 4.002 z m 0,-14.006 h 12.005 v 6.002 H 4.002 v -6.002 z m 0,-8.004 h 12.005 v 6.002 H 4.002 v -6.002 z m 26.011,-2 H 18.007 v -6.003 h 12.005 v 6.003 z M 18.007,28.012 V 22.01 h 12.005 v 6.002 H 18.007 z m 12.006,2.001 v 6.002 H 18.007 V 30.013 H 30.013 z M 4.002,14.006 h 12.005 v 6.003 H 4.002 V 14.006 z M 42.019,0 H 6.003 C 2.702,0 0,2.702 0,6.003 v 36.016 c 0,3.302 2.702,6.002 6.003,6.002 h 36.016 c 3.302,0 6.002,-2.7 6.002,-6.002 V 6.003 C 48.021,2.702 45.32,0 42.019,0 z" />
</svg>