<?xml version="1.0" encoding="UTF-8" standalone="no"?>
<!-- Generator: Adobe Illustrator 15.0.0, SVG Export Plug-In . SVG Version: 6.00 Build 0)  -->

<svg
   xmlns:dc="http://purl.org/dc/elements/1.1/"
   xmlns:cc="http://creativecommons.org/ns#"
   xmlns:rdf="http://www.w3.org/1999/02/22-rdf-syntax-ns#"
   xmlns:svg="http://www.w3.org/2000/svg"
   xmlns="http://www.w3.org/2000/svg"
   xmlns:sodipodi="http://sodipodi.sourceforge.net/DTD/sodipodi-0.dtd"
   xmlns:inkscape="http://www.inkscape.org/namespaces/inkscape"
   version="1.1"
   id="Layer_1"
   x="0px"
   y="0px"
   width="48px"
   height="48px"
   viewBox="0 0 48 48"
   enable-background="new 0 0 48 48"
   xml:space="preserve"
   inkscape:version="0.48.2 r9819"
   sodipodi:docname="_table2.svg"><metadata
   id="metadata23"><rdf:RDF><cc:Work
       rdf:about=""><dc:format>image/svg+xml</dc:format><dc:type
         rdf:resource="http://purl.org/dc/dcmitype/StillImage" /><dc:title></dc:title></cc:Work></rdf:RDF></metadata><defs
   id="defs21" /><sodipodi:namedview
   pagecolor="#ffffff"
   bordercolor="#666666"
   borderopacity="1"
   objecttolerance="10"
   gridtolerance="10"
   guidetolerance="10"
   inkscape:pageopacity="0"
   inkscape:pageshadow="2"
   inkscape:window-width="1920"
   inkscape:window-height="1020"
   id="namedview19"
   showgrid="false"
   inkscape:zoom="9.8333333"
   inkscape:cx="4.923949"
   inkscape:cy="9.9780763"
   inkscape:window-x="-4"
   inkscape:window-y="-4"
   inkscape:window-maximized="1"
   inkscape:current-layer="Layer_1" />

<path
   id="path3840"
   d="M 4.6248832,0 C 2.0696429,0 -2.05e-7,0.45522133 -2.05e-7,1.0395493 l 0,45.9209037 C -2.05e-7,47.544779 2.0696429,48 4.6248832,48 L 43.375117,48 C 45.930357,48 48,47.544779 48,46.960453 L 48,1.0395493 C 48,0.45522133 45.930357,0 43.375117,0 L 4.6248832,0 z m -0.9429374,12.112995 11.7193612,0 0,7.683616 -11.7193612,0 0,-7.683616 z m 13.6950402,0 13.335829,0 0,7.683616 -13.335829,0 0,-7.683616 z m 15.311507,0 11.674462,0 0,7.683616 -11.674462,0 0,-7.683616 z m -29.0065472,9.672314 11.7193612,0 0,5.785312 -11.7193612,0 0,-5.785312 z m 13.6950402,0 13.335829,0 0,5.785312 -13.335829,0 0,-5.785312 z m 15.311507,0 11.674462,0 0,5.785312 -11.674462,0 0,-5.785312 z m -29.0065472,7.774014 11.7193612,0 0,5.785309 -11.7193612,0 0,-5.785309 z m 13.6950402,0 13.335829,0 0,5.785309 -13.335829,0 0,-5.785309 z m 15.311507,0 11.674462,0 0,5.785309 -11.674462,0 0,-5.785309 z m -29.0065472,7.77401 11.7193612,0 0,6.824859 -11.7193612,0 0,-6.824859 z m 13.6950402,0 13.335829,0 0,6.824859 -13.335829,0 0,-6.824859 z m 15.311507,0 11.674462,0 0,6.824859 -11.674462,0 0,-6.824859 z"
   style="color:#000000;fill:#003366;fill-opacity:1;stroke:none;stroke-width:2.68430781;marker:none;visibility:visible;display:inline;overflow:visible;enable-background:accumulate"
   inkscape:connector-curvature="0" /></svg>