<?xml version="1.0" encoding="utf-8"?>
<!-- Generator: Adobe Illustrator 15.0.0, SVG Export Plug-In . SVG Version: 6.00 Build 0)  -->
<!DOCTYPE svg PUBLIC "-//W3C//DTD SVG 1.1//EN" "http://www.w3.org/Graphics/SVG/1.1/DTD/svg11.dtd">
<svg version="1.1" id="Layer_1" xmlns="http://www.w3.org/2000/svg" xmlns:xlink="http://www.w3.org/1999/xlink" x="0px" y="0px"
	 width="48px" height="48px" viewBox="0 0 48 48" enable-background="new 0 0 48 48" xml:space="preserve">
<path d="M42.019,0H6.003C2.702,0,0,2.702,0,6.003v36.016c0,3.302,2.702,6.002,6.003,6.002h36.016c3.302,0,6.002-2.7,6.002-6.002
	V6.003C48.021,2.702,45.32,0,42.019,0z M4.002,14.006h12.005v6.003H4.002V14.006z M30.013,30.013v6.002H18.007v-6.002H30.013z
	 M18.007,28.012v-6.002h12.005v6.002H18.007z M30.013,20.009H18.007v-6.003h12.005V20.009z M4.002,22.009h12.005v6.002H4.002V22.009
	z M4.002,30.013h12.005v6.002H4.002V30.013z M4.002,44.019v-6.002h12.005v6.002H4.002z M18.007,44.019v-6.002h12.005v6.002H18.007z
	 M44.019,44.019H32.014v-6.002h12.005V44.019z M44.019,36.015H32.014v-6.002h12.005V36.015z M44.019,28.012H32.014v-6.002h12.005
	V28.012z M44.019,20.009H32.014v-6.003h12.005V20.009z M44.019,10.004H4.002V4.002h40.017V10.004z"/>
</svg>
