<?xml version="1.0" encoding="UTF-8" standalone="no"?>
<!-- Generator: Adobe Illustrator 15.0.0, SVG Export Plug-In . SVG Version: 6.00 Build 0)  -->

<svg
   xmlns:dc="http://purl.org/dc/elements/1.1/"
   xmlns:cc="http://creativecommons.org/ns#"
   xmlns:rdf="http://www.w3.org/1999/02/22-rdf-syntax-ns#"
   xmlns:svg="http://www.w3.org/2000/svg"
   xmlns="http://www.w3.org/2000/svg"
   xmlns:sodipodi="http://sodipodi.sourceforge.net/DTD/sodipodi-0.dtd"
   xmlns:inkscape="http://www.inkscape.org/namespaces/inkscape"
   version="1.1"
   id="Layer_1"
   x="0px"
   y="0px"
   width="48px"
   height="48px"
   viewBox="0 0 48 48"
   enable-background="new 0 0 48 48"
   xml:space="preserve"
   inkscape:version="0.48.2 r9819"
   sodipodi:docname="_tar.svg"><metadata
   id="metadata23"><rdf:RDF><cc:Work
       rdf:about=""><dc:format>image/svg+xml</dc:format><dc:type
         rdf:resource="http://purl.org/dc/dcmitype/StillImage" /><dc:title></dc:title></cc:Work></rdf:RDF></metadata><defs
   id="defs21" /><sodipodi:namedview
   pagecolor="#ffffff"
   bordercolor="#666666"
   borderopacity="1"
   objecttolerance="10"
   gridtolerance="10"
   guidetolerance="10"
   inkscape:pageopacity="0"
   inkscape:pageshadow="2"
   inkscape:window-width="1920"
   inkscape:window-height="1020"
   id="namedview19"
   showgrid="false"
   inkscape:zoom="4.9166667"
   inkscape:cx="-1.5254236"
   inkscape:cy="24"
   inkscape:window-x="-4"
   inkscape:window-y="-4"
   inkscape:window-maximized="1"
   inkscape:current-layer="Layer_1" />

<g
   id="g3028"
   transform="translate(-77.084746,-48.40678)"><path
     inkscape:connector-curvature="0"
     id="path3838"
     d="m 90.803496,48.40678 c -3.97281,0 -7.15625,3.183439 -7.15625,7.15625 l 0,10.09375 c 0,3.972813 3.18344,7.15625 7.15625,7.15625 l 27.093754,0 c 3.97281,0 7.1875,-3.183437 7.1875,-7.15625 l 0,-10.09375 c 0,-3.972811 -3.21469,-7.15625 -7.1875,-7.15625 l -27.093754,0 z m 0.875,1.28125 25.375004,0 c 3.7235,0 6.71875,2.854638 6.71875,6.40625 l 0,9.03125 c 0,3.551612 -2.99525,6.40625 -6.71875,6.40625 l -25.375004,0 c -3.72351,0 -6.71875,-2.854638 -6.71875,-6.40625 l 0,-9.03125 c 0,-3.551612 2.99524,-6.40625 6.71875,-6.40625 z"
     style="fill:#003366;fill-opacity:1;stroke:none;display:inline" /><g
     id="g3919"
     transform="translate(77.084746,48.441477)"><path
       inkscape:connector-curvature="0"
       style="color:#000000;fill:#003366;fill-opacity:1;stroke:none;stroke-width:1.70000005;marker:none;visibility:visible;display:inline;overflow:visible;enable-background:accumulate"
       d="m 26.174973,25.61897 9.77011,0 0,9.77011 -9.77011,0 z"
       id="path4662"
       inkscape:export-filename="C:\Documents and Settings\jhernandez\Mis documentos\imagenCorp\iconos\iconos_jorge\ico_web\g5029.png"
       inkscape:export-xdpi="90"
       inkscape:export-ydpi="90" /><path
       inkscape:connector-curvature="0"
       style="color:#000000;fill:#003366;fill-opacity:1;stroke:none;stroke-width:1.70000005;marker:none;visibility:visible;display:inline;overflow:visible;enable-background:accumulate"
       d="m 13.087609,25.61897 9.76987,0 0,9.77011 -9.76987,0 z"
       id="path4664"
       inkscape:export-filename="C:\Documents and Settings\jhernandez\Mis documentos\imagenCorp\iconos\iconos_jorge\ico_web\g5029.png"
       inkscape:export-xdpi="90"
       inkscape:export-ydpi="90" /><path
       inkscape:connector-curvature="0"
       style="color:#000000;fill:#003366;fill-opacity:1;stroke:none;stroke-width:1.70000005;marker:none;visibility:visible;display:inline;overflow:visible;enable-background:accumulate"
       d="m 5.783344e-6,25.61897 9.770144016656,0 0,9.77011 -9.770144016656,0 z"
       id="path4666-6"
       inkscape:export-filename="C:\Documents and Settings\jhernandez\Mis documentos\imagenCorp\iconos\iconos_jorge\ico_web\g5029.png"
       inkscape:export-xdpi="90"
       inkscape:export-ydpi="90" /><path
       inkscape:connector-curvature="0"
       style="color:#000000;fill:#003366;fill-opacity:1;stroke:none;stroke-width:1.70000005;marker:none;visibility:visible;display:inline;overflow:visible;enable-background:accumulate"
       d="m 0,13.03125 0,9.78125 9.15625,0 C 7.5636998,21.499288 6.5625,19.484707 6.5625,17.25 l 0,-4.21875 -6.5625,0 z"
       id="path4668" /><path
       inkscape:connector-curvature="0"
       style="color:#000000;fill:#003366;fill-opacity:1;stroke:none;stroke-width:1.70000005;marker:none;visibility:visible;display:inline;overflow:visible;enable-background:accumulate"
       d="m 0,0.46875 0,9.78125 6.5625,0 0,-3.09375 c 0,-2.5082491 1.2789847,-4.6879204 3.21875,-5.96875 l 0,-0.71875 -9.78125,0 z"
       id="path4670" /><path
       id="path4672-1"
       d="m 26.174973,38.195228 9.77011,0 0,9.770075 -9.77011,0 z"
       style="color:#000000;fill:#003366;fill-opacity:1;stroke:none;stroke-width:1.70000005;marker:none;visibility:visible;display:inline;overflow:visible;enable-background:accumulate"
       inkscape:connector-curvature="0"
       inkscape:export-filename="C:\Documents and Settings\jhernandez\Mis documentos\imagenCorp\iconos\iconos_jorge\ico_web\g5029.png"
       inkscape:export-xdpi="90"
       inkscape:export-ydpi="90" /><path
       id="path4674"
       d="m 13.087609,38.195228 9.76987,0 0,9.770075 -9.76987,0 z"
       style="color:#000000;fill:#003366;fill-opacity:1;stroke:none;stroke-width:1.70000005;marker:none;visibility:visible;display:inline;overflow:visible;enable-background:accumulate"
       inkscape:connector-curvature="0"
       inkscape:export-filename="C:\Documents and Settings\jhernandez\Mis documentos\imagenCorp\iconos\iconos_jorge\ico_web\g5029.png"
       inkscape:export-xdpi="90"
       inkscape:export-ydpi="90" /><path
       id="path4676"
       d="m 5.783344e-6,38.195228 9.770144016656,0 0,9.770075 -9.770144016656,0 z"
       style="color:#000000;fill:#003366;fill-opacity:1;stroke:none;stroke-width:1.70000005;marker:none;visibility:visible;display:inline;overflow:visible;enable-background:accumulate"
       inkscape:connector-curvature="0"
       inkscape:export-filename="C:\Documents and Settings\jhernandez\Mis documentos\imagenCorp\iconos\iconos_jorge\ico_web\g5029.png"
       inkscape:export-xdpi="90"
       inkscape:export-ydpi="90" /></g></g><g
   style="font-size:4.76152277px;font-style:normal;font-weight:normal;line-height:125%;letter-spacing:0px;word-spacing:0px;fill:#003366;fill-opacity:1;stroke:none;display:inline;font-family:Sans"
   id="text3263-5"
   transform="matrix(3.4261146,0,0,3.4261146,-302.47361,-1238.3106)"><path
     inkscape:connector-curvature="0"
     d="m 92.520945,366.70316 0,-2.83181 -1.011359,0 0,-0.57659 2.708581,0 0,0.57659 -1.009034,0 0,2.83181 z"
     style="font-weight:bold;fill:#003366;-inkscape-font-specification:Sans Bold"
     id="path6111" /><path
     inkscape:connector-curvature="0"
     d="m 97.73816,366.70316 -0.748638,0 -0.297595,-0.77422 -1.362428,0 -0.281321,0.77422 -0.730038,0 1.327554,-3.4084 0.727713,0 z m -1.267105,-1.34848 -0.469642,-1.26478 -0.460343,1.26478 z"
     style="font-weight:bold;fill:#003366;-inkscape-font-specification:Sans Bold"
     id="path6113" /><path
     inkscape:connector-curvature="0"
     d="m 98.107829,366.70316 0,-3.4084 1.448452,0 c 0.364241,0 0.628899,0.0306 0.793979,0.0918 0.16506,0.0612 0.2972,0.17011 0.3964,0.32665 0.0992,0.15655 0.1488,0.33558 0.1488,0.53707 0,0.25575 -0.0752,0.46693 -0.22552,0.63355 -0.15035,0.16663 -0.3751,0.27164 -0.674242,0.31503 0.148792,0.0868 0.271632,0.18213 0.368502,0.28598 0.0969,0.10384 0.22746,0.28829 0.39176,0.55334 l 0.41617,0.66494 -0.82304,0 -0.497539,-0.74167 c -0.176699,-0.26504 -0.297597,-0.43205 -0.362694,-0.50103 -0.0651,-0.069 -0.134075,-0.11624 -0.206922,-0.14182 -0.07285,-0.0256 -0.188323,-0.0384 -0.346419,-0.0384 l -0.139498,0 0,1.42288 z m 0.688189,-1.96692 0.509167,0 c 0.330142,0 0.536289,-0.014 0.61844,-0.0419 0.08213,-0.0279 0.146465,-0.0759 0.192975,-0.14415 0.0465,-0.0682 0.0697,-0.15344 0.0697,-0.25575 -1e-5,-0.11469 -0.0306,-0.2073 -0.0918,-0.27783 -0.0612,-0.0705 -0.147638,-0.11508 -0.259234,-0.13368 -0.0558,-0.008 -0.223198,-0.0116 -0.502192,-0.0116 l -0.537066,0 z"
     style="font-weight:bold;fill:#003366;-inkscape-font-specification:Sans Bold"
     id="path6115" /></g></svg>