<?xml version="1.0" encoding="UTF-8" standalone="no"?>
<!-- Generator: Adobe Illustrator 15.0.0, SVG Export Plug-In . SVG Version: 6.00 Build 0)  -->

<svg
   xmlns:dc="http://purl.org/dc/elements/1.1/"
   xmlns:cc="http://creativecommons.org/ns#"
   xmlns:rdf="http://www.w3.org/1999/02/22-rdf-syntax-ns#"
   xmlns:svg="http://www.w3.org/2000/svg"
   xmlns="http://www.w3.org/2000/svg"
   xmlns:sodipodi="http://sodipodi.sourceforge.net/DTD/sodipodi-0.dtd"
   xmlns:inkscape="http://www.inkscape.org/namespaces/inkscape"
   version="1.1"
   id="Layer_1"
   x="0px"
   y="0px"
   width="48px"
   height="48px"
   viewBox="0 0 48 48"
   enable-background="new 0 0 48 48"
   xml:space="preserve"
   inkscape:version="0.48.2 r9819"
   sodipodi:docname="_template.svg"><metadata
   id="metadata23"><rdf:RDF><cc:Work
       rdf:about=""><dc:format>image/svg+xml</dc:format><dc:type
         rdf:resource="http://purl.org/dc/dcmitype/StillImage" /><dc:title></dc:title></cc:Work></rdf:RDF></metadata><defs
   id="defs21" /><sodipodi:namedview
   pagecolor="#ffffff"
   bordercolor="#666666"
   borderopacity="1"
   objecttolerance="10"
   gridtolerance="10"
   guidetolerance="10"
   inkscape:pageopacity="0"
   inkscape:pageshadow="2"
   inkscape:window-width="868"
   inkscape:window-height="554"
   id="namedview19"
   showgrid="false"
   inkscape:zoom="4.9166667"
   inkscape:cx="24"
   inkscape:cy="20.12"
   inkscape:window-x="912"
   inkscape:window-y="331"
   inkscape:window-maximized="0"
   inkscape:current-layer="Layer_1" />

<g
   style="display:inline"
   id="g14916"
   inkscape:export-xdpi="300"
   inkscape:export-ydpi="300"
   transform="matrix(2.9830508,0,0,2.9830508,1554.0174,-3539.2759)"
   inkscape:export-filename="C:\Documents and Settings\jhernandez\Mis documentos\imagenCorp\iconos\iconos_jorge\ico_web\todos.png"><g
     id="g7758"
     transform="translate(-1.423996,43.615845)"><rect
       ry="1.3175305"
       rx="1.3175305"
       y="1142.9369"
       x="-519.52502"
       height="16"
       width="16"
       id="rect7760"
       style="fill:#0058b0;fill-opacity:1;fill-rule:nonzero;stroke:none;display:inline" /><path
       sodipodi:nodetypes="ssscssss"
       inkscape:connector-curvature="0"
       id="path7762"
       d="m -513.94609,1144.498 4.84214,0 c 2.19465,0 3.96936,1.7054 3.96147,3.845 l -0.005,9.0007 -8.79893,0.032 c -2.19464,0.01 -3.96147,-1.7149 -3.96147,-3.845 l 0,-5.1877 c 0,-2.1301 1.76682,-3.845 3.96147,-3.845 z"
       style="fill:#ffffff;fill-opacity:1;stroke:none" /><path
       d="m -512.72682,1153.3034 c 0.17196,-0.287 0.33909,-0.6242 0.50137,-1.0116 0.16227,-0.3874 0.30296,-0.7739 0.42206,-1.1596 l -1.05737,0.085 c -0.0546,0.3425 -0.13041,0.7043 -0.22733,1.0856 -0.0969,0.3812 -0.20443,0.736 -0.3225,1.0644 z m 0.3313,-3.5176 c 0.18901,0 0.33792,-0.067 0.44674,-0.1876 0.10882,-0.1212 0.16434,-0.2772 0.16654,-0.4679 -0.003,-0.197 -0.059,-0.3547 -0.16918,-0.4732 -0.11014,-0.1185 -0.25818,-0.1793 -0.4441,-0.1824 -0.18313,0 -0.33145,0.066 -0.44497,0.1877 -0.11352,0.1211 -0.17197,0.2771 -0.17535,0.4679 0.002,0.1846 0.0565,0.3388 0.16477,0.4626 0.10824,0.1238 0.26009,0.1881 0.45555,0.1929 z"
       style="font-size:82.62485504px;font-style:normal;font-variant:normal;font-weight:bold;font-stretch:normal;text-align:start;line-height:125%;letter-spacing:0px;word-spacing:0px;writing-mode:lr-tb;text-anchor:start;fill:#0058b0;fill-opacity:1;stroke:none;font-family:Adobe Gothic Std B;-inkscape-font-specification:Adobe Gothic Std B Bold"
       id="path7764"
       inkscape:connector-curvature="0" /><path
       d="m -510.09714,1154.181 c 0.23629,-0.3184 0.44924,-0.7461 0.63883,-1.283 0.18959,-0.5369 0.29151,-1.1971 0.30576,-1.9808 -0.008,-0.7881 -0.10824,-1.4517 -0.30047,-1.9905 -0.19224,-0.5388 -0.40695,-0.9609 -0.64412,-1.2662 l -0.74721,0 c 0.24555,0.3755 0.4488,0.8317 0.60975,1.3684 0.16096,0.5368 0.24437,1.1639 0.25025,1.8813 -0.006,0.7218 -0.0893,1.3541 -0.25025,1.8971 -0.16095,0.5429 -0.3642,1.0008 -0.60975,1.3737 z"
       style="font-size:82.62485504px;font-style:normal;font-variant:normal;font-weight:bold;font-stretch:normal;text-align:start;line-height:125%;letter-spacing:0px;word-spacing:0px;writing-mode:lr-tb;text-anchor:start;fill:#0058b0;fill-opacity:1;stroke:none;font-family:Adobe Gothic Std B;-inkscape-font-specification:Adobe Gothic Std B Bold"
       id="path7766"
       inkscape:connector-curvature="0" /></g><g
     transform="translate(-1.423996,43.615845)"
     id="g7868"><rect
       style="fill:#0058b0;fill-opacity:1;fill-rule:nonzero;stroke:none;display:inline"
       id="rect7870"
       width="16"
       height="16"
       x="-519.52502"
       y="1142.9369"
       rx="1.3175305"
       ry="1.3175305" /><path
       style="fill:#ffffff;fill-opacity:1;stroke:none"
       d="m -513.94609,1144.498 4.84214,0 c 2.19465,0 3.96936,1.7054 3.96147,3.845 l -0.005,9.0007 -8.79893,0.032 c -2.19464,0.01 -3.96147,-1.7149 -3.96147,-3.845 l 0,-5.1877 c 0,-2.1301 1.76682,-3.845 3.96147,-3.845 z"
       id="path7872"
       inkscape:connector-curvature="0"
       sodipodi:nodetypes="ssscssss" /><path
       inkscape:connector-curvature="0"
       id="path7874"
       style="font-size:82.62485504px;font-style:normal;font-variant:normal;font-weight:bold;font-stretch:normal;text-align:start;line-height:125%;letter-spacing:0px;word-spacing:0px;writing-mode:lr-tb;text-anchor:start;fill:#0058b0;fill-opacity:1;stroke:none;font-family:Adobe Gothic Std B;-inkscape-font-specification:Adobe Gothic Std B Bold"
       d="m -512.72682,1153.3034 c 0.17196,-0.287 0.33909,-0.6242 0.50137,-1.0116 0.16227,-0.3874 0.30296,-0.7739 0.42206,-1.1596 l -1.05737,0.085 c -0.0546,0.3425 -0.13041,0.7043 -0.22733,1.0856 -0.0969,0.3812 -0.20443,0.736 -0.3225,1.0644 z m 0.3313,-3.5176 c 0.18901,0 0.33792,-0.067 0.44674,-0.1876 0.10882,-0.1212 0.16434,-0.2772 0.16654,-0.4679 -0.003,-0.197 -0.059,-0.3547 -0.16918,-0.4732 -0.11014,-0.1185 -0.25818,-0.1793 -0.4441,-0.1824 -0.18313,0 -0.33145,0.066 -0.44497,0.1877 -0.11352,0.1211 -0.17197,0.2771 -0.17535,0.4679 0.002,0.1846 0.0565,0.3388 0.16477,0.4626 0.10824,0.1238 0.26009,0.1881 0.45555,0.1929 z" /><path
       inkscape:connector-curvature="0"
       id="path7876"
       style="font-size:82.62485504px;font-style:normal;font-variant:normal;font-weight:bold;font-stretch:normal;text-align:start;line-height:125%;letter-spacing:0px;word-spacing:0px;writing-mode:lr-tb;text-anchor:start;fill:#0058b0;fill-opacity:1;stroke:none;font-family:Adobe Gothic Std B;-inkscape-font-specification:Adobe Gothic Std B Bold"
       d="m -510.09714,1154.181 c 0.23629,-0.3184 0.44924,-0.7461 0.63883,-1.283 0.18959,-0.5369 0.29151,-1.1971 0.30576,-1.9808 -0.008,-0.7881 -0.10824,-1.4517 -0.30047,-1.9905 -0.19224,-0.5388 -0.40695,-0.9609 -0.64412,-1.2662 l -0.74721,0 c 0.24555,0.3755 0.4488,0.8317 0.60975,1.3684 0.16096,0.5368 0.24437,1.1639 0.25025,1.8813 -0.006,0.7218 -0.0893,1.3541 -0.25025,1.8971 -0.16095,0.5429 -0.3642,1.0008 -0.60975,1.3737 z" /></g><g
     transform="translate(-1.423996,43.615845)"
     id="g7978"><rect
       style="fill:#0058b0;fill-opacity:1;fill-rule:nonzero;stroke:none;display:inline"
       id="rect7980"
       width="16"
       height="16"
       x="-519.52502"
       y="1142.9369"
       rx="1.3175305"
       ry="1.3175305" /><path
       style="fill:#ffffff;fill-opacity:1;stroke:none"
       d="m -513.94609,1144.498 4.84214,0 c 2.19465,0 3.96936,1.7054 3.96147,3.845 l -0.005,9.0007 -8.79893,0.032 c -2.19464,0.01 -3.96147,-1.7149 -3.96147,-3.845 l 0,-5.1877 c 0,-2.1301 1.76682,-3.845 3.96147,-3.845 z"
       id="path7982"
       inkscape:connector-curvature="0"
       sodipodi:nodetypes="ssscssss" /><path
       inkscape:connector-curvature="0"
       id="path7984"
       style="font-size:82.62485504px;font-style:normal;font-variant:normal;font-weight:bold;font-stretch:normal;text-align:start;line-height:125%;letter-spacing:0px;word-spacing:0px;writing-mode:lr-tb;text-anchor:start;fill:#0058b0;fill-opacity:1;stroke:none;font-family:Adobe Gothic Std B;-inkscape-font-specification:Adobe Gothic Std B Bold"
       d="m -512.72682,1153.3034 c 0.17196,-0.287 0.33909,-0.6242 0.50137,-1.0116 0.16227,-0.3874 0.30296,-0.7739 0.42206,-1.1596 l -1.05737,0.085 c -0.0546,0.3425 -0.13041,0.7043 -0.22733,1.0856 -0.0969,0.3812 -0.20443,0.736 -0.3225,1.0644 z m 0.3313,-3.5176 c 0.18901,0 0.33792,-0.067 0.44674,-0.1876 0.10882,-0.1212 0.16434,-0.2772 0.16654,-0.4679 -0.003,-0.197 -0.059,-0.3547 -0.16918,-0.4732 -0.11014,-0.1185 -0.25818,-0.1793 -0.4441,-0.1824 -0.18313,0 -0.33145,0.066 -0.44497,0.1877 -0.11352,0.1211 -0.17197,0.2771 -0.17535,0.4679 0.002,0.1846 0.0565,0.3388 0.16477,0.4626 0.10824,0.1238 0.26009,0.1881 0.45555,0.1929 z" /><path
       inkscape:connector-curvature="0"
       id="path7986"
       style="font-size:82.62485504px;font-style:normal;font-variant:normal;font-weight:bold;font-stretch:normal;text-align:start;line-height:125%;letter-spacing:0px;word-spacing:0px;writing-mode:lr-tb;text-anchor:start;fill:#0058b0;fill-opacity:1;stroke:none;font-family:Adobe Gothic Std B;-inkscape-font-specification:Adobe Gothic Std B Bold"
       d="m -510.09714,1154.181 c 0.23629,-0.3184 0.44924,-0.7461 0.63883,-1.283 0.18959,-0.5369 0.29151,-1.1971 0.30576,-1.9808 -0.008,-0.7881 -0.10824,-1.4517 -0.30047,-1.9905 -0.19224,-0.5388 -0.40695,-0.9609 -0.64412,-1.2662 l -0.74721,0 c 0.24555,0.3755 0.4488,0.8317 0.60975,1.3684 0.16096,0.5368 0.24437,1.1639 0.25025,1.8813 -0.006,0.7218 -0.0893,1.3541 -0.25025,1.8971 -0.16095,0.5429 -0.3642,1.0008 -0.60975,1.3737 z" /></g><g
     id="g8088"
     transform="translate(-1.423996,43.615845)"><rect
       ry="1.3175305"
       rx="1.3175305"
       y="1142.9369"
       x="-519.52502"
       height="16"
       width="16"
       id="rect8090"
       style="fill:#0058b0;fill-opacity:1;fill-rule:nonzero;stroke:none;display:inline" /><path
       sodipodi:nodetypes="ssscssss"
       inkscape:connector-curvature="0"
       id="path8092"
       d="m -513.94609,1144.498 4.84214,0 c 2.19465,0 3.96936,1.7054 3.96147,3.845 l -0.005,9.0007 -8.79893,0.032 c -2.19464,0.01 -3.96147,-1.7149 -3.96147,-3.845 l 0,-5.1877 c 0,-2.1301 1.76682,-3.845 3.96147,-3.845 z"
       style="fill:#ffffff;fill-opacity:1;stroke:none" /><path
       d="m -512.72682,1153.3034 c 0.17196,-0.287 0.33909,-0.6242 0.50137,-1.0116 0.16227,-0.3874 0.30296,-0.7739 0.42206,-1.1596 l -1.05737,0.085 c -0.0546,0.3425 -0.13041,0.7043 -0.22733,1.0856 -0.0969,0.3812 -0.20443,0.736 -0.3225,1.0644 z m 0.3313,-3.5176 c 0.18901,0 0.33792,-0.067 0.44674,-0.1876 0.10882,-0.1212 0.16434,-0.2772 0.16654,-0.4679 -0.003,-0.197 -0.059,-0.3547 -0.16918,-0.4732 -0.11014,-0.1185 -0.25818,-0.1793 -0.4441,-0.1824 -0.18313,0 -0.33145,0.066 -0.44497,0.1877 -0.11352,0.1211 -0.17197,0.2771 -0.17535,0.4679 0.002,0.1846 0.0565,0.3388 0.16477,0.4626 0.10824,0.1238 0.26009,0.1881 0.45555,0.1929 z"
       style="font-size:82.62485504px;font-style:normal;font-variant:normal;font-weight:bold;font-stretch:normal;text-align:start;line-height:125%;letter-spacing:0px;word-spacing:0px;writing-mode:lr-tb;text-anchor:start;fill:#0058b0;fill-opacity:1;stroke:none;font-family:Adobe Gothic Std B;-inkscape-font-specification:Adobe Gothic Std B Bold"
       id="path8094"
       inkscape:connector-curvature="0" /><path
       d="m -510.09714,1154.181 c 0.23629,-0.3184 0.44924,-0.7461 0.63883,-1.283 0.18959,-0.5369 0.29151,-1.1971 0.30576,-1.9808 -0.008,-0.7881 -0.10824,-1.4517 -0.30047,-1.9905 -0.19224,-0.5388 -0.40695,-0.9609 -0.64412,-1.2662 l -0.74721,0 c 0.24555,0.3755 0.4488,0.8317 0.60975,1.3684 0.16096,0.5368 0.24437,1.1639 0.25025,1.8813 -0.006,0.7218 -0.0893,1.3541 -0.25025,1.8971 -0.16095,0.5429 -0.3642,1.0008 -0.60975,1.3737 z"
       style="font-size:82.62485504px;font-style:normal;font-variant:normal;font-weight:bold;font-stretch:normal;text-align:start;line-height:125%;letter-spacing:0px;word-spacing:0px;writing-mode:lr-tb;text-anchor:start;fill:#0058b0;fill-opacity:1;stroke:none;font-family:Adobe Gothic Std B;-inkscape-font-specification:Adobe Gothic Std B Bold"
       id="path8096"
       inkscape:connector-curvature="0" /></g><g
     transform="translate(-1.423996,43.615845)"
     id="g8198"><rect
       style="fill:#0058b0;fill-opacity:1;fill-rule:nonzero;stroke:none;display:inline"
       id="rect8200"
       width="16"
       height="16"
       x="-519.52502"
       y="1142.9369"
       rx="1.3175305"
       ry="1.3175305" /><path
       style="fill:#ffffff;fill-opacity:1;stroke:none"
       d="m -513.94609,1144.498 4.84214,0 c 2.19465,0 3.96936,1.7054 3.96147,3.845 l -0.005,9.0007 -8.79893,0.032 c -2.19464,0.01 -3.96147,-1.7149 -3.96147,-3.845 l 0,-5.1877 c 0,-2.1301 1.76682,-3.845 3.96147,-3.845 z"
       id="path8202"
       inkscape:connector-curvature="0"
       sodipodi:nodetypes="ssscssss" /><path
       inkscape:connector-curvature="0"
       id="path8204"
       style="font-size:82.62485504px;font-style:normal;font-variant:normal;font-weight:bold;font-stretch:normal;text-align:start;line-height:125%;letter-spacing:0px;word-spacing:0px;writing-mode:lr-tb;text-anchor:start;fill:#0058b0;fill-opacity:1;stroke:none;font-family:Adobe Gothic Std B;-inkscape-font-specification:Adobe Gothic Std B Bold"
       d="m -512.72682,1153.3034 c 0.17196,-0.287 0.33909,-0.6242 0.50137,-1.0116 0.16227,-0.3874 0.30296,-0.7739 0.42206,-1.1596 l -1.05737,0.085 c -0.0546,0.3425 -0.13041,0.7043 -0.22733,1.0856 -0.0969,0.3812 -0.20443,0.736 -0.3225,1.0644 z m 0.3313,-3.5176 c 0.18901,0 0.33792,-0.067 0.44674,-0.1876 0.10882,-0.1212 0.16434,-0.2772 0.16654,-0.4679 -0.003,-0.197 -0.059,-0.3547 -0.16918,-0.4732 -0.11014,-0.1185 -0.25818,-0.1793 -0.4441,-0.1824 -0.18313,0 -0.33145,0.066 -0.44497,0.1877 -0.11352,0.1211 -0.17197,0.2771 -0.17535,0.4679 0.002,0.1846 0.0565,0.3388 0.16477,0.4626 0.10824,0.1238 0.26009,0.1881 0.45555,0.1929 z" /><path
       inkscape:connector-curvature="0"
       id="path8206"
       style="font-size:82.62485504px;font-style:normal;font-variant:normal;font-weight:bold;font-stretch:normal;text-align:start;line-height:125%;letter-spacing:0px;word-spacing:0px;writing-mode:lr-tb;text-anchor:start;fill:#0058b0;fill-opacity:1;stroke:none;font-family:Adobe Gothic Std B;-inkscape-font-specification:Adobe Gothic Std B Bold"
       d="m -510.09714,1154.181 c 0.23629,-0.3184 0.44924,-0.7461 0.63883,-1.283 0.18959,-0.5369 0.29151,-1.1971 0.30576,-1.9808 -0.008,-0.7881 -0.10824,-1.4517 -0.30047,-1.9905 -0.19224,-0.5388 -0.40695,-0.9609 -0.64412,-1.2662 l -0.74721,0 c 0.24555,0.3755 0.4488,0.8317 0.60975,1.3684 0.16096,0.5368 0.24437,1.1639 0.25025,1.8813 -0.006,0.7218 -0.0893,1.3541 -0.25025,1.8971 -0.16095,0.5429 -0.3642,1.0008 -0.60975,1.3737 z" /></g><g
     id="g8308"
     transform="translate(-1.423996,43.615845)"><rect
       ry="1.3175305"
       rx="1.3175305"
       y="1142.9369"
       x="-519.52502"
       height="16"
       width="16"
       id="rect8310"
       style="fill:#0058b0;fill-opacity:1;fill-rule:nonzero;stroke:none;display:inline" /><path
       sodipodi:nodetypes="ssscssss"
       inkscape:connector-curvature="0"
       id="path8312"
       d="m -513.94609,1144.498 4.84214,0 c 2.19465,0 3.96936,1.7054 3.96147,3.845 l -0.005,9.0007 -8.79893,0.032 c -2.19464,0.01 -3.96147,-1.7149 -3.96147,-3.845 l 0,-5.1877 c 0,-2.1301 1.76682,-3.845 3.96147,-3.845 z"
       style="fill:#ffffff;fill-opacity:1;stroke:none" /><path
       d="m -512.72682,1153.3034 c 0.17196,-0.287 0.33909,-0.6242 0.50137,-1.0116 0.16227,-0.3874 0.30296,-0.7739 0.42206,-1.1596 l -1.05737,0.085 c -0.0546,0.3425 -0.13041,0.7043 -0.22733,1.0856 -0.0969,0.3812 -0.20443,0.736 -0.3225,1.0644 z m 0.3313,-3.5176 c 0.18901,0 0.33792,-0.067 0.44674,-0.1876 0.10882,-0.1212 0.16434,-0.2772 0.16654,-0.4679 -0.003,-0.197 -0.059,-0.3547 -0.16918,-0.4732 -0.11014,-0.1185 -0.25818,-0.1793 -0.4441,-0.1824 -0.18313,0 -0.33145,0.066 -0.44497,0.1877 -0.11352,0.1211 -0.17197,0.2771 -0.17535,0.4679 0.002,0.1846 0.0565,0.3388 0.16477,0.4626 0.10824,0.1238 0.26009,0.1881 0.45555,0.1929 z"
       style="font-size:82.62485504px;font-style:normal;font-variant:normal;font-weight:bold;font-stretch:normal;text-align:start;line-height:125%;letter-spacing:0px;word-spacing:0px;writing-mode:lr-tb;text-anchor:start;fill:#0058b0;fill-opacity:1;stroke:none;font-family:Adobe Gothic Std B;-inkscape-font-specification:Adobe Gothic Std B Bold"
       id="path8314"
       inkscape:connector-curvature="0" /><path
       d="m -510.09714,1154.181 c 0.23629,-0.3184 0.44924,-0.7461 0.63883,-1.283 0.18959,-0.5369 0.29151,-1.1971 0.30576,-1.9808 -0.008,-0.7881 -0.10824,-1.4517 -0.30047,-1.9905 -0.19224,-0.5388 -0.40695,-0.9609 -0.64412,-1.2662 l -0.74721,0 c 0.24555,0.3755 0.4488,0.8317 0.60975,1.3684 0.16096,0.5368 0.24437,1.1639 0.25025,1.8813 -0.006,0.7218 -0.0893,1.3541 -0.25025,1.8971 -0.16095,0.5429 -0.3642,1.0008 -0.60975,1.3737 z"
       style="font-size:82.62485504px;font-style:normal;font-variant:normal;font-weight:bold;font-stretch:normal;text-align:start;line-height:125%;letter-spacing:0px;word-spacing:0px;writing-mode:lr-tb;text-anchor:start;fill:#0058b0;fill-opacity:1;stroke:none;font-family:Adobe Gothic Std B;-inkscape-font-specification:Adobe Gothic Std B Bold"
       id="path8316"
       inkscape:connector-curvature="0" /></g><rect
     style="fill:#003366;fill-opacity:1;fill-rule:nonzero;stroke:none;display:inline"
     id="rect8420"
     width="16"
     height="16"
     x="-520.94904"
     y="1186.5527"
     rx="1.3175305"
     ry="1.3175305" /><path
     style="fill:#ffffff;fill-opacity:1;stroke:none"
     d="m -515.37009,1188.1138 4.84214,0 c 2.19465,0 3.96936,1.7054 3.96147,3.845 l -0.005,9.0007 -8.79893,0.032 c -2.19464,0.01 -3.96147,-1.7149 -3.96147,-3.845 l 0,-5.1877 c 0,-2.1301 1.76682,-3.845 3.96147,-3.845 z"
     id="path8422"
     inkscape:connector-curvature="0"
     sodipodi:nodetypes="ssscssss" /><path
     inkscape:connector-curvature="0"
     id="path8424"
     style="font-size:82.62485504px;font-style:normal;font-variant:normal;font-weight:bold;font-stretch:normal;text-align:start;line-height:125%;letter-spacing:0px;word-spacing:0px;writing-mode:lr-tb;text-anchor:start;fill:#003366;fill-opacity:1;stroke:none;font-family:Adobe Gothic Std B;-inkscape-font-specification:Adobe Gothic Std B Bold"
     d="m -514.15082,1196.9192 c 0.17196,-0.287 0.33909,-0.6242 0.50137,-1.0116 0.16227,-0.3874 0.30296,-0.7739 0.42206,-1.1596 l -1.05737,0.085 c -0.0546,0.3425 -0.13041,0.7043 -0.22733,1.0856 -0.0969,0.3812 -0.20443,0.736 -0.3225,1.0644 z m 0.3313,-3.5176 c 0.18901,0 0.33792,-0.067 0.44674,-0.1876 0.10882,-0.1212 0.16434,-0.2772 0.16654,-0.4679 -0.003,-0.197 -0.059,-0.3547 -0.16918,-0.4732 -0.11014,-0.1185 -0.25818,-0.1793 -0.4441,-0.1824 -0.18313,0 -0.33145,0.066 -0.44497,0.1877 -0.11352,0.1211 -0.17197,0.2771 -0.17535,0.4679 0.002,0.1846 0.0565,0.3388 0.16477,0.4626 0.10824,0.1238 0.26009,0.1881 0.45555,0.1929 z" /><path
     inkscape:connector-curvature="0"
     id="path8426"
     style="font-size:82.62485504px;font-style:normal;font-variant:normal;font-weight:bold;font-stretch:normal;text-align:start;line-height:125%;letter-spacing:0px;word-spacing:0px;writing-mode:lr-tb;text-anchor:start;fill:#003366;fill-opacity:1;stroke:none;font-family:Adobe Gothic Std B;-inkscape-font-specification:Adobe Gothic Std B Bold"
     d="m -511.52114,1197.7968 c 0.23629,-0.3184 0.44924,-0.7461 0.63883,-1.283 0.18959,-0.5369 0.29151,-1.1971 0.30576,-1.9808 -0.008,-0.7881 -0.10824,-1.4517 -0.30047,-1.9905 -0.19224,-0.5388 -0.40695,-0.9609 -0.64412,-1.2662 l -0.74721,0 c 0.24555,0.3755 0.4488,0.8317 0.60975,1.3684 0.16096,0.5368 0.24437,1.1639 0.25025,1.8813 -0.006,0.7218 -0.0893,1.3541 -0.25025,1.8971 -0.16095,0.5429 -0.3642,1.0008 -0.60975,1.3737 z" /></g></svg>