<?xml version="1.0" encoding="UTF-8" standalone="no"?>
<!-- Generator: Adobe Illustrator 15.0.0, SVG Export Plug-In . SVG Version: 6.00 Build 0)  -->

<svg
   xmlns:dc="http://purl.org/dc/elements/1.1/"
   xmlns:cc="http://creativecommons.org/ns#"
   xmlns:rdf="http://www.w3.org/1999/02/22-rdf-syntax-ns#"
   xmlns:svg="http://www.w3.org/2000/svg"
   xmlns="http://www.w3.org/2000/svg"
   xmlns:sodipodi="http://sodipodi.sourceforge.net/DTD/sodipodi-0.dtd"
   xmlns:inkscape="http://www.inkscape.org/namespaces/inkscape"
   version="1.1"
   id="Layer_1"
   x="0px"
   y="0px"
   width="48px"
   height="48px"
   viewBox="0 0 48 48"
   enable-background="new 0 0 48 48"
   xml:space="preserve"
   inkscape:version="0.48.2 r9819"
   sodipodi:docname="_template.svg"><metadata
   id="metadata23"><rdf:RDF><cc:Work
       rdf:about=""><dc:format>image/svg+xml</dc:format><dc:type
         rdf:resource="http://purl.org/dc/dcmitype/StillImage" /><dc:title></dc:title></cc:Work></rdf:RDF></metadata><defs
   id="defs21" /><sodipodi:namedview
   pagecolor="#ffffff"
   bordercolor="#666666"
   borderopacity="1"
   objecttolerance="10"
   gridtolerance="10"
   guidetolerance="10"
   inkscape:pageopacity="0"
   inkscape:pageshadow="2"
   inkscape:window-width="868"
   inkscape:window-height="554"
   id="namedview19"
   showgrid="false"
   inkscape:zoom="4.9166667"
   inkscape:cx="24"
   inkscape:cy="20.12"
   inkscape:window-x="912"
   inkscape:window-y="331"
   inkscape:window-maximized="0"
   inkscape:current-layer="Layer_1" />

<g
   style="display:inline"
   id="g14807"
   inkscape:export-xdpi="300"
   inkscape:export-ydpi="300"
   transform="matrix(3.0084746,0,0,3.0084746,1876.16,-3569.7137)"
   inkscape:export-filename="C:\Documents and Settings\jhernandez\Mis documentos\imagenCorp\iconos\iconos_jorge\ico_web\todos.png"><g
     id="g7728"
     transform="translate(0,45.697632)"><rect
       ry="1.3175305"
       rx="1.3175305"
       y="1140.8551"
       x="-623.625"
       height="16"
       width="16"
       id="rect7730"
       style="fill:#0058b0;fill-opacity:1;fill-rule:nonzero;stroke:none" /><path
       sodipodi:nodetypes="cscsccsccscscscccccssc"
       inkscape:connector-curvature="0"
       id="path7732"
       d="m -621.55402,1152.6482 c 0,0 1.18812,0.094 1.97077,-0.167 1.20251,-0.4008 1.33612,-0.9353 1.33612,-0.9353 0,0 -0.83507,0.1002 -1.30271,-0.4342 -0.46764,-0.5345 -0.90188,-1.1691 -0.90188,-1.1691 l 1.46973,0.033 c 0,0 -1.03549,0.033 -1.63675,-0.7683 -0.60125,-0.8016 -0.56785,-1.7035 -0.56785,-1.7035 l 1.40293,0.5678 c 0,0 -1.20251,-0.668 -1.30272,-1.6367 -0.10021,-0.9687 0.16702,-2.238 0.16702,-2.238 0,0 0.50104,1.5699 2.23799,2.2046 1.73695,0.6346 2.73904,0.5344 2.73904,0.5344 0,0 -0.0422,-2.137 1.43633,-2.7056 1.73695,-0.6681 2.77244,0.4676 2.77244,0.4676 l 1.63674,-0.4008 -1.00208,1.3027 1.40292,-0.334 -1.33612,1.2025 c 0,0 0.20042,2.2046 -0.90188,4.0417 -1.10229,1.8372 -2.84013,3.1142 -4.81002,3.1733 -3.34029,0.1002 -4.81002,-1.0355 -4.81002,-1.0355 z"
       style="fill:#ffffff;fill-opacity:1;stroke:none" /></g><g
     transform="translate(0,45.697632)"
     id="g7838"><rect
       style="fill:#0058b0;fill-opacity:1;fill-rule:nonzero;stroke:none"
       id="rect7840"
       width="16"
       height="16"
       x="-623.625"
       y="1140.8551"
       rx="1.3175305"
       ry="1.3175305" /><path
       style="fill:#ffffff;fill-opacity:1;stroke:none"
       d="m -621.55402,1152.6482 c 0,0 1.18812,0.094 1.97077,-0.167 1.20251,-0.4008 1.33612,-0.9353 1.33612,-0.9353 0,0 -0.83507,0.1002 -1.30271,-0.4342 -0.46764,-0.5345 -0.90188,-1.1691 -0.90188,-1.1691 l 1.46973,0.033 c 0,0 -1.03549,0.033 -1.63675,-0.7683 -0.60125,-0.8016 -0.56785,-1.7035 -0.56785,-1.7035 l 1.40293,0.5678 c 0,0 -1.20251,-0.668 -1.30272,-1.6367 -0.10021,-0.9687 0.16702,-2.238 0.16702,-2.238 0,0 0.50104,1.5699 2.23799,2.2046 1.73695,0.6346 2.73904,0.5344 2.73904,0.5344 0,0 -0.0422,-2.137 1.43633,-2.7056 1.73695,-0.6681 2.77244,0.4676 2.77244,0.4676 l 1.63674,-0.4008 -1.00208,1.3027 1.40292,-0.334 -1.33612,1.2025 c 0,0 0.20042,2.2046 -0.90188,4.0417 -1.10229,1.8372 -2.84013,3.1142 -4.81002,3.1733 -3.34029,0.1002 -4.81002,-1.0355 -4.81002,-1.0355 z"
       id="path7842"
       inkscape:connector-curvature="0"
       sodipodi:nodetypes="cscsccsccscscscccccssc" /></g><g
     transform="translate(0,45.697632)"
     id="g7948"><rect
       style="fill:#0058b0;fill-opacity:1;fill-rule:nonzero;stroke:none"
       id="rect7950"
       width="16"
       height="16"
       x="-623.625"
       y="1140.8551"
       rx="1.3175305"
       ry="1.3175305" /><path
       style="fill:#ffffff;fill-opacity:1;stroke:none"
       d="m -621.55402,1152.6482 c 0,0 1.18812,0.094 1.97077,-0.167 1.20251,-0.4008 1.33612,-0.9353 1.33612,-0.9353 0,0 -0.83507,0.1002 -1.30271,-0.4342 -0.46764,-0.5345 -0.90188,-1.1691 -0.90188,-1.1691 l 1.46973,0.033 c 0,0 -1.03549,0.033 -1.63675,-0.7683 -0.60125,-0.8016 -0.56785,-1.7035 -0.56785,-1.7035 l 1.40293,0.5678 c 0,0 -1.20251,-0.668 -1.30272,-1.6367 -0.10021,-0.9687 0.16702,-2.238 0.16702,-2.238 0,0 0.50104,1.5699 2.23799,2.2046 1.73695,0.6346 2.73904,0.5344 2.73904,0.5344 0,0 -0.0422,-2.137 1.43633,-2.7056 1.73695,-0.6681 2.77244,0.4676 2.77244,0.4676 l 1.63674,-0.4008 -1.00208,1.3027 1.40292,-0.334 -1.33612,1.2025 c 0,0 0.20042,2.2046 -0.90188,4.0417 -1.10229,1.8372 -2.84013,3.1142 -4.81002,3.1733 -3.34029,0.1002 -4.81002,-1.0355 -4.81002,-1.0355 z"
       id="path7952"
       inkscape:connector-curvature="0"
       sodipodi:nodetypes="cscsccsccscscscccccssc" /></g><g
     id="g8058"
     transform="translate(0,45.697632)"><rect
       ry="1.3175305"
       rx="1.3175305"
       y="1140.8551"
       x="-623.625"
       height="16"
       width="16"
       id="rect8060"
       style="fill:#0058b0;fill-opacity:1;fill-rule:nonzero;stroke:none" /><path
       sodipodi:nodetypes="cscsccsccscscscccccssc"
       inkscape:connector-curvature="0"
       id="path8062"
       d="m -621.55402,1152.6482 c 0,0 1.18812,0.094 1.97077,-0.167 1.20251,-0.4008 1.33612,-0.9353 1.33612,-0.9353 0,0 -0.83507,0.1002 -1.30271,-0.4342 -0.46764,-0.5345 -0.90188,-1.1691 -0.90188,-1.1691 l 1.46973,0.033 c 0,0 -1.03549,0.033 -1.63675,-0.7683 -0.60125,-0.8016 -0.56785,-1.7035 -0.56785,-1.7035 l 1.40293,0.5678 c 0,0 -1.20251,-0.668 -1.30272,-1.6367 -0.10021,-0.9687 0.16702,-2.238 0.16702,-2.238 0,0 0.50104,1.5699 2.23799,2.2046 1.73695,0.6346 2.73904,0.5344 2.73904,0.5344 0,0 -0.0422,-2.137 1.43633,-2.7056 1.73695,-0.6681 2.77244,0.4676 2.77244,0.4676 l 1.63674,-0.4008 -1.00208,1.3027 1.40292,-0.334 -1.33612,1.2025 c 0,0 0.20042,2.2046 -0.90188,4.0417 -1.10229,1.8372 -2.84013,3.1142 -4.81002,3.1733 -3.34029,0.1002 -4.81002,-1.0355 -4.81002,-1.0355 z"
       style="fill:#ffffff;fill-opacity:1;stroke:none" /></g><g
     transform="translate(0,45.697632)"
     id="g8168"><rect
       style="fill:#0058b0;fill-opacity:1;fill-rule:nonzero;stroke:none"
       id="rect8170"
       width="16"
       height="16"
       x="-623.625"
       y="1140.8551"
       rx="1.3175305"
       ry="1.3175305" /><path
       style="fill:#ffffff;fill-opacity:1;stroke:none"
       d="m -621.55402,1152.6482 c 0,0 1.18812,0.094 1.97077,-0.167 1.20251,-0.4008 1.33612,-0.9353 1.33612,-0.9353 0,0 -0.83507,0.1002 -1.30271,-0.4342 -0.46764,-0.5345 -0.90188,-1.1691 -0.90188,-1.1691 l 1.46973,0.033 c 0,0 -1.03549,0.033 -1.63675,-0.7683 -0.60125,-0.8016 -0.56785,-1.7035 -0.56785,-1.7035 l 1.40293,0.5678 c 0,0 -1.20251,-0.668 -1.30272,-1.6367 -0.10021,-0.9687 0.16702,-2.238 0.16702,-2.238 0,0 0.50104,1.5699 2.23799,2.2046 1.73695,0.6346 2.73904,0.5344 2.73904,0.5344 0,0 -0.0422,-2.137 1.43633,-2.7056 1.73695,-0.6681 2.77244,0.4676 2.77244,0.4676 l 1.63674,-0.4008 -1.00208,1.3027 1.40292,-0.334 -1.33612,1.2025 c 0,0 0.20042,2.2046 -0.90188,4.0417 -1.10229,1.8372 -2.84013,3.1142 -4.81002,3.1733 -3.34029,0.1002 -4.81002,-1.0355 -4.81002,-1.0355 z"
       id="path8172"
       inkscape:connector-curvature="0"
       sodipodi:nodetypes="cscsccsccscscscccccssc" /></g><g
     id="g8278"
     transform="translate(0,45.697632)"><rect
       ry="1.3175305"
       rx="1.3175305"
       y="1140.8551"
       x="-623.625"
       height="16"
       width="16"
       id="rect8280"
       style="fill:#0058b0;fill-opacity:1;fill-rule:nonzero;stroke:none" /><path
       sodipodi:nodetypes="cscsccsccscscscccccssc"
       inkscape:connector-curvature="0"
       id="path8282"
       d="m -621.55402,1152.6482 c 0,0 1.18812,0.094 1.97077,-0.167 1.20251,-0.4008 1.33612,-0.9353 1.33612,-0.9353 0,0 -0.83507,0.1002 -1.30271,-0.4342 -0.46764,-0.5345 -0.90188,-1.1691 -0.90188,-1.1691 l 1.46973,0.033 c 0,0 -1.03549,0.033 -1.63675,-0.7683 -0.60125,-0.8016 -0.56785,-1.7035 -0.56785,-1.7035 l 1.40293,0.5678 c 0,0 -1.20251,-0.668 -1.30272,-1.6367 -0.10021,-0.9687 0.16702,-2.238 0.16702,-2.238 0,0 0.50104,1.5699 2.23799,2.2046 1.73695,0.6346 2.73904,0.5344 2.73904,0.5344 0,0 -0.0422,-2.137 1.43633,-2.7056 1.73695,-0.6681 2.77244,0.4676 2.77244,0.4676 l 1.63674,-0.4008 -1.00208,1.3027 1.40292,-0.334 -1.33612,1.2025 c 0,0 0.20042,2.2046 -0.90188,4.0417 -1.10229,1.8372 -2.84013,3.1142 -4.81002,3.1733 -3.34029,0.1002 -4.81002,-1.0355 -4.81002,-1.0355 z"
       style="fill:#ffffff;fill-opacity:1;stroke:none" /></g><rect
     style="fill:#003366;fill-opacity:1;fill-rule:nonzero;stroke:none"
     id="rect8390"
     width="16"
     height="16"
     x="-623.625"
     y="1186.5527"
     rx="1.3175305"
     ry="1.3175305" /><path
     style="fill:#ffffff;fill-opacity:1;stroke:none"
     d="m -621.55402,1198.3458 c 0,0 1.18812,0.094 1.97077,-0.167 1.20251,-0.4008 1.33612,-0.9353 1.33612,-0.9353 0,0 -0.83507,0.1002 -1.30271,-0.4342 -0.46764,-0.5345 -0.90188,-1.1691 -0.90188,-1.1691 l 1.46973,0.033 c 0,0 -1.03549,0.033 -1.63675,-0.7683 -0.60125,-0.8016 -0.56785,-1.7035 -0.56785,-1.7035 l 1.40293,0.5678 c 0,0 -1.20251,-0.668 -1.30272,-1.6367 -0.10021,-0.9687 0.16702,-2.238 0.16702,-2.238 0,0 0.50104,1.5699 2.23799,2.2046 1.73695,0.6346 2.73904,0.5344 2.73904,0.5344 0,0 -0.0422,-2.137 1.43633,-2.7056 1.73695,-0.6681 2.77244,0.4676 2.77244,0.4676 l 1.63674,-0.4008 -1.00208,1.3027 1.40292,-0.334 -1.33612,1.2025 c 0,0 0.20042,2.2046 -0.90188,4.0417 -1.10229,1.8372 -2.84013,3.1142 -4.81002,3.1733 -3.34029,0.1002 -4.81002,-1.0355 -4.81002,-1.0355 z"
     id="path8392"
     inkscape:connector-curvature="0"
     sodipodi:nodetypes="cscsccsccscscscccccssc" /></g></svg>