<?xml version="1.0" encoding="UTF-8"?>
<svg xmlns="http://www.w3.org/2000/svg" xmlns:xlink="http://www.w3.org/1999/xlink" width="410pt" height="410pt" viewBox="0 0 410 410" version="1.1">
<g id="surface1">
<path style=" stroke:none;fill-rule:nonzero;fill:rgb(0%,0%,0%);fill-opacity:1;" d="M 319.433594 0 L 91.269531 0 C 40.957031 0 0 40.933594 0 91.269531 L 0 319.433594 C 0 369.777344 40.957031 410.707031 91.269531 410.707031 L 319.433594 410.707031 C 369.75 410.707031 410.707031 369.777344 410.707031 319.433594 L 410.707031 91.269531 C 410.707031 40.933594 369.75 0 319.433594 0 M 365.070312 342.257812 C 365.070312 354.804688 354.804688 365.070312 342.257812 365.070312 L 68.453125 365.070312 C 55.90625 365.070312 45.636719 354.804688 45.636719 342.257812 L 45.636719 68.453125 C 45.636719 55.90625 55.90625 45.636719 68.453125 45.636719 L 342.265625 45.636719 C 354.8125 45.636719 365.078125 55.90625 365.078125 68.453125 L 365.078125 342.257812 Z M 365.070312 342.257812 "/>
</g>
</svg>
