<?xml version="1.0" encoding="iso-8859-1"?>
<!-- Generator: Adobe Illustrator 15.0.0, SVG Export Plug-In . SVG Version: 6.00 Build 0)  -->
<!DOCTYPE svg PUBLIC "-//W3C//DTD SVG 1.1//EN" "http://www.w3.org/Graphics/SVG/1.1/DTD/svg11.dtd">
<svg version="1.1" id="Layer_1" xmlns="http://www.w3.org/2000/svg" xmlns:xlink="http://www.w3.org/1999/xlink" x="0px" y="0px"
	 width="48px" height="48px" viewBox="0 0 48 48" style="enable-background:new 0 0 48 48;" xml:space="preserve">
<path d="M37.397,0H10.685C4.795,0,0,4.792,0,10.685v26.712c0,5.894,4.795,10.686,10.685,10.686h26.712
	c5.891,0,10.686-4.792,10.686-10.686V10.685C48.083,4.792,43.288,0,37.397,0 M42.74,40.069c0,1.469-1.202,2.671-2.671,2.671H8.014
	c-1.469,0-2.671-1.202-2.671-2.671V8.014c0-1.469,1.202-2.671,2.671-2.671h32.056c1.469,0,2.671,1.202,2.671,2.671V40.069z"/>
</svg>
