<?xml version="1.0" encoding="UTF-8"?>
<svg xmlns="http://www.w3.org/2000/svg" xmlns:xlink="http://www.w3.org/1999/xlink" aria-hidden="true" focusable="false" width="0.84em" height="1em" style="-ms-transform: rotate(360deg); -webkit-transform: rotate(360deg); transform: rotate(360deg);" preserveAspectRatio="xMidYMid meet" viewBox="0 0 1280 1536">
 <path d="M1280 1271q0 109-62.5 187t-150.5 78H213q-88 0-150.5-78T0 1271q0-85 8.5-160.5t31.5-152t58.5-131t94-89T327 704q131 128 313 128t313-128q76 0 134.5 34.5t94 89t58.5 131t31.5 152t8.5 160.5zm-256-887q0 159-112.5 271.5T640 768T368.5 655.5T256 384t112.5-271.5T640 0t271.5 112.5T1024 384z" fill="#626262"/>
</svg>