<?xml version="1.0" encoding="UTF-8" standalone="no"?>
<!-- Generator: Adobe Illustrator 15.0.0, SVG Export Plug-In . SVG Version: 6.00 Build 0)  -->

<svg
   xmlns:dc="http://purl.org/dc/elements/1.1/"
   xmlns:cc="http://creativecommons.org/ns#"
   xmlns:rdf="http://www.w3.org/1999/02/22-rdf-syntax-ns#"
   xmlns:svg="http://www.w3.org/2000/svg"
   xmlns="http://www.w3.org/2000/svg"
   xmlns:sodipodi="http://sodipodi.sourceforge.net/DTD/sodipodi-0.dtd"
   xmlns:inkscape="http://www.inkscape.org/namespaces/inkscape"
   version="1.1"
   id="Layer_1"
   x="0px"
   y="0px"
   width="48px"
   height="48px"
   viewBox="0 0 48 48"
   enable-background="new 0 0 48 48"
   xml:space="preserve"
   inkscape:version="0.48.2 r9819"
   sodipodi:docname="visualize.svg"><metadata
   id="metadata9"><rdf:RDF><cc:Work
       rdf:about=""><dc:format>image/svg+xml</dc:format><dc:type
         rdf:resource="http://purl.org/dc/dcmitype/StillImage" /></cc:Work></rdf:RDF></metadata><defs
   id="defs7" /><sodipodi:namedview
   pagecolor="#ffffff"
   bordercolor="#666666"
   borderopacity="1"
   objecttolerance="10"
   gridtolerance="10"
   guidetolerance="10"
   inkscape:pageopacity="0"
   inkscape:pageshadow="2"
   inkscape:window-width="640"
   inkscape:window-height="480"
   id="namedview5"
   showgrid="false"
   inkscape:zoom="4.9166667"
   inkscape:cx="24"
   inkscape:cy="24"
   inkscape:window-x="2172"
   inkscape:window-y="151"
   inkscape:window-maximized="0"
   inkscape:current-layer="Layer_1" />

<g
   transform="matrix(2.1611808,0,0,2.1611808,-339.30539,-1694.1996)"
   id="check"><path
     inkscape:connector-curvature="0"
     id="path1259"
     d="M 173,798.307 V 801 c 0,0.55 -0.45,1 -1,1 h -12 c -0.55,0 -1,-0.45 -1,-1 v -12 c 0,-0.55 0.45,-1 1,-1 h 10.651 l 1.737,-1.737 C 171.955,786.101 171.49,786 171,786 h -10 c -2.205,0 -4,1.794 -4,4 v 10 c 0,2.206 1.795,4 4,4 h 10 c 2.205,0 4,-1.794 4,-4 v -3.693 l -2,2 z" /><path
     inkscape:connector-curvature="0"
     id="path1261"
     d="m 178.92,788.454 c 0.199,0.196 0.2,0.52 0.002,0.718 l -11.004,11.003 c -0.197,0.198 -0.521,0.198 -0.719,0 l -5.896,-5.896 c -0.197,-0.197 -0.197,-0.521 0,-0.72 l 2.334,-2.333 c 0.197,-0.198 0.521,-0.198 0.719,0 l 2.844,2.843 c 0.197,0.197 0.521,0.197 0.72,0 l 7.93,-7.929 c 0.198,-0.198 0.522,-0.199 0.722,-0.002 l 2.348,2.316 z" /></g></svg>