<?xml version="1.0" encoding="UTF-8" standalone="no"?>
<!-- Generator: Adobe Illustrator 15.0.0, SVG Export Plug-In . SVG Version: 6.00 Build 0)  -->

<svg
   xmlns:dc="http://purl.org/dc/elements/1.1/"
   xmlns:cc="http://creativecommons.org/ns#"
   xmlns:rdf="http://www.w3.org/1999/02/22-rdf-syntax-ns#"
   xmlns:svg="http://www.w3.org/2000/svg"
   xmlns="http://www.w3.org/2000/svg"
   xmlns:sodipodi="http://sodipodi.sourceforge.net/DTD/sodipodi-0.dtd"
   xmlns:inkscape="http://www.inkscape.org/namespaces/inkscape"
   version="1.1"
   id="Layer_1"
   x="0px"
   y="0px"
   width="48px"
   height="48px"
   viewBox="0 0 48 48"
   enable-background="new 0 0 48 48"
   xml:space="preserve"
   inkscape:version="0.48.2 r9819"
   sodipodi:docname="modif_xls.svg"><metadata
   id="metadata23"><rdf:RDF><cc:Work
       rdf:about=""><dc:format>image/svg+xml</dc:format><dc:type
         rdf:resource="http://purl.org/dc/dcmitype/StillImage" /><dc:title /></cc:Work></rdf:RDF></metadata><defs
   id="defs21" /><sodipodi:namedview
   pagecolor="#ffffff"
   bordercolor="#666666"
   borderopacity="1"
   objecttolerance="10"
   gridtolerance="10"
   guidetolerance="10"
   inkscape:pageopacity="0"
   inkscape:pageshadow="2"
   inkscape:window-width="1920"
   inkscape:window-height="1020"
   id="namedview19"
   showgrid="false"
   inkscape:zoom="1.7383042"
   inkscape:cx="89.926288"
   inkscape:cy="-54.302608"
   inkscape:window-x="-4"
   inkscape:window-y="-4"
   inkscape:window-maximized="1"
   inkscape:current-layer="Layer_1" />

<path
   style="color:#000000;fill:#003366;fill-opacity:1;stroke:none;stroke-width:2.68430781000000000;marker:none;visibility:visible;display:inline;overflow:visible;enable-background:accumulate"
   d="M 3.21875 11.84375 C 1.4403958 11.84375 4.9150498e-018 12.158493 0 12.5625 L 0 44.3125 C 0 44.716507 1.4403958 45.03125 3.21875 45.03125 L 30.1875 45.03125 C 31.965854 45.03125 33.40625 44.716507 33.40625 44.3125 L 33.40625 32.6875 L 30.875 32.6875 L 30.875 36.28125 L 22.75 36.28125 L 22.75 32.28125 L 29.59375 32.28125 L 28.46875 30.90625 L 22.75 30.90625 L 22.75 29.40625 L 21.375 29.40625 L 21.375 30.90625 L 12.09375 30.90625 L 12.09375 29.40625 L 10.71875 29.40625 L 10.71875 30.90625 L 2.5625 30.90625 L 2.5625 26.90625 L 8.3125 26.90625 L 9.40625 25.53125 L 2.5625 25.53125 L 2.5625 20.21875 L 10.71875 20.21875 L 10.71875 23.875 L 12.09375 22.15625 L 12.09375 20.21875 L 13.625 20.21875 L 15.84375 17.4375 L 11.21875 11.84375 L 3.21875 11.84375 z M 2.5625 32.28125 L 10.71875 32.28125 L 10.71875 36.28125 L 2.5625 36.28125 L 2.5625 32.28125 z M 12.09375 32.28125 L 21.375 32.28125 L 21.375 36.28125 L 12.09375 36.28125 L 12.09375 32.28125 z M 2.5625 37.65625 L 10.71875 37.65625 L 10.71875 42.375 L 2.5625 42.375 L 2.5625 37.65625 z M 12.09375 37.65625 L 21.375 37.65625 L 21.375 42.375 L 12.09375 42.375 L 12.09375 37.65625 z M 22.75 37.65625 L 30.875 37.65625 L 30.875 42.375 L 22.75 42.375 L 22.75 37.65625 z "
   id="rect2988" /><path
   style="font-size:40px;font-style:normal;font-weight:normal;line-height:125%;letter-spacing:0px;word-spacing:0px;fill:#003366;fill-opacity:1;stroke:none;display:inline;font-family:Sans"
   d="m 14.324873,6.7674167 8.02536,0 5.58153,5.7818393 5.24088,-5.6858193 8.448286,0 -8.337616,10.6141123 10.174586,11.898031 -8.93709,0 -6.439326,-7.181499 -3.48124,3.91412 -8.85478,0.02542 7.72643,-8.284326 z"
   id="path3836"
   inkscape:connector-curvature="0"
   sodipodi:nodetypes="ccccccccccccc" /></svg>