<?xml version="1.0" encoding="utf-8"?>
<!-- Generator: Adobe Illustrator 15.0.0, SVG Export Plug-In . SVG Version: 6.00 Build 0)  -->
<!DOCTYPE svg PUBLIC "-//W3C//DTD SVG 1.1//EN" "http://www.w3.org/Graphics/SVG/1.1/DTD/svg11.dtd">
<svg version="1.1" id="Layer_1" xmlns="http://www.w3.org/2000/svg" xmlns:xlink="http://www.w3.org/1999/xlink" x="0px" y="0px"
	 width="48px" height="48px" viewBox="0 0 48 48" enable-background="new 0 0 48 48" xml:space="preserve">
<g>
	<path d="M31.986,10.024h8.984l-9.982-9.982v8.984C30.988,9.575,31.436,10.024,31.986,10.024"/>
	<path d="M28.992,11.023V0.042H4.035c-0.549,0-0.998,0.449-0.998,0.998v45.92c0,0.55,0.449,0.998,0.998,0.998h35.938
		c0.549,0,0.998-0.448,0.998-0.998v-6.987H13.019c-1.098,0-1.996-0.899-1.996-1.997v-9.982c0-1.098,0.898-1.996,1.996-1.996h27.952
		V12.021H29.99C29.439,12.021,28.992,11.572,28.992,11.023 M15.016,20.007H9.026v-5.99h5.989V20.007z M15.016,12.021H9.026V6.032
		h5.989V12.021z M23.002,20.007h-5.99v-5.99h5.99V20.007z M23.002,12.021h-5.99V6.032h5.99V12.021z"/>
	<rect x="19.009" y="8.028" width="1.997" height="1.996"/>
	<rect x="11.023" y="8.028" width="1.996" height="1.996"/>
	<polygon points="24.998,35.979 24.998,27.993 23.002,27.993 23.002,35.979 24.998,37.976 28.992,37.976 28.992,35.979 	"/>
	<rect x="15.016" y="27.993" width="1.997" height="3.993"/>
	<rect x="15.016" y="33.982" width="1.997" height="3.993"/>
	<rect x="19.009" y="33.982" width="1.997" height="3.993"/>
	<rect x="19.009" y="27.993" width="1.997" height="3.993"/>
	<rect x="17.012" y="31.986" width="1.997" height="1.996"/>
	<rect x="38.975" y="27.993" width="1.996" height="3.993"/>
	<rect x="38.975" y="33.982" width="1.996" height="3.993"/>
	<rect x="42.967" y="33.982" width="1.996" height="3.993"/>
	<rect x="42.967" y="27.993" width="1.996" height="3.993"/>
	<rect x="40.971" y="31.986" width="1.996" height="1.996"/>
	<polygon points="30.988,35.979 30.988,37.976 34.98,37.976 36.977,35.979 36.977,33.982 34.98,33.982 34.98,35.979 	"/>
	<rect x="32.984" y="31.986" width="1.996" height="1.996"/>
	<polygon points="30.988,29.99 30.988,31.986 32.984,31.986 32.984,29.99 36.977,29.99 36.977,27.993 32.984,27.993 	"/>
	<rect x="11.023" y="16.014" width="1.996" height="1.997"/>
	<rect x="19.009" y="16.014" width="1.999" height="1.997"/>
</g>
</svg>
