<?xml version="1.0" encoding="UTF-8" standalone="no"?>
<!-- Generator: Adobe Illustrator 15.0.0, SVG Export Plug-In . SVG Version: 6.00 Build 0)  -->

<svg
   xmlns:dc="http://purl.org/dc/elements/1.1/"
   xmlns:cc="http://creativecommons.org/ns#"
   xmlns:rdf="http://www.w3.org/1999/02/22-rdf-syntax-ns#"
   xmlns:svg="http://www.w3.org/2000/svg"
   xmlns="http://www.w3.org/2000/svg"
   xmlns:sodipodi="http://sodipodi.sourceforge.net/DTD/sodipodi-0.dtd"
   xmlns:inkscape="http://www.inkscape.org/namespaces/inkscape"
   version="1.1"
   id="Layer_1"
   x="0px"
   y="0px"
   width="48px"
   height="48px"
   viewBox="0 0 48 48"
   enable-background="new 0 0 48 48"
   xml:space="preserve"
   inkscape:version="0.48.2 r9819"
   sodipodi:docname="modif_xml2.svg"><metadata
   id="metadata23"><rdf:RDF><cc:Work
       rdf:about=""><dc:format>image/svg+xml</dc:format><dc:type
         rdf:resource="http://purl.org/dc/dcmitype/StillImage" /><dc:title /></cc:Work></rdf:RDF></metadata><defs
   id="defs21" /><sodipodi:namedview
   pagecolor="#ffffff"
   bordercolor="#666666"
   borderopacity="1"
   objecttolerance="10"
   gridtolerance="10"
   guidetolerance="10"
   inkscape:pageopacity="0"
   inkscape:pageshadow="2"
   inkscape:window-width="1920"
   inkscape:window-height="1020"
   id="namedview19"
   showgrid="false"
   inkscape:zoom="3.4766084"
   inkscape:cx="23.03928"
   inkscape:cy="7.8123325"
   inkscape:window-x="-4"
   inkscape:window-y="-4"
   inkscape:window-maximized="1"
   inkscape:current-layer="Layer_1" />

<path
   inkscape:connector-curvature="0"
   style="fill:#003366;fill-opacity:1;stroke:none"
   d="m 0.125,0.4375 0,47.5625 35.71875,0 0,-24.125 -21.6875,0 c -1.747346,0 -3.34005,-0.634188 -4.5625,-1.6875 l -1.875,0 0,-2.0625 0.25,0 C 7.4744923,19.17181 7.1875,18.090071 7.1875,16.9375 l 0,-9.78125 c 0,-3.2281901 2.1835729,-5.9285892 5.15625,-6.71875 l -12.21875,0 z m 3.03125,19.6875 1.84375,0 0,2.0625 -1.84375,0 0,-2.0625 z m 0,4.3125 1.84375,0 0,2.0625 -1.84375,0 0,-2.0625 z m 4.5625,0 25.09375,0 0,2.0625 -25.09375,0 0,-2.0625 z m -4.5625,4.34375 1.84375,0 0,2.03125 -1.84375,0 0,-2.03125 z m 4.5625,0 25.09375,0 0,2.03125 -25.09375,0 0,-2.03125 z m -4.5625,4.3125 1.84375,0 0,2.03125 -1.84375,0 0,-2.03125 z m 4.5625,0 25.09375,0 0,2.03125 -25.09375,0 0,-2.03125 z m -4.5625,4.3125 1.84375,0 0,2.0625 -1.84375,0 0,-2.0625 z m 4.5625,0 25.09375,0 0,2.0625 -25.09375,0 0,-2.0625 z m -4.5625,4.3125 1.84375,0 0,2.0625 -1.84375,0 0,-2.0625 z m 4.5625,0 25.09375,0 0,2.0625 -25.09375,0 0,-2.0625 z"
   id="rect4772" /><g
   id="g2994"><path
     inkscape:connector-curvature="0"
     id="path3838"
     d="m 14.158789,0 c -3.92181,0 -7.0644,3.294889 -7.0644,7.406784 l 0,10.447125 c 0,4.111902 3.14259,7.406782 7.0644,7.406782 l 26.745971,0 C 44.82657,25.260691 48,21.965811 48,17.853909 L 48,7.406784 C 48,3.294889 44.82657,0 40.90476,0 L 14.158789,0 z m 0.86377,1.326106 25.049281,0 c 3.67571,0 6.6325,2.954575 6.6325,6.630527 l 0,9.347427 c 0,3.675952 -2.95679,6.630531 -6.6325,6.630531 l -25.049281,0 c -3.67571,0 -6.6325,-2.954579 -6.6325,-6.630531 l 0,-9.347427 c 0,-3.675952 2.95679,-6.630527 6.6325,-6.630527 z"
     style="fill:#003366;fill-opacity:1;stroke:none;display:inline" /><g
     transform="translate(-8.452802,-85.606979)"
     id="g4064"><path
       inkscape:connector-curvature="0"
       d="m 21.344363,103.1596 3.443125,-5.137169 -3.120119,-4.707382 2.377889,0 2.020517,3.162878 1.979283,-3.162878 2.357273,0 -3.133867,4.781282 3.443129,5.063269 -2.453486,0 -2.233567,-3.404615 -2.240438,3.404615 z"
       style="font-size:4.61814928px;font-style:normal;font-weight:bold;line-height:125%;letter-spacing:0px;word-spacing:0px;fill:#003366;fill-opacity:1;stroke:none;font-family:Sans;-inkscape-font-specification:Sans Bold"
       id="path6219" /><path
       inkscape:connector-curvature="0"
       d="m 31.74247,103.1596 0,-9.844551 3.044523,0 1.828086,6.715261 1.807473,-6.715261 3.051395,0 0,9.844551 -1.889943,0 0,-7.749362 -1.999901,7.749362 -1.958664,0 -1.99303,-7.749362 0,7.749362 z"
       style="font-size:4.61814928px;font-style:normal;font-weight:bold;line-height:125%;letter-spacing:0px;word-spacing:0px;fill:#003366;fill-opacity:1;stroke:none;font-family:Sans;-inkscape-font-specification:Sans Bold"
       id="path6221" /><path
       inkscape:connector-curvature="0"
       d="m 43.563189,103.1596 0,-9.763963 2.034261,0 0,8.105313 5.05818,0 0,1.65865 z"
       style="font-size:4.61814928px;font-style:normal;font-weight:bold;line-height:125%;letter-spacing:0px;word-spacing:0px;fill:#003366;fill-opacity:1;stroke:none;font-family:Sans;-inkscape-font-specification:Sans Bold"
       id="path6223" /></g></g></svg>