<?xml version="1.0" encoding="UTF-8" standalone="no"?>
<!-- Generator: Adobe Illustrator 15.0.0, SVG Export Plug-In . SVG Version: 6.00 Build 0)  -->

<svg
   xmlns:dc="http://purl.org/dc/elements/1.1/"
   xmlns:cc="http://creativecommons.org/ns#"
   xmlns:rdf="http://www.w3.org/1999/02/22-rdf-syntax-ns#"
   xmlns:svg="http://www.w3.org/2000/svg"
   xmlns="http://www.w3.org/2000/svg"
   xmlns:sodipodi="http://sodipodi.sourceforge.net/DTD/sodipodi-0.dtd"
   xmlns:inkscape="http://www.inkscape.org/namespaces/inkscape"
   version="1.1"
   id="Layer_1"
   x="0px"
   y="0px"
   width="48px"
   height="48px"
   viewBox="0 0 48 48"
   enable-background="new 0 0 48 48"
   xml:space="preserve"
   inkscape:version="0.48.2 r9819"
   sodipodi:docname="_table2.svg"><metadata
   id="metadata23"><rdf:RDF><cc:Work
       rdf:about=""><dc:format>image/svg+xml</dc:format><dc:type
         rdf:resource="http://purl.org/dc/dcmitype/StillImage" /><dc:title></dc:title></cc:Work></rdf:RDF></metadata><defs
   id="defs21" /><sodipodi:namedview
   pagecolor="#ffffff"
   bordercolor="#666666"
   borderopacity="1"
   objecttolerance="10"
   gridtolerance="10"
   guidetolerance="10"
   inkscape:pageopacity="0"
   inkscape:pageshadow="2"
   inkscape:window-width="868"
   inkscape:window-height="554"
   id="namedview19"
   showgrid="false"
   inkscape:zoom="4.9166667"
   inkscape:cx="24"
   inkscape:cy="20.12"
   inkscape:window-x="912"
   inkscape:window-y="331"
   inkscape:window-maximized="0"
   inkscape:current-layer="Layer_1" />

<g
   style="display:inline"
   id="g15131"
   inkscape:export-xdpi="300"
   inkscape:export-ydpi="300"
   transform="matrix(2.9830611,0,0,2.9830508,1094.7252,-3539.4115)"
   inkscape:export-filename="C:\Documents and Settings\jhernandez\Mis documentos\imagenCorp\iconos\iconos_jorge\ico_web\todos.png"><g
     id="g7832"
     transform="translate(7.6293945e-6,40)"><rect
       style="fill:#0058b0;fill-opacity:1;fill-rule:nonzero;stroke:none"
       id="rect7834"
       width="16"
       height="16"
       x="-366.93506"
       y="1146.5527"
       rx="1.3175305"
       ry="1.3175305" /><path
       inkscape:connector-curvature="0"
       id="path7836"
       d="m -366.10175,1149.7325 7.03947,0 0,1.2722 -1.9507,0 2.67161,3.4067 2.13446,-1.9507 -1.58317,-0.5513 0,-0.9047 6.07826,0 0,0.8764 -2.04965,0.4523 -3.46319,3.4915 0,2.4596 1.97896,0 0,1.0884 -7.33632,0 0,-1.357 2.1486,0 0,-2.2475 -4.00035,-4.7213 -1.72453,0 z"
       style="fill:#ffffff;fill-opacity:1;stroke:none" /></g><g
     transform="translate(7.6293945e-6,40)"
     id="g7942"><rect
       ry="1.3175305"
       rx="1.3175305"
       y="1146.5527"
       x="-366.93506"
       height="16"
       width="16"
       id="rect7944"
       style="fill:#0058b0;fill-opacity:1;fill-rule:nonzero;stroke:none" /><path
       style="fill:#ffffff;fill-opacity:1;stroke:none"
       d="m -366.10175,1149.7325 7.03947,0 0,1.2722 -1.9507,0 2.67161,3.4067 2.13446,-1.9507 -1.58317,-0.5513 0,-0.9047 6.07826,0 0,0.8764 -2.04965,0.4523 -3.46319,3.4915 0,2.4596 1.97896,0 0,1.0884 -7.33632,0 0,-1.357 2.1486,0 0,-2.2475 -4.00035,-4.7213 -1.72453,0 z"
       id="path7946"
       inkscape:connector-curvature="0" /></g><g
     transform="translate(7.6293945e-6,40)"
     id="g8052"><rect
       ry="1.3175305"
       rx="1.3175305"
       y="1146.5527"
       x="-366.93506"
       height="16"
       width="16"
       id="rect8054"
       style="fill:#0058b0;fill-opacity:1;fill-rule:nonzero;stroke:none" /><path
       style="fill:#ffffff;fill-opacity:1;stroke:none"
       d="m -366.10175,1149.7325 7.03947,0 0,1.2722 -1.9507,0 2.67161,3.4067 2.13446,-1.9507 -1.58317,-0.5513 0,-0.9047 6.07826,0 0,0.8764 -2.04965,0.4523 -3.46319,3.4915 0,2.4596 1.97896,0 0,1.0884 -7.33632,0 0,-1.357 2.1486,0 0,-2.2475 -4.00035,-4.7213 -1.72453,0 z"
       id="path8056"
       inkscape:connector-curvature="0" /></g><g
     id="g8162"
     transform="translate(7.6293945e-6,40)"><rect
       style="fill:#0058b0;fill-opacity:1;fill-rule:nonzero;stroke:none"
       id="rect8164"
       width="16"
       height="16"
       x="-366.93506"
       y="1146.5527"
       rx="1.3175305"
       ry="1.3175305" /><path
       inkscape:connector-curvature="0"
       id="path8166"
       d="m -366.10175,1149.7325 7.03947,0 0,1.2722 -1.9507,0 2.67161,3.4067 2.13446,-1.9507 -1.58317,-0.5513 0,-0.9047 6.07826,0 0,0.8764 -2.04965,0.4523 -3.46319,3.4915 0,2.4596 1.97896,0 0,1.0884 -7.33632,0 0,-1.357 2.1486,0 0,-2.2475 -4.00035,-4.7213 -1.72453,0 z"
       style="fill:#ffffff;fill-opacity:1;stroke:none" /></g><g
     transform="translate(7.6293945e-6,40)"
     id="g8272"><rect
       ry="1.3175305"
       rx="1.3175305"
       y="1146.5527"
       x="-366.93506"
       height="16"
       width="16"
       id="rect8274"
       style="fill:#0058b0;fill-opacity:1;fill-rule:nonzero;stroke:none" /><path
       style="fill:#ffffff;fill-opacity:1;stroke:none"
       d="m -366.10175,1149.7325 7.03947,0 0,1.2722 -1.9507,0 2.67161,3.4067 2.13446,-1.9507 -1.58317,-0.5513 0,-0.9047 6.07826,0 0,0.8764 -2.04965,0.4523 -3.46319,3.4915 0,2.4596 1.97896,0 0,1.0884 -7.33632,0 0,-1.357 2.1486,0 0,-2.2475 -4.00035,-4.7213 -1.72453,0 z"
       id="path8276"
       inkscape:connector-curvature="0" /></g><g
     id="g8382"
     transform="translate(7.6293945e-6,40)"><rect
       style="fill:#0058b0;fill-opacity:1;fill-rule:nonzero;stroke:none"
       id="rect8384"
       width="16"
       height="16"
       x="-366.93506"
       y="1146.5527"
       rx="1.3175305"
       ry="1.3175305" /><path
       inkscape:connector-curvature="0"
       id="path8386"
       d="m -366.10175,1149.7325 7.03947,0 0,1.2722 -1.9507,0 2.67161,3.4067 2.13446,-1.9507 -1.58317,-0.5513 0,-0.9047 6.07826,0 0,0.8764 -2.04965,0.4523 -3.46319,3.4915 0,2.4596 1.97896,0 0,1.0884 -7.33632,0 0,-1.357 2.1486,0 0,-2.2475 -4.00035,-4.7213 -1.72453,0 z"
       style="fill:#ffffff;fill-opacity:1;stroke:none" /></g><rect
     ry="1.3175305"
     rx="1.3175305"
     y="1186.5527"
     x="-366.93506"
     height="16"
     width="16"
     id="rect8494"
     style="fill:#003366;fill-opacity:1;fill-rule:nonzero;stroke:none" /><path
     style="fill:#ffffff;fill-opacity:1;stroke:none"
     d="m -366.10174,1189.7325 7.03947,0 0,1.2722 -1.9507,0 2.67161,3.4067 2.13446,-1.9507 -1.58317,-0.5513 0,-0.9047 6.07826,0 0,0.8764 -2.04965,0.4523 -3.46319,3.4915 0,2.4596 1.97896,0 0,1.0884 -7.33632,0 0,-1.357 2.1486,0 0,-2.2475 -4.00035,-4.7213 -1.72453,0 z"
     id="path8496"
     inkscape:connector-curvature="0" /></g></svg>